<svg width="24" height="24" viewBox="0 0 24 24" fill="none" xmlns="http://www.w3.org/2000/svg">
<path d="M12.7 5.00019C12.7 4.61359 12.3866 4.30019 12 4.30019C11.6134 4.30019 11.3 4.61359 11.3 5.00019H12.7ZM12 12.0002H11.3C11.3 12.3868 11.6134 12.7002 12 12.7002V12.0002ZM19 12.7002C19.3866 12.7002 19.7 12.3868 19.7 12.0002C19.7 11.6136 19.3866 11.3002 19 11.3002V12.7002ZM5 12.0002L4.3 12.0001L5 12.0002ZM10.6348 5.1351L10.7713 5.82166L10.6348 5.1351ZM18.4673 9.32231L19.1141 9.05447L18.4673 9.32231ZM15.8887 17.8212L16.2775 18.4032L15.8887 17.8212ZM7.05 16.9502L7.545 16.4552H7.545L7.05 16.9502ZM11.3 5.00019V12.0002H12.7V5.00019H11.3ZM12 12.7002H19V11.3002H12V12.7002ZM5.7 12.0002C5.70022 8.99468 7.8235 6.40782 10.7713 5.82166L10.4983 4.44855C6.89539 5.16496 4.30027 8.32668 4.3 12.0001L5.7 12.0002ZM10.7713 5.82166C13.7192 5.23551 16.6706 6.8133 17.8206 9.59015L19.1141 9.05447C17.7085 5.66055 14.1012 3.73213 10.4983 4.44855L10.7713 5.82166ZM17.8206 9.59015C18.9706 12.367 17.9989 15.5695 15.4998 17.2391L16.2775 18.4032C19.332 16.3626 20.5196 12.4484 19.1141 9.05447L17.8206 9.59015ZM15.4998 17.2391C13.0007 18.9088 9.67014 18.5806 7.545 16.4552L6.555 17.4451C9.15239 20.0428 13.223 20.4439 16.2775 18.4032L15.4998 17.2391ZM7.545 16.4552C6.36355 15.2737 5.69988 13.6711 5.7 12.0002L4.3 12.0001C4.29985 14.0424 5.111 16.001 6.555 17.4451L7.545 16.4552Z" fill="white"/>
</svg>
