<svg width="204" height="110" viewBox="0 0 204 110" fill="none" xmlns="http://www.w3.org/2000/svg">
<mask id="mask0_403_2713" style="mask-type:alpha" maskUnits="userSpaceOnUse" x="0" y="0" width="204" height="110">
<rect width="204" height="110" rx="4" fill="#D9D9D9"/>
</mask>
<g mask="url(#mask0_403_2713)">
<g opacity="0.5">
<g opacity="0.4">
<g style="mix-blend-mode:multiply">
<path d="M170.824 37.3822L183.935 45.1927L202.318 36.8258L184.988 28.9381L170.824 37.3771V37.3822ZM168.557 14.8679V32.3848L179.786 25.5223L180.235 25.0895L181.234 24.5022L183.775 3.15223L168.557 14.8731V14.8679ZM166.061 107.985C164.543 107.985 163.564 106.744 163.564 105.095V87.2074L150.458 96.7026C149.979 97.0632 149.295 97.259 148.641 97.259C147.627 97.259 146.649 96.8004 146.135 96.0689C145.266 94.8324 145.73 93.024 147.053 92.0297L163.569 80.0461V65.131L144.607 79.0105C144.132 79.3712 143.379 79.5721 142.63 79.5721C142.02 79.5721 141.426 79.433 141.007 79.1857C140.048 78.6138 139.489 77.5061 139.609 76.3727L141.896 54.6312L130.827 61.2258L128.76 81.5093C128.61 82.9827 127.412 84.1007 125.979 84.1007C125.879 84.1007 125.779 84.0956 125.679 84.0853C124.935 84.0028 124.266 83.6267 123.797 83.0291C123.328 82.4315 123.108 81.6741 123.188 80.9065L124.83 64.8013L109.802 73.7555C109.378 74.0079 108.893 74.1419 108.404 74.1419C107.406 74.1419 106.472 73.5855 105.973 72.6942C105.199 71.3134 105.658 69.5411 106.996 68.7477L122.029 59.7935L107.73 53.2917C106.317 52.6425 105.703 50.9836 106.337 49.5152C106.801 48.4436 107.81 47.7481 108.913 47.7481C109.288 47.7481 109.652 47.8305 110.002 47.9902L128.026 56.2232L140.023 49.0722L118.959 39.4894C117.945 39.0257 117.286 37.9902 117.286 36.8464C117.286 35.7027 117.94 34.662 118.959 34.2034L138.975 25.0947L128.056 18.5928L110.002 26.8876C109.637 27.0524 109.258 27.14 108.863 27.14C107.755 27.14 106.752 26.4651 106.302 25.4244C105.998 24.7186 105.978 23.9355 106.247 23.2142C106.517 22.4929 107.041 21.921 107.725 21.6068L122.059 15.0225L107.031 6.06827C105.693 5.26971 105.234 3.49741 106.008 2.11667C106.507 1.22537 107.436 0.668953 108.439 0.668953C108.928 0.668953 109.413 0.802902 109.837 1.05535L124.87 10.0096L123.183 -6.01837C123.103 -6.78086 123.318 -7.52791 123.782 -8.11524C124.246 -8.70257 124.91 -9.07351 125.659 -9.15079C125.764 -9.1611 125.869 -9.16625 125.969 -9.16625C127.422 -9.16625 128.63 -8.07917 128.78 -6.63661L130.897 13.5851L142.08 20.226L139.724 -2.69016C139.609 -3.77724 140.213 -4.90553 141.222 -5.50832C141.641 -5.75561 142.17 -5.89472 142.714 -5.89472C143.379 -5.89472 144.147 -5.69379 144.617 -5.3383L163.584 8.54639V-5.1992L147.138 -17.1879C146.504 -17.6619 145.975 -18.3729 145.785 -19.1251C145.595 -19.8927 145.685 -20.6346 146.1 -21.222C146.624 -21.969 147.513 -22.4121 148.501 -22.4121C149.135 -22.4121 149.854 -22.2163 150.328 -21.8608L163.584 -12.3708V-30.2535C163.584 -31.9021 164.563 -33.1437 166.081 -33.1437C167.598 -33.1437 168.577 -31.9021 168.577 -30.2535V-12.3244L181.004 -21.866C181.478 -22.2215 182.038 -22.4121 182.572 -22.4121C183.376 -22.4121 184.13 -21.9896 184.674 -21.222C185.128 -20.578 185.353 -19.7794 185.288 -19.0324C185.218 -18.275 184.819 -17.6207 184.239 -17.1828L168.582 -5.18889V7.72722L185.602 -5.3383C186.087 -5.70409 186.611 -5.89472 187.1 -5.89472C187.51 -5.89472 187.949 -5.76592 188.383 -5.50832C189.342 -4.93644 189.891 -3.82876 189.776 -2.69016L187.29 20.9267L199.587 13.6005L201.674 -6.64691C201.824 -8.10493 203.022 -9.19716 204.47 -9.19716C204.57 -9.19716 204.675 -9.19201 204.775 -9.1817C205.519 -9.09927 206.188 -8.72833 206.652 -8.13585C207.116 -7.54336 207.331 -6.79632 207.256 -6.02867L205.583 10.0302L220.617 1.07596C221.041 0.823513 221.525 0.68956 222.015 0.68956C223.013 0.68956 223.947 1.24598 224.446 2.13728C225.22 3.51802 224.761 5.29031 223.423 6.08372L208.394 15.0379L222.714 21.5913C223.398 21.9056 223.917 22.4723 224.182 23.1884C224.446 23.9045 224.426 24.6877 224.122 25.3935C223.667 26.4496 222.659 27.1297 221.555 27.1297C221.171 27.1297 220.791 27.0473 220.437 26.8824L202.393 18.6083L191.035 25.378L210.426 34.2034C211.44 34.6671 212.099 35.7027 212.099 36.8464C212.099 37.9902 211.445 39.0309 210.426 39.4894L189.981 48.7939L202.423 56.2077L220.457 47.949C220.811 47.7841 221.186 47.7069 221.565 47.7069C222.669 47.7069 223.677 48.3921 224.137 49.4534C224.771 50.9269 224.152 52.591 222.729 53.2453L208.419 59.7781L223.453 68.7323C224.102 69.1187 224.566 69.7421 224.756 70.4891C224.95 71.2361 224.851 72.0141 224.476 72.6838C223.977 73.5751 223.048 74.1316 222.05 74.1316C221.56 74.1316 221.076 73.9976 220.652 73.7452L205.623 64.791L207.286 80.8652C207.366 81.6329 207.151 82.38 206.682 82.9776C206.213 83.5752 205.549 83.9462 204.805 84.0234C204.705 84.0337 204.605 84.0389 204.505 84.0389C203.067 84.0389 201.869 82.9364 201.719 81.4732L199.652 61.2155L187.465 53.9408L189.871 76.383C189.996 77.5628 189.497 78.6447 188.563 79.196C188.129 79.4536 187.684 79.5824 187.23 79.5824C186.691 79.5824 186.097 79.3866 185.612 79.0208L168.597 65.9553V80.0409L184.359 92.0297C185.098 92.5861 185.323 93.3383 185.368 93.8741C185.423 94.6211 185.208 95.4197 184.749 96.074C184.214 96.8314 183.436 97.2641 182.602 97.2641C182.048 97.2641 181.458 97.0735 180.974 96.7129L168.597 87.1713V105.1C168.597 106.749 167.618 107.991 166.101 107.991L166.061 107.985ZM168.557 58.7992L183.85 70.5097L181.498 50.3653L179.756 49.2422L168.557 42.39V58.7992ZM151.492 49.237L147.942 51.0248L146.474 70.4273L163.559 57.9542V42.4054L151.487 49.237H151.492ZM127.022 36.831L146.03 45.4812L159.615 37.3874L144.976 28.665L127.022 36.8361V36.831ZM148.356 23.7861L150.463 25.1204L151.572 25.5738L163.564 32.3642V15.7128L146.424 3.2192L148.356 23.7861Z" fill="#B3B3B3"/>
</g>
<path d="M224.306 67.5834L210.281 59.2269L223.532 53.1784C225.245 52.3901 225.999 50.3499 225.24 48.5828C224.476 46.8156 222.494 45.9862 220.781 46.7693L203.022 54.8992L191.848 48.2428L211.225 39.4225C212.453 38.8609 213.247 37.6038 213.247 36.2179C213.247 34.8321 212.453 33.575 211.225 33.0134L192.896 24.6723L198.483 21.3441L202.987 18.6599L220.756 26.8052C222.469 27.5935 224.461 26.7743 225.22 25.0071C225.984 23.24 225.22 21.1895 223.507 20.4012L210.246 14.3322L224.271 5.9756C225.894 5.00702 226.448 2.86893 225.514 1.19453C224.576 -0.479877 222.504 -1.05175 220.881 -0.0883255L206.856 8.26825L208.404 -6.59532C208.599 -8.51702 207.261 -10.2172 205.398 -10.4181C203.536 -10.619 201.844 -9.26407 201.649 -7.34236L199.592 12.5959L195.088 15.2801L188.568 19.1648L190.929 -3.25681C191.074 -4.63755 190.415 -5.97193 189.252 -6.66745C188.088 -7.36297 187.055 -7.28054 185.972 -6.46137L170.055 5.87771V-5.51855L185.312 -17.3218C186.83 -18.4604 186.885 -20.65 185.787 -22.2111C184.683 -23.7773 182.921 -24.1225 181.408 -22.9839L170.055 -14.1688V-30.8768C170.055 -32.8088 168.682 -34.375 166.809 -34.375C164.937 -34.375 163.564 -32.8088 163.564 -30.8768V-14.1688L151.242 -22.9839C149.724 -24.1225 147.322 -23.7721 146.219 -22.2111C145.116 -20.65 145.88 -18.4553 147.392 -17.3218L163.564 -5.51855V6.73294L145.535 -6.46137C144.452 -7.27539 142.719 -7.36297 141.551 -6.66745C140.388 -5.97193 139.589 -4.63755 139.733 -3.25681L141.95 18.4692L132.025 12.5753L129.938 -7.33722C129.743 -9.25892 128.03 -10.5933 126.168 -10.3924C124.306 -10.1914 122.973 -8.50672 123.167 -6.58502L124.73 8.24764L110.705 -0.108932C109.083 -1.07751 107.006 -0.500484 106.072 1.17392C105.134 2.84833 105.693 4.99157 107.315 5.95499L121.34 14.3116L108.064 20.4116C106.352 21.1998 105.583 23.2658 106.347 25.0329C107.111 26.8001 109.113 27.5935 110.825 26.8052L128.605 18.6341L138.251 24.3838L119.303 33.0082C118.075 33.5698 117.281 34.8217 117.281 36.2128C117.281 37.6038 118.075 38.8558 119.303 39.4173L139.304 48.5158L128.575 54.9095L110.83 46.8002C109.118 46.0119 107.146 46.8672 106.387 48.6343C105.623 50.4014 106.372 52.4313 108.084 53.2144L121.315 59.232L107.29 67.5886C105.668 68.5572 105.114 70.6952 106.047 72.3697C106.981 74.0441 109.058 74.6159 110.681 73.6525L124.705 65.2959L123.187 80.211C122.993 82.1327 124.346 83.8587 126.208 84.0596C128.07 84.2605 129.743 82.8643 129.938 80.9426L131.97 60.9682L141.766 55.131L139.599 75.6772C139.454 77.058 140.113 78.3924 141.276 79.0879C142.44 79.7834 144.457 79.701 145.54 78.8818L163.569 65.6875V79.1033L147.283 90.9066C145.765 92.0452 145.176 94.2348 146.274 95.7959C147.377 97.3621 149.904 97.7073 151.417 96.5687L163.564 87.7536V104.462C163.564 106.394 164.937 107.96 166.809 107.96C168.682 107.96 170.055 106.394 170.055 104.462V87.7536L181.338 96.5687C182.856 97.7073 184.738 97.3569 185.842 95.7959C186.945 94.2297 186.96 92.0401 185.447 90.9066L170.055 79.1033V66.5427L185.972 78.8818C187.06 79.701 188.298 79.7834 189.461 79.0879C190.625 78.3924 191.179 77.058 191.034 75.6772L188.743 54.4303L199.652 60.9425L201.684 80.8911C201.878 82.8128 203.556 84.1832 205.418 83.9823C207.281 83.7814 208.624 82.0709 208.424 80.1492L206.886 65.265L220.911 73.6216C222.534 74.5902 224.606 74.0131 225.544 72.3387C226.483 70.6643 225.924 68.5211 224.301 67.5577L224.306 67.5834ZM184.564 43.9048L172.596 36.7744L183.88 30.051L185.617 29.0154L201.449 36.2179L184.564 43.8996V43.9048ZM181.288 23.5131L180.489 23.9922L180.175 24.4301L170.06 30.7053V14.5692L183.775 3.89418L181.288 23.5182V23.5131ZM147.737 3.88903L163.564 15.4192V30.7259L152.4 24.4147L151.382 23.9767L149.584 22.8227L147.732 3.89418L147.737 3.88903ZM129.079 36.2231L145.535 28.7372L147.712 30.0355L159.026 36.7744L146.584 44.1881L129.079 36.2231ZM149.04 50.8085L152.37 49.1598L163.564 42.828V57.0269L147.732 68.5572L149.04 50.8085ZM170.055 57.8822V42.8486L180.2 49.1392L181.618 50.1078L183.875 68.5572L170.055 57.8822Z" fill="white"/>
<path d="M223.717 68.1914L209.692 59.8348L222.943 53.7863C224.656 52.9981 225.41 50.9579 224.651 49.1907C223.887 47.4236 221.905 46.5941 220.192 47.3772L202.433 55.5071L191.259 48.8507L210.636 40.0304C211.864 39.4689 212.658 38.2169 212.658 36.8259C212.658 35.44 211.864 34.1829 210.636 33.6213L192.308 25.2802L197.894 21.952L202.398 19.2678L220.167 27.4131C221.88 28.2014 223.872 27.3822 224.631 25.6151C225.395 23.8479 224.631 21.7974 222.918 21.0092L209.657 14.9401L223.682 6.58354C225.305 5.61496 225.859 3.47687 224.925 1.80246C223.987 0.128059 221.915 -0.443817 220.292 0.519611L206.267 8.87618L207.815 -5.98739C208.01 -7.90909 206.672 -9.60925 204.809 -9.81018C202.947 -10.0111 201.255 -8.65613 201.06 -6.73443L199.003 13.2039L194.499 15.8881L187.979 19.7727L190.34 -2.65403C190.485 -4.03477 189.826 -5.36914 188.663 -6.06467C187.5 -6.76019 186.261 -6.67776 185.178 -5.85859L169.056 6.4805V-4.91577L184.519 -16.719C186.037 -17.8576 186.196 -20.0472 185.093 -21.6083C183.99 -23.1745 182.077 -23.5197 180.56 -22.3811L169.051 -13.566V-30.274C169.051 -32.206 167.678 -33.7722 165.806 -33.7722C163.934 -33.7722 162.561 -32.206 162.561 -30.274V-13.566L150.443 -22.3811C148.925 -23.5197 146.624 -23.1694 145.525 -21.6083C144.422 -20.0421 145.031 -17.8525 146.549 -16.719L162.566 -4.91577V7.33573L144.741 -5.85859C143.658 -6.67261 142.025 -6.76019 140.862 -6.06467C139.699 -5.36914 138.95 -4.03477 139.095 -2.65403L141.336 19.072L131.426 13.1781L129.344 -6.73443C129.149 -8.65613 127.436 -9.9905 125.574 -9.78957C123.712 -9.58865 122.379 -7.90394 122.574 -5.98223L124.136 8.85042L110.112 0.493851C108.489 -0.474728 106.412 0.102299 105.478 1.7767C104.54 3.45111 105.099 5.59435 106.721 6.55777L120.746 14.9143L107.47 21.0143C105.758 21.8026 104.989 23.8686 105.753 25.6357C106.517 27.4028 108.519 28.1963 110.231 27.408L128.011 19.2369L137.657 24.9865L118.709 33.611C117.481 34.1726 116.687 35.4245 116.687 36.8156C116.687 38.2066 117.481 39.4586 118.709 40.0201L138.71 49.1186L127.981 55.5122L110.236 47.403C108.524 46.6147 106.552 47.4699 105.793 49.2371C105.029 51.0042 105.778 53.0341 107.49 53.8172L120.721 59.8348L106.697 68.1914C105.074 69.1599 104.52 71.298 105.453 72.9724C106.387 74.6468 108.464 75.2187 110.087 74.2553L124.111 65.8987L122.593 80.8138C122.399 82.7355 123.752 84.4614 125.614 84.6624C127.476 84.8633 129.149 83.4671 129.344 81.5454L131.376 61.571L141.172 55.7338L139.005 76.28C138.86 77.6608 139.519 78.9951 140.682 79.6907C141.846 80.3862 143.658 80.3038 144.741 79.4846L162.566 66.2903V79.7061L146.484 91.5094C144.966 92.648 144.477 94.8376 145.58 96.3987C146.684 97.9649 149.055 98.31 150.573 97.1714L162.566 88.3564V105.064C162.566 106.996 163.939 108.563 165.811 108.563C167.683 108.563 169.056 106.996 169.056 105.064V88.3564L180.545 97.1714C182.062 98.31 184.045 97.9597 185.148 96.3987C186.251 94.8324 186.117 92.6428 184.599 91.5094L169.056 79.7061V67.1455L185.178 79.4846C186.266 80.3038 187.609 80.3862 188.773 79.6907C189.936 78.9951 190.54 77.6608 190.395 76.28L188.129 55.0331L199.048 61.5453L201.09 81.4939C201.285 83.4156 202.967 84.786 204.829 84.5851C206.692 84.3841 208.035 82.6737 207.84 80.752L206.302 65.8678L220.327 74.2244C221.95 75.193 224.027 74.6159 224.96 72.9415C225.899 71.2671 225.34 69.1239 223.717 68.1605V68.1914ZM183.975 44.5127L172.007 37.3823L183.291 30.6589L185.028 29.6234L200.86 36.8259L183.975 44.5075V44.5127ZM180.699 24.121L179.901 24.6001L179.381 25.0381L169.061 31.3132V15.1771L182.981 4.50212L180.699 24.1262V24.121ZM146.943 4.49697L162.571 16.0272V31.3338L151.611 25.0226L150.698 24.5847L148.85 23.4306L146.948 4.50212L146.943 4.49697ZM128.49 36.831L144.946 29.3451L147.123 30.6435L158.437 37.3823L145.995 44.7961L128.49 36.831ZM148.451 51.4164L151.577 49.7677L162.566 43.4359V57.6349L146.938 69.1651L148.446 51.4164H148.451ZM169.056 58.4901V43.4565L179.406 49.7471L180.929 50.7157L183.031 69.1651L169.056 58.4901Z" fill="#7489E0"/>
</g>
<g opacity="0.3">
<g style="mix-blend-mode:multiply">
<path d="M91.6399 99.4214L98.1412 103.294L107.257 99.1455L98.6636 95.2342L91.6399 99.4188V99.4214ZM90.5159 88.2573V96.9433L96.0839 93.5404L96.3067 93.3258L96.8018 93.0346L98.062 82.4478L90.5159 88.2598V88.2573ZM89.278 134.431C88.5254 134.431 88.0401 133.816 88.0401 132.998V124.128L81.5413 128.836C81.3036 129.015 80.9644 129.112 80.6401 129.112C80.1375 129.112 79.6523 128.885 79.3973 128.522C78.9665 127.909 79.1967 127.012 79.8528 126.519L88.0426 120.577V113.181L78.6397 120.064C78.4045 120.242 78.0306 120.342 77.6593 120.342C77.3572 120.342 77.0626 120.273 76.8547 120.15C76.3793 119.867 76.102 119.318 76.1615 118.756L77.2953 107.975L71.8066 111.245L70.7816 121.303C70.7074 122.033 70.1132 122.588 69.4026 122.588C69.3531 122.588 69.3036 122.585 69.2541 122.58C68.8852 122.539 68.5535 122.353 68.3207 122.056C68.088 121.76 67.9791 121.384 68.0187 121.004L68.8332 113.018L61.3812 117.458C61.1708 117.583 60.9306 117.649 60.688 117.649C60.1928 117.649 59.7299 117.373 59.4823 116.931C59.0986 116.247 59.3263 115.368 59.9898 114.975L67.4443 110.534L60.3538 107.31C59.6531 106.988 59.3486 106.166 59.663 105.438C59.8933 104.906 60.3934 104.561 60.9405 104.561C61.1262 104.561 61.3069 104.602 61.4802 104.682L70.4177 108.764L76.3669 105.218L65.9217 100.466C65.4192 100.236 65.0924 99.7228 65.0924 99.1557C65.0924 98.5886 65.4167 98.0725 65.9217 97.8451L75.847 93.3284L70.4326 90.1043L61.4802 94.2174C61.2995 94.2992 61.1113 94.3426 60.9158 94.3426C60.3661 94.3426 59.8685 94.0079 59.6457 93.4919C59.4947 93.1419 59.4848 92.7536 59.6185 92.3959C59.7522 92.0382 60.0121 91.7547 60.3513 91.5988L67.4592 88.3339L60.0072 83.8938C59.3437 83.4978 59.1159 82.619 59.4996 81.9343C59.7472 81.4924 60.2077 81.2165 60.7053 81.2165C60.9479 81.2165 61.1881 81.2829 61.3985 81.4081L68.853 85.8482L68.0162 77.9004C67.9766 77.5223 68.0831 77.1519 68.3133 76.8607C68.5436 76.5694 68.8728 76.3855 69.2442 76.3472C69.2962 76.342 69.3482 76.3395 69.3977 76.3395C70.1181 76.3395 70.7173 76.8785 70.7915 77.5939L71.8413 87.6211L77.387 90.9142L76.2184 79.5508C76.1615 79.0117 76.461 78.4522 76.9611 78.1533C77.1691 78.0307 77.4315 77.9617 77.7014 77.9617C78.0306 77.9617 78.4119 78.0614 78.6446 78.2377L88.05 85.1226V78.3066L79.8949 72.3618C79.5805 72.1268 79.318 71.7742 79.224 71.4012C79.1299 71.0206 79.1744 70.6527 79.3799 70.3615C79.6399 69.991 80.0806 69.7713 80.5708 69.7713C80.8852 69.7713 81.2417 69.8684 81.4769 70.0447L88.05 74.7505V65.883C88.05 65.0655 88.5353 64.4498 89.2879 64.4498C90.0405 64.4498 90.5258 65.0655 90.5258 65.883V74.7735L96.6879 70.0421C96.9231 69.8658 97.2004 69.7713 97.4653 69.7713C97.8639 69.7713 98.2378 69.9808 98.5076 70.3615C98.7329 70.6808 98.8443 71.0768 98.8121 71.4472C98.7775 71.8228 98.5794 72.1472 98.2922 72.3643L90.5283 78.3117V84.7164L98.9681 78.2377C99.2083 78.0563 99.4682 77.9617 99.7108 77.9617C99.9138 77.9617 100.132 78.0256 100.347 78.1533C100.822 78.4369 101.095 78.9862 101.038 79.5508L99.8049 91.2616L105.903 87.6288L106.938 77.5888C107.012 76.8658 107.606 76.3242 108.324 76.3242C108.373 76.3242 108.425 76.3267 108.475 76.3318C108.844 76.3727 109.176 76.5566 109.406 76.8504C109.636 77.1442 109.743 77.5147 109.705 77.8953L108.876 85.8584L116.331 81.4183C116.541 81.2931 116.781 81.2267 117.024 81.2267C117.519 81.2267 117.982 81.5026 118.229 81.9445C118.613 82.6292 118.385 83.508 117.722 83.9015L110.27 88.3416L117.37 91.5912C117.71 91.747 117.967 92.028 118.098 92.3831C118.229 92.7382 118.22 93.1266 118.069 93.4766C117.843 94.0003 117.343 94.3375 116.796 94.3375C116.605 94.3375 116.417 94.2966 116.241 94.2149L107.294 90.112L101.662 93.4689L111.278 97.8451C111.78 98.0751 112.107 98.5886 112.107 99.1557C112.107 99.7228 111.783 100.239 111.278 100.466L101.139 105.08L107.309 108.756L116.251 104.661C116.427 104.579 116.613 104.541 116.801 104.541C117.348 104.541 117.848 104.881 118.076 105.407C118.39 106.138 118.083 106.963 117.378 107.287L110.282 110.527L117.737 114.967C118.059 115.158 118.289 115.468 118.383 115.838C118.48 116.208 118.43 116.594 118.244 116.926C117.997 117.368 117.536 117.644 117.041 117.644C116.798 117.644 116.558 117.578 116.348 117.453L108.896 113.012L109.72 120.983C109.76 121.364 109.653 121.734 109.421 122.031C109.188 122.327 108.859 122.511 108.49 122.549C108.44 122.554 108.391 122.557 108.341 122.557C107.628 122.557 107.034 122.01 106.96 121.285L105.935 111.24L99.8916 107.632L101.085 118.761C101.147 119.346 100.899 119.882 100.436 120.155C100.221 120.283 100 120.347 99.7752 120.347C99.5078 120.347 99.2132 120.25 98.9731 120.069L90.5357 113.59V120.574L98.3516 126.519C98.7181 126.795 98.8295 127.168 98.8517 127.434C98.879 127.804 98.7725 128.2 98.5448 128.525C98.2798 128.9 97.8936 129.115 97.4802 129.115C97.2054 129.115 96.9132 129.02 96.6731 128.842L90.5357 124.11V133.001C90.5357 133.818 90.0504 134.434 89.2978 134.434L89.278 134.431ZM90.5159 110.041L98.0991 115.848L96.933 105.859L96.069 105.302L90.5159 101.905V110.041ZM82.0537 105.3L80.2935 106.186L79.5656 115.807L88.0376 109.622V101.912L82.0513 105.3H82.0537ZM69.9201 99.148L79.3453 103.437L86.0818 99.4239L78.8229 95.0988L69.9201 99.1506V99.148ZM80.499 92.6795L81.5437 93.3412L82.0934 93.566L88.0401 96.9331V88.6762L79.5409 82.481L80.499 92.6795Z" fill="#B3B3B3"/>
</g>
<path d="M118.16 114.397L111.206 110.253L117.776 107.254C118.626 106.863 118.999 105.852 118.623 104.975C118.244 104.099 117.261 103.688 116.412 104.076L107.606 108.107L102.065 104.807L111.674 100.433C112.283 100.155 112.676 99.5313 112.676 98.844C112.676 98.1568 112.283 97.5335 111.674 97.255L102.585 93.1189L105.355 91.4686L107.589 90.1376L116.4 94.1766C117.249 94.5674 118.237 94.1612 118.613 93.285C118.992 92.4087 118.613 91.3919 117.764 91.0011L111.188 87.9916L118.143 83.8478C118.947 83.3676 119.222 82.3073 118.759 81.4771C118.294 80.6468 117.266 80.3632 116.462 80.8409L109.507 84.9847L110.275 77.6143C110.371 76.6614 109.708 75.8184 108.784 75.7187C107.861 75.6191 107.022 76.291 106.925 77.2439L105.905 87.1307L103.672 88.4617L100.439 90.3879L101.61 79.2698C101.681 78.5851 101.355 77.9234 100.778 77.5786C100.201 77.2337 99.6885 77.2745 99.1512 77.6807L91.2585 83.7993V78.1483L98.8244 72.2954C99.577 71.7308 99.6043 70.6451 99.0596 69.871C98.5125 69.0943 97.6385 68.9232 96.8884 69.4878L91.2585 73.8589V65.5739C91.2585 64.6159 90.5777 63.8393 89.6493 63.8393C88.7209 63.8393 88.04 64.6159 88.04 65.5739V73.8589L81.9299 69.4878C81.1772 68.9232 79.9864 69.0969 79.4392 69.871C78.8921 70.6451 79.2709 71.7334 80.0211 72.2954L88.04 78.1483V84.2234L79.1001 77.6807C78.5628 77.2771 77.7037 77.2337 77.1244 77.5786C76.5476 77.9234 76.1514 78.5851 76.2232 79.2698L77.3225 90.043L72.4007 87.1204L71.3658 77.2464C71.2693 76.2935 70.4201 75.6319 69.4966 75.7315C68.5732 75.8311 67.9121 76.6665 68.0087 77.6194L68.7836 84.9745L61.8292 80.8307C61.0246 80.3504 59.9947 80.6366 59.5317 81.4668C59.0663 82.2971 59.3435 83.3599 60.1482 83.8376L67.1026 87.9814L60.5195 91.0062C59.6703 91.397 59.2891 92.4215 59.6679 93.2977C60.0467 94.174 61.0394 94.5674 61.8886 94.1766L70.7048 90.1248L75.4879 92.9759L66.0925 97.2524C65.4834 97.5309 65.0898 98.1517 65.0898 98.8415C65.0898 99.5313 65.4834 100.152 66.0925 100.431L76.0103 104.942L70.6899 108.113L61.8911 104.091C61.0419 103.701 60.064 104.125 59.6877 105.001C59.3089 105.877 59.6802 106.884 60.5294 107.272L67.0902 110.256L60.1358 114.4C59.3312 114.88 59.0564 115.94 59.5193 116.771C59.9823 117.601 61.0122 117.884 61.8168 117.407L68.7712 113.263L68.0186 120.659C67.922 121.612 68.593 122.468 69.5164 122.567C70.4399 122.667 71.2693 121.974 71.3658 121.022L72.3734 111.117L77.2309 108.222L76.1564 118.411C76.0846 119.095 76.4114 119.757 76.9883 120.102C77.5651 120.447 78.5653 120.406 79.1025 120L88.0425 113.457V120.11L79.9666 125.962C79.214 126.527 78.9218 127.613 79.4665 128.387C80.0136 129.163 81.2664 129.335 82.0165 128.77L88.04 124.399V132.684C88.04 133.642 88.7209 134.419 89.6493 134.419C90.5777 134.419 91.2585 133.642 91.2585 132.684V124.399L96.8537 128.77C97.6063 129.335 98.5397 129.161 99.0868 128.387C99.634 127.61 99.6414 126.524 98.8913 125.962L91.2585 120.11V113.881L99.1512 120C99.6909 120.406 100.305 120.447 100.882 120.102C101.459 119.757 101.733 119.095 101.662 118.411L100.525 107.875L105.935 111.104L106.942 120.996C107.039 121.949 107.871 122.628 108.794 122.529C109.718 122.429 110.384 121.581 110.285 120.628L109.522 113.248L116.477 117.391C117.281 117.872 118.309 117.585 118.774 116.755C119.239 115.925 118.962 114.862 118.158 114.384L118.16 114.397ZM98.4531 102.656L92.5187 99.12L98.1139 95.786L98.9754 95.2725L106.826 98.844L98.4531 102.653V102.656ZM96.829 92.5441L96.4328 92.7817L96.2769 92.9988L91.261 96.1105V88.1091L98.0619 82.8157L96.829 92.5467V92.5441ZM80.1919 82.8132L88.04 88.5306V96.1207L82.5042 92.9912L81.9992 92.774L81.1079 92.2018L80.1894 82.8157L80.1919 82.8132ZM70.94 98.8466L79.1001 95.1346L80.1795 95.7784L85.7896 99.12L79.62 102.796L70.94 98.8466ZM80.8381 106.079L82.4894 105.261L88.04 102.122V109.163L80.1894 114.88L80.8381 106.079ZM91.2585 109.587V102.132L96.2892 105.251L96.9924 105.732L98.1114 114.88L91.2585 109.587Z" fill="white"/>
<path d="M117.868 114.699L110.914 110.555L117.484 107.556C118.333 107.165 118.707 106.153 118.331 105.277C117.952 104.401 116.969 103.989 116.12 104.378L107.314 108.409L101.773 105.108L111.382 100.735C111.991 100.456 112.384 99.8353 112.384 99.1455C112.384 98.4583 111.991 97.8349 111.382 97.5565L102.293 93.4204L105.063 91.77L107.297 90.439L116.108 94.478C116.957 94.8689 117.945 94.4627 118.321 93.5864C118.7 92.7102 118.321 91.6934 117.472 91.3025L110.896 88.2931L117.851 84.1493C118.655 83.669 118.93 82.6088 118.467 81.7785C118.002 80.9482 116.974 80.6647 116.17 81.1424L109.215 85.2862L109.983 77.9158C110.079 76.9629 109.416 76.1198 108.492 76.0202C107.569 75.9206 106.73 76.5925 106.633 77.5454L105.613 87.4321L103.38 88.7631L100.147 90.6894L101.318 79.5687C101.389 78.884 101.063 78.2224 100.486 77.8775C99.9089 77.5326 99.2949 77.5735 98.7576 77.9797L90.7634 84.0982V78.4472L98.4308 72.5943C99.1835 72.0297 99.2627 70.944 98.7155 70.1699C98.1684 69.3933 97.2202 69.2221 96.4676 69.7867L90.7609 74.1578V65.8729C90.7609 64.9148 90.0801 64.1382 89.1517 64.1382C88.2233 64.1382 87.5425 64.9148 87.5425 65.8729V74.1578L81.5338 69.7867C80.7812 69.2221 79.6399 69.3958 79.0952 70.1699C78.548 70.9465 78.8501 72.0323 79.6027 72.5943L87.5449 78.4472V84.5223L78.7065 77.9797C78.1693 77.576 77.3597 77.5326 76.7828 77.8775C76.206 78.2224 75.8346 78.884 75.9064 79.5687L77.018 90.342L72.1037 87.4194L71.0713 77.5454C70.9747 76.5925 70.1255 75.9308 69.2021 76.0304C68.2786 76.13 67.6176 76.9654 67.7141 77.9184L68.4891 85.2734L61.5347 81.1296C60.73 80.6493 59.7001 80.9355 59.2372 81.7658C58.7717 82.596 59.049 83.6588 59.8536 84.1365L66.808 88.2803L60.225 91.3051C59.3758 91.6959 58.9945 92.7204 59.3733 93.5967C59.7521 94.4729 60.7449 94.8664 61.5941 94.4755L70.4102 90.4237L75.1934 93.2748L65.7979 97.5514C65.1889 97.8298 64.7952 98.4506 64.7952 99.1404C64.7952 99.8302 65.1889 100.451 65.7979 100.729L75.7158 105.241L70.3954 108.411L61.5966 104.39C60.7474 103.999 59.7694 104.424 59.3931 105.3C59.0143 106.176 59.3857 107.183 60.2349 107.571L66.7956 110.555L59.8412 114.699C59.0366 115.179 58.7618 116.239 59.2248 117.069C59.6877 117.9 60.7177 118.183 61.5223 117.706L68.4767 113.562L67.724 120.958C67.6275 121.911 68.2984 122.766 69.2219 122.866C70.1453 122.966 70.9747 122.273 71.0713 121.32L72.0789 111.416L76.9363 108.521L75.8619 118.71C75.7901 119.394 76.1169 120.056 76.6937 120.401C77.2706 120.746 78.1693 120.705 78.7065 120.299L87.5449 113.756V120.408L79.5705 126.261C78.8179 126.826 78.5753 127.912 79.1224 128.686C79.6696 129.462 80.8455 129.634 81.5982 129.069L87.5449 124.698V132.983C87.5449 133.941 88.2258 134.717 89.1542 134.717C90.0826 134.717 90.7634 133.941 90.7634 132.983V124.698L96.4601 129.069C97.2128 129.634 98.1956 129.46 98.7428 128.686C99.2899 127.909 99.2231 126.823 98.4704 126.261L90.7634 120.408V114.18L98.7576 120.299C99.2973 120.705 99.9633 120.746 100.54 120.401C101.117 120.056 101.417 119.394 101.345 118.71L100.221 108.174L105.635 111.403L106.648 121.295C106.744 122.248 107.579 122.927 108.502 122.828C109.426 122.728 110.092 121.88 109.995 120.927L109.233 113.546L116.187 117.69C116.992 118.171 118.021 117.884 118.484 117.054C118.95 116.224 118.673 115.161 117.868 114.683V114.699ZM98.161 102.957L92.2266 99.4214L97.8218 96.0875L98.6834 95.574L106.534 99.1455L98.161 102.955V102.957ZM96.5369 92.8456L96.1408 93.0832L95.8833 93.3003L90.7659 96.412V88.4106L97.6683 83.1172L96.5369 92.8481V92.8456ZM79.7983 83.1147L87.5474 88.8321V96.4222L82.1131 93.2926L81.6601 93.0755L80.744 92.5032L79.8008 83.1172L79.7983 83.1147ZM70.6479 99.1481L78.808 95.4361L79.8874 96.0798L85.4975 99.4214L79.3279 103.098L70.6479 99.1481ZM80.546 106.38L82.0958 105.563L87.5449 102.423V109.464L79.7958 115.181L80.5435 106.38H80.546ZM90.7634 109.888V102.433L95.8957 105.553L96.6508 106.033L97.6931 115.181L90.7634 109.888Z" fill="#7489E0"/>
</g>
</g>
</g>
</svg>
