<svg width="24" height="24" viewBox="0 0 24 24" fill="none" xmlns="http://www.w3.org/2000/svg">
<path d="M19 19L14.8824 14.8824M16.5294 10.7647C16.5294 11.9049 16.1913 13.0194 15.5579 13.9674C14.9245 14.9154 14.0241 15.6543 12.9708 16.0906C11.9174 16.5269 10.7583 16.6411 9.64007 16.4186C8.52183 16.1962 7.49465 15.6472 6.68845 14.841C5.88224 14.0348 5.3332 13.0076 5.11077 11.8893C4.88834 10.7711 5.0025 9.61201 5.43881 8.55865C5.87513 7.50529 6.61401 6.60496 7.56201 5.97153C8.51001 5.33809 9.62456 5 10.7647 5C12.2936 5 13.7599 5.60735 14.841 6.68844C15.9221 7.76954 16.5294 9.23581 16.5294 10.7647V10.7647Z" stroke="black" stroke-width="2" stroke-linecap="round" stroke-linejoin="round"/>
</svg>
