<svg width="80" height="80" viewBox="0 0 80 80" fill="none" xmlns="http://www.w3.org/2000/svg">
<g clip-path="url(#clip0_403_2711)">
<rect width="80" height="80" rx="40" fill="#EBB5B5"/>
<path fill-rule="evenodd" clip-rule="evenodd" d="M24.638 30.1561C24.8916 32.9425 26.4498 35.5667 29.0572 37.072C31.6645 38.5773 34.7163 38.6147 37.2561 37.4411C37.0025 34.6547 35.4442 32.0305 32.8369 30.5251C30.2295 29.0198 27.178 28.9825 24.638 30.1561Z" fill="#4AA700"/>
<path fill-rule="evenodd" clip-rule="evenodd" d="M55.362 30.1561C55.1084 32.9425 53.5502 35.5667 50.9428 37.072C48.3355 38.5773 45.2838 38.6147 42.7439 37.4411C42.9975 34.6547 44.5558 32.0305 47.1631 30.5251C49.7705 29.0198 52.8222 28.9825 55.3622 30.1561H55.362Z" fill="#387D01"/>
<path fill-rule="evenodd" clip-rule="evenodd" d="M78.4375 60.7448C65.335 60.6737 52.4672 60.2531 40 64.103C51.7733 57.6983 65.2184 53.6044 78.4375 53.4522V60.745V60.7448Z" fill="#48A200"/>
<path fill-rule="evenodd" clip-rule="evenodd" d="M1.5625 61.6034C14.665 61.5323 27.5328 60.253 40 64.1028C28.2267 57.6981 14.7816 53.7214 1.5625 53.5692V61.6034Z" fill="#48A200"/>
<path fill-rule="evenodd" clip-rule="evenodd" d="M40 64.1028C28.2267 57.6981 14.7816 55.069 1.5625 54.9169V50.3264C9.62609 50.574 21.1727 46.5501 28.5575 49.6169C33.9083 51.8389 35.3488 60.5112 40 64.1028Z" fill="#93BF00"/>
<path fill-rule="evenodd" clip-rule="evenodd" d="M40 64.1028C27.5328 60.253 14.665 59.033 1.5625 59.104V64.1028H40Z" fill="#387D01"/>
<path fill-rule="evenodd" clip-rule="evenodd" d="M40 64.1028C51.7733 57.6981 65.2184 55.0691 78.4375 54.9169V50.3264C74.7292 50.4403 66.8337 47.877 63.2258 48.6011C53.3036 50.5922 48.1184 57.8339 40 64.1028Z" fill="#93BF00"/>
<path fill-rule="evenodd" clip-rule="evenodd" d="M40 64.1028C52.4672 60.253 65.335 59.033 78.4375 59.104V64.1028H40Z" fill="#387D01"/>
<path fill-rule="evenodd" clip-rule="evenodd" d="M40 64.1028C28.9295 55.5542 15.4686 50.7537 1.5625 50.3264L15.3538 36.5352C24.2453 37.617 32.4608 40.0839 40 43.9364V64.1028Z" fill="#F0F5F7"/>
<path fill-rule="evenodd" clip-rule="evenodd" d="M40 64.1028C51.0705 55.5542 64.5314 50.7537 78.4375 50.3264L64.6462 36.5352C55.7547 37.617 47.5392 40.0839 40 43.9364V64.1028Z" fill="#D9E7EC"/>
<path fill-rule="evenodd" clip-rule="evenodd" d="M39.0625 27.2694C39.0625 26.7034 39.4822 26.2445 40 26.2445C40.5178 26.2445 40.9375 26.7033 40.9375 27.2694V52.2319C40.9375 52.7978 40.5178 53.2566 40 53.2566C39.4822 53.2566 39.0625 52.7978 39.0625 52.2319V27.2694Z" fill="#779B00"/>
<path fill-rule="evenodd" clip-rule="evenodd" d="M40 15.8972C42.1317 17.4009 43.5244 19.8827 43.5244 22.69C43.5244 25.4973 42.1319 27.9789 40 29.4827C37.8681 27.9787 36.4756 25.497 36.4756 22.69C36.4756 19.883 37.8681 17.4011 40 15.8972Z" fill="#93BF00"/>
<path fill-rule="evenodd" clip-rule="evenodd" d="M52.2733 64.1028C52.2733 60.9619 51.075 57.8209 48.6784 55.4245C43.8855 50.6314 36.1144 50.6314 31.3214 55.4245C28.9248 57.8209 27.7266 60.9619 27.7266 64.1028H52.2733Z" fill="#B56A35"/>
<path fill-rule="evenodd" clip-rule="evenodd" d="M52.2733 64.1028C52.2733 60.9619 51.075 57.8209 48.6784 55.4245C46.282 53.028 43.1409 51.8297 40 51.8297V64.103H52.2733V64.1028Z" fill="#A85D27"/>
</g>
<defs>
<clipPath id="clip0_403_2711">
<rect width="80" height="80" fill="white"/>
</clipPath>
</defs>
</svg>
