<svg width="32" height="32" viewBox="0 0 32 32" fill="none" xmlns="http://www.w3.org/2000/svg">
<g clip-path="url(#clip0_1568_32490)">
<g filter="url(#filter0_d_1568_32490)">
<circle cx="16" cy="16" r="12" fill="#2B9D4B" fill-opacity="0.8" shape-rendering="crispEdges"/>
</g>
<path fill-rule="evenodd" clip-rule="evenodd" d="M12.3999 10.4C11.2953 10.4 10.3999 11.2954 10.3999 12.4V19.6C10.3999 20.7046 11.2953 21.6 12.3999 21.6H19.5999C20.7045 21.6 21.5999 20.7046 21.5999 19.6V12.4C21.5999 11.2954 20.7045 10.4 19.5999 10.4H12.3999ZM14.5999 12.8C14.5999 12.2477 15.0476 11.8 15.5999 11.8H16.3999C16.9522 11.8 17.3999 12.2477 17.3999 12.8V14.6H19.1999C19.7522 14.6 20.1999 15.0477 20.1999 15.6V16.4C20.1999 16.9523 19.7522 17.4 19.1999 17.4H17.3999V19.2C17.3999 19.7523 16.9522 20.2 16.3999 20.2H15.5999C15.0476 20.2 14.5999 19.7523 14.5999 19.2V17.4H12.7999C12.2476 17.4 11.7999 16.9523 11.7999 16.4V15.6C11.7999 15.0477 12.2476 14.6 12.7999 14.6H14.5999V12.8Z" fill="white"/>
</g>
<defs>
<filter id="filter0_d_1568_32490" x="1" y="2" width="30" height="30" filterUnits="userSpaceOnUse" color-interpolation-filters="sRGB">
<feFlood flood-opacity="0" result="BackgroundImageFix"/>
<feColorMatrix in="SourceAlpha" type="matrix" values="0 0 0 0 0 0 0 0 0 0 0 0 0 0 0 0 0 0 127 0" result="hardAlpha"/>
<feOffset dy="1"/>
<feGaussianBlur stdDeviation="1.5"/>
<feComposite in2="hardAlpha" operator="out"/>
<feColorMatrix type="matrix" values="0 0 0 0 0 0 0 0 0 0 0 0 0 0 0 0 0 0 0.2 0"/>
<feBlend mode="normal" in2="BackgroundImageFix" result="effect1_dropShadow_1568_32490"/>
<feBlend mode="normal" in="SourceGraphic" in2="effect1_dropShadow_1568_32490" result="shape"/>
</filter>
<clipPath id="clip0_1568_32490">
<rect width="32" height="32" fill="white"/>
</clipPath>
</defs>
</svg>
