<svg width="110" height="110" viewBox="0 0 110 110" fill="none" xmlns="http://www.w3.org/2000/svg">
<rect width="110" height="110" rx="55" fill="#F7F7FD"/>
<rect x="21" y="26" width="58" height="6" rx="3" fill="#0B93E2" stroke="#0B93E2" stroke-width="2"/>
<path d="M28 30H72V71C72 73.2091 70.2091 75 68 75H32C29.7909 75 28 73.2091 28 71V30Z" fill="#E8EDFC" stroke="#0B93E2" stroke-width="2"/>
<rect x="35" y="50" width="30" height="4" rx="2" fill="#0B93E2"/>
<rect x="35" y="58" width="30" height="2" rx="1" fill="#0B93E2"/>
<rect x="35" y="64" width="30" height="2" rx="1" fill="#0B93E2"/>
<path d="M48.7967 45H43.1087V43.704L45.7847 41.316C46.2087 40.932 46.5327 40.568 46.7567 40.224C46.9887 39.872 47.1047 39.504 47.1047 39.12V38.964C47.1047 38.556 46.9807 38.236 46.7327 38.004C46.4927 37.772 46.1647 37.656 45.7487 37.656C45.5167 37.656 45.3127 37.692 45.1367 37.764C44.9687 37.828 44.8207 37.92 44.6927 38.04C44.5647 38.16 44.4567 38.3 44.3687 38.46C44.2887 38.62 44.2247 38.792 44.1767 38.976L42.9887 38.52C43.0767 38.256 43.1967 38.004 43.3487 37.764C43.5007 37.516 43.6927 37.296 43.9247 37.104C44.1567 36.912 44.4287 36.76 44.7407 36.648C45.0607 36.536 45.4327 36.48 45.8567 36.48C46.2807 36.48 46.6607 36.544 46.9967 36.672C47.3327 36.792 47.6127 36.964 47.8367 37.188C48.0687 37.404 48.2447 37.664 48.3647 37.968C48.4847 38.272 48.5447 38.604 48.5447 38.964C48.5447 39.3 48.4927 39.612 48.3887 39.9C48.2847 40.188 48.1407 40.46 47.9567 40.716C47.7727 40.972 47.5567 41.216 47.3087 41.448C47.0687 41.68 46.8127 41.916 46.5407 42.156L44.5727 43.848H48.7967V45ZM52.644 40.068C53.164 40.068 53.548 39.96 53.796 39.744C54.044 39.52 54.168 39.236 54.168 38.892V38.808C54.168 38.424 54.048 38.132 53.808 37.932C53.568 37.724 53.244 37.62 52.836 37.62C52.436 37.62 52.096 37.712 51.816 37.896C51.536 38.072 51.3 38.32 51.108 38.64L50.208 37.86C50.336 37.676 50.48 37.5 50.64 37.332C50.8 37.164 50.988 37.02 51.204 36.9C51.42 36.772 51.664 36.672 51.936 36.6C52.208 36.52 52.52 36.48 52.872 36.48C53.264 36.48 53.628 36.528 53.964 36.624C54.3 36.72 54.588 36.864 54.828 37.056C55.068 37.24 55.256 37.468 55.392 37.74C55.528 38.004 55.596 38.304 55.596 38.64C55.596 38.904 55.552 39.144 55.464 39.36C55.384 39.576 55.268 39.768 55.116 39.936C54.972 40.096 54.8 40.228 54.6 40.332C54.408 40.436 54.204 40.512 53.988 40.56V40.62C54.228 40.668 54.452 40.748 54.66 40.86C54.876 40.964 55.064 41.104 55.224 41.28C55.384 41.448 55.508 41.652 55.596 41.892C55.692 42.124 55.74 42.392 55.74 42.696C55.74 43.064 55.668 43.4 55.524 43.704C55.38 44 55.176 44.256 54.912 44.472C54.656 44.688 54.344 44.856 53.976 44.976C53.608 45.088 53.2 45.144 52.752 45.144C52.36 45.144 52.016 45.1 51.72 45.012C51.424 44.932 51.16 44.824 50.928 44.688C50.704 44.544 50.504 44.384 50.328 44.208C50.16 44.024 50.012 43.836 49.884 43.644L50.88 42.864C50.984 43.032 51.092 43.188 51.204 43.332C51.324 43.468 51.456 43.588 51.6 43.692C51.752 43.788 51.92 43.864 52.104 43.92C52.296 43.976 52.512 44.004 52.752 44.004C53.264 44.004 53.656 43.884 53.928 43.644C54.2 43.396 54.336 43.056 54.336 42.624V42.54C54.336 42.108 54.192 41.78 53.904 41.556C53.616 41.332 53.208 41.22 52.68 41.22H51.792V40.068H52.644Z" fill="#0B93E2"/>
<path d="M90.5705 72C88.2453 78.267 83.267 83.2453 77 85.5705M61 85.5705C57.2861 84.1926 54.0248 81.8829 51.5 78.9255M74.5 41.6617C78.5295 42.6505 82.1418 44.7011 85.0234 47.5" stroke="#E45E63" stroke-width="2" stroke-linecap="round"/>
<circle cx="69" cy="64" r="19" fill="white" stroke="#E45E63" stroke-width="2"/>
<path d="M78.1228 60.2153L67.4712 70.7834C66.8446 71.41 65.8421 71.4518 65.1738 70.8252L59.5347 65.6873C58.8663 65.0608 58.8246 64.0165 59.4094 63.3482C60.0359 62.6798 61.0802 62.6381 61.7485 63.2646L66.218 67.3582L75.7419 57.8344C76.4102 57.166 77.4545 57.166 78.1228 57.8344C78.7911 58.5027 78.7911 59.547 78.1228 60.2153Z" fill="#E45E63"/>
</svg>
