<svg width="24" height="24" viewBox="0 0 24 24" fill="none" xmlns="http://www.w3.org/2000/svg">
<path fill-rule="evenodd" clip-rule="evenodd" d="M5 12.9543C5.01239 14.0398 5.45555 15.076 6.23197 15.8348C7.00838 16.5936 8.05445 17.0128 9.14 17.0003H11.146C11.6915 17.0007 12.2131 17.224 12.59 17.6183L13.659 18.7363C13.8281 18.9076 14.0588 19.004 14.2995 19.004C14.5402 19.004 14.7709 18.9076 14.94 18.7363L16.6 17.0003L17.145 16.3923C17.2454 16.2833 17.3548 16.1829 17.472 16.0923C18.4349 15.3354 18.9979 14.179 19 12.9543V8.04428C18.9731 5.7845 17.1198 3.97417 14.86 4.00028H9.14C6.88021 3.97417 5.0269 5.7845 5 8.04428V12.9543Z" stroke="#282D38" stroke-width="1.4" stroke-linecap="round" stroke-linejoin="round"/>
<path d="M15.6493 12.3049C15.7937 11.9463 15.6201 11.5385 15.2615 11.3941C14.9029 11.2497 14.4951 11.4233 14.3507 11.7819L15.6493 12.3049ZM14.116 13.2494L14.5582 13.7921L14.5608 13.7899L14.116 13.2494ZM9.864 13.2184L9.41082 13.7519L9.41396 13.7546L9.864 13.2184ZM9.6535 11.7485C9.51495 11.3876 9.11005 11.2074 8.74913 11.3459C8.38821 11.4845 8.20795 11.8894 8.3465 12.2503L9.6535 11.7485ZM9.70007 7.99902C9.70007 7.61242 9.38666 7.29902 9.00007 7.29902C8.61347 7.29902 8.30007 7.61242 8.30007 7.99902H9.70007ZM8.30007 8.99902C8.30007 9.38562 8.61347 9.69902 9.00007 9.69902C9.38666 9.69902 9.70007 9.38562 9.70007 8.99902H8.30007ZM15.7001 7.99902C15.7001 7.61242 15.3867 7.29902 15.0001 7.29902C14.6135 7.29902 14.3001 7.61242 14.3001 7.99902H15.7001ZM14.3001 8.99902C14.3001 9.38562 14.6135 9.69902 15.0001 9.69902C15.3867 9.69902 15.7001 9.38562 15.7001 8.99902H14.3001ZM14.3507 11.7819C14.2053 12.1429 13.9717 12.4616 13.6712 12.7089L14.5608 13.7899C15.0422 13.3938 15.4164 12.8832 15.6493 12.3049L14.3507 11.7819ZM13.6738 12.7067C12.6931 13.5058 11.283 13.4956 10.314 12.6823L9.41396 13.7546C10.8975 14.9998 13.0566 15.0156 14.5582 13.7921L13.6738 12.7067ZM10.3172 12.6849C10.021 12.4333 9.79277 12.1113 9.6535 11.7485L8.3465 12.2503C8.56985 12.8321 8.93584 13.3485 9.41083 13.7519L10.3172 12.6849ZM8.30007 7.99902V8.99902H9.70007V7.99902H8.30007ZM14.3001 7.99902V8.99902H15.7001V7.99902H14.3001Z" fill="#282D38"/>
</svg>
