<svg width="24" height="24" viewBox="0 0 24 24" fill="none" xmlns="http://www.w3.org/2000/svg">
<rect width="24" height="24" rx="12" fill="#F1F1F9"/>
<path d="M12.0095 8.418C11.6921 8.418 11.4588 8.34333 11.3095 8.194C11.1695 8.04467 11.0995 7.85333 11.0995 7.62V7.382C11.0995 7.14867 11.1695 6.95733 11.3095 6.808C11.4588 6.65867 11.6921 6.584 12.0095 6.584C12.3268 6.584 12.5555 6.65867 12.6955 6.808C12.8355 6.95733 12.9055 7.14867 12.9055 7.382V7.62C12.9055 7.85333 12.8355 8.04467 12.6955 8.194C12.5555 8.34333 12.3268 8.418 12.0095 8.418ZM11.2395 9.72H12.7655V17H11.2395V9.72Z" fill="black"/>
</svg>
