<svg width="32" height="32" viewBox="0 0 32 32" fill="none" xmlns="http://www.w3.org/2000/svg">
<g clip-path="url(#clip0_1426_7707)">
<circle cx="16" cy="16" r="14" fill="#E4C864"/>
<path d="M15.5 9.00003C11.745 9.00003 8.63106 11.7458 8.05563 15.3396C7.99946 15.6904 7.97138 15.8657 8.04189 16.0531C8.09799 16.2021 8.23534 16.3633 8.37361 16.4422C8.54738 16.5415 8.75383 16.5415 9.16673 16.5415H21.8333C22.2462 16.5415 22.4526 16.5415 22.6264 16.4422C22.7647 16.3633 22.902 16.2021 22.9581 16.0531C23.0286 15.8657 23.0005 15.6904 22.9444 15.3396C22.3689 11.7458 19.255 9.00003 15.5 9.00003Z" fill="white"/>
<path d="M15.5 24V16.5415M8.05563 15.3396C8.63106 11.7458 11.745 9.00003 15.5 9.00003C19.255 9.00003 22.3689 11.7458 22.9444 15.3396C23.0005 15.6904 23.0286 15.8657 22.9581 16.0531C22.902 16.2021 22.7647 16.3633 22.6264 16.4422C22.4526 16.5415 22.2462 16.5415 21.8333 16.5415H9.16673C8.75383 16.5415 8.54738 16.5415 8.37361 16.4422C8.23534 16.3633 8.09799 16.2021 8.04189 16.0531C7.97138 15.8657 7.99946 15.6904 8.05563 15.3396Z" stroke="white" stroke-width="2" stroke-linecap="round" stroke-linejoin="round"/>
</g>
<defs>
<clipPath id="clip0_1426_7707">
<rect width="32" height="32" fill="white"/>
</clipPath>
</defs>
</svg>
