<svg width="56" height="56" viewBox="0 0 56 56" fill="none" xmlns="http://www.w3.org/2000/svg">
<path d="M15 28C15 21.3726 20.3726 16 27 16C33.6274 16 39 21.3726 39 28V40H15V28Z" fill="url(#paint0_linear_403_2706)"/>
<path d="M13 41C13 39.8954 13.8954 39 15 39H39C40.1046 39 41 39.8954 41 41V46C41 47.1046 40.1046 48 39 48H15C13.8954 48 13 47.1046 13 46V41Z" fill="url(#paint1_linear_403_2706)"/>
<path d="M12 46C12 45.4477 12.4477 45 13 45H41C41.5523 45 42 45.4477 42 46V48C42 48.5523 41.5523 49 41 49H13C12.4477 49 12 48.5523 12 48V46Z" fill="#2E3B3B"/>
<path d="M22 32C22 29.2386 24.2386 27 27 27C29.7614 27 32 29.2386 32 32V39H22V32Z" fill="url(#paint2_linear_403_2706)"/>
<path d="M11 25H13" stroke="#FFBC00" stroke-width="2" stroke-linecap="round"/>
<path d="M27 11V13" stroke="#FFBC00" stroke-width="2" stroke-linecap="round"/>
<path d="M15 16L17 17" stroke="#FFBC00" stroke-width="2" stroke-linecap="round"/>
<path d="M41 25H43" stroke="#FFBC00" stroke-width="2" stroke-linecap="round"/>
<path d="M39 16L37 17" stroke="#FFBC00" stroke-width="2" stroke-linecap="round"/>
<defs>
<linearGradient id="paint0_linear_403_2706" x1="15" y1="29" x2="39" y2="29" gradientUnits="userSpaceOnUse">
<stop offset="0.5001" stop-color="#FF5F7B"/>
<stop offset="0.5002" stop-color="#DF566E"/>
</linearGradient>
<linearGradient id="paint1_linear_403_2706" x1="13" y1="43.875" x2="41" y2="43.875" gradientUnits="userSpaceOnUse">
<stop offset="0.498873" stop-color="#F0F7FF"/>
<stop offset="0.5002" stop-color="#D7E9FC"/>
</linearGradient>
<linearGradient id="paint2_linear_403_2706" x1="22" y1="33.5" x2="32" y2="33.5" gradientUnits="userSpaceOnUse">
<stop offset="0.5001" stop-color="#FF9BAD"/>
<stop offset="0.5002" stop-color="#F7798F"/>
</linearGradient>
</defs>
</svg>
