<svg width="25" height="24" viewBox="0 0 25 24" fill="none" xmlns="http://www.w3.org/2000/svg">
<path fill-rule="evenodd" clip-rule="evenodd" d="M18.5 8.00244C19.6046 8.00244 20.5 8.89787 20.5 10.0024V16.0024C20.4131 18.2894 18.3679 20.0789 15.9283 20.0024H9.07173C6.63209 20.0789 4.58687 18.2894 4.5 16.0024V10.0024" fill="#E45E63"/>
<path d="M20.5 16.0024V10.0024C20.5 8.89787 19.6046 8.00244 18.5 8.00244H6.5C5.39543 8.00244 4.5 8.89787 4.5 10.0024V16.0024C4.58687 18.2894 6.63209 20.0789 9.07173 20.0024H15.9283C18.3679 20.0789 20.4131 18.2894 20.5 16.0024Z" stroke="#282D38" stroke-width="1.4"/>
<path d="M4.5 9V9.23759L11.9903 13.4179C12.6327 13.7764 13.4201 13.7533 14.0404 13.3576L20.5 9.23759V9C20.5 6.79086 18.7091 5 16.5 5H8.5C6.29086 5 4.5 6.79086 4.5 9Z" fill="#AD2A4B" stroke="#282D38" stroke-width="1.4"/>
</svg>
