<svg width="32" height="32" viewBox="0 0 32 32" fill="none" xmlns="http://www.w3.org/2000/svg">
<circle cx="16" cy="16" r="14" fill="#5081CC"/>
<path d="M18.7707 9.8416C19.0975 9.58699 19.1559 9.11572 18.9013 8.78901C18.6467 8.46229 18.1754 8.40384 17.8487 8.65846L18.7707 9.8416ZM15.539 10.4585C15.2123 10.7131 15.1538 11.1843 15.4084 11.5111C15.663 11.8378 16.1343 11.8962 16.461 11.6416L15.539 10.4585ZM15.5389 11.6416C15.8656 11.8962 16.3369 11.8378 16.5915 11.5111C16.8461 11.1843 16.7876 10.7131 16.4609 10.4585L15.5389 11.6416ZM14.1512 8.65846C13.8245 8.40384 13.3532 8.46229 13.0986 8.78901C12.844 9.11572 12.9024 9.58699 13.2292 9.8416L14.1512 8.65846ZM15.2499 11.05C15.2499 11.4642 15.5857 11.8 15.9999 11.8C16.4142 11.8 16.7499 11.4642 16.7499 11.05H15.2499ZM16.7499 7.00003C16.7499 6.58582 16.4142 6.25003 15.9999 6.25003C15.5857 6.25003 15.2499 6.58582 15.2499 7.00003H16.7499ZM16.7499 11.0502C16.7499 10.636 16.4141 10.3002 15.9999 10.3002C15.5857 10.3002 15.2499 10.636 15.2499 11.0502H16.7499ZM15.2499 20.9502C15.2499 21.3645 15.5857 21.7002 15.9999 21.7002C16.4141 21.7002 16.7499 21.3645 16.7499 20.9502H15.2499ZM13.2292 22.1583C12.9024 22.4129 12.844 22.8841 13.0986 23.2108C13.3532 23.5376 13.8245 23.596 14.1512 23.3414L13.2292 22.1583ZM16.4609 21.5414C16.7876 21.2868 16.8461 20.8155 16.5915 20.4888C16.3369 20.1621 15.8656 20.1036 15.5389 20.3583L16.4609 21.5414ZM16.461 20.3583C16.1343 20.1036 15.663 20.1621 15.4084 20.4888C15.1538 20.8155 15.2123 21.2868 15.539 21.5414L16.461 20.3583ZM17.8487 23.3414C18.1754 23.596 18.6467 23.5376 18.9013 23.2108C19.1559 22.8841 19.0975 22.4129 18.7707 22.1583L17.8487 23.3414ZM16.7499 20.9498C16.7499 20.5356 16.4141 20.1998 15.9999 20.1998C15.5857 20.1998 15.2499 20.5356 15.2499 20.9498H16.7499ZM15.2499 24.9998C15.2499 25.414 15.5857 25.7498 15.9999 25.7498C16.4141 25.7498 16.7499 25.414 16.7499 24.9998H15.2499ZM9.11253 16.7255C8.72542 16.5781 8.29214 16.7725 8.14477 17.1596C7.99741 17.5467 8.19176 17.98 8.57887 18.1274L9.11253 16.7255ZM11.3332 19.1759C11.7203 19.3232 12.1536 19.1289 12.3009 18.7418C12.4483 18.3547 12.2539 17.9214 11.8668 17.774L11.3332 19.1759ZM12.3411 18.5914C12.4051 18.1822 12.1252 17.7985 11.716 17.7345C11.3068 17.6704 10.9231 17.9503 10.8591 18.3595L12.3411 18.5914ZM10.4134 21.208C10.3493 21.6172 10.6292 22.0009 11.0384 22.0649C11.4476 22.129 11.8313 21.8491 11.8953 21.4399L10.4134 21.208ZM11.9677 19.1291C12.3287 18.9261 12.4568 18.4688 12.2537 18.1077C12.0506 17.7467 11.5933 17.6187 11.2323 17.8218L11.9677 19.1291ZM7.6323 19.8468C7.27129 20.0498 7.14325 20.5071 7.34632 20.8681C7.54939 21.2292 8.00668 21.3572 8.3677 21.1541L7.6323 19.8468ZM11.2323 17.8209C10.8713 18.024 10.7432 18.4813 10.9463 18.8423C11.1494 19.2033 11.6067 19.3314 11.9677 19.1283L11.2323 17.8209ZM20.7677 14.1783C21.1287 13.9752 21.2567 13.5179 21.0537 13.1569C20.8506 12.7959 20.3933 12.6679 20.0323 12.8709L20.7677 14.1783ZM22.8875 15.2746C23.2746 15.4219 23.7079 15.2276 23.8552 14.8405C24.0026 14.4533 23.8083 14.0201 23.4211 13.8727L22.8875 15.2746ZM20.6669 12.8242C20.2797 12.6768 19.8465 12.8712 19.6991 13.2583C19.5517 13.6454 19.7461 14.0787 20.1332 14.2261L20.6669 12.8242ZM19.659 13.409C19.595 13.8182 19.8748 14.2019 20.2841 14.2659C20.6933 14.33 21.077 14.0501 21.141 13.6409L19.659 13.409ZM21.5867 10.7924C21.6508 10.3832 21.3709 9.99949 20.9617 9.93546C20.5524 9.87143 20.1688 10.1513 20.1048 10.5605L21.5867 10.7924ZM20.0323 12.8713C19.6713 13.0744 19.5433 13.5317 19.7463 13.8927C19.9494 14.2537 20.4067 14.3818 20.7677 14.1787L20.0323 12.8713ZM24.3677 12.1537C24.7287 11.9506 24.8568 11.4934 24.6537 11.1323C24.4506 10.7713 23.9933 10.6433 23.6323 10.8463L24.3677 12.1537ZM8.57887 13.8727C8.19176 14.0201 7.99741 14.4533 8.14477 14.8405C8.29214 15.2276 8.72542 15.4219 9.11253 15.2746L8.57887 13.8727ZM11.8668 14.2261C12.2539 14.0787 12.4483 13.6454 12.3009 13.2583C12.1536 12.8712 11.7203 12.6768 11.3332 12.8242L11.8668 14.2261ZM10.8591 13.6409C10.9231 14.0501 11.3068 14.33 11.716 14.2659C12.1252 14.2019 12.4051 13.8182 12.3411 13.409L10.8591 13.6409ZM11.8953 10.5605C11.8313 10.1513 11.4476 9.87143 11.0384 9.93546C10.6292 9.99949 10.3493 10.3832 10.4134 10.7924L11.8953 10.5605ZM11.2323 14.1787C11.5933 14.3818 12.0506 14.2537 12.2537 13.8927C12.4568 13.5317 12.3287 13.0744 11.9677 12.8713L11.2323 14.1787ZM8.3677 10.8463C8.00668 10.6433 7.54939 10.7713 7.34632 11.1323C7.14325 11.4934 7.27129 11.9506 7.6323 12.1537L8.3677 10.8463ZM11.9677 12.8709C11.6067 12.6679 11.1494 12.7959 10.9463 13.1569C10.7432 13.5179 10.8713 13.9752 11.2323 14.1783L11.9677 12.8709ZM20.0323 19.1283C20.3933 19.3314 20.8506 19.2033 21.0537 18.8423C21.2567 18.4813 21.1287 18.024 20.7677 17.8209L20.0323 19.1283ZM23.4211 18.1274C23.8083 17.98 24.0026 17.5467 23.8552 17.1596C23.7079 16.7725 23.2746 16.5781 22.8875 16.7255L23.4211 18.1274ZM20.1332 17.774C19.7461 17.9214 19.5517 18.3547 19.6991 18.7418C19.8465 19.1289 20.2797 19.3232 20.6669 19.1759L20.1332 17.774ZM21.141 18.3595C21.077 17.9503 20.6933 17.6704 20.2841 17.7345C19.8748 17.7985 19.595 18.1822 19.659 18.5914L21.141 18.3595ZM20.1048 21.4399C20.1688 21.8491 20.5524 22.129 20.9617 22.0649C21.3709 22.0009 21.6508 21.6172 21.5867 21.208L20.1048 21.4399ZM20.7677 17.8218C20.4067 17.6187 19.9494 17.7467 19.7463 18.1077C19.5433 18.4688 19.6713 18.9261 20.0323 19.1291L20.7677 17.8218ZM23.6323 21.1541C23.9933 21.3572 24.4506 21.2292 24.6537 20.8681C24.8568 20.5071 24.7287 20.0498 24.3677 19.8468L23.6323 21.1541ZM17.8487 8.65846L15.539 10.4585L16.461 11.6416L18.7707 9.8416L17.8487 8.65846ZM16.4609 10.4585L14.1512 8.65846L13.2292 9.8416L15.5389 11.6416L16.4609 10.4585ZM16.7499 11.05V7.00003H15.2499V11.05H16.7499ZM15.2499 11.0502V20.9502H16.7499V11.0502H15.2499ZM14.1512 23.3414L16.4609 21.5414L15.5389 20.3583L13.2292 22.1583L14.1512 23.3414ZM15.539 21.5414L17.8487 23.3414L18.7707 22.1583L16.461 20.3583L15.539 21.5414ZM15.2499 20.9498V24.9998H16.7499V20.9498H15.2499ZM8.57887 18.1274L11.3332 19.1759L11.8668 17.774L9.11253 16.7255L8.57887 18.1274ZM10.8591 18.3595L10.4134 21.208L11.8953 21.4399L12.3411 18.5914L10.8591 18.3595ZM11.2323 17.8218L7.6323 19.8468L8.3677 21.1541L11.9677 19.1291L11.2323 17.8218ZM11.9677 19.1283L20.7677 14.1783L20.0323 12.8709L11.2323 17.8209L11.9677 19.1283ZM23.4211 13.8727L20.6669 12.8242L20.1332 14.2261L22.8875 15.2746L23.4211 13.8727ZM21.141 13.6409L21.5867 10.7924L20.1048 10.5605L19.659 13.409L21.141 13.6409ZM20.7677 14.1787L24.3677 12.1537L23.6323 10.8463L20.0323 12.8713L20.7677 14.1787ZM9.11253 15.2746L11.8668 14.2261L11.3332 12.8242L8.57887 13.8727L9.11253 15.2746ZM12.3411 13.409L11.8953 10.5605L10.4134 10.7924L10.8591 13.6409L12.3411 13.409ZM11.9677 12.8713L8.3677 10.8463L7.6323 12.1537L11.2323 14.1787L11.9677 12.8713ZM11.2323 14.1783L20.0323 19.1283L20.7677 17.8209L11.9677 12.8709L11.2323 14.1783ZM22.8875 16.7255L20.1332 17.774L20.6669 19.1759L23.4211 18.1274L22.8875 16.7255ZM19.659 18.5914L20.1048 21.4399L21.5867 21.208L21.141 18.3595L19.659 18.5914ZM20.0323 19.1291L23.6323 21.1541L24.3677 19.8468L20.7677 17.8218L20.0323 19.1291Z" fill="white"/>
</svg>
