<svg width="23" height="21" viewBox="0 0 23 21" fill="none" xmlns="http://www.w3.org/2000/svg">
<path d="M22 19.9999L20.1851 7.29546C20.1202 6.84112 19.5287 6.70695 19.2741 7.08883L18.0238 8.96425C18.0092 8.98612 17.9835 8.99788 17.9574 8.99462V8.99462C15.5442 8.69296 13.1752 9.81957 11.8862 11.882L11.5 12.4999L9.546 13.4769C9.52133 13.4893 9.51264 13.5202 9.52726 13.5436L10.1601 14.5561C11.3047 16.3874 13.3119 17.4999 15.4715 17.4999V17.4999C15.4881 17.4999 15.5023 17.5116 15.5056 17.5279L16 19.9999" stroke="black" stroke-width="1.7" stroke-linecap="round"/>
<path d="M18.5 8L16.9675 3.78566C16.6696 2.96628 16.042 2.30917 15.2372 1.97383V1.97383C12.4854 0.827246 9.30693 1.78961 7.6533 4.27006L6.51143 5.98286C6.50412 5.99381 6.49269 6.00133 6.47973 6.00368L1.03637 6.99339C1.01628 6.99704 1.00296 7.01628 1.00661 7.03637L1.11071 7.60889C1.62568 10.4412 4.09252 12.5 6.9713 12.5V12.5C6.98777 12.5 7.00173 12.5121 7.00406 12.5284L8 19.5" stroke="black" stroke-width="1.7" stroke-linecap="round"/>
</svg>
