<svg width="24" height="24" viewBox="0 0 24 24" fill="none" xmlns="http://www.w3.org/2000/svg">
<path d="M4.3 7.00003C4.3 7.38663 4.6134 7.70003 5 7.70003C5.3866 7.70003 5.7 7.38663 5.7 7.00003H4.3ZM6.1 5.88903L5.83355 5.24173C5.82498 5.24525 5.81649 5.24895 5.80807 5.25281L6.1 5.88903ZM9.033 5.15203L9.10418 5.8484C9.10913 5.8479 9.11407 5.84734 9.119 5.84673L9.033 5.15203ZM11.533 5.00003L11.5318 5.70003H11.533V5.00003ZM12.466 5.00003V5.70003L12.4672 5.70003L12.466 5.00003ZM14.966 5.15203L14.88 5.84673C14.885 5.84734 14.8899 5.8479 14.8949 5.84841L14.966 5.15203ZM17.9 5.88903L18.1919 5.25281C18.1835 5.24894 18.175 5.24525 18.1664 5.24172L17.9 5.88903ZM18.3 7.00003C18.3 7.38663 18.6134 7.70003 19 7.70003C19.3866 7.70003 19.7 7.38663 19.7 7.00003H18.3ZM5.7 7.00003C5.7 6.61343 5.3866 6.30003 5 6.30003C4.6134 6.30003 4.3 6.61343 4.3 7.00003H5.7ZM6.914 8.41403L6.70925 9.08342C6.71588 9.08544 6.72254 9.08737 6.72923 9.0892L6.914 8.41403ZM11.533 9.00003V8.29995L11.5227 8.30011L11.533 9.00003ZM12.466 9.00003L12.4764 8.30003H12.466V9.00003ZM17.086 8.41403L17.2708 9.0892C17.2775 9.08737 17.2841 9.08544 17.2907 9.08342L17.086 8.41403ZM19.7 7.00003C19.7 6.61343 19.3866 6.30003 19 6.30003C18.6134 6.30003 18.3 6.61343 18.3 7.00003H19.7ZM5.7 7.00003C5.7 6.61343 5.3866 6.30003 5 6.30003C4.6134 6.30003 4.3 6.61343 4.3 7.00003H5.7ZM4.3 12C4.3 12.3866 4.6134 12.7 5 12.7C5.3866 12.7 5.7 12.3866 5.7 12H4.3ZM19.7 7.00003C19.7 6.61343 19.3866 6.30003 19 6.30003C18.6134 6.30003 18.3 6.61343 18.3 7.00003H19.7ZM18.3 12C18.3 12.3866 18.6134 12.7 19 12.7C19.3866 12.7 19.7 12.3866 19.7 12H18.3ZM5.7 12C5.7 11.6134 5.3866 11.3 5 11.3C4.6134 11.3 4.3 11.6134 4.3 12H5.7ZM6.914 13.414L6.70925 14.0834C6.71588 14.0854 6.72254 14.0874 6.72923 14.0892L6.914 13.414ZM11.533 14V13.3L11.5227 13.3001L11.533 14ZM12.466 14L12.4764 13.3H12.466V14ZM17.086 13.414L17.2708 14.0892C17.2775 14.0874 17.2841 14.0854 17.2907 14.0834L17.086 13.414ZM19.7 12C19.7 11.6134 19.3866 11.3 19 11.3C18.6134 11.3 18.3 11.6134 18.3 12H19.7ZM5.7 12C5.7 11.6134 5.3866 11.3 5 11.3C4.6134 11.3 4.3 11.6134 4.3 12H5.7ZM6.914 18.414L6.70925 19.0834C6.71588 19.0854 6.72254 19.0874 6.72923 19.0892L6.914 18.414ZM11.533 19V18.3L11.5227 18.3001L11.533 19ZM12.466 19L12.4764 18.3H12.466V19ZM17.086 18.414L17.2708 19.0892C17.2775 19.0874 17.2841 19.0854 17.2907 19.0834L17.086 18.414ZM19.7 12C19.7 11.6134 19.3866 11.3 19 11.3C18.6134 11.3 18.3 11.6134 18.3 12H19.7ZM5.7 7.00003C5.7 7.04123 5.67666 7.013 5.77776 6.91121C5.88238 6.80588 6.07564 6.67038 6.39193 6.52525L5.80807 5.25281C5.40736 5.43668 5.05062 5.65668 4.78449 5.9246C4.51484 6.19606 4.3 6.55883 4.3 7.00003H5.7ZM6.36645 6.53633C7.24111 6.17629 8.16322 5.94458 9.10418 5.8484L8.96182 4.45566C7.88663 4.56556 6.83297 4.83032 5.83355 5.24173L6.36645 6.53633ZM9.119 5.84673C9.91943 5.74763 10.7253 5.69864 11.5318 5.70003L11.5342 4.30003C10.6694 4.29854 9.80528 4.35108 8.947 4.45733L9.119 5.84673ZM11.533 5.70003H12.466V4.30003H11.533V5.70003ZM12.4672 5.70003C13.2737 5.69864 14.0796 5.74763 14.88 5.84673L15.052 4.45733C14.1937 4.35108 13.3296 4.29854 12.4648 4.30003L12.4672 5.70003ZM14.8949 5.84841C15.8362 5.9445 16.7586 6.17621 17.6336 6.53634L18.1664 5.24172C17.1667 4.83021 16.1126 4.56545 15.0371 4.45565L14.8949 5.84841ZM17.6081 6.52525C17.9244 6.67038 18.1176 6.80588 18.2222 6.91121C18.3233 7.013 18.3 7.04123 18.3 7.00003H19.7C19.7 6.55883 19.4852 6.19606 19.2155 5.9246C18.9494 5.65668 18.5926 5.43668 18.1919 5.25281L17.6081 6.52525ZM4.3 7.00003C4.3 7.59039 4.68107 8.03238 5.08121 8.3281C5.49508 8.63397 6.05669 8.88382 6.70925 9.08342L7.11875 7.74464C6.54531 7.56924 6.14992 7.37709 5.91329 7.20221C5.66293 7.01718 5.7 6.93967 5.7 7.00003H4.3ZM6.72923 9.0892C8.29719 9.51829 9.91788 9.72391 11.5433 9.69995L11.5227 8.30011C10.029 8.32212 8.53965 8.13317 7.09877 7.73886L6.72923 9.0892ZM11.533 9.70003H12.466V8.30003H11.533V9.70003ZM12.4556 9.69995C14.0814 9.724 15.7025 9.51839 17.2708 9.0892L16.9012 7.73886C15.46 8.13326 13.9704 8.32221 12.4764 8.30011L12.4556 9.69995ZM17.2907 9.08342C17.9431 8.88388 18.5047 8.63433 18.9187 8.32858C19.3191 8.03275 19.7 7.59073 19.7 7.00003H18.3C18.3 6.94033 18.3369 7.01781 18.0868 7.20248C17.8503 7.37723 17.4549 7.56918 16.8813 7.74464L17.2907 9.08342ZM4.3 7.00003V12H5.7V7.00003H4.3ZM18.3 7.00003V12H19.7V7.00003H18.3ZM4.3 12C4.3 12.5904 4.68107 13.0324 5.08121 13.3281C5.49508 13.634 6.05669 13.8838 6.70925 14.0834L7.11875 12.7446C6.54531 12.5692 6.14992 12.3771 5.91329 12.2022C5.66293 12.0172 5.7 11.9397 5.7 12H4.3ZM6.72923 14.0892C8.29719 14.5183 9.91788 14.7239 11.5433 14.7L11.5227 13.3001C10.029 13.3221 8.53965 13.1332 7.09877 12.7389L6.72923 14.0892ZM11.533 14.7H12.466V13.3H11.533V14.7ZM12.4556 14.7C14.0814 14.724 15.7025 14.5184 17.2708 14.0892L16.9012 12.7389C15.46 13.1333 13.9704 13.3222 12.4764 13.3001L12.4556 14.7ZM17.2907 14.0834C17.9431 13.8839 18.5047 13.6343 18.9187 13.3286C19.3191 13.0327 19.7 12.5907 19.7 12H18.3C18.3 11.9403 18.3369 12.0178 18.0868 12.2025C17.8503 12.3772 17.4549 12.5692 16.8813 12.7446L17.2907 14.0834ZM4.3 12V17H5.7V12H4.3ZM4.3 17C4.3 17.5904 4.68107 18.0324 5.08121 18.3281C5.49508 18.634 6.05669 18.8838 6.70925 19.0834L7.11875 17.7446C6.54531 17.5692 6.14992 17.3771 5.91329 17.2022C5.66293 17.0172 5.7 16.9397 5.7 17H4.3ZM6.72923 19.0892C8.29719 19.5183 9.91788 19.7239 11.5433 19.7L11.5227 18.3001C10.029 18.3221 8.53965 18.1332 7.09877 17.7389L6.72923 19.0892ZM11.533 19.7H12.466V18.3H11.533V19.7ZM12.4556 19.7C14.0814 19.724 15.7025 19.5184 17.2708 19.0892L16.9012 17.7389C15.46 18.1333 13.9704 18.3222 12.4764 18.3001L12.4556 19.7ZM17.2907 19.0834C17.9433 18.8838 18.5049 18.634 18.9188 18.3281C19.3189 18.0324 19.7 17.5904 19.7 17H18.3C18.3 16.9397 18.3371 17.0172 18.0867 17.2022C17.8501 17.3771 17.4547 17.5692 16.8813 17.7446L17.2907 19.0834ZM19.7 17V12H18.3V17H19.7Z" fill="#282D38"/>
</svg>
