<svg width="80" height="80" viewBox="0 0 80 80" fill="none" xmlns="http://www.w3.org/2000/svg">
<g clip-path="url(#clip0_403_2939)">
<rect width="80" height="80" rx="40" fill="#BCC3E3"/>
<path d="M67.8707 65.1553C67.8707 69.3934 55.3924 72.8291 39.9997 72.8291C24.607 72.8291 12.1287 69.3934 12.1287 65.1553L8.20613 44.4154H71.7932L67.8707 65.1553Z" fill="#F8D250"/>
<path d="M71.5 44.4143C71.5 45.386 70.7882 46.4284 69.2102 47.4682C67.6522 48.4948 65.3647 49.4385 62.4932 50.2388C56.7572 51.8374 48.8045 52.8325 40 52.8325C31.1955 52.8325 23.2428 51.8374 17.5068 50.2388C14.6353 49.4385 12.3478 48.4948 10.7898 47.4682C9.2118 46.4284 8.5 45.386 8.5 44.4143C8.5 43.4426 9.2118 42.4003 10.7898 41.3605C12.3478 40.3339 14.6353 39.3901 17.5068 38.5899C23.2428 36.9913 31.1955 35.9962 40 35.9962C48.8045 35.9962 56.7572 36.9913 62.4932 38.5899C65.3647 39.3901 67.6522 40.3339 69.2102 41.3605C70.7882 42.4003 71.5 43.4426 71.5 44.4143Z" fill="#D8AF24" stroke="#D7B02E"/>
<path d="M41.8996 57.1482H38.7407C36.2551 57.1482 34.2401 55.1332 34.2401 52.6476H46.4001C46.4001 55.1332 44.3852 57.1482 41.8996 57.1482Z" fill="#B58C02"/>
<rect x="8" y="7" width="64" height="32.1469" rx="16.0735" fill="#F8D250"/>
<path d="M17.8874 37.9686L19.1903 47.1989C19.3837 48.5693 20.4894 49.6295 21.8667 49.7652L35.4759 51.106C36.968 51.253 38.3395 50.2758 38.6879 48.8175L41.1518 38.5041C41.5634 36.7811 40.4004 35.0785 38.6457 34.8354L24.3558 32.8553C23.7095 32.7658 23.0517 32.8893 22.482 33.2073L19.3959 34.9296C18.3135 35.5337 17.7141 36.7412 17.8874 37.9686Z" fill="white" stroke="white" stroke-width="1.2" stroke-linecap="round" stroke-linejoin="round"/>
<path d="M36.4735 42.0202L38.751 48.8842C39.1218 50.0017 40.112 50.799 41.2829 50.9228L48.0498 51.6384C49.8758 51.8315 51.4452 50.3537 51.3622 48.5194L51.0035 40.5911C50.9335 39.0438 49.6971 37.8041 48.1499 37.7301L39.7138 37.3266C38.3695 37.2623 37.1469 38.101 36.7231 39.3784L36.4735 40.1306C36.2699 40.744 36.2699 41.4068 36.4735 42.0202Z" fill="#E7ECF6" stroke="#E7ECF7" stroke-width="1.2" stroke-linecap="round" stroke-linejoin="round"/>
<path d="M46.4853 42.38L49.823 48.7134C50.4484 49.9001 51.7855 50.5274 53.0978 50.2499L60.9657 48.5859C62.2089 48.3229 63.1516 47.3052 63.3188 46.0455L64.0745 40.3524C64.2247 39.2201 63.719 38.1007 62.7699 37.4651L58.1667 34.3822C57.2297 33.7546 56.02 33.7056 55.0353 34.2552L47.6773 38.3617C46.255 39.1555 45.726 40.9391 46.4853 42.38Z" fill="white" stroke="white" stroke-width="1.2" stroke-linecap="round" stroke-linejoin="round"/>
<path d="M40.206 49.8058C18.5699 50.3036 11.0898 45.1259 9.91994 42.3606C9.27994 43.3078 8.51194 45.6627 10.5599 47.5041C13.1199 49.8058 28.2519 53.2905 40.206 52.6476C52.1601 52.0047 62.3997 51.3617 70.0799 46.8611C71.1465 45.361 72.6398 42.3606 70.0799 42.3606C68.8412 44.7111 61.8421 49.3081 40.206 49.8058Z" fill="#D7B02E" stroke="#D7B02E" stroke-linecap="round" stroke-linejoin="round"/>
<path d="M23.3601 39.1457L32.9601 41.0745" stroke="#789ADC" stroke-width="2" stroke-linecap="round"/>
<path d="M23.3601 44.2909L32.9601 46.2197" stroke="#789ADC" stroke-width="2" stroke-linecap="round"/>
<path d="M40 43.0048H44.48" stroke="#009846" stroke-width="2" stroke-linecap="round"/>
<path d="M40 43.0048H44.48" stroke="#789ADC" stroke-width="2" stroke-linecap="round"/>
<path d="M51.5201 41.7188L57.9201 37.8611" stroke="#789ADC" stroke-width="2" stroke-linecap="round"/>
<path d="M54.0802 45.5774L60.4802 41.7198" stroke="#789ADC" stroke-width="2" stroke-linecap="round"/>
</g>
<defs>
<clipPath id="clip0_403_2939">
<rect width="80" height="80" fill="white"/>
</clipPath>
</defs>
</svg>
