<svg width="40" height="40" viewBox="0 0 40 40" fill="none" xmlns="http://www.w3.org/2000/svg">
<circle cx="19" cy="12" r="4" fill="#69B7FF"/>
<circle cx="19" cy="12" r="4" fill="#69B7FF"/>
<circle cx="32" cy="16" r="4" fill="#69B7FF"/>
<circle cx="32" cy="16" r="4" fill="#69B7FF"/>
<circle cx="23" cy="28" r="4" fill="#69B7FF"/>
<circle cx="23" cy="28" r="4" fill="#69B7FF"/>
<path d="M21.5 25H22.5V23H21.5V25ZM7 23C6.44772 23 6 23.4477 6 24C6 24.5523 6.44772 25 7 25V23ZM21.5 23H7V25H21.5V23Z" fill="#282D38"/>
<path d="M32 19H31V21H32V19ZM27 16C27 16.5523 27.4477 17 28 17C28.5523 17 29 16.5523 29 16H27ZM35 16C35 17.6569 33.6569 19 32 19V21C34.7614 21 37 18.7614 37 16H35ZM29 16C29 14.3431 30.3431 13 32 13V11C29.2386 11 27 13.2386 27 16H29ZM32 13C33.6569 13 35 14.3431 35 16H37C37 13.2386 34.7614 11 32 11V13Z" fill="#282D38"/>
<path d="M30.5 21H31.5V19H30.5V21ZM9 19C8.44772 19 8 19.4477 8 20C8 20.5523 8.44772 21 9 21V19ZM30.5 19H9V21H30.5V19Z" fill="#282D38"/>
<path d="M19 16C21.2091 16 23 14.2091 23 12C23 9.79086 21.2091 8 19 8C16.7909 8 15 9.79086 15 12" stroke="#282D38" stroke-width="2" stroke-linecap="round"/>
<path d="M18 17L19 17L19 15L18 15L18 17ZM5 15C4.44772 15 4 15.4477 4 16C4 16.5523 4.44772 17 5 17L5 15ZM18 15L5 15L5 17L18 17L18 15Z" fill="#282D38"/>
<path d="M20 28C20 27.4477 19.5523 27 19 27C18.4477 27 18 27.4477 18 28H20ZM23 23H22V25H23V23ZM26 28C26 29.6569 24.6569 31 23 31V33C25.7614 33 28 30.7614 28 28H26ZM23 31C21.3431 31 20 29.6569 20 28H18C18 30.7614 20.2386 33 23 33V31ZM23 25C24.6569 25 26 26.3431 26 28H28C28 25.2386 25.7614 23 23 23V25Z" fill="#282D38"/>
</svg>
