<svg width="24" height="24" viewBox="0 0 24 24" fill="none" xmlns="http://www.w3.org/2000/svg">
<path fill-rule="evenodd" clip-rule="evenodd" d="M13.1667 18.086C13.1888 18.5672 12.8178 18.9757 12.3367 19H10.6637C10.1827 18.9757 9.81167 18.5672 9.83375 18.086V16.311C7.47499 15.4454 6.1366 12.9522 6.71861 10.508C7.30062 8.06376 9.619 6.44131 12.1147 6.73167C14.6105 7.02203 16.4944 9.13341 16.4998 11.646C16.4931 13.7513 15.1563 15.6224 13.1667 16.311V18.086Z" stroke="#282D38" stroke-width="1.4" stroke-linecap="round" stroke-linejoin="round"/>
<path d="M13.167 17.011C13.5536 17.011 13.867 16.6976 13.867 16.311C13.867 15.9244 13.5536 15.611 13.167 15.611V17.011ZM9.833 15.611C9.4464 15.611 9.133 15.9244 9.133 16.311C9.133 16.6976 9.4464 17.011 9.833 17.011V15.611ZM21 12.346C21.3866 12.346 21.7 12.0326 21.7 11.646C21.7 11.2594 21.3866 10.946 21 10.946V12.346ZM19 10.946C18.6134 10.946 18.3 11.2594 18.3 11.646C18.3 12.0326 18.6134 12.346 19 12.346V10.946ZM4 12.346C4.3866 12.346 4.7 12.0326 4.7 11.646C4.7 11.2594 4.3866 10.946 4 10.946V12.346ZM2 10.946C1.6134 10.946 1.3 11.2594 1.3 11.646C1.3 12.0326 1.6134 12.346 2 12.346V10.946ZM18.7098 5.49813C18.9849 5.22651 18.9877 4.7833 18.7161 4.5082C18.4445 4.23309 18.0013 4.23026 17.7262 4.50187L18.7098 5.49813ZM16.3082 5.90187C16.0331 6.17349 16.0303 6.6167 16.3019 6.8918C16.5735 7.16691 17.0167 7.16974 17.2918 6.89813L16.3082 5.90187ZM6.69251 17.3904C6.96723 17.1184 6.96943 16.6752 6.69743 16.4005C6.42543 16.1258 5.98222 16.1236 5.70749 16.3956L6.69251 17.3904ZM4.29349 17.7956C4.01877 18.0676 4.01657 18.5108 4.28857 18.7855C4.56057 19.0602 5.00378 19.0624 5.27851 18.7904L4.29349 17.7956ZM17.7285 18.7904C18.0032 19.0624 18.4464 19.0602 18.7184 18.7855C18.9904 18.5108 18.9882 18.0676 18.7135 17.7956L17.7285 18.7904ZM17.2995 16.3956C17.0248 16.1236 16.5816 16.1258 16.3096 16.4005C16.0376 16.6752 16.0398 17.1184 16.3145 17.3904L17.2995 16.3956ZM5.7082 6.89813C5.9833 7.16974 6.42651 7.16691 6.69813 6.8918C6.96974 6.6167 6.96691 6.17349 6.6918 5.90187L5.7082 6.89813ZM5.2738 4.50187C4.9987 4.23026 4.55549 4.23309 4.28387 4.5082C4.01226 4.7833 4.01509 5.22651 4.2902 5.49813L5.2738 4.50187ZM13.167 15.611H9.833V17.011H13.167V15.611ZM21 10.946H19V12.346H21V10.946ZM4 10.946H2V12.346H4V10.946ZM17.7262 4.50187L16.3082 5.90187L17.2918 6.89813L18.7098 5.49813L17.7262 4.50187ZM5.70749 16.3956L4.29349 17.7956L5.27851 18.7904L6.69251 17.3904L5.70749 16.3956ZM18.7135 17.7956L17.2995 16.3956L16.3145 17.3904L17.7285 18.7904L18.7135 17.7956ZM6.6918 5.90187L5.2738 4.50187L4.2902 5.49813L5.7082 6.89813L6.6918 5.90187Z" fill="#282D38"/>
</svg>
