<svg width="24" height="24" viewBox="0 0 24 24" fill="none" xmlns="http://www.w3.org/2000/svg">
<g clip-path="url(#clip0_1708_31506)">
<path d="M13.1104 12.0019C14.092 12.0019 14.8878 11.2062 14.8878 10.2245C14.8878 9.24291 14.092 8.44714 13.1104 8.44714C12.1288 8.44714 11.333 9.24291 11.333 10.2245C11.333 11.2062 12.1288 12.0019 13.1104 12.0019Z" stroke="#E45E63" stroke-width="1.4" stroke-linecap="round" stroke-linejoin="round"/>
<path d="M17.5538 7.5583C17.5662 7.20484 17.5057 6.85261 17.3761 6.52353C17.2465 6.19445 17.0506 5.89556 16.8005 5.64547C16.5504 5.39539 16.2515 5.19945 15.9225 5.06986C15.5934 4.94027 15.2412 4.8798 14.8877 4.89221V10.2244" stroke="#E45E63" stroke-width="1.4" stroke-linecap="round" stroke-linejoin="round"/>
<path d="M11.9104 15.5567C11.4919 15.9263 10.9922 16.1921 10.4518 16.3326C9.9114 16.4731 9.34551 16.4844 8.79997 16.3654C8.00925 16.1417 7.3109 15.6708 6.80717 15.0215C6.30344 14.3723 6.02078 13.5788 6.00057 12.7573V7.70951C5.9858 6.87335 6.25702 6.05721 6.76933 5.39622C7.28164 4.73522 8.00433 4.269 8.81774 4.07474C9.67779 3.89555 10.5737 4.04118 11.3327 4.48354" stroke="#773147" stroke-width="1.4" stroke-linecap="round" stroke-linejoin="round"/>
<path d="M13.1105 20.0001H6.00098M9.55576 16.4453V20.0001V16.4453Z" stroke="#773147" stroke-width="1.4" stroke-linecap="round" stroke-linejoin="round"/>
</g>
<defs>
<clipPath id="clip0_1708_31506">
<rect width="24" height="24" fill="white"/>
</clipPath>
</defs>
</svg>
