<svg width="24" height="24" viewBox="0 0 24 24" fill="none" xmlns="http://www.w3.org/2000/svg">
<path d="M20.0001 6.34033V9.46087H16.4895" fill="#37373C"/>
<path d="M20.0001 6.34033V9.46087H16.4895" stroke="black" stroke-width="2" stroke-linecap="round" stroke-linejoin="round"/>
<path d="M19.6099 9.2035L18.744 8.33755C18.1107 7.03717 17.1247 5.94097 15.8984 5.17402C14.6721 4.40707 13.255 4.00026 11.8086 4C10.3779 3.99868 8.97444 4.39079 7.75164 5.13345C6.52884 5.87611 5.5338 6.94073 4.87536 8.21086C4.21691 9.48099 3.92041 10.9077 4.01828 12.335C4.11615 13.7624 4.60463 15.1353 5.43029 16.3036C6.25594 17.472 7.38699 18.3908 8.69972 18.9596C10.0124 19.5284 11.4563 19.7253 12.8734 19.5287C14.2905 19.3321 15.6262 18.7496 16.7345 17.8449C17.8428 16.9402 18.681 15.7482 19.1575 14.3992" stroke="black" stroke-width="2" stroke-linecap="round" stroke-linejoin="round"/>
</svg>
