<svg width="24" height="24" viewBox="0 0 24 24" fill="none" xmlns="http://www.w3.org/2000/svg">
<path d="M17.7973 12.5804C17.819 10.8994 18.7217 9.30876 20.1539 8.4283C19.2504 7.13798 17.7371 6.31988 16.1627 6.27062C14.4835 6.09436 12.8555 7.27545 11.9998 7.27545C11.1275 7.27545 9.81004 6.28812 8.39131 6.31731C6.54206 6.37705 4.81809 7.42844 3.91839 9.04518C1.98439 12.3936 3.42698 17.3146 5.27959 20.0213C6.20649 21.3466 7.28977 22.8271 8.70722 22.7746C10.0943 22.717 10.6123 21.8901 12.2866 21.8901C13.9454 21.8901 14.4314 22.7746 15.8776 22.7412C17.366 22.717 18.3038 21.4099 19.1981 20.072C19.8641 19.1277 20.3766 18.084 20.7166 16.9795C18.9674 16.2397 17.7994 14.4795 17.7973 12.5804Z" fill="#282828"/>
<path d="M15.0656 4.49062C15.8772 3.51641 16.277 2.26423 16.1802 1C14.9403 1.13022 13.7951 1.72278 12.9726 2.65961C12.1683 3.57494 11.7497 4.80509 11.8289 6.021C13.0692 6.03377 14.2885 5.45727 15.0656 4.49062Z" fill="#282828"/>
<path d="M17.7973 12.5804C17.819 10.8994 18.7217 9.30876 20.1539 8.4283C19.2504 7.13798 17.7371 6.31988 16.1627 6.27062C14.4835 6.09436 12.8555 7.27545 11.9998 7.27545C11.1275 7.27545 9.81004 6.28812 8.39131 6.31731C6.54206 6.37705 4.81809 7.42844 3.91839 9.04518C1.98439 12.3936 3.42698 17.3146 5.27959 20.0213C6.20649 21.3466 7.28977 22.8271 8.70722 22.7746C10.0943 22.717 10.6123 21.8901 12.2866 21.8901C13.9454 21.8901 14.4314 22.7746 15.8776 22.7412C17.366 22.717 18.3038 21.4099 19.1981 20.072C19.8641 19.1277 20.3766 18.084 20.7166 16.9795C18.9674 16.2397 17.7994 14.4795 17.7973 12.5804Z" fill="#282828"/>
<path d="M15.0656 4.49062C15.8772 3.51641 16.277 2.26423 16.1802 1C14.9403 1.13022 13.7951 1.72278 12.9726 2.65961C12.1683 3.57494 11.7497 4.80509 11.8289 6.021C13.0692 6.03377 14.2885 5.45727 15.0656 4.49062Z" fill="#282828"/>
</svg>
