<svg width="32" height="32" viewBox="0 0 32 32" fill="none" xmlns="http://www.w3.org/2000/svg">
<g clip-path="url(#clip0_1426_18701)">
<circle cx="16" cy="16" r="14" fill="#3BDDD3"/>
<path d="M9.73504 16.6216C9.65529 16.6414 9.57293 16.6018 9.5389 16.527C9.11612 15.5976 6.65717 9.86597 8.99485 7.1154C11.2473 4.46515 14.0581 6.92202 14.138 10.4658C14.186 12.5975 13.8399 14.9771 13.7566 15.5142C13.7462 15.582 13.696 15.6366 13.6295 15.6531L9.73504 16.6216Z" fill="white"/>
<path d="M13.385 22.5048C12.2451 22.8096 11.0739 22.1326 10.7691 20.9926L10.1728 18.7623C10.1485 18.6714 10.2025 18.578 10.2934 18.5537L14.0922 17.538C14.1831 17.5137 14.2765 17.5677 14.3008 17.6586L14.8971 19.889C15.2019 21.0289 14.5249 22.2 13.385 22.5048Z" fill="white"/>
<path d="M22.2648 19.6537C22.3446 19.6736 22.427 19.6339 22.461 19.5591C22.8838 18.6298 25.3427 12.8981 23.0051 10.1476C20.7526 7.49732 17.9418 9.95419 17.862 13.498C17.8139 15.6297 18.16 18.0092 18.2433 18.5464C18.2538 18.6142 18.3039 18.6687 18.3705 18.6853L22.2648 19.6537Z" fill="white"/>
<path d="M18.6154 25.5365C19.7554 25.8413 20.9265 25.1643 21.2313 24.0244L21.8276 21.794C21.8519 21.7031 21.7979 21.6097 21.707 21.5854L17.9082 20.5697C17.8173 20.5454 17.7239 20.5994 17.6996 20.6903L17.1033 22.9207C16.7985 24.0606 17.4755 25.2317 18.6154 25.5365Z" fill="white"/>
</g>
<defs>
<clipPath id="clip0_1426_18701">
<rect width="32" height="32" fill="white"/>
</clipPath>
</defs>
</svg>
