<svg width="24" height="24" viewBox="0 0 24 24" fill="none" xmlns="http://www.w3.org/2000/svg">
<path d="M6 9.5V6C6 4.34315 7.34315 3 9 3H15C16.6569 3 18 4.34315 18 6V9.5M6 14.5V18C6 19.6569 7.34315 21 9 21H15C16.6569 21 18 19.6569 18 18V14.5" stroke="#773147" stroke-width="2"/>
<path d="M2 12H6.92462C8.26995 12 9.45077 12.8956 9.81351 14.1911L10.6 17L12 12" stroke="#773147" stroke-width="2" stroke-linejoin="round"/>
<path d="M22 12H17.0754C15.7301 12 14.5492 11.1044 14.1865 9.80889L13.4 7L12 12" stroke="#773147" stroke-width="2" stroke-linejoin="round"/>
</svg>
