<svg width="45" height="46" viewBox="0 0 45 46" fill="none" xmlns="http://www.w3.org/2000/svg">
<path fill-rule="evenodd" clip-rule="evenodd" d="M22.5 44C34.6503 44 44.5 34.1503 44.5 22C44.5 9.84974 34.6503 0 22.5 0C10.3497 0 0.5 9.84974 0.5 22C0.5 28.3533 3.1931 34.0776 7.5 38.0936V43.7639C7.5 45.2507 9.06462 46.2177 10.3944 45.5528L15.6649 42.9175C17.8164 43.6201 20.1139 44 22.5 44Z" fill="#C8C8D7"/>
<path d="M30 29.5L26.3833 25.8833M28.3333 21.1667C28.3333 22.4852 27.9423 23.7741 27.2098 24.8705C26.4773 25.9668 25.4361 26.8213 24.2179 27.3259C22.9997 27.8304 21.6593 27.9625 20.3661 27.7052C19.0729 27.448 17.885 26.8131 16.9526 25.8807C16.0203 24.9484 15.3853 23.7605 15.1281 22.4673C14.8709 21.1741 15.0029 19.8336 15.5075 18.6154C16.0121 17.3973 16.8665 16.3561 17.9629 15.6235C19.0592 14.891 20.3481 14.5 21.6667 14.5C23.4348 14.5 25.1305 15.2024 26.3807 16.4526C27.631 17.7029 28.3333 19.3986 28.3333 21.1667Z" stroke="white" stroke-width="4" stroke-linecap="round" stroke-linejoin="round"/>
</svg>
