<svg width="80" height="80" viewBox="0 0 80 80" fill="none" xmlns="http://www.w3.org/2000/svg">
<g clip-path="url(#clip0_1708_30776)">
<rect width="80" height="80" rx="40" fill="#8CA9F3"/>
<path d="M71.9359 42.9375C73.3964 42.4704 74.2015 40.908 73.7343 39.448C73.267 37.9879 71.7044 37.1829 70.2439 37.6501C68.7835 38.1172 67.9784 39.6795 68.4456 41.1396C68.9128 42.5996 70.4755 43.4046 71.9359 42.9375Z" fill="white" stroke="#2D2DAB" stroke-width="2" stroke-miterlimit="22.9256" stroke-linecap="round" stroke-linejoin="round"/>
<path d="M41.6818 10.8886C42.7661 9.80456 42.7661 8.04701 41.6818 6.96298C40.5975 5.87896 38.8395 5.87896 37.7553 6.96298C36.671 8.04701 36.671 9.80456 37.7553 10.8886C38.8395 11.9726 40.5975 11.9726 41.6818 10.8886Z" fill="white" stroke="#2D2DAB" stroke-width="2" stroke-miterlimit="22.9256" stroke-linecap="round" stroke-linejoin="round"/>
<path d="M11.0462 40.9341C11.4015 39.4428 10.4803 37.9458 8.98858 37.5906C7.49687 37.2354 5.99958 38.1564 5.64429 39.6478C5.289 41.1392 6.21024 42.6361 7.70195 42.9913C9.19366 43.3465 10.6909 42.4255 11.0462 40.9341Z" fill="white" stroke="#2D2DAB" stroke-width="2" stroke-miterlimit="22.9256" stroke-linecap="round" stroke-linejoin="round"/>
<path d="M42.4203 72.2996C42.7756 70.8083 41.8543 69.3113 40.3626 68.9561C38.8709 68.6009 37.3736 69.5219 37.0183 71.0133C36.663 72.5046 37.5843 74.0016 39.076 74.3568C40.5677 74.712 42.065 73.791 42.4203 72.2996Z" fill="white" stroke="#2D2DAB" stroke-width="2" stroke-miterlimit="22.9256" stroke-linecap="round" stroke-linejoin="round"/>
<path d="M73.2387 19.8434C74.2114 18.6582 74.0388 16.9091 72.8533 15.9367C71.6679 14.9643 69.9183 15.1368 68.9457 16.322C67.9731 17.5072 68.1456 19.2563 69.3311 20.2287C70.5166 21.2012 72.2661 21.0287 73.2387 19.8434Z" fill="white" stroke="#2D2DAB" stroke-width="2" stroke-miterlimit="22.9256" stroke-linecap="round" stroke-linejoin="round"/>
<path d="M11.0831 62.9474C11.3303 61.4345 10.3039 60.0076 8.79054 59.7605C7.27721 59.5134 5.85003 60.5395 5.60284 62.0525C5.35566 63.5655 6.38207 64.9923 7.8954 65.2395C9.40873 65.4866 10.8359 64.4604 11.0831 62.9474Z" fill="white" stroke="#2D2DAB" stroke-width="2" stroke-miterlimit="22.9256" stroke-linecap="round" stroke-linejoin="round"/>
<path d="M54.1152 25.8997L61.9311 18.0857H68.1264" stroke="#2D2DAB" stroke-width="2" stroke-miterlimit="22.9256" stroke-linecap="round" stroke-linejoin="round"/>
<path d="M25.6706 54.3381L17.5077 62.4991H11.3125" stroke="#2D2DAB" stroke-width="2" stroke-miterlimit="22.9256" stroke-linecap="round" stroke-linejoin="round"/>
<path d="M67.8095 40.2925H59.7314" stroke="#2D2DAB" stroke-width="2" stroke-miterlimit="22.9256" stroke-linecap="round" stroke-linejoin="round"/>
<path d="M39.7188 12.2085V21.4644" stroke="#2D2DAB" stroke-width="2" stroke-miterlimit="22.9256" stroke-linecap="round" stroke-linejoin="round"/>
<path d="M11.6289 40.2925H19.1517" stroke="#2D2DAB" stroke-width="2" stroke-miterlimit="22.9256" stroke-linecap="round" stroke-linejoin="round"/>
<path d="M39.7197 68.3764V59.5369" stroke="#2D2DAB" stroke-width="2" stroke-miterlimit="22.9256" stroke-linecap="round" stroke-linejoin="round"/>
<path d="M71.935 65.1433C73.3954 64.6762 74.2005 63.1139 73.7333 61.6538C73.2661 60.1937 71.7034 59.3887 70.243 59.8559C68.7825 60.323 67.9774 61.8853 68.4446 63.3454C68.9119 64.8055 70.4745 65.6104 71.935 65.1433Z" fill="white" stroke="#2D2DAB" stroke-width="2" stroke-miterlimit="22.9256" stroke-linecap="round" stroke-linejoin="round"/>
<path d="M8.9876 20.7866C10.4793 20.4314 11.4006 18.9344 11.0453 17.4431C10.69 15.9517 9.19268 15.0307 7.70098 15.3859C6.20927 15.7411 5.28802 17.238 5.64331 18.7294C5.99861 20.2207 7.4959 21.1418 8.9876 20.7866Z" fill="white" stroke="#2D2DAB" stroke-width="2" stroke-miterlimit="22.9256" stroke-linecap="round" stroke-linejoin="round"/>
<path d="M53.3867 53.9565L61.9314 62.4992H68.1267" stroke="#2D2DAB" stroke-width="2" stroke-miterlimit="22.9256" stroke-linecap="round" stroke-linejoin="round"/>
<path d="M25.4624 26.0385L17.5077 18.0857H11.3125" stroke="#2D2DAB" stroke-width="2" stroke-miterlimit="22.9256" stroke-linecap="round" stroke-linejoin="round"/>
<path fill-rule="evenodd" clip-rule="evenodd" d="M48.0483 31.9648V48.6199C48.0483 50.3445 44.3192 51.7427 39.7188 51.7427C35.1184 51.7427 31.3893 50.3445 31.3893 48.6199V31.9648C31.3893 30.2402 35.1186 28.842 39.7188 28.842C44.319 28.842 48.0483 30.24 48.0483 31.9648ZM50.4633 24.6721C48.3114 23.1897 45.8381 22.1401 43.1689 21.6495L42.879 18.0854H36.5586L36.2687 21.6494C33.5997 22.14 31.1267 23.1901 28.9746 24.6724L26.2471 22.3557L21.7779 26.8238L24.095 29.5504C22.612 31.7018 21.5618 34.1745 21.0709 36.8431L17.5068 37.1327V43.4517L21.0716 43.7413C21.5623 46.4099 22.6127 48.8822 24.0953 51.0337L21.7781 53.7606L26.2472 58.2289L28.9745 55.9123C31.1264 57.395 33.5997 58.4448 36.2689 58.9357L36.5586 62.4989H42.879L43.1689 58.935C45.8381 58.4444 48.3109 57.3944 50.463 55.9121L53.1905 58.2289L57.6597 53.7607L55.3426 51.0341C56.8256 48.8827 57.8757 46.41 58.3667 43.7414L61.9308 43.4518V37.1329L58.3664 36.8432C57.8757 34.1745 56.8256 31.7018 55.3427 29.5502L57.6595 26.8239L53.1904 22.3558L50.4633 24.6721Z" fill="#C1D1F8"/>
<path fill-rule="evenodd" clip-rule="evenodd" d="M48.0486 48.6199C48.0486 50.3445 44.3195 51.7427 39.7191 51.7427C35.1188 51.7427 31.3896 50.3445 31.3896 48.6199V31.9649C31.3896 30.2402 35.1189 28.842 39.7191 28.842C44.3194 28.842 48.0486 30.2402 48.0486 31.9649V48.6199Z" fill="white" stroke="#2D2DAB" stroke-width="2" stroke-miterlimit="22.9256" stroke-linecap="round" stroke-linejoin="round"/>
<path d="M31.3906 32.0193C31.4699 33.7224 35.1753 35.0876 39.7189 35.0876C44.2625 35.0876 47.9677 33.7224 48.0471 32.0193" stroke="#2D2DAB" stroke-width="2" stroke-miterlimit="22.9256" stroke-linecap="round" stroke-linejoin="round"/>
<path d="M31.3906 37.571C31.4699 39.2742 35.1753 40.6393 39.7189 40.6393C44.2625 40.6393 47.9677 39.2742 48.0471 37.571" stroke="#2D2DAB" stroke-width="2" stroke-miterlimit="22.9256" stroke-linecap="round" stroke-linejoin="round"/>
<path d="M31.3906 43.1227C31.4699 44.8258 35.1753 46.191 39.7189 46.191C44.2625 46.191 47.9677 44.8258 48.0471 43.1227" stroke="#2D2DAB" stroke-width="2" stroke-miterlimit="22.9256" stroke-linecap="round" stroke-linejoin="round"/>
</g>
<defs>
<clipPath id="clip0_1708_30776">
<rect width="80" height="80" fill="white"/>
</clipPath>
</defs>
</svg>
