<svg width="30" height="30" viewBox="0 0 30 30" fill="none" xmlns="http://www.w3.org/2000/svg">
<rect width="30" height="30" rx="4" fill="black"/>
<path d="M15.2078 9.97031C15.9844 9.97031 16.9578 9.44531 17.5375 8.74531C18.0625 8.11094 18.4453 7.225 18.4453 6.33906C18.4453 6.21875 18.4344 6.09844 18.4125 6C17.5484 6.03281 16.5094 6.57969 15.8859 7.3125C15.3938 7.87031 14.9453 8.74531 14.9453 9.64219C14.9453 9.77344 14.9672 9.90469 14.9781 9.94844C15.0328 9.95937 15.1203 9.97031 15.2078 9.97031ZM12.4734 23.2047C13.5344 23.2047 14.0047 22.4937 15.3281 22.4937C16.6734 22.4937 16.9688 23.1828 18.15 23.1828C19.3094 23.1828 20.0859 22.1109 20.8188 21.0609C21.6391 19.8578 21.9781 18.6766 22 18.6219C21.9234 18.6 19.7031 17.6922 19.7031 15.1438C19.7031 12.9344 21.4531 11.9391 21.5516 11.8625C20.3922 10.2 18.6312 10.1562 18.15 10.1562C16.8484 10.1562 15.7875 10.9437 15.1203 10.9437C14.3984 10.9437 13.4469 10.2 12.3203 10.2C10.1766 10.2 8 11.9719 8 15.3188C8 17.3969 8.80937 19.5953 9.80469 21.0172C10.6578 22.2203 11.4016 23.2047 12.4734 23.2047Z" fill="white"/>
</svg>
