<svg width="32" height="32" viewBox="0 0 32 32" fill="none" xmlns="http://www.w3.org/2000/svg">
<circle cx="16" cy="16" r="14" fill="#5FCDF0"/>
<path d="M21 12.6771C21 12.2682 21.249 11.9005 21.6286 11.7486L24.6286 10.5486C25.2855 10.2858 26 10.7696 26 11.4771V20.523C26 21.2305 25.2855 21.7142 24.6286 21.4515L21.6286 20.2515C21.249 20.0996 21 19.7319 21 19.323V12.6771Z" fill="white"/>
<path fill-rule="evenodd" clip-rule="evenodd" d="M9 9.00003C7.34315 9.00003 6 10.3432 6 12V20C6 21.6569 7.34315 23 9 23H17C18.6569 23 20 21.6569 20 20V12C20 10.3432 18.6569 9.00003 17 9.00003H9ZM13 18C14.1046 18 15 17.1046 15 16C15 14.8955 14.1046 14 13 14C11.8955 14 11 14.8955 11 16C11 17.1046 11.8955 18 13 18Z" fill="white"/>
</svg>
