<svg width="32" height="32" viewBox="0 0 32 32" fill="none" xmlns="http://www.w3.org/2000/svg">
<circle cx="16" cy="16" r="14" fill="#215B9F"/>
<path fill-rule="evenodd" clip-rule="evenodd" d="M16.0001 17.9091C17.4203 17.9091 18.5716 19.0487 18.5716 20.4545C18.5716 21.8603 17.4203 22.9999 16.0001 22.9999C14.58 22.9999 13.4287 21.8603 13.4287 20.4545C13.4287 19.0487 14.58 17.9091 16.0001 17.9091Z" stroke="white" stroke-width="1.5" stroke-linecap="round" stroke-linejoin="round"/>
<path d="M9.35194 14.7715C9.02471 15.0254 8.96531 15.4966 9.21926 15.8238C9.47322 16.151 9.94436 16.2104 10.2716 15.9565L9.35194 14.7715ZM21.7269 15.9565C22.0542 16.2104 22.5253 16.151 22.7793 15.8238C23.0332 15.4966 22.9738 15.0254 22.6466 14.7715L21.7269 15.9565ZM6.54236 11.5873C6.2142 11.8401 6.15306 12.311 6.40581 12.6392C6.65856 12.9673 7.12948 13.0285 7.45764 12.7757L6.54236 11.5873ZM24.5637 12.7916C24.9007 13.0325 25.3691 12.9547 25.6101 12.6178C25.851 12.2809 25.7732 11.8124 25.4363 11.5715L24.5637 12.7916ZM10.2716 15.9565C13.6343 13.3468 18.3643 13.3468 21.7269 15.9565L22.6466 14.7715C18.7428 11.7418 13.2558 11.7418 9.35194 14.7715L10.2716 15.9565ZM7.45764 12.7757C11.0636 9.99847 14.5462 9.46228 17.5085 9.87235C20.4973 10.2861 22.9965 11.6708 24.5637 12.7916L25.4363 11.5715C23.7519 10.367 21.0254 8.84489 17.7142 8.38652C14.3764 7.92447 10.4848 8.5509 6.54236 11.5873L7.45764 12.7757Z" fill="white"/>
</svg>
