<svg width="24" height="24" viewBox="0 0 24 24" fill="none" xmlns="http://www.w3.org/2000/svg">
<path d="M9.96281 17.5761L10.4196 18.6033C10.5554 18.9091 10.7769 19.1689 11.0575 19.3513C11.338 19.5336 11.6654 19.6307 12 19.6306C12.3346 19.6307 12.662 19.5336 12.9425 19.3513C13.2231 19.1689 13.4446 18.9091 13.5804 18.6033L14.0372 17.5761C14.1998 17.2115 14.4733 16.9076 14.8187 16.7077C15.1663 16.5072 15.5685 16.4218 15.9676 16.4637L17.0852 16.5826C17.4178 16.6178 17.7536 16.5557 18.0517 16.4039C18.3498 16.2521 18.5974 16.0171 18.7646 15.7273C18.932 15.4377 19.0117 15.1058 18.9941 14.7717C18.9766 14.4377 18.8624 14.116 18.6656 13.8455L18.0039 12.9364C17.7683 12.6102 17.6424 12.2176 17.6444 11.8153C17.6443 11.4141 17.7714 11.0231 18.0074 10.6986L18.6691 9.7894C18.8659 9.51898 18.98 9.19723 18.9976 8.86321C19.0152 8.52918 18.9354 8.19724 18.7681 7.90765C18.6009 7.61789 18.3532 7.38285 18.0551 7.23102C17.757 7.0792 17.4213 7.01712 17.0886 7.05231L15.971 7.17128C15.5719 7.21319 15.1698 7.12778 14.8222 6.92727C14.4761 6.72617 14.2025 6.42068 14.0407 6.05456L13.5804 5.02728C13.4446 4.72149 13.2231 4.46166 12.9425 4.27932C12.662 4.09697 12.3346 3.99995 12 4C11.6654 3.99995 11.338 4.09697 11.0575 4.27932C10.7769 4.46166 10.5554 4.72149 10.4196 5.02728L9.96281 6.05456C9.80098 6.42068 9.5274 6.72617 9.18128 6.92727C8.83367 7.12778 8.43154 7.21319 8.03243 7.17128L6.91137 7.05231C6.5787 7.01712 6.24296 7.0792 5.94486 7.23102C5.64677 7.38285 5.39912 7.61789 5.23195 7.90765C5.06456 8.19724 4.98481 8.52918 5.00239 8.86321C5.01996 9.19723 5.13409 9.51898 5.33094 9.7894L5.99264 10.6986C6.22861 11.0231 6.35569 11.4141 6.35561 11.8153C6.35569 12.2165 6.22861 12.6075 5.99264 12.932L5.33094 13.8412C5.13409 14.1116 5.01996 14.4334 5.00239 14.7674C4.98481 15.1014 5.06456 15.4334 5.23195 15.723C5.39929 16.0126 5.64696 16.2475 5.94501 16.3993C6.24307 16.5511 6.57872 16.6133 6.91137 16.5783L8.02896 16.4593C8.42806 16.4174 8.8302 16.5028 9.17781 16.7033C9.52522 16.9039 9.80007 17.2094 9.96281 17.5761Z" stroke="#282D38" stroke-width="1.4" stroke-linecap="round" stroke-linejoin="round"/>
<path d="M11.9984 14.1602C13.2933 14.1602 14.343 13.1105 14.343 11.8156C14.343 10.5207 13.2933 9.47104 11.9984 9.47104C10.7035 9.47104 9.65381 10.5207 9.65381 11.8156C9.65381 13.1105 10.7035 14.1602 11.9984 14.1602Z" stroke="#282D38" stroke-width="1.4" stroke-linecap="round" stroke-linejoin="round"/>
</svg>
