<svg width="32" height="32" viewBox="0 0 32 32" fill="none" xmlns="http://www.w3.org/2000/svg">
<circle cx="16" cy="16" r="14" fill="#668900"/>
<path fill-rule="evenodd" clip-rule="evenodd" d="M24 16C24 20.4183 20.4183 24 16 24C11.5817 24 8 20.4183 8 16C8 11.5818 11.5817 8.00003 16 8.00003C18.1217 8.00003 20.1566 8.84289 21.6569 10.3432C23.1571 11.8435 24 13.8783 24 16ZM13.0008 15.0015C12.4485 15.0015 12.0008 14.5538 12.0008 14.0015C12.0008 13.4492 12.4485 13.0015 13.0008 13.0015C13.5531 13.0015 14.0008 13.4492 14.0008 14.0015C14.0008 14.5538 13.5531 15.0015 13.0008 15.0015ZM16.2071 16.4357C15.8874 16.3683 15.5411 16.4587 15.2929 16.707L13.1716 18.8283C12.781 19.2188 12.781 19.852 13.1716 20.2425C13.5621 20.633 14.1953 20.633 14.5858 20.2425L16.2071 18.6212L17.8284 20.2425C18.219 20.633 18.8521 20.633 19.2426 20.2425C19.6332 19.852 19.6332 19.2188 19.2426 18.8283L17.1213 16.707C16.8731 16.4587 16.5268 16.3683 16.2071 16.4357ZM18.0008 14.0015C18.0008 14.5538 18.4485 15.0015 19.0008 15.0015C19.5531 15.0015 20.0008 14.5538 20.0008 14.0015C20.0008 13.4492 19.5531 13.0015 19.0008 13.0015C18.4485 13.0015 18.0008 13.4492 18.0008 14.0015Z" fill="white"/>
</svg>
