<svg width="24" height="24" viewBox="0 0 24 24" fill="none" xmlns="http://www.w3.org/2000/svg">
<g clip-path="url(#clip0_1705_37924)">
<path d="M18.7778 15.1704L14.9581 18.9901H12.7798V16.8119L16.5995 12.9921C16.745 12.8496 16.9405 12.7697 17.1441 12.7697C17.3478 12.7697 17.5433 12.8496 17.6887 12.9921L18.7778 14.0812C18.9204 14.2267 19.0002 14.4222 19.0002 14.6258C19.0002 14.8294 18.9204 15.025 18.7778 15.1704V15.1704Z" stroke="#282D38" stroke-width="1.4" stroke-linecap="round" stroke-linejoin="round"/>
<path d="M15.8916 9.86522C15.8955 9.79526 15.8955 9.72513 15.8916 9.65517C15.8892 8.7471 15.6219 7.85947 15.1226 7.10101C14.6232 6.34255 13.9135 5.74622 13.0803 5.38506C12.2472 5.0239 11.3268 4.91361 10.4319 5.06769C9.53696 5.22177 8.70643 5.63354 8.04203 6.25255C7.37763 6.87155 6.90822 7.67091 6.69129 8.55269C6.47437 9.43447 6.51936 10.3604 6.82075 11.217C7.12214 12.0736 7.66685 12.8237 8.38813 13.3753C9.10941 13.927 9.97595 14.2563 10.8816 14.3229" stroke="#282D38" stroke-width="1.4" stroke-linecap="round" stroke-linejoin="round"/>
<path d="M9.66774 18.9903C6.20583 18.7024 5 17.4344 5 17.4344V16.6564C5.00273 15.8323 5.26715 15.0303 5.75512 14.3662C6.24309 13.702 6.9294 13.21 7.71507 12.9611" stroke="#282D38" stroke-width="1.4" stroke-linecap="round" stroke-linejoin="round"/>
</g>
<defs>
<clipPath id="clip0_1705_37924">
<rect width="24" height="24" fill="white"/>
</clipPath>
</defs>
</svg>
