<svg width="32" height="32" viewBox="0 0 32 32" fill="none" xmlns="http://www.w3.org/2000/svg">
<g clip-path="url(#clip0_1426_18682)">
<circle cx="16" cy="16" r="14" fill="#F9945B"/>
<path fill-rule="evenodd" clip-rule="evenodd" d="M7 9.00003C7 7.89546 7.89543 7.00003 9 7.00003H17C18.1046 7.00003 19 7.89546 19 9.00003V25H7V9.00003ZM10 13C10 12.4477 10.4477 12 11 12H15C15.5523 12 16 12.4477 16 13C16 13.5523 15.5523 14 15 14H11C10.4477 14 10 13.5523 10 13ZM11 16C10.4477 16 10 16.4477 10 17C10 17.5523 10.4477 18 11 18H15C15.5523 18 16 17.5523 16 17C16 16.4477 15.5523 16 15 16H11Z" fill="white"/>
<path d="M20.5 12.5447C20.5 11.7125 21.4571 11.2444 22.1139 11.7553L24.2279 13.3995C24.7151 13.7784 25 14.361 25 14.9782V25H20.5V12.5447Z" fill="white"/>
</g>
<defs>
<clipPath id="clip0_1426_18682">
<rect width="32" height="32" fill="white"/>
</clipPath>
</defs>
</svg>
