<svg width="32" height="32" viewBox="0 0 32 32" fill="none" xmlns="http://www.w3.org/2000/svg">
<circle cx="16" cy="16" r="14" fill="#E962DC"/>
<path fill-rule="evenodd" clip-rule="evenodd" d="M14.2408 9.22462C17.9641 8.26247 21.7674 10.4796 22.7648 14.1936C23.3739 13.8508 24.139 13.9741 24.6096 14.4909C25.0802 15.0077 25.1315 15.781 24.7332 16.3554C24.335 16.9298 23.5928 17.1531 22.9438 16.8936C22.4971 20.388 19.5231 23.006 16.0003 23.006C12.4774 23.006 9.50346 20.388 9.05677 16.8936C8.40774 17.1531 7.66555 16.9298 7.2673 16.3554C6.86906 15.781 6.92033 15.0077 7.39092 14.4909C7.8615 13.9741 8.62667 13.8508 9.23577 14.1936C9.88931 11.7579 11.8004 9.86056 14.2408 9.22462ZM12.0008 16.0015C12.0008 16.5538 12.4485 17.0015 13.0008 17.0015C13.5531 17.0015 14.0008 16.5538 14.0008 16.0015C14.0008 15.4492 13.5531 15.0015 13.0008 15.0015C12.4485 15.0015 12.0008 15.4492 12.0008 16.0015ZM18.0008 16.0015C18.0008 16.5538 18.4485 17.0015 19.0008 17.0015C19.5531 17.0015 20.0008 16.5538 20.0008 16.0015C20.0008 15.4492 19.5531 15.0015 19.0008 15.0015C18.4485 15.0015 18.0008 15.4492 18.0008 16.0015Z" fill="white"/>
<path d="M14.2409 9.22464C13.6003 10.8591 14.2696 12.7152 15.8059 13.5646C16.3245 13.8522 16.9079 14.0026 17.5009 14.0016" stroke="#E962DC" stroke-linecap="round"/>
</svg>
