<svg width="62" height="62" viewBox="0 0 62 62" fill="none" xmlns="http://www.w3.org/2000/svg">
<g filter="url(#filter0_d_987_12444)">
<path d="M31 7.00125C34.3027 7.09277 36.2681 11.1237 39.3206 12.3881C42.0317 13.5111 45.9529 11.8986 47.9696 14.0303C50.2404 16.4305 48.7797 20.6705 50.0441 23.723C51.1672 26.4341 55.0801 28.0667 54.9987 31C54.9072 34.3027 50.8763 36.2681 49.612 39.3206C48.4889 42.0317 50.1014 45.9529 47.9696 47.9696C45.5696 50.2403 41.3296 48.7797 38.277 50.0441C35.566 51.1671 33.9334 55.08 31 54.9988C27.6973 54.9072 25.7319 50.8762 22.6794 49.6119C19.9683 48.4889 16.0471 50.1014 14.0304 47.9696C11.7596 45.5695 13.2202 41.3295 11.9559 38.277C10.8328 35.5659 6.91989 33.9333 7.00125 31C7.09277 27.6972 11.1237 25.7319 12.388 22.6794C13.5111 19.9682 11.8986 16.047 14.0304 14.0303C16.4304 11.7596 20.6704 13.2202 23.723 11.9558C26.434 10.8329 28.0666 6.91999 31 7.00125Z" fill="#FF7A00" fill-opacity="0.7" shape-rendering="crispEdges"/>
<path d="M31 7.00125C34.3027 7.09277 36.2681 11.1237 39.3206 12.3881C42.0317 13.5111 45.9529 11.8986 47.9696 14.0303C50.2404 16.4305 48.7797 20.6705 50.0441 23.723C51.1672 26.4341 55.0801 28.0667 54.9987 31C54.9072 34.3027 50.8763 36.2681 49.612 39.3206C48.4889 42.0317 50.1014 45.9529 47.9696 47.9696C45.5696 50.2403 41.3296 48.7797 38.277 50.0441C35.566 51.1671 33.9334 55.08 31 54.9988C27.6973 54.9072 25.7319 50.8762 22.6794 49.6119C19.9683 48.4889 16.0471 50.1014 14.0304 47.9696C11.7596 45.5695 13.2202 41.3295 11.9559 38.277C10.8328 35.5659 6.91989 33.9333 7.00125 31C7.09277 27.6972 11.1237 25.7319 12.388 22.6794C13.5111 19.9682 11.8986 16.047 14.0304 14.0303C16.4304 11.7596 20.6704 13.2202 23.723 11.9558C26.434 10.8329 28.0666 6.91999 31 7.00125Z" stroke="#A85E1A" stroke-miterlimit="22.926" stroke-linecap="round" stroke-linejoin="round" shape-rendering="crispEdges"/>
</g>
<path d="M30.9998 48.1428C40.4417 48.1428 48.1426 40.4419 48.1426 31C48.1426 21.5581 40.4417 13.8572 30.9998 13.8572C21.5578 13.8572 13.8569 21.5581 13.8569 31C13.8569 40.4419 21.5578 48.1428 30.9998 48.1428Z" fill="white" fill-opacity="0.6" stroke="#A85E1A" stroke-miterlimit="22.926" stroke-linecap="round" stroke-linejoin="round"/>
<path d="M29.8894 29.6482L30.4894 30.6874L29.2319 31.4134L31.0019 34.4791L29.7756 35.1871L25.7136 28.1515L26.9399 27.4435L28.6319 30.3742L29.8894 29.6482ZM28.4832 34.0766C27.8099 34.6223 26.9528 35.2419 25.912 35.9352C24.8741 36.6175 23.801 37.2787 22.6924 37.9187L21.9945 36.9498C22.8952 36.4298 23.6839 35.956 24.3607 35.5283L23.8687 34.6761C23.2625 34.906 22.6971 34.9507 22.1725 34.8102C21.648 34.6696 21.2437 34.3534 20.9597 33.8615C20.7357 33.4735 20.6456 33.0775 20.6895 32.6734C20.7293 32.2625 20.8888 31.8747 21.168 31.5103C21.4432 31.139 21.8198 30.8153 22.2979 30.5393C22.769 30.2673 23.2342 30.105 23.6934 30.0523C24.1555 29.9887 24.571 30.0445 24.9399 30.2194C25.3118 30.3835 25.6097 30.6595 25.8337 31.0475C26.1217 31.5463 26.1919 32.06 26.0445 32.5886C25.897 33.1171 25.5687 33.5884 25.0595 34.0025L25.5215 34.8027C26.4733 34.1793 27.2384 33.6405 27.8169 33.1865L28.4832 34.0766ZM23.9719 33.4388C24.3322 33.2308 24.5737 32.9851 24.6965 32.7017C24.8152 32.4115 24.7946 32.1278 24.6346 31.8506L24.5446 31.6947C24.3846 31.4176 24.1512 31.2614 23.8445 31.226C23.5337 31.1838 23.1982 31.2666 22.8379 31.4746C22.4776 31.6826 22.2381 31.9318 22.1193 32.222C21.9966 32.5054 22.0152 32.7856 22.1752 33.0627L22.2652 33.2186C22.4252 33.4958 22.6606 33.6555 22.9713 33.6977C23.2781 33.7331 23.6116 33.6468 23.9719 33.4388ZM26.9671 38.5546L31.945 35.6806L32.533 36.699L27.1082 39.831C26.5817 40.135 26.1664 40.0237 25.8624 39.4972L24.6684 37.4291L25.9051 36.7151L26.9671 38.5546ZM33.0842 25.7113L30.3822 27.2713L29.7882 26.2425L36.4601 22.3905L37.0541 23.4193L34.3625 24.9733C34.6009 25.4823 34.6777 26.0153 34.5928 26.5724L34.6568 26.5631L34.8366 26.1545C34.9221 25.9666 35.0376 25.8306 35.1831 25.7466C35.3008 25.6786 35.4277 25.6423 35.5636 25.6378L38.7985 25.4328L38.669 26.7685L34.9991 26.892C34.8395 26.9196 34.7181 26.9573 34.635 27.0053C34.5449 27.0573 34.4787 27.1186 34.4363 27.1893C34.1573 28.034 33.5027 29.1001 32.4724 30.3877L31.2733 29.8468C32.0896 28.8767 32.6377 28.066 32.9176 27.4148C33.1975 26.7636 33.2531 26.1958 33.0842 25.7113ZM40.8498 27.8097L37.1917 29.9217L39.0517 33.1433L37.8046 33.8633L35.9446 30.6417L32.2865 32.7537L31.6805 31.704L40.2438 26.76L40.8498 27.8097Z" fill="#A85E1A"/>
<defs>
<filter id="filter0_d_987_12444" x="0.5" y="0.5" width="61" height="61" filterUnits="userSpaceOnUse" color-interpolation-filters="sRGB">
<feFlood flood-opacity="0" result="BackgroundImageFix"/>
<feColorMatrix in="SourceAlpha" type="matrix" values="0 0 0 0 0 0 0 0 0 0 0 0 0 0 0 0 0 0 127 0" result="hardAlpha"/>
<feOffset/>
<feGaussianBlur stdDeviation="3"/>
<feComposite in2="hardAlpha" operator="out"/>
<feColorMatrix type="matrix" values="0 0 0 0 0 0 0 0 0 0 0 0 0 0 0 0 0 0 0.3 0"/>
<feBlend mode="normal" in2="BackgroundImageFix" result="effect1_dropShadow_987_12444"/>
<feBlend mode="normal" in="SourceGraphic" in2="effect1_dropShadow_987_12444" result="shape"/>
</filter>
</defs>
</svg>
