<svg width="41" height="40" viewBox="0 0 41 40" fill="none" xmlns="http://www.w3.org/2000/svg">
<path d="M23.2692 8.33301C22.2169 8.33301 21.3654 9.2012 21.3654 10.2741V21.5677C21.3654 22.0547 20.9777 22.45 20.5 22.45C20.0223 22.45 19.6346 22.0547 19.6346 21.5677V10.2741C19.6346 9.2012 18.7831 8.33301 17.7308 8.33301H9.25V27.038H16.81C18.1669 27.038 19.4546 27.4968 20.5 28.3297C21.5385 27.4898 22.8331 27.038 24.19 27.038H31.75V8.33301H23.2692ZM14.6154 20.6854H11.8462C11.3685 20.6854 10.9808 20.2901 10.9808 19.8031C10.9808 19.316 11.3685 18.9207 11.8462 18.9207H14.6154C15.0931 18.9207 15.4808 19.316 15.4808 19.8031C15.4808 20.2901 15.0931 20.6854 14.6154 20.6854ZM16.6923 17.1561H11.8462C11.3685 17.1561 10.9808 16.7608 10.9808 16.2738C10.9808 15.7868 11.3685 15.3915 11.8462 15.3915H16.6923C17.17 15.3915 17.5577 15.7868 17.5577 16.2738C17.5577 16.7608 17.17 17.1561 16.6923 17.1561ZM16.6923 13.6269H11.8462C11.3685 13.6269 10.9808 13.2316 10.9808 12.7446C10.9808 12.2575 11.3685 11.8623 11.8462 11.8623H16.6923C17.17 11.8623 17.5577 12.2575 17.5577 12.7446C17.5577 13.2316 17.17 13.6269 16.6923 13.6269Z" fill="#773147"/>
<path d="M34.4535 10.832C33.8744 10.832 33.407 11.3084 33.407 11.8985V29.3182H24.7488C23.186 29.3182 21.707 29.8444 20.5 30.8256C19.293 29.8515 17.814 29.3182 16.2512 29.3182H7.59302V11.8985C7.59302 11.3084 7.12558 10.832 6.54651 10.832C5.96744 10.832 5.5 11.3084 5.5 11.8985V29.4462C5.5 30.5554 6.38605 31.4513 7.46744 31.4513H16.2512C17.514 31.4513 18.707 31.949 19.6 32.852L19.7605 33.0155C19.9628 33.2217 20.2279 33.3283 20.5 33.3283C20.7721 33.3283 21.0302 33.2217 21.2395 33.0155L21.4 32.852C22.293 31.949 23.486 31.4442 24.7488 31.4442H33.5326C34.6209 31.4442 35.5 30.5412 35.5 29.4391V11.8985C35.5 11.3084 35.0326 10.832 34.4535 10.832Z" fill="#C8C8D7"/>
</svg>
