<svg width="24" height="24" viewBox="0 0 24 24" fill="none" xmlns="http://www.w3.org/2000/svg">
<g clip-path="url(#clip0_585_62427)">
<path d="M4.0279 6.87751L4.26167 7.24764C5.05769 8.50801 4.24306 10.1647 2.75887 10.3039C0.68331 10.4984 0.546375 13.4774 2.59533 13.8616L3.15207 13.966C4.52909 14.2242 5.22333 15.7792 4.49623 16.9768L4.30355 17.2942C3.24112 19.044 5.52565 20.8866 7.01085 19.4776C8.13419 18.412 9.99171 19.0182 10.2703 20.5413L10.3532 20.9948C10.7362 23.0895 13.7038 23.1846 14.2203 21.1188L14.3184 20.7262C14.6518 19.3929 16.2009 18.7868 17.3506 19.54L17.6787 19.755C19.4027 20.8845 21.32 18.6227 19.9233 17.1069C18.9976 16.1022 19.3701 14.4811 20.6416 13.9814L21.7253 13.5555C23.5062 12.8556 23.066 10.2203 21.1543 10.1371C19.6991 10.0739 18.8144 8.50692 19.5119 7.22827L19.8675 6.57628C20.8326 4.80694 18.7083 2.96877 17.096 4.17803L16.938 4.29648C15.6782 5.24138 13.8731 4.40614 13.7778 2.8342C13.6528 0.770936 10.7027 0.543317 10.2626 2.56298L10.1879 2.90571C9.90305 4.21311 8.45391 4.89272 7.26657 4.27576L6.69334 3.97791C4.84575 3.01789 2.91607 5.1171 4.0279 6.87751Z" stroke="black" stroke-width="1.8"/>
<circle cx="12.1001" cy="11.8" r="2.6" stroke="black" stroke-width="1.8"/>
</g>
<defs>
<clipPath id="clip0_585_62427">
<rect width="24" height="24" fill="white"/>
</clipPath>
</defs>
</svg>
