<svg width="152" height="101" viewBox="0 0 152 101" fill="none" xmlns="http://www.w3.org/2000/svg">
<path d="M29.4795 28.5241L37.0535 34.0862C37.8322 34.6581 37.4277 35.8922 36.4615 35.8922H25.3373C24.5476 35.8922 24.0695 35.0198 24.4944 34.3542L28.0447 28.7921C28.3557 28.3049 29.0137 28.182 29.4795 28.5241Z" fill="#F59DD9"/>
<path d="M12.9263 37.5241L15.0535 39.0862C15.8322 39.6581 15.4277 40.8922 14.4615 40.8922H11.3373C10.5476 40.8922 10.0695 40.0198 10.4944 39.3542L11.4915 37.7921C11.8025 37.3049 12.4605 37.182 12.9263 37.5241Z" fill="#5DB1FF"/>
<path d="M12.1027 47.5031L28.2763 48.6315C29.2979 48.7028 29.5648 50.0812 28.6436 50.5286L15.4791 56.9228C14.9569 57.1764 14.3293 56.9337 14.1137 56.3947L11.1047 48.8721C10.8308 48.1874 11.367 47.4518 12.1027 47.5031Z" fill="#FF5D5D"/>
<path d="M26.3954 71.222L36.0405 68.7736C37.0215 68.5246 37.7092 69.7235 36.999 70.4446L31.2997 76.2316C30.9327 76.6042 30.3405 76.6311 29.9412 76.2933L25.9955 72.9546C25.3747 72.4293 25.6072 71.4221 26.3954 71.222Z" fill="#FFC85D"/>
<path d="M3.56128 65.808L13.5114 65.9394C14.5234 65.9528 14.8774 67.2888 14.0048 67.8015L7.00181 71.9163C6.55087 72.1812 5.97193 72.0539 5.67371 71.6243L2.72656 67.3781C2.26287 66.7101 2.74812 65.7973 3.56128 65.808Z" fill="#9CEA77"/>
<path d="M121.584 27.1581L117.008 35.3292C116.497 36.2421 117.553 37.2276 118.429 36.6543L127.907 30.4442C128.584 30.001 128.481 28.9797 127.73 28.6793L122.828 26.7182C122.361 26.5317 121.829 26.72 121.584 27.1581Z" fill="#FF5D5D"/>
<path d="M121.584 27.1581L117.008 35.3292C116.497 36.2421 117.553 37.2276 118.429 36.6543L127.907 30.4442C128.584 30.001 128.481 28.9797 127.73 28.6793L122.828 26.7182C122.361 26.5317 121.829 26.72 121.584 27.1581Z" fill="#FF5D5D"/>
<path d="M144.594 27.6317L136.383 32.1363C135.466 32.6396 135.84 34.0353 136.886 34.0128L148.215 33.7692C149.023 33.7519 149.478 32.8316 149 32.1789L145.882 27.9178C145.585 27.5125 145.034 27.3901 144.594 27.6317Z" fill="#FFC85D"/>
<path d="M142.898 65.4774L137.56 64.7553C136.523 64.615 135.994 65.9597 136.849 66.5632L142.173 70.3224C142.834 70.7889 143.746 70.3188 143.75 69.51L143.764 66.4728C143.766 65.9707 143.395 65.5447 142.898 65.4774Z" fill="#F59DD9"/>
<path d="M139.211 45.3051L123.272 50.359C122.319 50.661 122.35 52.0192 123.315 52.2781L139.255 56.5544C139.89 56.7249 140.514 56.2463 140.514 55.5886V46.2584C140.514 45.582 139.856 45.1007 139.211 45.3051Z" fill="#9CEA77"/>
<path d="M124.775 66.4993L116.268 64.1855C115.216 63.8995 114.531 65.2634 115.388 65.9368L123.895 72.6211C124.551 73.1366 125.513 72.6692 125.513 71.8348V67.4643C125.513 67.0131 125.211 66.6178 124.775 66.4993Z" fill="#5DB1FF"/>
<g filter="url(#filter0_d_988_12818)">
<path d="M74.999 10.5021C80.5036 10.6546 83.7791 17.3728 88.8668 19.4802C93.3851 21.3519 99.9206 18.6644 103.282 22.2171C107.066 26.2174 104.632 33.2842 106.739 38.3716C108.611 42.8901 115.133 45.6111 114.997 50.4999C114.844 56.0045 108.126 59.2802 106.019 64.3676C104.147 68.8861 106.835 75.4216 103.282 78.7827C99.2817 82.5671 92.215 80.1328 87.1273 82.2402C82.609 84.1119 79.888 90.6334 74.999 90.4979C69.4944 90.3454 66.2189 83.627 61.1313 81.5198C56.6129 79.6481 50.0775 82.3356 46.7163 78.7827C42.9317 74.7826 45.3661 67.7158 43.2589 62.6284C41.387 58.1099 34.8655 55.3889 35.0011 50.4999C35.1536 44.9954 41.8718 41.7198 43.979 36.6324C45.8509 32.1137 43.1633 25.5783 46.7163 22.2171C50.7163 18.4327 57.7831 20.8671 62.8707 18.7597C67.389 16.8881 70.1101 10.3666 74.999 10.5021Z" fill="#FF7A00" fill-opacity="0.7" shape-rendering="crispEdges"/>
<path d="M74.999 10.5021C80.5036 10.6546 83.7791 17.3728 88.8668 19.4802C93.3851 21.3519 99.9206 18.6644 103.282 22.2171C107.066 26.2174 104.632 33.2842 106.739 38.3716C108.611 42.8901 115.133 45.6111 114.997 50.4999C114.844 56.0045 108.126 59.2802 106.019 64.3676C104.147 68.8861 106.835 75.4216 103.282 78.7827C99.2817 82.5671 92.215 80.1328 87.1273 82.2402C82.609 84.1119 79.888 90.6334 74.999 90.4979C69.4944 90.3454 66.2189 83.627 61.1313 81.5198C56.6129 79.6481 50.0775 82.3356 46.7163 78.7827C42.9317 74.7826 45.3661 67.7158 43.2589 62.6284C41.387 58.1099 34.8655 55.3889 35.0011 50.4999C35.1536 44.9954 41.8718 41.7198 43.979 36.6324C45.8509 32.1137 43.1633 25.5783 46.7163 22.2171C50.7163 18.4327 57.7831 20.8671 62.8707 18.7597C67.389 16.8881 70.1101 10.3666 74.999 10.5021Z" stroke="#A85E1A" stroke-miterlimit="22.926" stroke-linecap="round" stroke-linejoin="round" shape-rendering="crispEdges"/>
</g>
<path d="M74.9992 79.0714C90.7358 79.0714 103.571 66.2366 103.571 50.5001C103.571 34.7635 90.7358 21.9287 74.9992 21.9287C59.2626 21.9287 46.4277 34.7635 46.4277 50.5001C46.4277 66.2366 59.2626 79.0714 74.9992 79.0714Z" fill="white" fill-opacity="0.6" stroke="#A85E1A" stroke-miterlimit="22.926" stroke-linecap="round" stroke-linejoin="round"/>
<path d="M72.9918 47.9383L73.8918 49.4971L72.0056 50.5861L74.6606 55.1847L72.8212 56.2467L66.7282 45.6933L68.5676 44.6313L71.1056 49.0273L72.9918 47.9383ZM70.8825 54.5809C69.8725 55.3995 68.5869 56.3288 67.0257 57.3688C65.4689 58.3923 63.8591 59.384 62.1964 60.344L61.1495 58.8908C62.5005 58.1108 63.6836 57.4 64.6988 56.7584L63.9608 55.4802C63.0515 55.8251 62.2033 55.8921 61.4165 55.6813C60.6297 55.4705 60.0233 54.9961 59.5973 54.2583C59.2613 53.6763 59.1262 53.0823 59.1919 52.4762C59.2517 51.8597 59.491 51.2781 59.9098 50.7315C60.3226 50.1745 60.8875 49.689 61.6046 49.275C62.3112 48.867 63.009 48.6235 63.6978 48.5445C64.3909 48.4491 65.0142 48.5327 65.5676 48.7952C66.1254 49.0413 66.5723 49.4553 66.9083 50.0373C67.3403 50.7855 67.4456 51.556 67.2244 52.3489C67.0032 53.1417 66.5107 53.8487 65.7469 54.4698L66.4399 55.6701C67.8676 54.7349 69.0153 53.9268 69.883 53.2457L70.8825 54.5809ZM64.1156 53.6242C64.656 53.3122 65.0182 52.9437 65.2024 52.5186C65.3806 52.0832 65.3496 51.6577 65.1096 51.242L64.9746 51.0081C64.7346 50.5924 64.3846 50.3581 63.9244 50.3051C63.4582 50.2417 62.955 50.3659 62.4146 50.6779C61.8742 50.9899 61.5149 51.3637 61.3367 51.7991C61.1526 52.2241 61.1805 52.6444 61.4205 53.0601L61.5555 53.294C61.7955 53.7097 62.1486 53.9492 62.6147 54.0126C63.0749 54.0657 63.5752 53.9362 64.1156 53.6242ZM68.6083 61.2979L76.0752 56.9869L76.9572 58.5145L68.82 63.2125C68.0302 63.6685 67.4073 63.5016 66.9513 62.7118L65.1603 59.6097L67.0153 58.5387L68.6083 61.2979ZM77.784 42.033L73.731 44.373L72.84 42.8297L82.8478 37.0517L83.7388 38.595L79.7014 40.926C80.0591 41.6895 80.1743 42.489 80.047 43.3246L80.1429 43.3107L80.4126 42.6978C80.5408 42.4159 80.7141 42.212 80.9323 42.086C81.109 41.984 81.2993 41.9295 81.5031 41.9227L86.3555 41.6153L86.1613 43.6188L80.6564 43.8041C80.417 43.8454 80.2349 43.902 80.1102 43.974C79.9751 44.052 79.8758 44.144 79.8122 44.2499C79.3937 45.517 78.4117 47.1162 76.8664 49.0476L75.0677 48.2362C76.2922 46.781 77.1143 45.5651 77.5342 44.5883C77.954 43.6115 78.0373 42.7597 77.784 42.033ZM89.4324 45.1805L83.9452 48.3485L86.7352 53.1809L84.8646 54.2609L82.0746 49.4285L76.5875 52.5965L75.6785 51.0221L88.5234 43.6061L89.4324 45.1805Z" fill="#A85E1A"/>
<defs>
<filter id="filter0_d_988_12818" x="28.499" y="4" width="93" height="93" filterUnits="userSpaceOnUse" color-interpolation-filters="sRGB">
<feFlood flood-opacity="0" result="BackgroundImageFix"/>
<feColorMatrix in="SourceAlpha" type="matrix" values="0 0 0 0 0 0 0 0 0 0 0 0 0 0 0 0 0 0 127 0" result="hardAlpha"/>
<feOffset/>
<feGaussianBlur stdDeviation="3"/>
<feComposite in2="hardAlpha" operator="out"/>
<feColorMatrix type="matrix" values="0 0 0 0 0 0 0 0 0 0 0 0 0 0 0 0 0 0 0.3 0"/>
<feBlend mode="normal" in2="BackgroundImageFix" result="effect1_dropShadow_988_12818"/>
<feBlend mode="normal" in="SourceGraphic" in2="effect1_dropShadow_988_12818" result="shape"/>
</filter>
</defs>
</svg>
