<svg width="24" height="24" viewBox="0 0 24 24" fill="none" xmlns="http://www.w3.org/2000/svg">
<path fill-rule="evenodd" clip-rule="evenodd" d="M18.707 5.29289C19.0976 5.68342 19.0976 6.31658 18.707 6.70711L6.70705 18.7071C6.31652 19.0976 5.68336 19.0976 5.29283 18.7071C4.90231 18.3166 4.90231 17.6834 5.29283 17.2929L17.2928 5.29289C17.6834 4.90237 18.3165 4.90237 18.707 5.29289Z" fill="#2E1A46"/>
<path fill-rule="evenodd" clip-rule="evenodd" d="M5.32286 5.55022C5.71339 5.15969 6.34655 5.15969 6.73708 5.55022L18.7371 17.5502C19.1276 17.9407 19.1276 18.5739 18.7371 18.9644C18.3466 19.355 17.7134 19.355 17.3229 18.9644L5.32286 6.96443C4.93234 6.57391 4.93234 5.94074 5.32286 5.55022Z" fill="black"/>
</svg>
