<svg width="32" height="32" viewBox="0 0 32 32" fill="none" xmlns="http://www.w3.org/2000/svg">
<path d="M6.97656 12.7188C6.97656 7.7476 11.0289 3.64063 16 3.64063C20.9711 3.64063 25.0234 7.7476 25.0234 12.7188V14.3594C25.0234 14.486 25.0557 14.602 25.105 14.7082L26.6641 14.3594V12.7188C26.6641 6.84526 21.8735 2 16 2C10.1265 2 5.33594 6.84526 5.33594 12.7188V14.3594L6.97656 13.8641V12.7188Z" fill="#282D38"/>
<path d="M25.0234 12.7188V14.3594C25.0234 14.486 25.0557 14.602 25.105 14.7082L26.6641 14.3594V12.7188C26.6641 6.84526 21.8735 2 16 2V3.64063C20.9711 3.64063 25.0234 7.7476 25.0234 12.7188Z" fill="#293939"/>
<path d="M16 25.0781C14.6382 25.0781 13.5391 26.1773 13.5391 27.5391C13.5391 28.9007 14.6382 30 16 30C17.3618 30 18.4609 28.9007 18.4609 27.5391C18.4609 26.1773 17.3618 25.0781 16 25.0781Z" fill="#73BCFF"/>
<path d="M22.5625 28.3594H17.6406C17.1872 28.3594 16.8203 27.9925 16.8203 27.5391C16.8203 27.0856 17.1872 26.7188 17.6406 26.7188H22.5625C23.0151 26.7188 23.3828 26.351 23.3828 25.8984V24.2578C23.3828 23.8044 23.7497 23.4375 24.2031 23.4375C24.6565 23.4375 25.0234 23.8044 25.0234 24.2578V25.8984C25.0234 27.2555 23.9195 28.3594 22.5625 28.3594Z" fill="#282D38"/>
<path d="M27.5391 13.5391H25.8438C25.3903 13.5391 25.0234 13.906 25.0234 14.3594V22.6172C25.0234 23.0706 25.3903 23.4375 25.8438 23.4375H27.5391C28.8961 23.4375 30 22.3336 30 20.9766V16C30 14.643 28.8961 13.5391 27.5391 13.5391Z" fill="#282D38"/>
<path d="M6.15625 13.5391H4.46094C3.10392 13.5391 2 14.643 2 16V20.9766C2 22.3336 3.10392 23.4375 4.46094 23.4375H6.15625C6.60966 23.4375 6.97656 23.0706 6.97656 22.6172V14.3594C6.97656 13.906 6.60966 13.5391 6.15625 13.5391Z" fill="#282D38"/>
<path d="M18.4609 27.5391C18.4609 28.9007 17.3618 30 16 30V25.0781C17.3618 25.0781 18.4609 26.1773 18.4609 27.5391Z" fill="#3AAAFF"/>
<path d="M7.79688 25.0781C6.43986 25.0781 5.33594 23.9742 5.33594 22.6172V14.3594C5.33594 13.0024 6.43986 11.8984 7.79688 11.8984C9.15389 11.8984 10.2578 13.0024 10.2578 14.3594V22.6172C10.2578 23.9742 9.15389 25.0781 7.79688 25.0781Z" fill="#73BCFF"/>
<path d="M24.2031 25.0781C22.8461 25.0781 21.7422 23.9742 21.7422 22.6172V14.3594C21.7422 13.0024 22.8461 11.8984 24.2031 11.8984C25.5601 11.8984 26.6641 13.0024 26.6641 14.3594V22.6172C26.6641 23.9742 25.5601 25.0781 24.2031 25.0781Z" fill="#3AAAFF"/>
</svg>
