<svg width="48" height="52" viewBox="0 0 48 52" fill="none" xmlns="http://www.w3.org/2000/svg">
<g filter="url(#filter0_d_1814_32698)">
<path d="M38 21.4542C38 28.2265 27.9241 37.5861 24.8682 40.2689C24.3654 40.7104 23.6346 40.7104 23.1318 40.2689C20.0759 37.5861 10 28.2265 10 21.4542C10 13.4714 16.268 7 24 7C31.732 7 38 13.4714 38 21.4542Z" fill="#B92937"/>
<path d="M17.99 24.72C17.39 24.72 16.88 24.6133 16.46 24.4C16.0467 24.1866 15.69 23.9066 15.39 23.56L16.28 22.7C16.52 22.98 16.7867 23.1933 17.08 23.34C17.38 23.4866 17.71 23.56 18.07 23.56C18.4767 23.56 18.7833 23.4733 18.99 23.3C19.1967 23.12 19.3 22.88 19.3 22.58C19.3 22.3466 19.2333 22.1566 19.1 22.01C18.9667 21.8633 18.7167 21.7566 18.35 21.69L17.69 21.59C16.2967 21.37 15.6 20.6933 15.6 19.56C15.6 19.2466 15.6567 18.9633 15.77 18.71C15.89 18.4566 16.06 18.24 16.28 18.06C16.5 17.88 16.7633 17.7433 17.07 17.65C17.3833 17.55 17.7367 17.5 18.13 17.5C18.6567 17.5 19.1167 17.5866 19.51 17.76C19.9033 17.9333 20.24 18.19 20.52 18.53L19.62 19.38C19.4467 19.1666 19.2367 18.9933 18.99 18.86C18.7433 18.7266 18.4333 18.66 18.06 18.66C17.68 18.66 17.3933 18.7333 17.2 18.88C17.0133 19.02 16.92 19.22 16.92 19.48C16.92 19.7466 16.9967 19.9433 17.15 20.07C17.3033 20.1966 17.55 20.29 17.89 20.35L18.54 20.47C19.2467 20.5966 19.7667 20.8233 20.1 21.15C20.44 21.47 20.61 21.92 20.61 22.5C20.61 22.8333 20.55 23.1366 20.43 23.41C20.3167 23.6766 20.1467 23.91 19.92 24.11C19.7 24.3033 19.4267 24.4533 19.1 24.56C18.78 24.6666 18.41 24.72 17.99 24.72ZM24.0733 24.72C23.6133 24.72 23.1966 24.6433 22.8233 24.49C22.4499 24.3366 22.1299 24.1066 21.8633 23.8C21.6033 23.4933 21.3999 23.1166 21.2533 22.67C21.1066 22.2233 21.0333 21.7033 21.0333 21.11C21.0333 20.5233 21.1066 20.0066 21.2533 19.56C21.3999 19.1066 21.6033 18.7266 21.8633 18.42C22.1299 18.1133 22.4499 17.8833 22.8233 17.73C23.1966 17.5766 23.6133 17.5 24.0733 17.5C24.5333 17.5 24.9499 17.5766 25.3233 17.73C25.6966 17.8833 26.0166 18.1133 26.2833 18.42C26.5499 18.7266 26.7533 19.1066 26.8933 19.56C27.0399 20.0066 27.1133 20.5233 27.1133 21.11C27.1133 21.7033 27.0399 22.2233 26.8933 22.67C26.7533 23.1166 26.5499 23.4933 26.2833 23.8C26.0166 24.1066 25.6966 24.3366 25.3233 24.49C24.9499 24.6433 24.5333 24.72 24.0733 24.72ZM24.0733 23.55C24.5733 23.55 24.9699 23.3833 25.2633 23.05C25.5633 22.7166 25.7133 22.25 25.7133 21.65V20.57C25.7133 19.97 25.5633 19.5033 25.2633 19.17C24.9699 18.8366 24.5733 18.67 24.0733 18.67C23.5733 18.67 23.1733 18.8366 22.8733 19.17C22.5799 19.5033 22.4333 19.97 22.4333 20.57V21.65C22.4333 22.25 22.5799 22.7166 22.8733 23.05C23.1733 23.3833 23.5733 23.55 24.0733 23.55ZM29.9931 24.72C29.3931 24.72 28.8831 24.6133 28.4631 24.4C28.0498 24.1866 27.6931 23.9066 27.3931 23.56L28.2831 22.7C28.5231 22.98 28.7898 23.1933 29.0831 23.34C29.3831 23.4866 29.7131 23.56 30.0731 23.56C30.4798 23.56 30.7865 23.4733 30.9931 23.3C31.1998 23.12 31.3031 22.88 31.3031 22.58C31.3031 22.3466 31.2365 22.1566 31.1031 22.01C30.9698 21.8633 30.7198 21.7566 30.3531 21.69L29.6931 21.59C28.2998 21.37 27.6031 20.6933 27.6031 19.56C27.6031 19.2466 27.6598 18.9633 27.7731 18.71C27.8931 18.4566 28.0631 18.24 28.2831 18.06C28.5031 17.88 28.7665 17.7433 29.0731 17.65C29.3865 17.55 29.7398 17.5 30.1331 17.5C30.6598 17.5 31.1198 17.5866 31.5131 17.76C31.9065 17.9333 32.2431 18.19 32.5231 18.53L31.6231 19.38C31.4498 19.1666 31.2398 18.9933 30.9931 18.86C30.7465 18.7266 30.4365 18.66 30.0631 18.66C29.6831 18.66 29.3965 18.7333 29.2031 18.88C29.0165 19.02 28.9231 19.22 28.9231 19.48C28.9231 19.7466 28.9998 19.9433 29.1531 20.07C29.3065 20.1966 29.5531 20.29 29.8931 20.35L30.5431 20.47C31.2498 20.5966 31.7698 20.8233 32.1031 21.15C32.4431 21.47 32.6131 21.92 32.6131 22.5C32.6131 22.8333 32.5531 23.1366 32.4331 23.41C32.3198 23.6766 32.1498 23.91 31.9231 24.11C31.7031 24.3033 31.4298 24.4533 31.1031 24.56C30.7831 24.6666 30.4131 24.72 29.9931 24.72Z" fill="white"/>
</g>
<defs>
<filter id="filter0_d_1814_32698" x="3" y="2" width="44" height="49.6" filterUnits="userSpaceOnUse" color-interpolation-filters="sRGB">
<feFlood flood-opacity="0" result="BackgroundImageFix"/>
<feColorMatrix in="SourceAlpha" type="matrix" values="0 0 0 0 0 0 0 0 0 0 0 0 0 0 0 0 0 0 127 0" result="hardAlpha"/>
<feOffset dx="1" dy="3"/>
<feGaussianBlur stdDeviation="4"/>
<feComposite in2="hardAlpha" operator="out"/>
<feColorMatrix type="matrix" values="0 0 0 0 0 0 0 0 0 0 0 0 0 0 0 0 0 0 0.25 0"/>
<feBlend mode="normal" in2="BackgroundImageFix" result="effect1_dropShadow_1814_32698"/>
<feBlend mode="normal" in="SourceGraphic" in2="effect1_dropShadow_1814_32698" result="shape"/>
</filter>
</defs>
</svg>
