<svg width="32" height="32" viewBox="0 0 32 32" fill="none" xmlns="http://www.w3.org/2000/svg">
<path fill-rule="evenodd" clip-rule="evenodd" d="M20.6663 11.3331C15.5153 11.3331 11.333 15.5154 11.333 20.6665C11.333 25.8175 15.5153 29.9998 20.6663 29.9998H29.0663C29.5815 29.9998 29.9997 29.5817 29.9997 29.0665V20.6665C29.9997 15.5154 25.8174 11.3331 20.6663 11.3331Z" fill="#3AAAFF"/>
<path fill-rule="evenodd" clip-rule="evenodd" d="M20.6645 11.3331C15.5143 11.3341 11.333 15.5154 11.333 20.6665C11.333 25.8175 15.5143 29.9989 20.6645 29.9998V11.3331Z" fill="#73BCFF"/>
<path fill-rule="evenodd" clip-rule="evenodd" d="M25.3332 18.7999H23.4665C22.9513 18.7999 22.5332 19.2181 22.5332 19.7333C22.5332 20.2485 22.9513 20.6666 23.4665 20.6666H25.3332C25.8484 20.6666 26.2665 20.2485 26.2665 19.7333C26.2665 19.2181 25.8484 18.7999 25.3332 18.7999Z" fill="#212121"/>
<path fill-rule="evenodd" clip-rule="evenodd" d="M25.3329 18.7999H22.5329C22.0177 18.7999 21.5996 19.2181 21.5996 19.7333C21.5996 20.2485 22.0177 20.6666 22.5329 20.6666H25.3329C25.8481 20.6666 26.2663 20.2485 26.2663 19.7333C26.2663 19.2181 25.8481 18.7999 25.3329 18.7999Z" fill="#E6E6E6"/>
<path fill-rule="evenodd" clip-rule="evenodd" d="M25.3329 22.5333H18.7995C18.2843 22.5333 17.8662 22.9515 17.8662 23.4667C17.8662 23.9819 18.2843 24.4 18.7995 24.4H25.3329C25.8481 24.4 26.2662 23.9819 26.2662 23.4667C26.2662 22.9515 25.8481 22.5333 25.3329 22.5333Z" fill="#E6E6E6"/>
<path fill-rule="evenodd" clip-rule="evenodd" d="M20.6643 22.5333H18.7995C18.2843 22.5333 17.8662 22.9515 17.8662 23.4667C17.8662 23.9819 18.2843 24.4 18.7995 24.4H20.6643V22.5333Z" fill="white"/>
<path fill-rule="evenodd" clip-rule="evenodd" d="M12.2667 2C6.6004 2 2 6.6004 2 12.2667V21.6C2 22.1152 2.41813 22.5333 2.93333 22.5333H12.2667C17.9329 22.5333 22.5333 17.9329 22.5333 12.2667C22.5333 6.6004 17.9329 2 12.2667 2Z" fill="#DE696D"/>
<path fill-rule="evenodd" clip-rule="evenodd" d="M12.2667 22.5333V2C6.6004 2 2 6.6004 2 12.2667V21.6C2 22.1152 2.41813 22.5333 2.93333 22.5333H12.2667Z" fill="#E67E82"/>
<path fill-rule="evenodd" clip-rule="evenodd" d="M14.7095 16.0291L15.3405 16.6601C15.7045 17.0241 16.2962 17.0241 16.6602 16.6601C17.0242 16.2961 17.0242 15.7043 16.6602 15.3403L16.0293 14.7094C16.5995 13.8825 16.9337 12.8801 16.9337 11.8002C16.9337 8.9666 14.6339 6.66687 11.8003 6.66687C8.96673 6.66687 6.66699 8.9666 6.66699 11.8002C6.66699 14.6338 8.96673 16.9335 11.8003 16.9335C12.8802 16.9335 13.8826 16.5994 14.7095 16.0291ZM14.6741 13.3542C14.9242 12.8922 15.067 12.3621 15.067 11.8002C15.067 9.997 13.6035 8.53354 11.8003 8.53354C9.99713 8.53354 8.53366 9.997 8.53366 11.8002C8.53366 13.6034 9.99713 15.0669 11.8003 15.0669C12.3622 15.0669 12.8923 14.9241 13.3543 14.6739L12.5405 13.8601C12.1765 13.4961 12.1765 12.9043 12.5405 12.5403C12.9045 12.1763 13.4962 12.1763 13.8602 12.5403L14.6741 13.3542Z" fill="#E6E6E6"/>
<path fill-rule="evenodd" clip-rule="evenodd" d="M12.267 16.9121V15.0333C12.1149 15.0557 11.959 15.0669 11.8003 15.0669C9.99713 15.0669 8.53366 13.6034 8.53366 11.8002C8.53366 9.997 9.99713 8.53354 11.8003 8.53354C11.959 8.53354 12.1149 8.54474 12.267 8.56714V6.6874C12.113 6.67434 11.9571 6.66687 11.8003 6.66687C8.96673 6.66687 6.66699 8.9666 6.66699 11.8002C6.66699 14.6338 8.96673 16.9335 11.8003 16.9335C11.9581 16.9335 12.113 16.9261 12.267 16.9121Z" fill="white"/>
</svg>
