<svg width="32" height="32" viewBox="0 0 32 32" fill="none" xmlns="http://www.w3.org/2000/svg">
<g clip-path="url(#clip0_1426_25596)">
<circle cx="16" cy="16" r="14" fill="#2B9D4B"/>
<path fill-rule="evenodd" clip-rule="evenodd" d="M10 8.00003C8.89543 8.00003 8 8.89546 8 10V22C8 23.1046 8.89543 24 10 24H22C23.1046 24 24 23.1046 24 22V10C24 8.89546 23.1046 8.00003 22 8.00003H10ZM14 11C14 10.4477 14.4477 10 15 10H17C17.5523 10 18 10.4477 18 11V14H21C21.5523 14 22 14.4477 22 15V17C22 17.5523 21.5523 18 21 18H18V21C18 21.5523 17.5523 22 17 22H15C14.4477 22 14 21.5523 14 21V18H11C10.4477 18 10 17.5523 10 17V15C10 14.4477 10.4477 14 11 14H14V11Z" fill="white"/>
</g>
<defs>
<clipPath id="clip0_1426_25596">
<rect width="32" height="32" fill="white"/>
</clipPath>
</defs>
</svg>
