<svg width="32" height="32" viewBox="0 0 32 32" fill="none" xmlns="http://www.w3.org/2000/svg">
<circle cx="16" cy="16" r="15" fill="#FFE2E5"/>
<path fill-rule="evenodd" clip-rule="evenodd" d="M13.4546 18.6674C13.4046 18.4816 13.2489 18.3433 13.0587 18.3157L12.2669 18.2023C12.2022 18.1934 12.1368 18.1972 12.074 18.2139L10.4014 18.6623C10.2688 18.6975 10.1573 18.7879 10.0958 18.9108C10.0343 19.0332 10.0286 19.1767 10.0792 19.3042C10.0792 19.3042 11.1637 22.0268 11.7159 23.4131C11.9856 24.0902 12.7191 24.4579 13.4232 24.2696C14.213 24.0582 14.6813 23.2465 14.4699 22.4573L13.4546 18.6674Z" fill="#282D38"/>
<path fill-rule="evenodd" clip-rule="evenodd" d="M13.5064 24.5785C13.4789 24.5855 13.4795 24.5855 13.5064 24.5785C14.4667 24.321 15.0362 23.3338 14.7793 22.3735L13.764 18.5836C13.6807 18.2742 13.4212 18.0442 13.1041 17.9988L12.3123 17.8847C12.2047 17.8694 12.0958 17.8758 11.9914 17.904L10.3181 18.3524C10.0971 18.4113 9.91197 18.5625 9.80947 18.7669C9.70697 18.9712 9.69672 19.2095 9.78128 19.4222C9.78128 19.4222 10.8658 22.1448 11.418 23.5311C11.748 24.3588 12.6455 24.8091 13.5064 24.5785ZM13.3405 23.9597C12.7934 24.1064 12.2227 23.82 12.0132 23.2941C11.461 21.9078 10.3764 19.1852 10.3764 19.1852C10.3598 19.1423 10.3617 19.0949 10.3822 19.0539C10.4027 19.0129 10.4398 18.9827 10.484 18.9712L12.1567 18.5228C12.1778 18.517 12.1996 18.5157 12.2214 18.5189L13.0132 18.6323C13.0766 18.6419 13.1285 18.6881 13.1451 18.7496L14.1605 22.5394C14.3264 23.1583 13.9594 23.7937 13.3405 23.9597Z" fill="#282D38"/>
<path fill-rule="evenodd" clip-rule="evenodd" d="M10.7019 13.4726L8.62628 14.0287C8.17465 14.1498 7.79028 14.4451 7.55646 14.8493C7.32263 15.2542 7.25921 15.7353 7.38029 16.1863C7.56927 16.8916 7.80566 17.7724 7.99464 18.4777C8.11507 18.9294 8.41039 19.3144 8.81526 19.5476C9.22013 19.7814 9.70059 19.8448 10.1522 19.7237L12.2278 19.1677L12.8511 19.2567L11.1971 13.0838L10.7019 13.4726Z" fill="#FFDA56"/>
<path fill-rule="evenodd" clip-rule="evenodd" d="M7.48476 14.9873C7.31116 15.3608 7.27272 15.7849 7.38034 16.1859C7.56933 16.8912 7.80571 17.772 7.99469 18.4774C8.11513 18.929 8.41045 19.314 8.81532 19.5472C9.22018 19.781 9.70064 19.8444 10.1523 19.7234L12.2279 19.1673L12.8512 19.2563L12.4085 17.6048L12.2279 17.5792L10.1523 18.1353C9.70064 18.2564 9.22018 18.1929 8.81532 17.9591C8.41045 17.7253 8.11513 17.3409 7.99469 16.8893L7.48476 14.9873Z" fill="#FFB436"/>
<path fill-rule="evenodd" clip-rule="evenodd" d="M10.5552 13.1801L8.543 13.7188C8.01001 13.8617 7.55517 14.2108 7.27907 14.6887C7.00297 15.1673 6.92802 15.7355 7.07087 16.2691C7.25985 16.9744 7.49624 17.8553 7.68522 18.5606C7.82808 19.0936 8.17657 19.5484 8.65511 19.8245C9.133 20.1006 9.70187 20.1756 10.2349 20.0327L12.247 19.4933L12.8056 19.5734C12.912 19.5888 13.019 19.5497 13.0907 19.469C13.1618 19.3889 13.1881 19.2774 13.1605 19.1737L11.5065 13.0001C11.4783 12.8963 11.4001 12.813 11.2983 12.7791C11.1958 12.7451 11.0837 12.765 10.9991 12.831L10.5552 13.1801ZM10.7019 13.7925L10.8998 13.724L11.0132 13.6349L12.4161 18.8706L12.2733 18.8501C12.2304 18.8437 12.1868 18.8463 12.1445 18.8578L10.0689 19.4139C9.69994 19.5125 9.30661 19.4613 8.97541 19.2698C8.64422 19.0788 8.4027 18.7637 8.30405 18.3947L7.6897 16.1032C7.59105 15.7336 7.64294 15.3402 7.83384 15.009C8.02474 14.6785 8.33992 14.437 8.70892 14.3377L10.7845 13.7816L10.7019 13.7925Z" fill="#282D38"/>
<path fill-rule="evenodd" clip-rule="evenodd" d="M19.1477 9.38875C19.0221 8.9211 18.6704 8.54762 18.2105 8.39452C17.7512 8.24141 17.2457 8.32917 16.8646 8.62898C14.7902 10.2587 10.6243 13.5335 10.6243 13.5335C10.4732 13.652 10.4072 13.85 10.4571 14.0357L11.7345 18.8025C11.7839 18.9883 11.9402 19.1261 12.1304 19.1536C12.1304 19.1536 17.3758 19.9063 19.9869 20.2811C20.4661 20.3496 20.9485 20.1735 21.2694 19.8109C21.591 19.4483 21.7089 18.9492 21.5839 18.481C20.9702 16.1901 19.7614 11.6796 19.1477 9.38875Z" fill="white"/>
<path fill-rule="evenodd" clip-rule="evenodd" d="M17.5086 8.34204L19.7283 16.6252C19.8532 17.0934 19.7353 17.5925 19.4137 17.9551C19.0928 18.3177 18.6104 18.4938 18.1312 18.4253L11.3734 17.4554L11.7347 18.8026C11.784 18.9884 11.9404 19.1261 12.1306 19.1537C12.1306 19.1537 17.3759 19.9064 19.9871 20.2811C20.4663 20.3497 20.9486 20.1735 21.2696 19.8109C21.5912 19.4483 21.709 18.9493 21.5841 18.481C20.9704 16.1902 19.7616 11.6796 19.1479 9.3888C19.0223 8.92115 18.6706 8.54768 18.2107 8.39457C17.9813 8.3177 17.7398 8.30168 17.5086 8.34204Z" fill="#DCDCEC"/>
<path fill-rule="evenodd" clip-rule="evenodd" d="M24.1464 12.5912L22.2879 13.0889C22.0323 13.1575 21.8799 13.4214 21.9484 13.6776C22.017 13.9339 22.2809 14.0857 22.5371 14.0172L24.3949 13.5194C24.6512 13.4509 24.8036 13.1869 24.7351 12.9307C24.6665 12.6744 24.4026 12.5226 24.1464 12.5912Z" fill="#E45E63"/>
<path fill-rule="evenodd" clip-rule="evenodd" d="M22.2795 9.10069L20.7331 10.2448C20.5204 10.4024 20.4749 10.7035 20.6325 10.9168C20.7907 11.1302 21.0918 11.175 21.3045 11.0174L22.8516 9.87327C23.0643 9.71568 23.1098 9.41459 22.9515 9.20127C22.7939 8.98795 22.4928 8.9431 22.2795 9.10069Z" fill="#E45E63"/>
<path fill-rule="evenodd" clip-rule="evenodd" d="M24.5815 16.5364L22.6737 16.2891C22.4104 16.2551 22.1696 16.4409 22.1356 16.7036C22.101 16.9669 22.2874 17.2077 22.5501 17.2423L24.4578 17.4896C24.7211 17.5235 24.962 17.3378 24.9959 17.0745C25.0305 16.8118 24.8441 16.5703 24.5815 16.5364Z" fill="#E45E63"/>
<path fill-rule="evenodd" clip-rule="evenodd" d="M19.457 9.30584C19.3039 8.73377 18.8734 8.27701 18.3116 8.08995C17.7498 7.90354 17.1322 8.01052 16.6665 8.37695C14.5922 10.0067 10.4263 13.2815 10.4263 13.2815C10.1746 13.4794 10.065 13.8087 10.1477 14.1181L11.425 18.8849C11.5077 19.1943 11.7671 19.425 12.0849 19.4704C12.0849 19.4704 17.3296 20.2232 19.9413 20.5979C20.5275 20.6818 21.1162 20.4659 21.5089 20.0233C21.9022 19.5806 22.0464 18.9701 21.8933 18.398C21.2796 16.1072 20.0707 11.5967 19.457 9.30584ZM18.8382 9.47175C19.4519 11.7626 20.6607 16.2731 21.2744 18.564C21.3718 18.9278 21.2802 19.316 21.0297 19.5979C20.7799 19.8798 20.4051 20.0169 20.0323 19.9637L12.1758 18.8362C12.1124 18.8273 12.0605 18.7811 12.0439 18.719L10.7665 13.9522C10.7498 13.8907 10.7716 13.8247 10.8222 13.785C10.8222 13.785 14.9881 10.5108 17.0624 8.88047C17.3584 8.64729 17.7517 8.57874 18.1092 8.69789C18.4666 8.81705 18.7408 9.10789 18.8382 9.47175Z" fill="#282D38"/>
</svg>
