<svg width="41" height="40" viewBox="0 0 41 40" fill="none" xmlns="http://www.w3.org/2000/svg">
<path d="M36.1889 28.2553H36.2037L34.5741 27.7001V22.1919C34.4482 22.2067 34.3297 22.2289 34.2037 22.2289H31.6112V26.6858H9.38893V12.6118H20.5V10.7461C20.5 10.3611 20.5815 9.99095 20.7 9.65039H7.90745C7.09263 9.65039 6.42597 10.3167 6.42597 11.1311V27.6927L4.79634 28.2479H4.81115C4.24078 28.4552 3.83337 28.9957 3.83337 29.6324V31.8534C3.83337 32.6678 4.50004 33.3341 5.31486 33.3341H35.6852C36.5 33.3341 37.1667 32.6678 37.1667 31.8534V29.6324C37.1667 28.9883 36.7593 28.4478 36.1889 28.2479V28.2553ZM22.3519 31.0761H18.6482C18.0334 31.0761 17.5371 30.58 17.5371 29.9655C17.5371 29.351 18.0334 28.855 18.6482 28.855H22.3519C22.9667 28.855 23.463 29.351 23.463 29.9655C23.463 30.58 22.9667 31.0761 22.3519 31.0761Z" fill="#C8C8D7"/>
<path d="M34.3177 8.33398H23.3491C22.4872 8.33398 21.7821 9.03056 21.7821 9.88194V20.7176C21.7821 21.1743 22.166 21.4916 22.5656 21.4916C22.7223 21.4916 22.8868 21.4452 23.0357 21.3368L24.5008 20.2532C24.775 20.052 25.104 19.9437 25.4409 19.9437H34.3177C35.1795 19.9437 35.8847 19.2471 35.8847 18.3957V9.88194C35.8847 9.03056 35.1795 8.33398 34.3177 8.33398ZM31.6617 14.4097L28.4573 16.3524C27.9324 16.6697 27.2664 16.2982 27.2664 15.6945V11.8169C27.2664 11.2132 27.9402 10.8417 28.4573 11.159L31.6617 13.1017C32.1632 13.4035 32.1632 14.1233 31.6617 14.4252V14.4097Z" fill="#773147"/>
<path d="M17.9297 18.0693C17.9297 19.5722 16.3889 20.7123 14.8037 19.9942H14.8111C14.3963 19.8017 14.0556 19.4686 13.8704 19.054C13.1519 17.4696 14.2852 15.9297 15.7889 15.9297C16.9667 15.9297 17.9297 16.8847 17.9297 18.0693Z" fill="#773147"/>
<path d="M12.1889 24.2808V23.7774H12.1815C12.1815 22.8149 12.9074 22.0302 13.8037 22.0302H17.7667C18.663 22.0302 19.3889 22.8149 19.3889 23.7774V24.2808C19.3889 24.577 19.1741 24.8139 18.9 24.8139H12.6852C12.4111 24.8139 12.1889 24.577 12.1889 24.2808Z" fill="#773147"/>
</svg>
