<svg width="56" height="56" viewBox="0 0 56 56" fill="none" xmlns="http://www.w3.org/2000/svg">
<rect x="9" y="6" width="28" height="44" rx="4" fill="#282D38"/>
<path d="M11 10C11 8.89543 11.8954 8 13 8H33C34.1046 8 35 8.89543 35 10V46C35 47.1046 34.1046 48 33 48H13C11.8954 48 11 47.1046 11 46V10Z" fill="#453D83"/>
<path d="M23 8H33C34.1046 8 35 8.89543 35 10V46C35 47.1046 34.1046 48 33 48H23V8Z" fill="#2D2755"/>
<path d="M28.9084 34.9998H17.0902C16.3371 34.9998 15.7266 34.3893 15.7266 33.6362V32.2725C15.7266 28.2559 18.9827 24.9998 22.9993 24.9998C27.0159 24.9998 30.272 28.2559 30.272 32.2725V33.6362C30.272 34.3893 29.6615 34.9998 28.9084 34.9998Z" fill="#6AA9FF"/>
<path d="M22.999 24.9998V34.9998H28.9081C29.6612 34.9998 30.2718 34.3893 30.2718 33.6362V32.2725C30.2718 28.2559 27.0157 24.9998 22.999 24.9998Z" fill="#6E76E5"/>
<path d="M22.9996 26.818C25.5099 26.818 27.545 24.7829 27.545 22.2725C27.545 19.7621 25.5099 17.7271 22.9996 17.7271C20.4892 17.7271 18.4541 19.7621 18.4541 22.2725C18.4541 24.7829 20.4892 26.818 22.9996 26.818Z" fill="#FFDECF"/>
<path d="M27.5445 22.2725C27.5445 19.7661 25.5054 17.7271 22.999 17.7271V26.818C25.5054 26.818 27.5445 24.7789 27.5445 22.2725Z" fill="#FFCDBE"/>
<path d="M29.5 41H26.5C25.6716 41 25 40.3284 25 39.5C25 38.6716 25.6716 38 26.5 38H29.5C30.3284 38 31 38.6716 31 39.5C31 40.3284 30.3284 41 29.5 41Z" fill="#00CBB1"/>
<path d="M19.5 41H16.5C15.6716 41 15 40.3284 15 39.5C15 38.6716 15.6716 38 16.5 38H19.5C20.3284 38 21 38.6716 21 39.5C21 40.3284 20.3284 41 19.5 41Z" fill="#FF7D47"/>
<g filter="url(#filter0_d_1553_28044)">
<circle cx="38" cy="18" r="9" fill="white"/>
<path d="M43.5035 20.6662C43.4411 20.6662 43.3785 20.6588 43.319 20.6437L37.9969 19.2992C37.8083 19.2516 37.6846 19.1362 37.6846 19.0079V16.9912C37.6846 16.8628 37.8083 16.7474 37.9969 16.6998L43.319 15.3553C43.4721 15.3166 43.6455 15.3284 43.782 15.3868C43.9186 15.4452 44.0004 15.5425 44.0004 15.6467V20.3524C44.0004 20.4565 43.9186 20.5538 43.782 20.6122C43.6986 20.6479 43.6014 20.6662 43.5035 20.6662Z" fill="#FF8B71"/>
<path d="M37.9969 19.2993L43.319 20.6438C43.3785 20.6588 43.4411 20.6662 43.5035 20.6662C43.6014 20.6662 43.6986 20.648 43.782 20.6123C43.9186 20.5539 44.0004 20.4566 44.0004 20.3524V17.9996H37.6846V19.0079C37.6846 19.1363 37.8083 19.2517 37.9969 19.2993Z" fill="#FB7152"/>
<path d="M39.6559 22H33.1862C32.5322 22 32 21.4701 32 20.8187V15.1813C32 14.5299 32.5322 14 33.1862 14H39.6559C40.31 14 40.8421 14.5299 40.8421 15.1813V20.8187C40.8421 21.4701 40.31 22 39.6559 22Z" fill="#FF8B71"/>
<path d="M33.1862 21.9996H39.6559C40.31 21.9996 40.8421 21.4696 40.8421 20.8183V17.9996H32V20.8183C32 21.4696 32.5322 21.9996 33.1862 21.9996Z" fill="#FB7152"/>
</g>
<defs>
<filter id="filter0_d_1553_28044" x="26" y="8" width="24" height="24" filterUnits="userSpaceOnUse" color-interpolation-filters="sRGB">
<feFlood flood-opacity="0" result="BackgroundImageFix"/>
<feColorMatrix in="SourceAlpha" type="matrix" values="0 0 0 0 0 0 0 0 0 0 0 0 0 0 0 0 0 0 127 0" result="hardAlpha"/>
<feOffset dy="2"/>
<feGaussianBlur stdDeviation="1.5"/>
<feComposite in2="hardAlpha" operator="out"/>
<feColorMatrix type="matrix" values="0 0 0 0 0 0 0 0 0 0 0 0 0 0 0 0 0 0 0.25 0"/>
<feBlend mode="normal" in2="BackgroundImageFix" result="effect1_dropShadow_1553_28044"/>
<feBlend mode="normal" in="SourceGraphic" in2="effect1_dropShadow_1553_28044" result="shape"/>
</filter>
</defs>
</svg>
