<svg width="256" height="218" viewBox="0 0 256 218" fill="none" xmlns="http://www.w3.org/2000/svg">
<g filter="url(#filter0_d_889_9641)">
<path d="M33.1606 42.4691C33.1606 43.2153 33.7636 43.8174 34.5066 43.8174C35.2495 43.8174 35.8568 43.2153 35.8568 42.4691C35.8568 41.7228 35.2495 41.125 34.5066 41.125C33.7636 41.125 33.1606 41.7271 33.1606 42.4691Z" fill="#FE4B5F"/>
<path d="M144 117.996C144 156.655 112.664 188 74.0042 188C35.3447 188 4 156.655 4 117.996C4 79.3364 35.3447 48 74.0042 48C112.664 48 144 79.3364 144 117.996Z" fill="#FFF8D9"/>
<path d="M44.0444 93.2142C44.0444 102.67 51.7217 110.336 61.1907 110.336C70.6596 110.336 78.339 102.67 78.339 93.2142C78.339 83.7585 70.6618 76.0898 61.1907 76.0898C51.7195 76.0898 44.0444 83.7563 44.0444 93.2142Z" fill="#FFD7D7"/>
<path d="M252 137.375C252 157.265 235.855 173.392 215.937 173.392C196.02 173.392 179.87 157.265 179.87 137.375C179.87 117.486 196.02 101.363 215.937 101.363C235.855 101.363 252 117.486 252 137.375Z" fill="#FFF8D9"/>
<path d="M127.295 205.519H194.704C209.025 195.111 218.336 178.242 218.336 159.202C218.336 127.579 192.667 101.947 160.999 101.947C129.332 101.947 103.664 127.579 103.664 159.202C103.664 178.242 112.976 195.111 127.297 205.519H127.295Z" fill="white"/>
<path d="M126.646 190.886L145.143 178.957C145.845 181.703 147.324 184.464 150.064 186.847L145.97 205.752L215.1 200.111C217.133 197.292 217.934 193.587 216.857 189.897L207.444 157.624C205.868 152.231 200.919 148.521 195.29 148.521H147.869C144.264 148.521 140.832 150.054 138.433 152.734L127.101 165.334L119.971 138.098C119.419 136.063 117.255 134.924 115.263 135.618L102.295 140.139C100.555 140.745 99.5446 142.556 99.943 144.351L108.641 183.611C110.476 191.628 119.742 195.37 126.646 190.886Z" fill="#FE4B5F"/>
<path d="M160.004 193.913C160.004 193.913 154.754 190.679 153.563 192.309C152.564 193.676 155.29 195.554 158.047 196.186" fill="#FFAAAA"/>
<path d="M160.523 193.813L161.559 200.944C160.405 203.873 155.493 203.129 155.17 203.023C154.448 202.787 154.08 202.286 154.7 201.509C154.728 201.477 154.769 201.438 154.817 201.395C153.076 201.813 152.713 200.832 153.197 200C152.004 200.023 151.713 199.086 152.486 198.124C152.521 198.084 152.566 198.036 152.626 197.987C150.006 196.787 148.776 200.825 147.727 199.733C146.416 198.365 149.11 194.703 152.982 194.606C156.524 194.656 160.521 193.811 160.521 193.811L160.523 193.813Z" fill="#FFAAAA"/>
<path d="M152.626 197.989C152.626 197.989 153.32 197.535 154.198 197.496L152.626 197.989Z" fill="#FFAAAA"/>
<path d="M153.242 200C153.242 200 153.906 199.566 154.756 199.51L153.242 200Z" fill="#FFAAAA"/>
<path d="M154.76 201.444C154.76 201.444 155.342 201.063 156.113 200.969L154.76 201.444Z" fill="#FFAAAA"/>
<path d="M227.237 52.9505C227.237 73.8533 208.979 89.9217 188.465 87.6164C171.03 85.7175 157.388 70.9501 157.388 52.9505C157.388 33.6885 173.022 18.0781 192.309 18.0781C211.596 18.0781 227.235 33.6907 227.235 52.9505H227.237Z" fill="white"/>
<path d="M224.597 66.2655C218.707 80.4931 204.022 89.3639 188.465 87.6155C187.933 86.2371 190.392 92.609 183.264 74.1363C169.551 87.2456 176.022 81.0608 174.218 82.7855C169.342 79.8222 165.153 75.6588 162.154 70.5385L172.118 60.9968C175.189 58.057 179.276 56.4141 183.531 56.4141H208.424C213.138 56.4141 217.626 58.4248 220.757 61.9451L224.599 66.2633L224.597 66.2655Z" fill="#5F64FF"/>
<path d="M183.221 74.1729L174.215 82.7856C173.188 82.1619 172.198 81.4888 171.244 80.762C178.593 78.7792 182.308 71.9062 182.308 71.9062L183.221 74.1729Z" fill="#2330D8"/>
<path d="M212.716 72.3691C207.773 80.4249 198.337 85.9495 188.181 85.9495C188.058 85.9495 187.942 85.9495 187.819 85.9452L188.465 87.6161C198.388 88.7322 208.428 85.5258 215.935 78.6357L212.716 72.3713V72.3691Z" fill="#2330D8"/>
<path d="M186.475 37.3123C185.788 36.25 184.373 35.9446 183.31 36.6285C182.241 37.3166 181.936 38.7295 182.62 39.7918C183.31 40.8585 184.724 41.1639 185.795 40.4757" fill="#FFAAAA"/>
<path d="M196.795 53.4106C202.362 53.4106 207.106 49.9332 208.973 45.0344H208.975C210.967 39.856 209.462 33.6712 204.728 30.0498C198.033 24.9122 188.2 27.4326 184.83 35.1894C181.044 43.8839 187.507 53.4106 196.793 53.4106H196.795Z" fill="#FFAAAA"/>
<path d="M184.66 45.177C186.574 50.0027 191.284 53.4112 196.793 53.4112C202.301 53.4112 207.104 49.9339 208.971 45.0351H208.973C210.435 41.233 210.058 36.7019 207.586 33.0762C208.751 35.9858 208.827 39.4373 207.64 42.5211H207.638C205.771 47.4199 201.027 50.8973 195.46 50.8973C190.968 50.8973 187.005 48.6285 184.66 45.177Z" fill="#F99191"/>
<path d="M206.996 42.9854C207.802 42.0112 209.244 41.8736 210.22 42.6779C211.2 43.4865 211.338 44.9251 210.532 45.9015C209.722 46.8799 208.282 47.0176 207.3 46.209" fill="#F99191"/>
<path d="M193.778 44.6704C191.945 45.2253 190.741 44.7651 190.132 44.3801C189.945 44.2618 189.706 44.421 189.746 44.6382C189.852 45.1736 190.057 45.9414 190.433 46.5177C190.703 46.9177 191.056 47.2209 191.519 47.2983C192.014 47.3801 192.447 47.1994 192.813 46.894C193.422 46.3908 193.853 45.55 194.086 45.0102C194.172 44.8102 193.98 44.6059 193.776 44.6704H193.778Z" fill="#141831"/>
<path d="M190.797 46.3797C190.98 46.6507 191.219 46.8593 191.536 46.9109C191.872 46.9646 192.167 46.8421 192.417 46.6356C192.236 46.3646 191.997 46.1539 191.678 46.1044C191.342 46.0507 191.047 46.1733 190.797 46.3797Z" fill="#FE4B5F"/>
<path d="M185.803 39.7758C185.722 40.6403 186.357 41.408 187.223 41.4898L188.844 41.6425C190.237 41.7736 191.092 40.1479 190.205 39.0748C189.949 38.7651 189.574 38.5522 189.141 38.5113L187.52 38.3586C186.654 38.2769 185.885 38.9113 185.803 39.7737V39.7758Z" fill="white"/>
<path d="M194.835 41.6115C194.708 42.4717 195.303 43.2695 196.164 43.3964L197.775 43.633C198.634 43.7599 199.433 43.1642 199.56 42.304C199.687 41.4459 199.091 40.6481 198.233 40.5212L196.623 40.2847C195.761 40.1578 194.962 40.7513 194.835 41.6094V41.6115Z" fill="white"/>
<path d="M204.847 56.418C204.847 60.7964 201.278 64.3619 196.892 64.3619C192.505 64.3619 188.932 60.7985 188.932 56.418H204.847Z" fill="white"/>
<path d="M200.785 56.4141C200.785 58.5624 199.039 60.3065 196.892 60.3065C194.745 60.3065 192.994 58.5624 192.994 56.4141H200.785Z" fill="#FFAAAA"/>
<path d="M188.917 170.715L193.821 186.699L162.039 190.525C160.51 190.71 159.425 192.104 159.621 193.628L161.01 204.357C161.195 205.781 162.438 206.828 163.874 206.768L205.945 205.022C213.642 204.721 219.008 197.28 216.855 189.895L213.872 179.667" fill="#FE4B5F"/>
<path d="M173.266 201.961H143.75V206.769H173.266V201.961Z" fill="white"/>
<path d="M133.241 170.818L147.663 206.772H99.3788L84.9568 170.818H133.241Z" fill="white"/>
<g opacity="0.6">
<path d="M147.663 206.77H99.381L84.9568 170.818H88.9602L92.8279 180.461C98.1083 193.624 110.876 202.252 125.077 202.252H145.849L147.66 206.768L147.663 206.77Z" fill="#CFD5FF"/>
</g>
<g opacity="0.6">
<path d="M116.822 187.155C117.367 188.746 116.519 190.037 114.925 190.037C113.331 190.037 111.598 188.746 111.053 187.155C110.508 185.564 111.357 184.273 112.95 184.273C114.544 184.273 116.277 185.564 116.822 187.155Z" fill="#CFD5FF"/>
</g>
<path d="M158.333 129.003C157.358 128.033 155.779 128.033 154.804 129.003C153.832 129.977 153.839 131.553 154.808 132.523C155.779 133.493 157.356 133.497 158.331 132.527" fill="#FFAAAA"/>
<path d="M171.222 143.726C180.461 143.726 187.386 135.266 185.657 126.363C183.878 116.697 173.072 111.372 164.219 116.161C160.784 118.019 158.176 121.209 157.091 125.03C154.427 134.307 161.402 143.726 171.222 143.726Z" fill="#FFAAAA"/>
<path d="M159.569 137.987C162.253 141.478 166.473 143.727 171.222 143.727C180.618 143.727 187.362 135.095 185.655 126.362C184.976 122.669 182.909 119.467 180.015 117.312C181.397 119.106 182.366 121.226 182.791 123.538C182.961 124.407 183.038 125.306 183.038 126.222C183.038 134.336 176.472 140.903 168.356 140.903C165.063 140.903 162.018 139.817 159.567 137.987H159.569Z" fill="#F99191"/>
<path d="M159.386 133.693H160.508C161.553 133.693 162.423 132.85 162.423 131.781C162.423 130.712 161.566 129.869 160.508 129.869H159.386C158.523 129.869 157.795 130.441 157.549 131.228C157.185 132.454 158.101 133.695 159.386 133.695V133.693Z" fill="white"/>
<path d="M168.328 131.914C168.328 132.97 169.185 133.826 170.242 133.826C171.355 133.826 171.42 133.83 171.48 133.819C173.139 133.725 173.873 131.716 172.719 130.561C172.37 130.213 171.894 130 171.364 130H170.242C169.213 130 168.328 130.828 168.328 131.912V131.914Z" fill="white"/>
<path d="M166.336 138.581C166.325 138.592 166.316 138.603 166.303 138.613C166.047 138.839 165.739 138.938 165.384 138.91H165.382C164.996 138.878 164.684 138.712 164.436 138.482C164.447 138.471 164.456 138.461 164.469 138.45C164.725 138.224 165.033 138.125 165.388 138.153H165.39C165.776 138.185 166.088 138.351 166.336 138.579V138.581Z" fill="#FE4B5F"/>
<path d="M184.531 130.02C185.506 129.051 187.085 129.051 188.06 130.02C189.031 130.995 189.025 132.571 188.056 133.541C187.085 134.511 185.508 134.515 184.533 133.545" fill="#F99191"/>
<path d="M180.689 148.473C180.689 153.541 176.556 157.666 171.478 157.666C166.4 157.666 162.272 153.541 162.272 148.473H180.689Z" fill="white"/>
<path d="M176.627 148.473C176.627 151.309 174.321 153.61 171.478 153.61C168.636 153.61 166.333 151.307 166.333 148.473H176.627Z" fill="#FFAAAA"/>
<path d="M113.562 136.258L104.911 139.11C96.4651 138.179 95.3453 130.916 95.3453 130.916C95.1471 129.495 95.3647 128.617 95.748 128.215C95.4271 126.491 95.7372 125.422 96.239 124.983L96.2347 124.979C95.8212 121.897 98.2719 121.36 99.0838 123.256C100.518 122.68 100.875 123.635 101.304 124.968C102.243 127.482 104.28 128.888 107.127 129.495C104.351 126.213 105.557 122.934 107.228 123.652C108.945 124.387 109.337 127.364 112.515 129.519C115.698 131.673 113.56 136.26 113.56 136.26L113.562 136.258Z" fill="#FFAAAA"/>
<path d="M102.488 130.853C102.488 130.853 99.5725 128.277 99.2926 124.322C99.0751 121.236 95.7587 121.408 96.2368 124.976" fill="#FFAAAA"/>
<path d="M101.599 132.469C101.599 132.469 98.7477 130.008 98.3235 126.849C97.8993 123.69 94.9683 124.028 95.7479 128.215" fill="#FFAAAA"/>
<path d="M100.4 133.991C99.0579 133.136 98.1556 131.871 97.9532 130.366C97.5289 127.207 94.7875 126.927 95.3474 130.914C95.3474 130.914 96.4672 138.181 104.911 139.11L113.59 136.202C113.59 136.202 115.7 131.671 112.519 129.516C109.341 127.361 108.949 124.385 107.23 123.648C105.447 122.884 104.194 126.69 107.773 130.179" fill="#FFAAAA"/>
<path d="M160.997 101.721C140.379 101.721 122.258 112.605 112.087 128.918C109.466 126.841 109.02 124.17 107.319 123.439C107.082 123.34 106.851 123.303 106.628 123.329C104.64 123.514 105.103 127.034 106.386 128.884C106.436 128.961 106.492 129.039 106.55 129.12C103.972 128.43 102.323 127.041 101.524 124.895C101.265 124.092 100.996 123.26 100.369 122.97C100.046 122.815 99.6652 122.815 99.2022 122.97C98.4571 121.563 96.7408 121.523 96.1529 123.133C96.1529 123.133 96.1514 123.136 96.1485 123.142C95.9504 123.604 95.9353 124.428 95.9978 124.899C95.3173 125.505 95.3087 127.153 95.5025 128.112C95.5025 128.12 95.5025 128.135 95.5068 128.148C95.4939 128.157 95.4896 128.165 95.4831 128.176C95.3884 128.271 95.1859 128.667 95.1105 129.12C95.0007 129.679 95.0244 130.692 95.2096 131.353C95.8557 133.862 97.4902 136.124 99.4283 137.413C100.792 138.32 102.282 138.95 104.173 139.238L102.217 139.924C100.372 140.57 99.2948 142.494 99.7169 144.4L103.481 161.38C103.6 164.494 103.972 167.575 104.59 170.593H84.9546C84.7909 170.593 84.6811 170.765 84.7457 170.902L99.1678 206.858C99.2001 206.944 99.2862 206.998 99.3767 206.998H173.263C173.391 206.998 173.492 206.899 173.492 206.77V206.598L194.045 205.744C194.706 205.736 194.738 205.766 194.814 205.712L205.954 205.25C209.681 205.104 213.071 203.293 215.253 200.28C215.265 200.271 215.27 200.256 215.281 200.248C217.466 197.216 218.121 193.422 217.077 189.831L214.391 180.618C217.109 173.883 218.565 166.616 218.565 159.199C218.565 127.505 192.744 101.719 160.999 101.719L160.997 101.721ZM97.2921 134.772C96.4306 133.628 95.7544 131.972 95.5972 131.023C95.5908 131.017 95.5692 130.894 95.5692 130.884C95.4659 130.161 95.4034 128.897 95.9138 128.374C95.9138 128.37 95.9181 128.365 95.9224 128.365C96.1119 128.174 96.3273 128.144 96.5577 128.239C96.9841 128.415 97.5483 129.084 97.7249 130.4C97.9295 131.92 98.834 133.269 100.275 134.185C100.38 134.254 100.52 134.221 100.589 134.116C100.654 134.006 100.626 133.871 100.516 133.802C99.1936 132.957 98.3623 131.729 98.175 130.335C98.0027 129.077 97.4514 128.112 96.73 127.821C96.4479 127.703 96.1615 127.707 95.9117 127.821V127.817C95.7975 127.103 95.8061 125.507 96.3854 125.157H96.3897C96.3897 125.157 96.4027 125.144 96.407 125.133C96.4113 125.129 96.4156 125.125 96.4199 125.12C96.6159 124.966 96.842 124.929 97.0702 125.021C97.4665 125.176 97.9381 125.744 98.0932 126.882C98.526 130.09 101.326 132.542 101.448 132.641C101.489 132.682 101.543 132.699 101.595 132.699C101.659 132.699 101.722 132.671 101.767 132.617C101.849 132.522 101.84 132.38 101.743 132.299C101.715 132.271 98.9524 129.856 98.5432 126.819C98.3925 125.684 97.9015 124.854 97.2382 124.596C96.9647 124.49 96.6848 124.49 96.4242 124.596C96.3079 122.856 97.2274 122.179 97.9639 122.426C97.9683 122.426 97.9726 122.43 97.9769 122.43C98.0092 122.434 98.035 122.447 98.0673 122.467C98.6272 122.725 98.9955 123.424 99.0579 124.338C99.3443 128.342 102.209 130.914 102.331 131.023C102.372 131.064 102.426 131.084 102.482 131.084C102.547 131.084 102.609 131.056 102.65 131.006C102.736 130.912 102.728 130.77 102.633 130.684C102.605 130.66 99.7837 128.12 99.5145 124.308C99.4908 123.981 99.4326 123.677 99.3379 123.404C99.6889 123.29 99.9559 123.282 100.169 123.381C100.587 123.576 100.815 124.189 101.087 125.047C102.004 127.507 103.94 129.028 107 129.699C107.187 129.912 107.392 130.131 107.61 130.344C107.696 130.43 107.842 130.43 107.928 130.34C108.019 130.249 108.014 130.107 107.928 130.017C107.491 129.593 107.073 129.112 106.72 128.574C106.001 127.14 105.012 124.763 106.376 123.895C106.593 123.766 106.83 123.727 107.134 123.858C108.656 124.51 109.123 127.185 111.848 129.31C112.285 129.658 115.453 131.198 113.411 136.023C111.072 136.806 106.147 138.456 104.885 138.884C104.795 138.873 104.552 138.845 104.203 138.789C101.119 138.337 98.582 136.656 97.2899 134.776L97.2921 134.772ZM104.114 164.242L105.523 170.593H105.055C104.625 168.504 104.31 166.38 104.114 164.242ZM99.5317 206.544L85.2927 171.046H133.085C133.473 172.012 147.546 207.101 146.885 205.45C146.941 205.59 147.352 206.609 147.327 206.544H99.5339H99.5317ZM145.001 179.317C145.819 182.276 147.436 184.837 149.81 186.934L147.501 197.596C147.277 198.003 147.116 198.581 147.178 199.08L146.605 201.74H145.888L138.562 183.472L145.003 179.319L145.001 179.317ZM153.746 192.444C154.528 191.377 157.687 192.852 159.356 193.801C156.604 194.28 154.593 194.349 154.547 194.353C153.914 193.848 153.272 193.095 153.748 192.442L153.746 192.444ZM159.472 194.241L160.441 201.74H154.806C154.873 201.659 154.823 201.706 154.911 201.618C154.916 201.613 154.92 201.609 154.92 201.609C155.056 201.532 155.538 201.269 156.139 201.196C156.266 201.183 156.352 201.069 156.339 200.942C156.322 200.82 156.208 200.73 156.085 200.747C155.491 200.82 155.004 201.05 154.776 201.179C154.73 201.179 153.682 201.476 153.331 201.003C153.191 200.811 153.195 200.512 153.348 200.203C153.352 200.198 153.361 200.198 153.365 200.194C153.374 200.19 153.987 199.79 154.769 199.74C154.896 199.732 154.991 199.622 154.982 199.499C154.974 199.373 154.855 199.282 154.741 199.287C153.972 199.336 153.365 199.667 153.173 199.777C152.751 199.785 152.461 199.654 152.342 199.413C152.202 199.127 152.318 198.697 152.657 198.278C152.68 198.246 152.71 198.213 152.751 198.179C152.751 198.179 152.756 198.179 152.76 198.175C152.837 198.13 153.451 197.758 154.205 197.725C154.332 197.721 154.427 197.611 154.422 197.489C154.418 197.362 154.328 197.261 154.186 197.272C153.445 197.304 152.84 197.603 152.605 197.738C151.029 197.084 149.924 198.168 149.11 198.968C148.724 199.345 148.36 199.717 148.115 199.699C148.065 199.699 147.992 199.687 147.893 199.581C147.441 199.114 147.622 198.327 147.93 197.766L147.934 197.762C148.679 196.34 150.606 194.897 152.98 194.839C155.077 194.859 157.407 194.594 159.475 194.246L159.472 194.241ZM149.428 199.289C150.186 198.549 151.037 197.71 152.232 198.082C151.836 198.622 151.724 199.19 151.933 199.616C152.097 199.942 152.415 200.147 152.85 200.211C152.566 201.054 153.044 201.811 154.295 201.714C154.291 201.723 154.287 201.732 154.282 201.742H147.07L147.488 199.813C148.119 200.57 148.789 199.925 149.428 199.291V199.289ZM163.863 206.547C163.786 206.551 163.704 206.551 163.627 206.547H147.813C147.794 206.499 145.953 201.906 146.069 202.194H173.035C173.035 202.31 173.035 203.837 173.035 203.779C173.035 203.949 173.035 206.721 173.035 206.547H163.863ZM205.934 204.798C206.139 204.79 203.576 204.895 173.492 206.147C173.492 206 173.492 201.745 173.492 201.966C173.492 201.839 173.393 201.738 173.263 201.738H160.9C160.741 200.51 159.841 193.598 159.841 193.549C159.767 192.891 159.95 192.242 160.36 191.715C160.782 191.175 161.387 190.835 162.063 190.753L193.847 186.928C193.978 186.908 194.077 186.786 194.038 186.633L189.135 170.646C189.098 170.528 188.971 170.461 188.848 170.496C188.73 170.532 188.661 170.659 188.698 170.782L193.519 186.508L162.007 190.297C161.208 190.396 160.493 190.796 160.002 191.433C159.584 191.968 159.367 192.609 159.367 193.276C157.799 192.409 154.407 190.766 153.376 192.173C152.833 192.912 153.223 193.732 153.884 194.375C153.58 194.383 153.27 194.383 152.971 194.379C150.945 194.429 149.213 195.429 148.179 196.603L150.279 186.893C150.296 186.812 150.27 186.73 150.206 186.676C147.766 184.551 146.134 181.939 145.356 178.902C143.592 172.035 146.769 165.203 146.801 165.137C146.851 165.023 146.805 164.887 146.691 164.838C146.577 164.784 146.442 164.829 146.388 164.947C146.355 165.016 143.16 171.879 144.874 178.855L138.383 183.044L133.447 170.734C133.411 170.648 133.329 170.595 133.234 170.595H105.986C98.6315 137.413 100.453 145.63 100.158 144.305C99.7858 142.621 100.736 140.924 102.364 140.352C102.738 140.221 116.226 135.524 115.332 135.836C117.203 135.178 119.228 136.251 119.745 138.155L126.877 165.393L127.691 168.457C127.725 168.59 127.861 168.648 127.969 168.621C128.092 168.588 128.165 168.461 128.132 168.343L127.351 165.397L138.601 152.888C140.954 150.255 144.331 148.748 147.869 148.748H162.05C162.19 153.812 166.368 157.894 171.476 157.894C176.584 157.894 180.762 153.814 180.902 148.748H195.287C200.779 148.748 205.687 152.425 207.222 157.69L213.644 179.713C213.644 179.713 213.648 179.726 213.648 179.736C217.74 193.749 216.329 188.917 216.635 189.962C218.763 197.295 213.448 204.501 205.932 204.8L205.934 204.798ZM176.39 148.748C176.25 151.326 174.099 153.386 171.476 153.386C168.853 153.386 166.708 151.326 166.568 148.748H176.39ZM166.114 148.748C166.254 151.58 168.605 153.84 171.478 153.84C174.351 153.84 176.705 151.58 176.847 148.748H180.456C180.31 153.563 176.343 157.44 171.48 157.44C166.618 157.44 162.653 153.565 162.509 148.748H166.118H166.114ZM214.184 179.915L207.661 157.561C206.066 152.105 200.979 148.292 195.29 148.292H180.822C180.706 148.204 181.623 148.266 166.331 148.247H162.268C162.218 148.247 162.169 148.264 162.132 148.292H147.869C144.206 148.292 140.702 149.857 138.26 152.58L127.211 164.866L120.188 138.036C119.607 135.875 117.315 134.664 115.183 135.4L113.975 135.821C114.087 135.524 114.253 134.952 114.352 134.419C114.811 131.976 114.025 130.312 112.83 129.462C112.694 129.357 112.524 129.245 112.453 129.189C122.533 112.981 140.524 102.17 160.995 102.17C192.488 102.17 218.106 127.75 218.106 159.195C218.106 166.363 216.743 173.38 214.184 179.911V179.915Z" fill="#141831"/>
<path d="M190.688 116.485C188.088 115.588 185.831 115.893 183.992 116.674C183.837 116.609 182.644 115.829 180.781 115.829C180.054 115.829 179.358 115.947 178.703 116.169C173.774 113.328 167.8 113.597 163.319 116.422C162.063 116.145 160.666 116.244 159.397 116.786C157.304 115.311 154.399 114.313 150.91 115.859C142.206 119.715 143.026 142.865 147.094 144.643C150.826 146.273 148.729 124.951 155.471 123.652C155.609 124.672 155.979 125.616 156.533 126.426C156.455 126.863 156.397 127.302 156.361 127.743C156.242 127.857 156.132 127.979 156.029 128.106C153.904 128.523 153.122 131.158 154.646 132.68C154.868 132.902 155.12 133.08 155.387 133.203V133.207C155.883 134.261 156.742 135.104 157.81 135.577C160.237 140.534 165.336 143.955 171.222 143.955C177.607 143.955 183.066 139.916 185.19 134.265C185.541 134.42 185.913 134.497 186.286 134.497C188.689 134.497 189.927 131.573 188.217 129.859C187.645 129.291 186.88 129.029 186.131 129.078C186.114 128.704 186.152 127.751 185.885 126.377C186.322 125.829 186.671 125.211 186.912 124.538C186.912 124.538 186.912 124.538 186.912 124.536C192.703 127.291 190.922 146.832 194.501 145.269C198.572 143.491 200.042 119.715 190.685 116.485H190.688ZM175.764 131.482C175.764 133.893 173.795 135.859 171.377 135.859C168.959 135.859 166.995 133.893 166.995 131.482C166.995 129.072 168.959 127.106 171.377 127.106C173.795 127.106 175.764 129.067 175.764 131.482ZM183.467 116.913C182.709 117.285 182.028 117.732 181.434 118.197C181.12 117.928 180.499 117.293 179.22 116.485C179.715 116.354 182.145 116.252 183.465 116.911L183.467 116.913ZM162.767 116.786C162.154 117.203 161.576 117.665 161.036 118.171C160.676 117.814 160.271 117.45 159.823 117.104C160.793 116.741 161.843 116.65 162.767 116.786ZM155.917 123.594C156.337 123.571 156.789 123.622 157.276 123.751C157.015 124.426 156.796 125.16 156.662 125.773C156.281 125.115 156.027 124.379 155.917 123.594ZM157.325 125.016C160.747 124.835 163.861 123.476 166.271 121.362C166.762 122.13 167.322 122.846 167.94 123.504C168.071 123.644 168.203 123.781 168.341 123.913C169.536 125.093 170.936 126.063 172.482 126.781C170.318 126.282 168.168 127.293 167.132 129.164C166.11 128.543 165.119 128.547 164.178 129.177C164.141 129.091 164.1 129.009 164.055 128.927C162.599 126.198 159.149 125.564 156.86 127.312C156.94 126.571 157.183 125.45 157.328 125.016H157.325ZM156.281 128.523C156.281 128.523 156.298 128.519 156.309 128.519C156.27 130.022 156.404 131.45 156.837 133.007C156.464 133.052 156.083 133.003 155.732 132.861C155.14 131.474 155.299 129.796 156.281 128.521V128.523ZM160.61 133.456C160.487 132.175 159.404 131.168 158.088 131.168C157.989 131.168 157.894 131.175 157.799 131.185C158.058 130.53 158.68 130.093 159.386 130.093H160.504C161.447 130.093 162.195 130.859 162.195 131.781C162.195 132.704 161.514 133.392 160.61 133.456ZM159.386 133.919C160.51 133.919 160.59 133.925 160.635 133.91C161.762 133.846 162.649 132.912 162.649 131.781C162.649 130.65 161.695 129.639 160.504 129.639H159.386C158.441 129.639 157.614 130.252 157.328 131.164C157.175 131.697 157.218 132.295 157.508 132.816C157.435 132.856 157.358 132.884 157.28 132.906C156.936 131.676 156.753 130.383 156.753 129.044C156.753 128.644 156.781 128.016 156.798 127.949C158.88 126.018 162.242 126.566 163.612 129.061C165.199 131.919 163.127 135.538 159.765 135.538C159.193 135.538 158.643 135.428 158.144 135.224C157.857 134.62 157.608 133.99 157.403 133.34C157.53 133.304 157.657 133.254 157.78 133.194C158.172 133.639 158.749 133.917 159.384 133.917L159.386 133.919ZM155.6 128.717C154.898 129.895 154.767 131.315 155.122 132.497C155.069 132.456 155.017 132.411 154.967 132.362C153.839 131.235 154.218 129.338 155.598 128.717H155.6ZM156.018 133.42C156.339 133.491 156.699 133.495 156.964 133.448C157.119 133.942 157.295 134.428 157.496 134.904C156.89 134.536 156.382 134.028 156.018 133.42ZM184.367 130.179C184.453 130.269 184.6 130.269 184.69 130.179C185.588 129.295 187.027 129.312 187.894 130.179C188.775 131.065 188.775 132.497 187.89 133.379C187.02 134.248 185.579 134.271 184.69 133.383C184.6 133.293 184.453 133.293 184.367 133.383C184.277 133.474 184.277 133.616 184.367 133.706C184.498 133.833 184.636 133.947 184.785 134.046C182.743 139.559 177.435 143.499 171.222 143.499C165.69 143.499 160.868 140.377 158.441 135.805C162.179 136.891 165.612 133.259 164.35 129.609C165.177 129.013 166.028 129.001 166.937 129.573C166.682 130.158 166.54 130.803 166.54 131.478C166.54 134.142 168.709 136.308 171.377 136.308C174.607 136.308 176.948 133.188 176.014 130.099L185.676 129.091V129.136C185.194 129.246 184.74 129.484 184.367 129.852C184.277 129.943 184.277 130.084 184.367 130.175V130.179ZM185.668 128.635L175.859 129.661C175.458 128.689 174.767 127.882 173.873 127.336C177.493 128.586 181.688 128.401 185.446 126.474C185.543 126.962 185.651 127.792 185.668 128.635ZM186.49 124.368C186.309 124.872 186.064 125.345 185.762 125.775C185.644 125.239 185.5 124.721 185.321 124.214C185.739 124.199 186.126 124.254 186.488 124.368H186.49Z" fill="#141831"/>
<path d="M192.309 17.8516C172.928 17.8516 157.162 33.5975 157.162 52.9497C157.162 59.1861 158.82 65.3086 161.958 70.6547C173.257 89.9683 199.618 93.9295 216.082 78.8438C216.082 78.8438 216.084 78.8416 216.086 78.8395C216.209 78.8309 216.278 78.7492 216.293 78.6502C216.293 78.6502 216.293 78.6502 216.295 78.6481C223.184 72.2203 227.467 63.0097 227.467 52.9497C227.467 33.5953 211.695 17.8516 192.311 17.8516H192.309ZM174.592 82.7426L183.174 74.5364L188.118 87.3447C183.305 86.7727 178.759 85.2243 174.592 82.7426ZM216.108 78.1986V78.2029L212.595 71.6654C212.535 71.5536 212.397 71.5149 212.287 71.573C212.177 71.6332 212.134 71.7708 212.195 71.8805L215.761 78.5212C208.073 85.5082 198.102 88.4479 188.627 87.4027L183.478 74.0546C183.478 74.0546 183.473 74.0503 183.473 74.046C183.277 73.588 182.024 70.6633 182.104 70.8504C182.054 70.7343 181.921 70.6805 181.804 70.73C181.688 70.7794 181.634 70.9128 181.684 71.0289L182.991 74.0826L174.185 82.5039C172.729 81.6717 169.928 79.5276 169.107 78.7083C166.568 76.4395 164.255 73.6482 162.436 70.5795L172.271 61.1624C175.316 58.2485 179.311 56.6464 183.529 56.6464H188.706C188.825 61.0442 192.451 64.5903 196.887 64.5903C201.324 64.5903 204.946 61.0463 205.064 56.6464H208.42C213.069 56.6464 217.501 58.6335 220.583 62.1022L224.332 66.315C222.465 70.7773 219.721 74.7837 216.105 78.2029L216.108 78.1986ZM200.548 56.6443C200.426 58.5604 198.834 60.0808 196.89 60.0808C194.945 60.0808 193.349 58.5604 193.227 56.6443H200.548ZM192.768 56.6443C192.891 58.8098 194.691 60.5345 196.89 60.5345C199.088 60.5345 200.884 58.8098 201.007 56.6443H204.616C204.494 60.7926 201.076 64.1323 196.89 64.1323C192.703 64.1323 189.281 60.7926 189.163 56.6443H192.768ZM220.925 61.7968C217.757 58.2335 213.198 56.1905 208.422 56.1905H200.831C200.785 56.1755 193.285 56.1905 183.531 56.1905C179.194 56.1905 175.085 57.8378 171.958 60.8334L162.201 70.1752C159.201 64.9602 157.614 59.0141 157.614 52.9497C157.614 33.8469 173.177 18.3053 192.307 18.3053C211.437 18.3053 227.009 33.8469 227.009 52.9497C227.009 57.412 226.169 61.7452 224.517 65.8441L220.923 61.7947L220.925 61.7968Z" fill="#141831"/>
<path d="M209.927 42.2158C211.06 34.302 204.905 27.1387 196.795 27.1387C191.017 27.1387 186.053 30.8354 184.251 36.0568C183.882 36.0976 183.519 36.2245 183.187 36.4374C181.518 37.504 181.677 40.0416 183.538 40.8545C183.788 47.9447 189.643 53.6349 196.797 53.6349C201.733 53.6349 206.046 50.9253 208.323 46.9167C209.933 47.2178 211.432 45.8738 211.273 44.2028C211.187 43.3082 210.625 42.5641 209.927 42.2158ZM183.432 36.818C183.641 36.6826 183.863 36.5901 184.096 36.5406C183.788 37.461 183.529 38.9083 183.523 40.3405C182.192 39.5771 182.114 37.6696 183.432 36.818ZM210.358 45.7555C209.615 46.6479 208.31 46.7576 207.444 46.0329C207.349 45.9555 207.203 45.9641 207.125 46.0651C207.043 46.1598 207.056 46.306 207.153 46.3834C207.375 46.5641 207.616 46.7017 207.87 46.7963C205.652 50.6134 201.515 53.1833 196.793 53.1833C188.308 53.1833 182.117 45.0179 184.466 36.8718C184.52 36.6804 184.724 36.0482 184.776 35.9449C187.505 37.0911 190.823 36.7578 193.343 34.7278C195.001 37.2653 197.738 39.0266 200.906 39.3621C201.569 41.5642 204.093 42.5942 206.77 43.0351C206.802 43.2114 207.041 43.2781 207.17 43.1297C207.179 43.1168 207.188 43.1061 207.203 43.0975C207.875 42.3104 209.13 42.0889 210.071 42.8523C210.502 43.2071 211.075 44.8824 210.358 45.7576V45.7555Z" fill="#141831"/>
<path d="M190.382 38.9351C190.072 38.563 189.641 38.3351 189.163 38.2899L187.541 38.1351C187.063 38.0899 186.592 38.234 186.223 38.5394C185.013 39.5286 185.575 41.563 187.201 41.7157C188.672 41.8533 188.87 41.8791 188.993 41.8791C190.5 41.8791 191.357 40.1071 190.384 38.9329L190.382 38.9351ZM188.863 41.4167C188.818 41.4124 187.877 41.3243 187.937 41.3307C188.418 40.5028 188.456 39.5136 187.998 38.634C188.133 38.6469 189.184 38.7458 189.118 38.7394C189.891 38.8168 190.403 39.4963 190.332 40.206C190.263 40.9458 189.609 41.4856 188.863 41.4189V41.4167Z" fill="#141831"/>
<path d="M198.268 40.2967C196.633 40.0645 196.638 40.043 196.39 40.043C195.514 40.043 194.74 40.6881 194.609 41.5763C194.469 42.5612 195.15 43.4773 196.132 43.6235C197.742 43.8515 197.753 43.8773 198.005 43.8773C198.882 43.8773 199.655 43.2321 199.786 42.3397C199.933 41.3806 199.271 40.4516 198.268 40.2967ZM199.336 42.2709C199.226 43.0063 198.546 43.5139 197.809 43.4106L196.887 43.2752C197.413 42.4709 197.499 41.4838 197.088 40.5827C197.402 40.6301 198.257 40.7569 198.201 40.7483C198.963 40.8645 199.446 41.5655 199.338 42.273L199.336 42.2709Z" fill="#141831"/>
<path d="M171.366 129.773H170.244C169.069 129.773 168.104 130.713 168.104 131.911C168.104 133.109 169.062 134.053 170.244 134.053C171.252 134.049 171.388 134.062 171.493 134.044C173.343 133.941 174.174 131.694 172.88 130.399C172.475 129.995 171.939 129.773 171.366 129.773ZM171.47 133.591C171.338 132.214 170.102 131.158 168.662 131.317C168.916 130.659 169.534 130.227 170.242 130.227H171.364C171.814 130.227 172.236 130.404 172.555 130.722C173.563 131.726 172.951 133.483 171.468 133.591H171.47Z" fill="#141831"/>
<path d="M167.675 136.432C167.621 136.404 167.552 136.415 167.507 136.449C165.289 138.219 163.299 136.432 163.213 136.354C163.168 136.309 163.095 136.301 163.036 136.337C162.978 136.37 162.946 136.436 162.955 136.501C162.972 136.587 163.278 138.094 164.214 138.952C164.555 139.266 164.983 139.488 165.504 139.533H165.509C165.991 139.569 166.413 139.438 166.764 139.129C166.777 139.116 166.792 139.096 166.805 139.083C167.673 138.271 167.759 136.651 167.759 136.582C167.763 136.52 167.731 136.46 167.677 136.432H167.675Z" fill="#141831"/>
<path d="M78.675 183.523C72.9165 184.962 66.3893 186.587 60.0989 185.71C54.3985 184.921 47.8368 181.329 46.0214 175.093C45.3581 172.813 45.3861 170.482 45.8082 168.194C48.3579 169.155 51.3578 169.738 54.4351 169.134C59.0113 168.231 62.6163 164.467 62.8209 160.379C62.9307 158.11 61.7808 155.758 59.8081 154.237C58.0983 152.921 56.0847 152.489 54.2758 153.057C51.3621 153.969 49.635 156.915 48.3299 159.674C47.1714 162.13 46.0537 164.811 45.4658 167.571C44.2986 167.093 43.2347 166.54 42.3195 166.001C34.3601 161.321 28.8386 152.711 27.9018 143.534C26.9801 134.511 30.5204 125.124 37.1597 118.935L37.6033 122.344C37.6184 122.457 37.7153 122.541 37.8294 122.541C37.8402 122.541 37.8488 122.541 37.8596 122.541C37.9845 122.526 38.0728 122.412 38.0556 122.288L37.5624 118.49C37.5689 118.455 37.5624 118.419 37.5495 118.384L37.5452 118.357C37.528 118.232 37.416 118.141 37.2911 118.161L33.348 118.673C33.2231 118.688 33.1348 118.802 33.152 118.926C33.1671 119.051 33.2812 119.139 33.4061 119.122L36.7656 118.688C30.0811 124.978 26.5235 134.464 27.456 143.59C28.4014 152.904 34.0091 161.646 42.0912 166.403C43.0409 166.962 44.1543 167.538 45.3775 168.029C44.9274 170.411 44.8908 172.839 45.5864 175.226C47.4599 181.654 54.1896 185.353 60.0364 186.166C61.2854 186.342 62.5496 186.42 63.8094 186.42C68.9692 186.42 74.1268 185.131 78.7848 183.968C78.9076 183.94 78.9808 183.817 78.9528 183.695C78.9205 183.572 78.7978 183.499 78.675 183.527V183.523ZM48.7456 159.872C50.0054 157.199 51.6679 154.351 54.4136 153.489C56.0761 152.967 57.941 153.371 59.5325 154.597C61.3867 156.027 62.4742 158.233 62.3687 160.356C62.1727 164.242 58.7271 167.822 54.3512 168.689C51.3427 169.278 48.3967 168.697 45.9008 167.74C46.4693 164.999 47.587 162.321 48.7456 159.87V159.872Z" fill="#141831"/>
<g filter="url(#filter1_d_889_9641)">
<path d="M128.003 13.1372V36.5745C128.003 39.4083 130.29 41.7059 133.111 41.7059H157.018L162.488 46.8143C162.927 47.2236 163.639 46.9123 163.639 46.3098V41.7059H165.886C168.713 41.7059 171 39.4054 171 36.5745V13.1314C171 10.2976 168.71 8 165.886 8H133.114C130.29 8 128 10.3005 128 13.1372H128.003Z" fill="white"/>
</g>
<circle cx="140" cy="25" r="1" fill="black"/>
<circle cx="150" cy="25" r="1" fill="black"/>
<circle cx="160" cy="25" r="1" fill="black"/>
<path d="M143.037 96.9529V113.867C143.037 115.32 141.855 116.501 140.399 116.501H113.355C111.899 116.501 110.717 115.32 110.717 113.867V96.9529C110.717 96.6927 110.756 96.4389 110.827 96.2024C111.152 95.1121 112.16 94.3164 113.355 94.3164H140.399C141.594 94.3164 142.604 95.1121 142.927 96.2024C142.998 96.4389 143.037 96.6927 143.037 96.9529Z" fill="#FFB07B"/>
<path d="M117.147 101.367C117.068 101.463 117.083 101.607 117.18 101.685L125.428 108.42C126.263 109.1 127.482 109.108 128.324 108.42L136.57 101.685C136.667 101.605 136.682 101.463 136.602 101.367C136.523 101.27 136.38 101.255 136.284 101.334L128.038 108.07C127.366 108.618 126.39 108.618 125.716 108.07L117.468 101.334C117.371 101.255 117.227 101.27 117.15 101.367H117.147Z" fill="#141831"/>
<path d="M71.5254 61.4276C71.5254 79.982 56.4616 95.0247 37.8768 95.0247C19.2921 95.0247 4.22827 79.982 4.22827 61.4276C4.22827 42.8732 19.2921 27.8262 37.8768 27.8262C56.4616 27.8262 71.5254 42.8689 71.5254 61.4276Z" fill="white"/>
<path d="M92.0849 53.5739L90.4655 55.5244C90.795 56.2018 90.8187 57.0039 90.4827 57.7265L79.5602 81.2012C76.7671 87.457 68.5923 89.0398 63.6673 84.27C63.3938 83.9797 62.0801 82.5668 61.195 81.6012L61.5073 85.3431C48.5066 98.16 27.6262 98.2611 14.4919 85.5775V76.0035C14.4919 68.2789 17.6274 61.2791 22.699 56.2147C33.544 45.3848 51.5043 44.9439 61.9122 56.9523L70.4271 66.765L71.3165 65.1865V65.1822L79.3814 50.8513C79.9327 49.8664 81.0332 49.3955 82.0733 49.5826L82.5234 47.3805C82.6892 46.602 83.5915 46.2364 84.2526 46.6794L91.9364 51.8255C92.5329 52.2277 92.6061 53.075 92.0871 53.5696L92.0849 53.5739Z" fill="#FF8E2D"/>
<path d="M54.8723 90.4263C42.1515 97.8842 25.5631 96.2757 14.4897 85.5813V76.1621C24.762 88.1662 40.3189 93.1488 54.8723 90.4285V90.4263Z" fill="#F27619"/>
<path d="M92.0848 53.5761L90.4633 55.5245C90.7906 56.2019 90.8143 57.0061 90.4783 57.7266L79.5536 81.2013C76.978 86.9668 69.8327 88.7581 64.8774 85.2765C76.0326 79.0315 83.5677 67.1113 83.5677 53.432C83.5677 51.1375 83.3545 48.8945 82.9475 46.7203C83.3093 46.4515 83.8261 46.4064 84.2504 46.6838L91.9341 51.8321C92.5306 52.2299 92.6038 53.0793 92.0827 53.5761H92.0848Z" fill="#F27619"/>
<path d="M30.5484 73.6689L26.9714 93.2148C20.961 91.1632 15.7193 87.4557 11.7892 82.6429C13.2277 75.17 14.789 69.2002 16.5355 65.4863" fill="#FF8E2D"/>
<path d="M31.511 39.1541C33.966 44.4336 40.1789 46.8895 45.6187 44.6487C51.207 42.3455 53.8709 35.9499 51.5666 30.3672C49.2516 24.7652 42.832 22.1309 37.2652 24.4254C31.4766 26.8103 28.8751 33.565 31.511 39.1541Z" fill="#FFAAAA"/>
<path d="M31.5111 39.1524C34.8081 46.2404 44.2448 47.6167 49.4606 41.9867C43.855 46.2039 35.5834 44.1501 32.7558 37.4126C31.0761 33.3418 32.0366 28.8408 34.8404 25.8086C30.6066 28.9956 29.3705 34.7224 31.5111 39.1524Z" fill="#F99191"/>
<path d="M43.5557 34.744C43.8572 35.4773 44.697 35.8278 45.4292 35.5246L47.1607 34.8106C48.3472 34.3225 48.3343 32.6365 47.165 32.1612C46.8269 32.0172 46.4328 32.0064 46.0645 32.1591L44.3331 32.8731C43.5987 33.1763 43.252 34.015 43.5535 34.744H43.5557Z" fill="white"/>
<path d="M34.2309 41.4972C34.0264 42.7015 32.8785 43.5144 31.6726 43.3101C30.4623 43.1058 29.6526 41.9596 29.8572 40.7532C30.0618 39.5446 31.2074 38.7339 32.4177 38.9403" fill="#F99191"/>
<path d="M91.8223 49.4894C91.8223 49.4894 95.5694 49.8012 97.6367 48.8163C99.8915 47.741 102.338 45.2293 101.354 44.4207C100.37 43.6121 97.8112 47.2034 94.6067 45.9583" fill="#FFAAAA"/>
<path d="M91.4712 49.8172C91.4712 49.8172 95.1838 49.2108 96.9476 47.7527C98.8728 46.1614 100.634 43.1335 99.4844 42.5873C98.3344 42.041 96.7258 46.1463 93.3124 45.7141" fill="#FFAAAA"/>
<path d="M94.8091 44.903L91.4131 44.5998C91.4131 44.5998 95.2441 40.5203 93.0239 40.1096C90.1791 39.5827 86.7766 45.8492 86.7766 45.8492L85.5361 47.5589L90.7519 51.0362C90.7519 51.0362 93.6915 49.7287 95.3001 48.1008C97.0552 46.3245 98.5067 43.1353 97.305 42.7074C96.1055 42.2794 94.9168 46.5245 91.4777 46.4363C92.8365 46.4535 93.9004 45.8471 94.807 44.9009L94.8091 44.903Z" fill="#FFAAAA"/>
<path d="M45.9783 31.9472L44.2469 32.659C43.4005 33.0096 42.9978 33.9794 43.3424 34.8289C43.6977 35.6783 44.669 36.0805 45.5153 35.7321L47.2467 35.0203C48.625 34.4525 48.6013 32.502 47.251 31.9515C46.8419 31.7795 46.3918 31.7752 45.9783 31.9472ZM45.343 35.3149C44.7163 35.5729 44.0165 35.2654 43.7666 34.6568C43.5125 34.0396 43.8076 33.3364 44.4213 33.0827C44.4687 33.0633 45.216 32.7579 45.1686 32.7773C45.1018 33.616 45.4636 34.4504 46.1743 34.973C46.1032 35.0031 45.2913 35.3364 45.343 35.3149Z" fill="#141831"/>
<path d="M101.498 44.2447C101.052 43.8812 100.458 44.1457 99.7212 44.5672C100.081 43.7909 100.348 42.7544 99.5812 42.3845C99.0579 42.135 98.5454 42.5393 97.9317 43.1286C97.8541 42.8103 97.6625 42.5931 97.3868 42.4942C96.7558 42.2727 96.2282 42.9071 95.5607 43.7156C95.3022 44.0253 95.0287 44.3565 94.7294 44.6683L91.8889 44.4145C92.6168 43.5888 94.2427 41.5781 93.8981 40.52C93.8206 40.2878 93.616 39.9888 93.0712 39.8899C90.0994 39.3265 86.7227 45.4812 86.5935 45.7177L85.493 47.2424L84.3796 46.4984C83.5979 45.9758 82.5082 46.393 82.3015 47.3435L81.8923 49.337C80.7962 49.2316 79.7238 49.7779 79.1832 50.7477L71.6417 64.1518C71.7149 63.2528 71.7515 62.3496 71.7515 61.4335C71.7515 47.7758 63.6069 35.9846 51.9112 30.6471C51.8703 30.5245 51.8251 30.4062 51.7756 30.288C48.6982 22.8344 38.9816 21.0323 33.4363 26.7655C33.4363 26.7655 33.4363 26.7676 33.4341 26.7698C32.7752 23.1591 28.9613 21.1183 25.6083 22.4989C22.2574 23.8795 20.9998 28.002 23.0607 31.0191C11.7849 36.5115 4 48.0811 4 61.4292C4 69.4957 6.84048 76.902 11.576 82.7212C11.5847 82.7449 11.5933 82.7664 11.6126 82.7901C12.4439 83.8073 13.3268 84.7728 14.2615 85.6717C14.2679 85.6868 14.3433 85.7599 14.3605 85.7707C14.3605 85.7707 14.3634 85.7721 14.3691 85.775C15.7797 87.2244 18.4953 89.3491 21.1634 90.8587C24.1396 92.5382 27.4215 93.7533 30.2276 94.3855C30.2276 94.3855 30.2304 94.3855 30.2362 94.3855C41.9082 97.1145 54.6979 93.4178 63.0879 83.9922C67.9333 89.3706 76.7799 87.962 79.7604 81.2955L90.683 57.8207C91.0189 57.1046 91.034 56.2874 90.7282 55.5605L92.2378 53.7412C92.8666 53.1412 92.7719 52.1241 92.0569 51.6445L91.2063 51.0768C91.6973 50.8402 92.6147 50.3736 93.5514 49.7607C94.8285 49.7435 96.5383 49.5929 97.7335 49.0209C99.5253 48.1672 101.642 46.2876 101.793 45.0532C101.834 44.7221 101.735 44.4404 101.498 44.2447ZM99.3853 42.7931C99.9732 43.0877 99.3314 44.4081 98.9804 44.9995C98.8297 45.2618 98.6488 45.5307 98.4528 45.7973C97.979 46.4468 97.3976 47.0812 96.7989 47.5758C96.3661 47.9349 95.8126 48.2381 95.2182 48.4962C96.3553 47.4811 97.8261 45.2188 97.964 43.7307C98.5583 43.1458 99.0687 42.6468 99.3874 42.7909L99.3853 42.7931ZM51.8057 37.2964C51.2006 37.8555 50.4641 38.1502 49.5553 38.2039C49.4282 38.2082 49.3335 38.3179 49.3421 38.4448C49.3464 38.5631 49.4476 38.6577 49.5704 38.6577C49.7383 38.6276 50.6385 38.6383 51.5796 38.0405C49.0535 45.3328 39.8193 47.6639 34.134 42.3931C34.2934 42.1393 34.4032 41.849 34.457 41.535C34.4743 41.4125 34.3924 41.2942 34.2697 41.277C34.1469 41.2533 34.0285 41.3415 34.007 41.4641C33.8239 42.5587 32.7795 43.2748 31.7113 43.0898C29.9713 42.7952 29.448 40.5308 30.8887 39.5093C31.0201 39.4147 31.1665 39.3372 31.3108 39.2813V39.277C31.6747 39.1415 32.0387 39.1071 32.3789 39.1673C32.5017 39.191 32.6201 39.1093 32.6373 38.9803C32.6373 38.976 32.6416 38.9674 32.6373 38.9631C39.1538 37.6383 43.8399 32.0858 44.3739 25.7913C45.1427 25.6687 45.8965 25.4601 46.6244 25.1698C50.9443 27.5418 53.0741 32.5653 51.8057 37.2986V37.2964ZM23.3299 31.3826C24.9579 33.3997 27.8652 34.1696 30.3977 32.8815C30.3977 32.8815 30.3977 32.8836 30.3977 32.8858C30.3934 33.2643 29.8076 35.561 31.1299 38.8641C30.9576 38.9329 30.7896 39.0233 30.6303 39.1372C28.8579 40.3953 29.4975 43.1759 31.6338 43.5393C32.4887 43.6855 33.32 43.363 33.8605 42.7587C40.0002 48.4231 49.9903 45.5522 52.2149 37.5158C52.2192 37.5029 52.2235 37.4878 52.2278 37.4706C52.7726 35.4771 52.7683 33.3266 52.118 31.2428C63.4454 36.5889 71.2949 48.1091 71.2949 61.4314C71.2949 63.3367 71.1442 64.4937 71.0904 65.1302L70.3862 66.3775L62.0822 56.81C48.9501 41.6576 24.1331 46.3349 16.2901 65.4743C16.1652 65.9711 14.2335 68.9 11.6622 82.1084C7.15489 76.4203 4.45439 69.2312 4.45439 61.4292C4.45439 48.2252 12.1683 36.7932 23.3299 31.3826ZM61.686 84.818L61.4728 82.2438C61.8992 82.7105 62.3363 83.1836 62.7821 83.6546C62.4268 84.0503 62.065 84.4395 61.686 84.8158V84.818ZM91.8071 52.0208C92.2529 52.3219 92.3713 52.9886 91.9062 53.4316L90.4159 55.2251L84.6488 51.4897C84.539 51.4208 84.399 51.4488 84.3301 51.5542C84.2612 51.6639 84.2935 51.8036 84.399 51.8724L90.2803 55.6767V55.681C90.5667 56.2896 90.5645 57.0207 90.2716 57.6336L79.3491 81.1127C76.5883 87.2803 68.2456 89.0437 63.2645 83.5083C62.8898 83.104 62.3256 82.5127 61.4146 81.5105L60.3917 69.2291C60.3788 69.1065 60.2733 69.0119 60.1462 69.0248C60.0192 69.0334 59.9287 69.143 59.9373 69.2699C59.9416 69.3237 61.2725 85.2868 61.2682 85.2373C52.0813 94.235 38.8954 97.0027 27.2299 93.063L30.7702 73.715C30.7939 73.5924 30.7121 73.4741 30.5893 73.4526C30.4666 73.4354 30.3482 73.5107 30.3266 73.6333L26.7949 92.9146C21.4369 91.0673 16.1006 87.5255 12.0369 82.5707C12.8961 78.1128 13.7554 74.4139 14.6362 71.4097C14.6362 70.9021 16.6174 65.6636 16.7638 65.5173C24.2365 47.1908 48.6293 41.9866 61.7377 57.1067C62.1684 57.6035 59.4765 54.5004 70.4637 67.1646C70.9095 66.3711 68.1637 71.2527 79.5773 50.9692C80.064 50.1026 81.0503 49.6402 82.0323 49.8166C82.0452 49.8166 82.056 49.8209 82.0689 49.8209L82.2498 49.8531L82.2951 49.6402V49.6359L82.7451 47.4381C82.8808 46.7951 83.6087 46.5306 84.1212 46.8747C85.4262 47.7607 87.3386 49.0424 91.8071 52.0208ZM90.7712 50.7779C89.5438 49.9564 86.2661 47.7629 85.8634 47.4919L86.9768 45.9586C87.0091 45.9005 90.3276 39.8448 92.9808 40.3351C93.377 40.4082 93.4394 40.5974 93.4631 40.6619C93.7129 41.4297 92.255 43.3673 91.2687 44.4253C90.9371 44.7135 90.108 45.4317 90.1597 45.3866C90.0649 45.4683 90.0541 45.6145 90.136 45.7091C90.2178 45.7995 90.3535 45.8145 90.459 45.7328L91.4905 44.8382L94.2944 45.0877C94.1264 45.2382 93.9434 45.3823 93.7582 45.5135C93.7539 45.5135 93.7539 45.5178 93.7496 45.5178C93.0583 45.9887 92.3153 46.2124 91.5358 46.2124C91.5185 46.2124 91.5034 46.2167 91.4819 46.2124C91.3592 46.2124 91.2536 46.3113 91.2536 46.4339C91.2493 46.5607 91.3484 46.6661 91.4754 46.6661C92.6706 46.6941 93.6742 46.2425 94.5894 45.436C95.8966 44.2275 96.6999 42.7286 97.2296 42.9264C97.6625 43.0855 97.5203 43.8468 97.3847 44.2877C97.1672 45.0339 96.7559 45.7866 96.3402 46.4382C95.5563 47.6338 94.8328 48.3091 93.8852 48.9886C93.7302 49.0983 93.5751 49.2058 93.4179 49.3112C93.1724 49.4704 92.9269 49.6209 92.69 49.7607C92.6577 49.7779 92.6254 49.8015 92.591 49.8187C91.764 50.3004 91.0447 50.6531 90.7734 50.7757L90.7712 50.7779ZM101.343 44.9995C101.224 45.9608 99.3379 47.75 97.5376 48.6123C96.6912 49.0166 95.5413 49.1972 94.4968 49.2661C95.4293 48.9392 96.3962 48.4983 97.0875 47.9263C97.9015 47.2553 98.7328 46.279 99.3099 45.3307C99.928 44.978 100.88 44.3242 101.205 44.5995C101.278 44.6576 101.369 44.7629 101.341 44.9995H101.343Z" fill="#141831"/>
<path d="M57.3898 16.0726C56.5693 15.5801 56.804 14.3329 57.7537 14.1737L95.5047 8.01472C96.4307 7.86203 97.0531 8.93083 96.4759 9.66415L81.8127 28.1283C81.5026 28.5197 80.9599 28.6272 80.5206 28.3949L57.3876 16.0748L57.3898 16.0726Z" fill="#BDC5FF"/>
<path d="M96.6073 8.61045L73.147 24.408L68.7409 32.7669C68.3554 33.4981 67.2593 33.3002 67.1538 32.4809L66.4194 20.7048L96.4006 8.30078C96.4867 8.39325 96.5578 8.49648 96.6073 8.61045Z" fill="#BDC5FF"/>
<path d="M77.6908 26.8639L69.7638 33.5325C69.4601 33.7884 69.0553 33.9282 68.6655 33.8508C68.0151 33.7218 67.7266 33.1777 67.7266 33.1777C68.0905 33.296 68.5255 33.1777 68.743 32.7713L71.8591 26.8553L73.1469 24.4102L77.6908 26.866V26.8639Z" fill="#BDC5FF"/>
<path d="M66.9298 32.5117L66.1955 20.7205C66.189 20.6237 66.245 20.5334 66.3354 20.4969L96.3144 8.09283C96.4027 8.05842 96.5018 8.07778 96.5664 8.14659C96.674 8.26272 96.758 8.38745 96.8162 8.52293C96.8592 8.62185 96.8248 8.74013 96.7343 8.80034L73.3214 24.5656L68.9412 32.8751C68.4545 33.802 67.0612 33.5525 66.9276 32.5138L66.9298 32.5117ZM66.6585 20.8538L67.382 32.4686C67.4574 33.0428 68.2585 33.1998 68.5428 32.6622L72.9489 24.3032C72.9661 24.271 72.9919 24.2409 73.0221 24.2194L96.127 8.66271L66.6585 20.8538Z" fill="#141831"/>
<path d="M163.299 116.657C159.935 118.781 157.491 122.222 156.682 126.248C156.023 125.254 155.637 124.061 155.637 122.781C155.637 119.312 158.456 116.504 161.923 116.504C162.397 116.504 162.856 116.558 163.301 116.659L163.299 116.657Z" fill="#FE4B5F"/>
<path d="M187.076 122.334C187.076 123.786 186.581 125.13 185.75 126.192C184.895 122.02 182.287 118.489 178.727 116.401C179.373 116.179 180.062 116.057 180.786 116.057C184.257 116.057 187.076 118.865 187.076 122.334Z" fill="#FE4B5F"/>
<circle cx="125.5" cy="19.5" r="9.5" fill="#FEE500"/>
<path d="M125.527 14.5859C122.572 14.5859 120.188 16.4928 120.188 18.8077C120.188 20.3103 121.18 21.6261 122.667 22.3774L122.164 24.2576C122.154 24.2858 122.153 24.316 122.16 24.345C122.166 24.3739 122.181 24.4004 122.202 24.4215C122.232 24.4485 122.272 24.4634 122.312 24.4635C122.346 24.4608 122.378 24.4474 122.404 24.4254L124.57 22.9647C124.89 23.0088 125.212 23.0318 125.535 23.0333C128.487 23.0333 130.874 21.1265 130.874 18.8077C130.874 16.489 128.479 14.5859 125.527 14.5859Z" fill="#392020"/>
<path d="M122.057 18.1394H121.473C121.401 18.1415 121.33 18.123 121.267 18.086C121.24 18.0687 121.216 18.0459 121.198 18.019C121.179 17.9921 121.167 17.9617 121.161 17.9297C121.159 17.9094 121.159 17.889 121.161 17.8687C121.159 17.8307 121.166 17.7928 121.182 17.7583C121.198 17.7238 121.222 17.6936 121.252 17.6704C121.319 17.6222 121.399 17.5968 121.481 17.5979H123.239C123.312 17.5953 123.384 17.6153 123.445 17.6551C123.473 17.6716 123.498 17.6943 123.516 17.7213C123.534 17.7483 123.547 17.7791 123.552 17.8115C123.554 17.8305 123.554 17.8497 123.552 17.8687C123.554 17.9072 123.546 17.9456 123.53 17.9807C123.514 18.0159 123.49 18.0467 123.46 18.0708C123.395 18.1189 123.316 18.1431 123.235 18.1394H122.671V20.1455C122.673 20.1882 122.666 20.2309 122.651 20.271C122.636 20.311 122.613 20.3475 122.583 20.3781C122.554 20.4074 122.52 20.4303 122.482 20.4454C122.444 20.4605 122.403 20.4674 122.362 20.4658C122.29 20.4679 122.22 20.445 122.164 20.401C122.11 20.3581 122.073 20.2971 122.061 20.2294C122.057 20.2015 122.057 20.1733 122.061 20.1455L122.057 18.1394Z" fill="#FEE500"/>
<path d="M123.72 17.7475C123.737 17.6847 123.776 17.6304 123.831 17.5949C123.889 17.5621 123.955 17.5462 124.021 17.5492H124.166C124.237 17.5466 124.307 17.5638 124.368 17.5988C124.434 17.6426 124.48 17.7093 124.498 17.7856L125.261 19.9404C125.281 19.9966 125.297 20.0539 125.31 20.112C125.312 20.1362 125.312 20.1604 125.31 20.1845C125.312 20.2217 125.305 20.2587 125.29 20.2929C125.276 20.3272 125.254 20.3579 125.227 20.3828C125.2 20.4102 125.168 20.4318 125.132 20.4462C125.097 20.4607 125.059 20.4676 125.021 20.4667C124.962 20.4726 124.903 20.4584 124.853 20.4266C124.803 20.3948 124.765 20.3471 124.746 20.2913L124.586 19.8222H123.583L123.423 20.2913C123.404 20.3482 123.366 20.3968 123.315 20.4288C123.264 20.4608 123.204 20.4742 123.144 20.4667C123.08 20.4684 123.017 20.4482 122.965 20.4095C122.915 20.3695 122.881 20.3126 122.87 20.2493C122.868 20.2278 122.868 20.2061 122.87 20.1845C122.863 20.1466 122.863 20.108 122.87 20.0701C122.87 20.0282 122.896 19.9824 122.912 19.9404L123.72 17.7475ZM124.101 18.2471L123.739 19.3912H124.46L124.101 18.2471Z" fill="#FEE500"/>
<path d="M125.398 17.8695C125.394 17.7839 125.424 17.7003 125.482 17.6369C125.511 17.6074 125.546 17.5843 125.585 17.5692C125.624 17.5541 125.665 17.5472 125.707 17.5491C125.778 17.5483 125.848 17.5711 125.905 17.614C125.958 17.6587 125.993 17.721 126.004 17.7894C126.008 17.816 126.008 17.843 126.004 17.8695V19.8756H127.053C127.126 19.8746 127.197 19.8944 127.259 19.9327C127.287 19.9499 127.311 19.9726 127.329 19.9996C127.347 20.0265 127.36 20.057 127.366 20.0891C127.366 20.0891 127.366 20.1273 127.366 20.1463C127.367 20.1843 127.36 20.2221 127.344 20.2567C127.328 20.2912 127.304 20.3214 127.274 20.3446C127.208 20.3928 127.127 20.4182 127.045 20.4171H125.756C125.674 20.4224 125.593 20.401 125.524 20.3561C125.462 20.31 125.421 20.2415 125.409 20.1654C125.406 20.1235 125.406 20.0814 125.409 20.0395L125.398 17.8695Z" fill="#FEE500"/>
<path d="M127.434 17.8693C127.432 17.7839 127.462 17.7009 127.518 17.6366C127.575 17.5847 127.649 17.554 127.726 17.5499C127.803 17.5457 127.879 17.5682 127.942 17.6137C127.996 17.6581 128.032 17.7203 128.045 17.7891C128.046 17.8158 128.046 17.8426 128.045 17.8693V18.8036L129.009 17.69C129.047 17.652 129.086 17.6164 129.128 17.5832C129.167 17.5599 129.212 17.548 129.257 17.5489C129.324 17.5485 129.389 17.5685 129.444 17.6061C129.47 17.6236 129.492 17.6461 129.509 17.6723C129.526 17.6985 129.538 17.7279 129.543 17.7586C129.545 17.7662 129.545 17.774 129.543 17.7816C129.542 17.7904 129.542 17.7994 129.543 17.8082C129.543 17.8484 129.533 17.8878 129.513 17.9227C129.493 17.9596 129.468 17.9941 129.44 18.0256L128.807 18.7197L129.57 19.902V19.9401C129.61 19.9947 129.641 20.0553 129.662 20.1194V20.1384C129.666 20.1826 129.66 20.2272 129.643 20.2684C129.626 20.3096 129.6 20.3461 129.566 20.3749C129.503 20.423 129.425 20.4485 129.345 20.4474C129.292 20.4495 129.239 20.4377 129.193 20.413C129.142 20.3789 129.1 20.3332 129.07 20.2795L128.361 19.1354L128.022 19.4901V20.127C128.024 20.2123 127.994 20.2954 127.938 20.3596C127.908 20.3891 127.872 20.4121 127.832 20.4271C127.793 20.4422 127.751 20.4491 127.709 20.4474C127.639 20.4488 127.57 20.4259 127.514 20.3825C127.461 20.3396 127.424 20.2786 127.412 20.2109C127.408 20.1831 127.408 20.1548 127.412 20.127L127.434 17.8693Z" fill="#FEE500"/>
</g>
<defs>
<filter id="filter0_d_889_9641" x="0" y="0" width="256" height="226" filterUnits="userSpaceOnUse" color-interpolation-filters="sRGB">
<feFlood flood-opacity="0" result="BackgroundImageFix"/>
<feColorMatrix in="SourceAlpha" type="matrix" values="0 0 0 0 0 0 0 0 0 0 0 0 0 0 0 0 0 0 127 0" result="hardAlpha"/>
<feOffset dy="4"/>
<feGaussianBlur stdDeviation="2"/>
<feComposite in2="hardAlpha" operator="out"/>
<feColorMatrix type="matrix" values="0 0 0 0 0 0 0 0 0 0 0 0 0 0 0 0 0 0 0.25 0"/>
<feBlend mode="normal" in2="BackgroundImageFix" result="effect1_dropShadow_889_9641"/>
<feBlend mode="normal" in="SourceGraphic" in2="effect1_dropShadow_889_9641" result="shape"/>
</filter>
<filter id="filter1_d_889_9641" x="118" y="0" width="63" height="59" filterUnits="userSpaceOnUse" color-interpolation-filters="sRGB">
<feFlood flood-opacity="0" result="BackgroundImageFix"/>
<feColorMatrix in="SourceAlpha" type="matrix" values="0 0 0 0 0 0 0 0 0 0 0 0 0 0 0 0 0 0 127 0" result="hardAlpha"/>
<feOffset dy="2"/>
<feGaussianBlur stdDeviation="5"/>
<feComposite in2="hardAlpha" operator="out"/>
<feColorMatrix type="matrix" values="0 0 0 0 0 0 0 0 0 0 0 0 0 0 0 0 0 0 0.16 0"/>
<feBlend mode="normal" in2="BackgroundImageFix" result="effect1_dropShadow_889_9641"/>
<feBlend mode="normal" in="SourceGraphic" in2="effect1_dropShadow_889_9641" result="shape"/>
</filter>
</defs>
</svg>
