<svg width="160" height="160" viewBox="0 0 160 160" fill="none" xmlns="http://www.w3.org/2000/svg">
<g filter="url(#filter0_f_841_7927)">
<path fill-rule="evenodd" clip-rule="evenodd" d="M80.16 23.3994C81.8169 23.3994 83.16 24.7426 83.16 26.3994V34.2667C83.16 35.9236 81.8169 37.2667 80.16 37.2667C78.5032 37.2667 77.16 35.9236 77.16 34.2667V26.3994C77.16 24.7426 78.5032 23.3994 80.16 23.3994ZM80.16 123.052C81.8169 123.052 83.16 124.396 83.16 126.052V133.92C83.16 135.577 81.8169 136.92 80.16 136.92C78.5032 136.92 77.16 135.577 77.16 133.92V126.052C77.16 124.396 78.5032 123.052 80.16 123.052ZM136.92 80.1606C136.92 81.8174 135.577 83.1606 133.92 83.1606H126.053C124.396 83.1606 123.053 81.8174 123.053 80.1606C123.053 78.5037 124.396 77.1606 126.053 77.1606H133.92C135.577 77.1606 136.92 78.5037 136.92 80.1606ZM37.2673 80.1606C37.2673 81.8174 35.9242 83.1606 34.2673 83.1606H26.4C24.7432 83.1606 23.4 81.8174 23.4 80.1606C23.4 78.5037 24.7432 77.1606 26.4 77.1606H34.2673C35.9242 77.1606 37.2673 78.5037 37.2673 80.1606ZM120.295 44.2655C121.467 43.0939 121.467 41.1944 120.295 40.0229C119.124 38.8513 117.224 38.8513 116.053 40.0229L110.49 45.5859C109.318 46.7575 109.318 48.657 110.49 49.8285C111.661 51.0001 113.561 51.0001 114.732 49.8285L120.295 44.2655ZM49.8304 114.732C51.002 113.56 51.002 111.661 49.8304 110.489C48.6588 109.317 46.7593 109.317 45.5878 110.489L40.0247 116.052C38.8531 117.224 38.8531 119.123 40.0247 120.295C41.1963 121.466 43.0958 121.466 44.2674 120.295L49.8304 114.732ZM120.296 120.293C119.124 121.464 117.225 121.464 116.053 120.293L110.49 114.73C109.318 113.558 109.318 111.659 110.49 110.487C111.661 109.315 113.561 109.315 114.733 110.487L120.296 116.05C121.467 117.222 121.467 119.121 120.296 120.293ZM49.8305 49.828C48.6589 50.9996 46.7594 50.9996 45.5878 49.828L40.0248 44.2649C38.8532 43.0934 38.8532 41.1939 40.0248 40.0223C41.1964 38.8507 43.0958 38.8507 44.2674 40.0223L49.8305 45.5853C51.002 46.7569 51.002 48.6564 49.8305 49.828Z" fill="#FFC701" fill-opacity="0.4"/>
</g>
<g filter="url(#filter1_f_841_7927)">
<ellipse cx="80.1601" cy="80.1588" rx="39.3366" ry="39.3366" fill="#FFC701" fill-opacity="0.4"/>
</g>
<path fill-rule="evenodd" clip-rule="evenodd" d="M83.16 26.3994C83.16 24.7426 81.8169 23.3994 80.16 23.3994C78.5032 23.3994 77.16 24.7426 77.16 26.3994V34.2667C77.16 35.9236 78.5032 37.2667 80.16 37.2667C81.8169 37.2667 83.16 35.9236 83.16 34.2667V26.3994ZM83.16 126.052C83.16 124.396 81.8169 123.052 80.16 123.052C78.5032 123.052 77.16 124.396 77.16 126.052V133.92C77.16 135.577 78.5032 136.92 80.16 136.92C81.8169 136.92 83.16 135.577 83.16 133.92V126.052Z" fill="#FFC501"/>
<path fill-rule="evenodd" clip-rule="evenodd" d="M133.92 83.1602C135.577 83.1602 136.92 81.817 136.92 80.1602C136.92 78.5033 135.577 77.1602 133.92 77.1602L126.053 77.1602C124.396 77.1602 123.053 78.5033 123.053 80.1602C123.053 81.817 124.396 83.1602 126.053 83.1602L133.92 83.1602ZM34.2673 83.1602C35.9242 83.1602 37.2673 81.817 37.2673 80.1602C37.2673 78.5033 35.9242 77.1602 34.2673 77.1602L26.4 77.1602C24.7431 77.1602 23.4 78.5033 23.4 80.1602C23.4 81.817 24.7431 83.1602 26.4 83.1602L34.2673 83.1602Z" fill="#FFC501"/>
<path fill-rule="evenodd" clip-rule="evenodd" d="M120.296 44.2653C121.467 43.0938 121.467 41.1943 120.296 40.0227C119.124 38.8511 117.224 38.8511 116.053 40.0227L110.49 45.5857C109.318 46.7573 109.318 48.6568 110.49 49.8284C111.661 50.9999 113.561 50.9999 114.732 49.8284L120.296 44.2653ZM49.8304 114.731C51.002 113.56 51.002 111.66 49.8304 110.489C48.6589 109.317 46.7594 109.317 45.5878 110.489L40.0248 116.052C38.8532 117.223 38.8532 119.123 40.0248 120.294C41.1963 121.466 43.0958 121.466 44.2674 120.294L49.8304 114.731Z" fill="#FFC501"/>
<path fill-rule="evenodd" clip-rule="evenodd" d="M116.053 120.292C117.224 121.464 119.124 121.464 120.296 120.292C121.467 119.121 121.467 117.221 120.296 116.05L114.733 110.487C113.561 109.315 111.661 109.315 110.49 110.487C109.318 111.658 109.318 113.558 110.49 114.729L116.053 120.292ZM45.5878 49.8275C46.7594 50.9991 48.6588 50.9991 49.8304 49.8275C51.002 48.656 51.002 46.7565 49.8304 45.5849L44.2674 40.0219C43.0958 38.8503 41.1963 38.8503 40.0247 40.0219C38.8532 41.1934 38.8532 43.0929 40.0247 44.2645L45.5878 49.8275Z" fill="#FFC501"/>
<ellipse cx="80" cy="79.9998" rx="39.2" ry="39.2" fill="url(#paint0_linear_841_7927)"/>
<defs>
<filter id="filter0_f_841_7927" x="13.4" y="13.3994" width="133.52" height="133.521" filterUnits="userSpaceOnUse" color-interpolation-filters="sRGB">
<feFlood flood-opacity="0" result="BackgroundImageFix"/>
<feBlend mode="normal" in="SourceGraphic" in2="BackgroundImageFix" result="shape"/>
<feGaussianBlur stdDeviation="5" result="effect1_foregroundBlur_841_7927"/>
</filter>
<filter id="filter1_f_841_7927" x="10.8235" y="10.8223" width="138.673" height="138.673" filterUnits="userSpaceOnUse" color-interpolation-filters="sRGB">
<feFlood flood-opacity="0" result="BackgroundImageFix"/>
<feBlend mode="normal" in="SourceGraphic" in2="BackgroundImageFix" result="shape"/>
<feGaussianBlur stdDeviation="15" result="effect1_foregroundBlur_841_7927"/>
</filter>
<linearGradient id="paint0_linear_841_7927" x1="80" y1="40.7998" x2="80" y2="119.2" gradientUnits="userSpaceOnUse">
<stop stop-color="#FFE600"/>
<stop offset="1" stop-color="#FF7A00"/>
</linearGradient>
</defs>
</svg>
