<svg width="214" height="200" viewBox="0 0 214 200" fill="none" xmlns="http://www.w3.org/2000/svg">
<g filter="url(#filter0_d_841_8023)">
<path fill-rule="evenodd" clip-rule="evenodd" d="M119.459 43.6484C119.459 41.9916 118.115 40.6484 116.459 40.6484C114.802 40.6484 113.459 41.9916 113.459 43.6484V57.7877L101.892 47.1284C100.674 46.0056 98.7761 46.083 97.6533 47.3014C96.5305 48.5198 96.6079 50.4177 97.8263 51.5405L113.459 65.9472V84.6865L96.9278 75.2866L92.0706 54.7265C91.6922 53.1247 90.0699 52.138 88.4472 52.5227C86.8244 52.9074 85.8157 54.5178 86.1941 56.1196L89.7593 71.2104L77.3501 64.1542C75.9098 63.3352 74.063 63.83 73.225 65.2593C72.3871 66.6887 72.8755 68.5114 74.3158 69.3303L87.141 76.6232L71.741 80.8664C70.1332 81.3094 69.1845 82.9548 69.622 84.5415C70.0595 86.1282 71.7176 87.0553 73.3254 86.6123L94.4648 80.7876L110.759 90.0532L102.414 94.8764C100.98 95.7054 100.489 97.5402 101.318 98.9746C102.147 100.409 103.982 100.9 105.416 100.071L113.459 95.4225V113.75L97.8263 128.157C96.6079 129.28 96.5305 131.178 97.6533 132.396C98.7761 133.615 100.674 133.692 101.892 132.569L113.459 121.91V136.053C113.459 137.709 114.802 139.053 116.459 139.053C118.115 139.053 119.459 137.709 119.459 136.053V121.427L130.976 132.524C132.169 133.673 134.068 133.638 135.218 132.445C136.368 131.251 136.332 129.352 135.139 128.203L119.459 113.095V94.9999L135.415 104.073L140.862 125.013C141.277 126.606 142.921 127.556 144.535 127.136C146.149 126.716 147.121 125.084 146.707 123.491L142.739 108.238L155.567 115.532C157.008 116.351 158.855 115.857 159.692 114.427C160.53 112.998 160.042 111.175 158.602 110.356L146.185 103.296L161.24 98.7902C162.838 98.312 163.75 96.6465 163.277 95.07C162.803 93.4935 161.125 92.6032 159.527 93.0813L139.016 99.2194L122.822 90.0108L138.66 80.8571L159.591 86.6242C161.199 87.0672 162.857 86.1401 163.294 84.5534C163.732 82.9667 162.783 81.3214 161.175 80.8783L145.904 76.6705L158.585 69.3415C160.019 68.5125 160.51 66.6776 159.681 65.2432C158.852 63.8089 157.017 63.3181 155.583 64.1471L143.128 71.3454L146.722 56.1315C147.101 54.5297 146.092 52.9193 144.469 52.5346C142.846 52.1499 141.224 53.1366 140.846 54.7385L135.941 75.4991L119.459 85.0253V66.6028L135.139 51.4949C136.332 50.3453 136.368 48.4461 135.218 47.253C134.068 46.0598 132.169 46.0245 130.976 47.1741L119.459 58.271V43.6484Z" fill="url(#paint0_linear_841_8023)"/>
</g>
<g filter="url(#filter1_d_841_8023)">
<path fill-rule="evenodd" clip-rule="evenodd" d="M73.8852 89.418C74.9898 89.418 75.8852 90.3134 75.8852 91.418V97.3996L80.6073 92.7973C81.3983 92.0264 82.6645 92.0427 83.4355 92.8337C84.2064 93.6247 84.1901 94.8909 83.3991 95.6619L75.8852 102.985V110.817L82.9753 106.739L85.2983 96.7922C85.5491 95.7183 86.6257 95.0519 87.703 95.3038C88.7803 95.5556 89.4503 96.6303 89.1995 97.7042L87.728 104.005L92.7506 101.116C93.7081 100.566 94.9332 100.894 95.487 101.849C96.0409 102.805 95.7137 104.026 94.7562 104.577L89.5608 107.566L95.9031 109.333C96.9689 109.63 97.5927 110.732 97.2966 111.795C97.0004 112.857 95.8964 113.477 94.8307 113.18L84.7058 110.358L77.8979 114.274L84.9784 118.347L94.7881 115.377C95.847 115.057 96.9646 115.652 97.2844 116.708C97.6041 117.763 97.0049 118.879 95.946 119.199L89.7311 121.081L94.7563 123.971C95.7138 124.522 96.041 125.743 95.4872 126.699C94.9334 127.654 93.7082 127.983 92.7507 127.432L87.5551 124.443L89.1891 130.798C89.4638 131.866 88.8179 132.955 87.7464 133.231C86.6749 133.506 85.5837 132.864 85.309 131.796L82.7001 121.651L75.8852 117.731V125.562L83.3991 132.885C84.1901 133.656 84.2064 134.923 83.4355 135.714C82.6645 136.505 81.3983 136.521 80.6073 135.75L75.8852 131.148V137.132C75.8852 138.236 74.9898 139.132 73.8852 139.132C72.7806 139.132 71.8852 138.236 71.8852 137.132V131.348L67.131 135.781C66.323 136.534 65.0575 136.489 64.3043 135.681C63.5511 134.874 63.5955 133.608 64.4034 132.855L71.8852 125.88V117.733L65.0703 121.653L62.4608 131.8C62.1861 132.868 61.0949 133.51 60.0234 133.235C58.9519 132.959 58.306 131.87 58.5807 130.802L60.2153 124.445L55.0192 127.434C54.0617 127.985 52.8366 127.657 52.2828 126.701C51.7289 125.745 52.0561 124.524 53.0136 123.973L58.0365 121.084L51.8238 119.203C50.7649 118.883 50.1657 117.767 50.4854 116.712C50.8052 115.656 51.9228 115.061 52.9817 115.381L62.7891 118.35L69.8756 114.274L63.0617 110.355L52.9392 113.176C51.8735 113.473 50.7695 112.853 50.4733 111.79C50.1772 110.728 50.801 109.626 51.8668 109.329L58.2067 107.562L53.0138 104.575C52.0563 104.024 51.7291 102.803 52.2829 101.847C52.8367 100.892 54.0619 100.563 55.0193 101.114L60.0425 104.004L58.5704 97.7001C58.3196 96.6262 58.9896 95.5515 60.0669 95.2996C61.1442 95.0478 62.2208 95.7142 62.4716 96.7881L64.7952 106.737L71.8852 110.816V102.667L64.4034 95.6925C63.5955 94.9393 63.5511 93.6737 64.3043 92.8658C65.0575 92.0579 66.323 92.0135 67.131 92.7667L71.8852 97.1988V91.418C71.8852 90.3134 72.7806 89.418 73.8852 89.418Z" fill="url(#paint1_linear_841_8023)"/>
</g>
<g filter="url(#filter2_d_841_8023)">
<path fill-rule="evenodd" clip-rule="evenodd" d="M185.423 69.334C185.975 69.334 186.423 69.7817 186.423 70.334V71.1696L187.146 70.4624C187.541 70.0762 188.174 70.0831 188.56 70.4779C188.77 70.6932 188.864 70.9793 188.842 71.2575C189.066 71.103 189.351 71.0398 189.637 71.1062C190.175 71.2314 190.51 71.7689 190.384 72.3068L190.155 73.2938L190.851 72.8917C191.329 72.6156 191.941 72.7794 192.217 73.2577C192.493 73.736 192.329 74.3476 191.851 74.6237L191.129 75.0405L192.102 75.3126C192.634 75.4614 192.944 76.0132 192.796 76.5451C192.715 76.8348 192.514 77.0589 192.262 77.1788C192.507 77.2954 192.704 77.5109 192.789 77.7912C192.95 78.3197 192.652 78.8782 192.123 79.0388L191.157 79.3325L191.851 79.7333C192.329 80.0095 192.493 80.621 192.217 81.0993C191.941 81.5776 191.329 81.7415 190.851 81.4654L190.128 81.0477L190.379 82.0292C190.516 82.5642 190.194 83.109 189.659 83.2461C189.367 83.3209 189.072 83.2588 188.842 83.0999C188.865 83.3789 188.771 83.666 188.56 83.8818C188.174 84.2766 187.541 84.2836 187.146 83.8974L186.423 83.1902V84.0249C186.423 84.5771 185.975 85.0249 185.423 85.0249C184.871 85.0249 184.423 84.5771 184.423 84.0249V83.2212L183.684 83.9127C183.281 84.2901 182.648 84.269 182.27 83.8658C182.07 83.6512 181.982 83.3717 182.004 83.1002C181.774 83.2591 181.479 83.3213 181.187 83.2464C180.652 83.1094 180.329 82.5645 180.466 82.0295L180.717 81.0521L179.994 81.4692C179.516 81.7453 178.905 81.5815 178.628 81.1032C178.352 80.6249 178.516 80.0133 178.994 79.7371L179.693 79.334L178.722 79.0391C178.194 78.8785 177.896 78.32 178.056 77.7916C178.142 77.5106 178.339 77.2947 178.586 77.1782C178.333 77.0586 178.131 76.8341 178.05 76.5436C177.901 76.0117 178.212 75.46 178.744 75.3112L179.719 75.0383L178.994 74.6199C178.516 74.3438 178.352 73.7322 178.628 73.2539C178.905 72.7756 179.516 72.6117 179.994 72.8879L180.69 73.2896L180.461 72.3054C180.336 71.7675 180.671 71.2299 181.209 71.1048C181.494 71.0383 181.78 71.1015 182.004 71.2561C181.982 70.9857 182.071 70.7076 182.27 70.494C182.648 70.0907 183.281 70.0697 183.684 70.4471L184.423 71.1386V70.334C184.423 69.7817 184.871 69.334 185.423 69.334ZM179.485 77.1806L182.065 77.9645L183.426 77.1785L182.142 76.4372L179.485 77.1806ZM183.14 79.6531L182.456 82.3226L184.423 80.4821V78.9124L183.14 79.6531ZM186.423 73.9674L188.393 72.0402L187.783 74.6633L186.423 75.4483V73.9674ZM187.426 77.1785L188.706 76.4394L191.358 77.1812L188.785 77.9629L187.426 77.1785ZM184.423 75.4446L183.062 74.6591L182.451 72.0327L184.423 73.8776V75.4446ZM188.388 82.3144L187.705 79.6488L186.423 78.9087V80.3923L188.388 82.3144Z" fill="url(#paint2_linear_841_8023)"/>
</g>
<g filter="url(#filter3_d_841_8023)">
<path fill-rule="evenodd" clip-rule="evenodd" d="M174.701 122.465C175.253 122.465 175.701 122.913 175.701 123.465V126.44L178.037 124.154C178.432 123.768 179.065 123.775 179.451 124.17C179.838 124.565 179.831 125.198 179.436 125.584L175.701 129.238V133.14L179.216 131.111L180.371 126.15C180.496 125.612 181.033 125.277 181.571 125.402C182.109 125.528 182.444 126.065 182.319 126.603L181.588 129.741L184.078 128.304C184.556 128.028 185.168 128.192 185.444 128.67C185.72 129.148 185.556 129.76 185.078 130.036L182.502 131.523L185.65 132.403C186.182 132.552 186.492 133.104 186.343 133.636C186.194 134.168 185.643 134.478 185.111 134.33L180.079 132.922L176.703 134.871L180.216 136.899L185.09 135.418C185.618 135.257 186.177 135.555 186.337 136.084C186.498 136.612 186.199 137.171 185.671 137.331L182.588 138.268L185.078 139.706C185.556 139.982 185.72 140.594 185.444 141.072C185.168 141.55 184.556 141.714 184.078 141.438L181.502 139.951L182.313 143.116C182.45 143.651 182.128 144.196 181.593 144.333C181.058 144.47 180.513 144.148 180.376 143.613L179.079 138.552L175.701 136.602V140.502L179.436 144.156C179.831 144.542 179.838 145.175 179.451 145.57C179.065 145.965 178.432 145.972 178.037 145.585L175.701 143.3V146.275C175.701 146.828 175.253 147.275 174.701 147.275C174.149 147.275 173.701 146.828 173.701 146.275V143.399L171.348 145.601C170.945 145.978 170.312 145.957 169.935 145.554C169.558 145.15 169.579 144.518 169.982 144.14L173.701 140.66V136.605L170.322 138.555L169.026 143.616C168.889 144.151 168.344 144.474 167.809 144.337C167.274 144.2 166.951 143.655 167.088 143.12L167.899 139.954L165.324 141.441C164.845 141.717 164.234 141.553 163.958 141.075C163.681 140.597 163.845 139.985 164.324 139.709L166.813 138.272L163.731 137.335C163.202 137.174 162.904 136.616 163.064 136.087C163.225 135.559 163.784 135.261 164.312 135.421L169.186 136.902L172.703 134.871L169.324 132.92L164.291 134.328C163.759 134.476 163.207 134.166 163.058 133.634C162.91 133.102 163.22 132.55 163.752 132.402L166.901 131.521L164.324 130.033C163.845 129.757 163.681 129.145 163.958 128.667C164.234 128.189 164.845 128.025 165.324 128.301L167.813 129.738L167.083 126.601C166.958 126.063 167.293 125.526 167.831 125.401C168.368 125.275 168.906 125.61 169.031 126.148L170.185 131.108L173.701 133.137V129.079L169.982 125.599C169.579 125.222 169.558 124.589 169.935 124.186C170.312 123.782 170.945 123.761 171.348 124.139L173.701 126.34V123.465C173.701 122.913 174.149 122.465 174.701 122.465Z" fill="url(#paint3_linear_841_8023)"/>
</g>
<g filter="url(#filter4_d_841_8023)">
<path fill-rule="evenodd" clip-rule="evenodd" d="M161.077 39.6045C161.629 39.6045 162.077 40.0522 162.077 40.6045V42.2713L163.429 40.9486C163.824 40.5624 164.457 40.5693 164.843 40.9641C165.229 41.3589 165.222 41.992 164.828 42.3782L162.077 45.0691V47.4955L164.278 46.2245L165.126 42.5813C165.251 42.0434 165.789 41.7088 166.327 41.8339C166.865 41.9591 167.199 42.4966 167.074 43.0345L166.65 44.855L168.045 44.0498C168.523 43.7737 169.135 43.9375 169.411 44.4158C169.687 44.8941 169.523 45.5057 169.045 45.7818L167.595 46.6193L169.421 47.1303C169.953 47.2791 170.263 47.8309 170.115 48.3628C169.966 48.8946 169.414 49.2052 168.882 49.0564L165.171 48.0183L163.079 49.2264L165.279 50.4967L168.861 49.4084C169.389 49.2478 169.948 49.5461 170.108 50.0745C170.269 50.6029 169.971 51.1615 169.442 51.322L167.651 51.8663L169.045 52.6709C169.523 52.9471 169.687 53.5587 169.411 54.037C169.135 54.5153 168.523 54.6791 168.045 54.403L166.599 53.5681L167.069 55.4024C167.206 55.9374 166.883 56.4823 166.348 56.6193C165.813 56.7564 165.268 56.4338 165.131 55.8988L164.176 52.1692L162.077 50.9574V53.3845L164.828 56.0754C165.222 56.4616 165.229 57.0947 164.843 57.4895C164.457 57.8843 163.824 57.8913 163.429 57.505L162.077 56.1823V57.8523C162.077 58.4046 161.629 58.8523 161.077 58.8523C160.525 58.8523 160.077 58.4046 160.077 57.8523V56.2399L158.709 57.5204C158.305 57.8977 157.672 57.8767 157.295 57.4735C156.918 57.0702 156.939 56.4374 157.342 56.06L160.077 53.5009V50.9596L157.977 52.1721L157.022 55.9C156.885 56.435 156.34 56.7576 155.805 56.6205C155.27 56.4834 154.947 55.9386 155.084 55.4036L155.554 53.571L154.108 54.4057C153.63 54.6819 153.018 54.518 152.742 54.0397C152.466 53.5614 152.63 52.9498 153.108 52.6737L154.504 51.868L152.711 51.3232C152.182 51.1626 151.884 50.6041 152.045 50.0756C152.205 49.5472 152.764 49.249 153.292 49.4096L156.876 50.4984L159.079 49.2264L156.981 48.0155L153.271 49.0535C152.739 49.2023 152.187 48.8918 152.038 48.3599C151.89 47.8281 152.2 47.2763 152.732 47.1275L154.558 46.6166L153.108 45.7791C152.63 45.503 152.466 44.8914 152.742 44.4131C153.018 43.9348 153.63 43.7709 154.108 44.047L155.503 44.8523L155.079 43.0317C154.954 42.4938 155.288 41.9563 155.826 41.8311C156.364 41.706 156.902 42.0406 157.027 42.5785L157.875 46.2218L160.077 47.4933V44.9527L157.342 42.3936C156.939 42.0162 156.918 41.3834 157.295 40.9801C157.672 40.5769 158.305 40.5559 158.709 40.9332L160.077 42.2137V40.6045C160.077 40.0522 160.525 39.6045 161.077 39.6045Z" fill="url(#paint4_linear_841_8023)"/>
</g>
<g filter="url(#filter5_d_841_8023)">
<path fill-rule="evenodd" clip-rule="evenodd" d="M69.969 25.5996C70.5213 25.5996 70.969 26.0473 70.969 26.5996V29.7541L73.4451 27.3319C73.8399 26.9457 74.473 26.9526 74.8592 27.3474C75.2454 27.7422 75.2384 28.3753 74.8437 28.7616L70.969 32.552V36.6685L74.6718 34.5307L75.8683 29.3881C75.9935 28.8502 76.531 28.5156 77.0689 28.6407C77.6069 28.7659 77.9415 29.3034 77.8163 29.8413L77.0438 33.1612L79.6879 31.6347C80.1662 31.3585 80.7778 31.5224 81.054 32.0007C81.3301 32.479 81.1662 33.0906 80.6879 33.3667L77.9466 34.9494L81.2873 35.8841C81.8192 36.0329 82.1297 36.5846 81.9809 37.1165C81.8322 37.6484 81.2804 37.9589 80.7485 37.8101L75.5236 36.3484L71.9735 38.398L75.6739 40.5345L80.7275 38.9989C81.2559 38.8383 81.8145 39.1365 81.975 39.665C82.1356 40.1934 81.8374 40.7519 81.309 40.9125L78.046 41.904L80.688 43.4294C81.1663 43.7055 81.3302 44.3171 81.054 44.7954C80.7779 45.2737 80.1663 45.4376 79.688 45.1614L76.9508 43.5811L77.8113 46.9399C77.9484 47.4749 77.6258 48.0197 77.0908 48.1568C76.5558 48.2939 76.011 47.9713 75.8739 47.4363L74.5278 42.1822L70.969 40.1275V44.2417L74.8437 48.0322C75.2384 48.4184 75.2454 49.0515 74.8592 49.4463C74.473 49.8411 73.8399 49.8481 73.4451 49.4619L70.969 47.0396V50.2009C70.969 50.7532 70.5213 51.2009 69.969 51.2009C69.4167 51.2009 68.969 50.7532 68.969 50.2009V47.1448L66.4764 49.4772C66.0731 49.8545 65.4403 49.8335 65.063 49.4303C64.6856 49.027 64.7066 48.3942 65.1099 48.0168L68.969 44.4058V40.1326L65.4085 42.1883L64.063 47.4396C63.926 47.9746 63.3811 48.2972 62.8461 48.1602C62.3111 48.0231 61.9885 47.4783 62.1256 46.9433L62.9855 43.5872L60.2486 45.1673C59.7703 45.4435 59.1588 45.2796 58.8826 44.8013C58.6065 44.323 58.7703 43.7114 59.2486 43.4353L61.8937 41.9082L58.628 40.9159C58.0996 40.7553 57.8014 40.1968 57.9619 39.6683C58.1225 39.1399 58.681 38.8417 59.2095 39.0023L64.2657 40.5387L67.9735 38.398L64.4142 36.3431L59.1882 37.8051C58.6564 37.9539 58.1046 37.6433 57.9558 37.1115C57.807 36.5796 58.1175 36.0278 58.6494 35.879L61.9912 34.9441L59.2487 33.3608C58.7704 33.0846 58.6065 32.4731 58.8827 31.9948C59.1588 31.5165 59.7704 31.3526 60.2487 31.6287L62.8927 33.1552L62.1204 29.8363C61.9953 29.2984 62.3299 28.7609 62.8678 28.6357C63.4057 28.5105 63.9433 28.8452 64.0684 29.3831L65.2648 34.5247L68.969 36.6634V32.388L65.1099 28.7769C64.7066 28.3996 64.6856 27.7667 65.063 27.3635C65.4403 26.9602 66.0731 26.9392 66.4764 27.3165L68.969 29.6489V26.5996C68.969 26.0473 69.4167 25.5996 69.969 25.5996Z" fill="url(#paint5_linear_841_8023)"/>
</g>
<defs>
<filter id="filter0_d_841_8023" x="19.5154" y="0.648438" width="193.886" height="198.404" filterUnits="userSpaceOnUse" color-interpolation-filters="sRGB">
<feFlood flood-opacity="0" result="BackgroundImageFix"/>
<feColorMatrix in="SourceAlpha" type="matrix" values="0 0 0 0 0 0 0 0 0 0 0 0 0 0 0 0 0 0 127 0" result="hardAlpha"/>
<feOffset dy="10"/>
<feGaussianBlur stdDeviation="25"/>
<feComposite in2="hardAlpha" operator="out"/>
<feColorMatrix type="matrix" values="0 0 0 0 0.113725 0 0 0 0 0.207843 0 0 0 0 0.541176 0 0 0 0.25 0"/>
<feBlend mode="normal" in2="BackgroundImageFix" result="effect1_dropShadow_841_8023"/>
<feBlend mode="normal" in="SourceGraphic" in2="effect1_dropShadow_841_8023" result="shape"/>
</filter>
<filter id="filter1_d_841_8023" x="0.399414" y="49.418" width="146.971" height="149.714" filterUnits="userSpaceOnUse" color-interpolation-filters="sRGB">
<feFlood flood-opacity="0" result="BackgroundImageFix"/>
<feColorMatrix in="SourceAlpha" type="matrix" values="0 0 0 0 0 0 0 0 0 0 0 0 0 0 0 0 0 0 127 0" result="hardAlpha"/>
<feOffset dy="10"/>
<feGaussianBlur stdDeviation="25"/>
<feComposite in2="hardAlpha" operator="out"/>
<feColorMatrix type="matrix" values="0 0 0 0 0.113725 0 0 0 0 0.207843 0 0 0 0 0.541176 0 0 0 0.25 0"/>
<feBlend mode="normal" in2="BackgroundImageFix" result="effect1_dropShadow_841_8023"/>
<feBlend mode="normal" in="SourceGraphic" in2="effect1_dropShadow_841_8023" result="shape"/>
</filter>
<filter id="filter2_d_841_8023" x="158.013" y="59.334" width="54.8203" height="55.6904" filterUnits="userSpaceOnUse" color-interpolation-filters="sRGB">
<feFlood flood-opacity="0" result="BackgroundImageFix"/>
<feColorMatrix in="SourceAlpha" type="matrix" values="0 0 0 0 0 0 0 0 0 0 0 0 0 0 0 0 0 0 127 0" result="hardAlpha"/>
<feOffset dy="10"/>
<feGaussianBlur stdDeviation="10"/>
<feComposite in2="hardAlpha" operator="out"/>
<feColorMatrix type="matrix" values="0 0 0 0 0.113725 0 0 0 0 0.207843 0 0 0 0 0.541176 0 0 0 0.25 0"/>
<feBlend mode="normal" in2="BackgroundImageFix" result="effect1_dropShadow_841_8023"/>
<feBlend mode="normal" in="SourceGraphic" in2="effect1_dropShadow_841_8023" result="shape"/>
</filter>
<filter id="filter3_d_841_8023" x="143.021" y="112.465" width="63.3596" height="64.8105" filterUnits="userSpaceOnUse" color-interpolation-filters="sRGB">
<feFlood flood-opacity="0" result="BackgroundImageFix"/>
<feColorMatrix in="SourceAlpha" type="matrix" values="0 0 0 0 0 0 0 0 0 0 0 0 0 0 0 0 0 0 127 0" result="hardAlpha"/>
<feOffset dy="10"/>
<feGaussianBlur stdDeviation="10"/>
<feComposite in2="hardAlpha" operator="out"/>
<feColorMatrix type="matrix" values="0 0 0 0 0.113725 0 0 0 0 0.207843 0 0 0 0 0.541176 0 0 0 0.25 0"/>
<feBlend mode="normal" in2="BackgroundImageFix" result="effect1_dropShadow_841_8023"/>
<feBlend mode="normal" in="SourceGraphic" in2="effect1_dropShadow_841_8023" result="shape"/>
</filter>
<filter id="filter4_d_841_8023" x="132.001" y="29.6045" width="58.1506" height="59.248" filterUnits="userSpaceOnUse" color-interpolation-filters="sRGB">
<feFlood flood-opacity="0" result="BackgroundImageFix"/>
<feColorMatrix in="SourceAlpha" type="matrix" values="0 0 0 0 0 0 0 0 0 0 0 0 0 0 0 0 0 0 127 0" result="hardAlpha"/>
<feOffset dy="10"/>
<feGaussianBlur stdDeviation="10"/>
<feComposite in2="hardAlpha" operator="out"/>
<feColorMatrix type="matrix" values="0 0 0 0 0.113725 0 0 0 0 0.207843 0 0 0 0 0.541176 0 0 0 0.25 0"/>
<feBlend mode="normal" in2="BackgroundImageFix" result="effect1_dropShadow_841_8023"/>
<feBlend mode="normal" in="SourceGraphic" in2="effect1_dropShadow_841_8023" result="shape"/>
</filter>
<filter id="filter5_d_841_8023" x="37.9185" y="15.5996" width="64.1001" height="65.6016" filterUnits="userSpaceOnUse" color-interpolation-filters="sRGB">
<feFlood flood-opacity="0" result="BackgroundImageFix"/>
<feColorMatrix in="SourceAlpha" type="matrix" values="0 0 0 0 0 0 0 0 0 0 0 0 0 0 0 0 0 0 127 0" result="hardAlpha"/>
<feOffset dy="10"/>
<feGaussianBlur stdDeviation="10"/>
<feComposite in2="hardAlpha" operator="out"/>
<feColorMatrix type="matrix" values="0 0 0 0 0.113725 0 0 0 0 0.207843 0 0 0 0 0.541176 0 0 0 0.25 0"/>
<feBlend mode="normal" in2="BackgroundImageFix" result="effect1_dropShadow_841_8023"/>
<feBlend mode="normal" in="SourceGraphic" in2="effect1_dropShadow_841_8023" result="shape"/>
</filter>
<linearGradient id="paint0_linear_841_8023" x1="116.458" y1="40.6484" x2="116.458" y2="139.053" gradientUnits="userSpaceOnUse">
<stop stop-color="#138EFF"/>
<stop offset="1" stop-color="#00E0FF"/>
</linearGradient>
<linearGradient id="paint1_linear_841_8023" x1="73.8849" y1="89.418" x2="73.8849" y2="139.132" gradientUnits="userSpaceOnUse">
<stop stop-color="#138EFF"/>
<stop offset="1" stop-color="#00E0FF"/>
</linearGradient>
<linearGradient id="paint2_linear_841_8023" x1="185.423" y1="69.334" x2="185.423" y2="85.0249" gradientUnits="userSpaceOnUse">
<stop stop-color="#138EFF"/>
<stop offset="1" stop-color="#00E0FF"/>
</linearGradient>
<linearGradient id="paint3_linear_841_8023" x1="174.701" y1="122.465" x2="174.701" y2="147.275" gradientUnits="userSpaceOnUse">
<stop stop-color="#138EFF"/>
<stop offset="1" stop-color="#00E0FF"/>
</linearGradient>
<linearGradient id="paint4_linear_841_8023" x1="161.077" y1="39.6045" x2="161.077" y2="58.8523" gradientUnits="userSpaceOnUse">
<stop stop-color="#138EFF"/>
<stop offset="1" stop-color="#00E0FF"/>
</linearGradient>
<linearGradient id="paint5_linear_841_8023" x1="69.9685" y1="25.5996" x2="69.9685" y2="51.2009" gradientUnits="userSpaceOnUse">
<stop stop-color="#138EFF"/>
<stop offset="1" stop-color="#00E0FF"/>
</linearGradient>
</defs>
</svg>
