<svg width="182" height="175" viewBox="0 0 182 175" fill="none" xmlns="http://www.w3.org/2000/svg">
<g filter="url(#filter0_f_841_7958)">
<circle cx="57.5219" cy="72.1813" r="33.235" fill="#FFC701" fill-opacity="0.5"/>
</g>
<ellipse cx="57.5219" cy="73.2684" rx="32.1454" ry="32.1454" fill="url(#paint0_linear_841_7958)"/>
<path fill-rule="evenodd" clip-rule="evenodd" d="M59.7996 27.1992C59.7996 25.5424 58.4564 24.1992 56.7996 24.1992C55.1427 24.1992 53.7996 25.5424 53.7996 27.1992V33.8723C53.7996 35.5292 55.1427 36.8723 56.7996 36.8723C58.4564 36.8723 59.7996 35.5292 59.7996 33.8723V27.1992ZM59.7996 111.728C59.7996 110.071 58.4564 108.728 56.7996 108.728C55.1427 108.728 53.7996 110.071 53.7996 111.728V118.401C53.7996 120.058 55.1427 121.401 56.7996 121.401C58.4564 121.401 59.7996 120.058 59.7996 118.401V111.728Z" fill="#FFC501"/>
<path fill-rule="evenodd" clip-rule="evenodd" d="M102.399 75.8047C104.056 75.8047 105.399 74.4615 105.399 72.8047C105.399 71.1478 104.056 69.8047 102.399 69.8047L95.7258 69.8047C94.069 69.8047 92.7258 71.1478 92.7258 72.8047C92.7258 74.4615 94.069 75.8047 95.7258 75.8047L102.399 75.8047ZM17.873 75.8047C19.5299 75.8047 20.873 74.4615 20.873 72.8047C20.873 71.1478 19.5299 69.8047 17.873 69.8047L11.1999 69.8047C9.54307 69.8047 8.19992 71.1478 8.19992 72.8047C8.19992 74.4615 9.54307 75.8047 11.1999 75.8047L17.873 75.8047Z" fill="#FFC501"/>
<path fill-rule="evenodd" clip-rule="evenodd" d="M91.1643 42.6696C92.3359 41.4981 92.3359 39.5986 91.1643 38.427C89.9927 37.2554 88.0932 37.2554 86.9216 38.427L82.2031 43.1456C81.0315 44.3171 81.0315 46.2166 82.2031 47.3882C83.3746 48.5598 85.2741 48.5598 86.4457 47.3882L91.1643 42.6696ZM31.3955 102.443C32.5671 101.272 32.5671 99.3721 31.3955 98.2006C30.2239 97.029 28.3244 97.029 27.1529 98.2006L22.4343 102.919C21.2627 104.091 21.2627 105.99 22.4343 107.162C23.6058 108.333 25.5053 108.333 26.6769 107.162L31.3955 102.443Z" fill="#FFC501"/>
<path fill-rule="evenodd" clip-rule="evenodd" d="M86.9222 107.164C88.0937 108.336 89.9932 108.336 91.1648 107.164C92.3364 105.993 92.3364 104.093 91.1648 102.922L86.4462 98.2031C85.2747 97.0315 83.3752 97.0315 82.2036 98.2031C81.032 99.3746 81.032 101.274 82.2036 102.446L86.9222 107.164ZM27.1532 47.3954C28.3248 48.567 30.2243 48.567 31.3958 47.3954C32.5674 46.2238 32.5674 44.3243 31.3958 43.1528L26.6772 38.4342C25.5057 37.2626 23.6062 37.2626 22.4346 38.4342C21.263 39.6057 21.263 41.5052 22.4346 42.6768L27.1532 47.3954Z" fill="#FFC501"/>
<g filter="url(#filter1_bddi_841_7958)">
<path fill-rule="evenodd" clip-rule="evenodd" d="M131.178 134.594C131.257 134.595 131.335 134.596 131.414 134.596C142.571 134.596 151.616 125.551 151.616 114.393C151.616 103.236 142.571 94.1914 131.414 94.1914C131.335 94.1914 131.257 94.1918 131.178 94.1927V94.1914H125.96C126.148 92.8088 126.246 91.3972 126.246 89.9629C126.246 72.8378 112.363 58.9551 95.238 58.9551C78.1128 58.9551 64.2302 72.8378 64.2302 89.9629C64.2302 91.5788 64.3538 93.1659 64.5921 94.7151C63.1174 94.3725 61.5808 94.1914 60.0019 94.1914C48.8446 94.1914 39.7998 103.236 39.7998 114.393C39.7998 125.551 48.8446 134.596 60.0019 134.596C60.0805 134.596 60.1591 134.595 60.2375 134.594L60.2364 134.596H131.178V134.594Z" fill="url(#paint1_linear_841_7958)" shape-rendering="crispEdges"/>
</g>
<defs>
<filter id="filter0_f_841_7958" x="4.28687" y="18.9463" width="106.47" height="106.47" filterUnits="userSpaceOnUse" color-interpolation-filters="sRGB">
<feFlood flood-opacity="0" result="BackgroundImageFix"/>
<feBlend mode="normal" in="SourceGraphic" in2="BackgroundImageFix" result="shape"/>
<feGaussianBlur stdDeviation="10" result="effect1_foregroundBlur_841_7958"/>
</filter>
<filter id="filter1_bddi_841_7958" x="9.7998" y="38.9551" width="171.816" height="135.641" filterUnits="userSpaceOnUse" color-interpolation-filters="sRGB">
<feFlood flood-opacity="0" result="BackgroundImageFix"/>
<feGaussianBlur in="BackgroundImageFix" stdDeviation="7"/>
<feComposite in2="SourceAlpha" operator="in" result="effect1_backgroundBlur_841_7958"/>
<feColorMatrix in="SourceAlpha" type="matrix" values="0 0 0 0 0 0 0 0 0 0 0 0 0 0 0 0 0 0 127 0" result="hardAlpha"/>
<feOffset dy="10"/>
<feGaussianBlur stdDeviation="15"/>
<feComposite in2="hardAlpha" operator="out"/>
<feColorMatrix type="matrix" values="0 0 0 0 0.113725 0 0 0 0 0.207843 0 0 0 0 0.541176 0 0 0 0.1 0"/>
<feBlend mode="normal" in2="effect1_backgroundBlur_841_7958" result="effect2_dropShadow_841_7958"/>
<feColorMatrix in="SourceAlpha" type="matrix" values="0 0 0 0 0 0 0 0 0 0 0 0 0 0 0 0 0 0 127 0" result="hardAlpha"/>
<feOffset dy="4"/>
<feGaussianBlur stdDeviation="4"/>
<feComposite in2="hardAlpha" operator="out"/>
<feColorMatrix type="matrix" values="0 0 0 0 0 0 0 0 0 0 0 0 0 0 0 0 0 0 0.1 0"/>
<feBlend mode="normal" in2="effect2_dropShadow_841_7958" result="effect3_dropShadow_841_7958"/>
<feBlend mode="normal" in="SourceGraphic" in2="effect3_dropShadow_841_7958" result="shape"/>
<feColorMatrix in="SourceAlpha" type="matrix" values="0 0 0 0 0 0 0 0 0 0 0 0 0 0 0 0 0 0 127 0" result="hardAlpha"/>
<feOffset dx="-20" dy="2"/>
<feGaussianBlur stdDeviation="10"/>
<feComposite in2="hardAlpha" operator="arithmetic" k2="-1" k3="1"/>
<feColorMatrix type="matrix" values="0 0 0 0 0.114148 0 0 0 0 0.207678 0 0 0 0 0.539284 0 0 0 0.1 0"/>
<feBlend mode="normal" in2="shape" result="effect4_innerShadow_841_7958"/>
</filter>
<linearGradient id="paint0_linear_841_7958" x1="57.5219" y1="41.123" x2="57.5219" y2="105.414" gradientUnits="userSpaceOnUse">
<stop stop-color="#FFE600"/>
<stop offset="1" stop-color="#FF7A00"/>
</linearGradient>
<linearGradient id="paint1_linear_841_7958" x1="84.416" y1="48.416" x2="95.616" y2="146.816" gradientUnits="userSpaceOnUse">
<stop stop-color="#EBEEF7"/>
<stop offset="0.546358" stop-color="white" stop-opacity="0.8"/>
<stop offset="1" stop-color="white" stop-opacity="0"/>
</linearGradient>
</defs>
</svg>
