<svg width="200" height="150" viewBox="0 0 200 150" fill="none" xmlns="http://www.w3.org/2000/svg">
<path d="M56.8 10.56H114.4C130.306 10.56 143.2 23.4542 143.2 39.36C143.2 55.2658 130.306 68.16 114.4 68.16H100C76.1413 68.16 56.8 48.8187 56.8 24.96V10.56Z" fill="#AD2A4B"/>
<path opacity="0.8" d="M56.8 10.56C83.3097 10.56 104.8 32.0503 104.8 58.56V85.44C104.8 98.6949 94.0548 109.44 80.8 109.44C67.5452 109.44 56.8 98.6948 56.8 85.44V10.56Z" fill="#E31E30"/>
<path d="M76.0978 142C76.0978 143.82 75.0578 144.64 72.4378 144.64H65.0578C62.4378 144.64 61.3978 143.82 61.3978 142C61.3978 140.18 62.4378 139.36 65.0578 139.36H72.4378C75.0578 139.36 76.0978 140.18 76.0978 142ZM75.7178 132.38C76.1178 132.5 76.2978 132.74 76.2378 133.08C76.2178 133.46 75.9378 133.7 75.4578 133.64C71.8778 133.16 70.2178 132.7 68.7378 130.84C67.2978 132.7 65.3978 133.34 62.0178 133.64C61.5378 133.7 61.2778 133.42 61.2578 133.08C61.2178 132.7 61.3978 132.48 61.7978 132.4C64.9578 132.14 67.5978 131.36 68.0378 129.2H62.5378C62.2178 129.2 61.9578 129 61.9578 128.62C61.9578 128.24 62.2178 128.04 62.5378 128.04H74.9378C75.2578 128.04 75.5178 128.24 75.5178 128.62C75.5178 129 75.2578 129.2 74.9378 129.2H69.4578C69.8378 131.34 72.5578 132.02 75.7178 132.38ZM74.7978 142C74.7978 140.94 74.2378 140.52 72.1578 140.52H65.3378C63.2578 140.52 62.6978 140.94 62.6978 142C62.6978 143.06 63.2578 143.48 65.3378 143.48H72.1578C74.2378 143.48 74.7978 143.06 74.7978 142ZM77.3178 136.72C77.3178 137.1 77.0578 137.3 76.7378 137.3H60.7378C60.4178 137.3 60.1578 137.1 60.1578 136.72C60.1578 136.34 60.4178 136.14 60.7378 136.14H68.0978V134.16C68.0978 133.76 68.3578 133.56 68.7378 133.56C69.1178 133.56 69.3978 133.76 69.3978 134.16V136.14H76.7378C77.0578 136.14 77.3178 136.34 77.3178 136.72ZM93.3617 133.32H82.3617C82.1417 133.32 82.0217 133.4 82.0217 133.72V135.9C82.0217 136.22 82.1417 136.3 82.3617 136.3H94.2217C94.5417 136.3 94.8017 136.5 94.8017 136.88C94.8017 137.26 94.5417 137.46 94.2217 137.46H82.1617C80.8417 137.46 80.7217 136.64 80.7217 135.9V133.72C80.7217 132.98 80.8417 132.16 82.1617 132.16H93.1617C93.3817 132.16 93.5017 132.08 93.5017 131.76V129.76C93.5017 129.44 93.3817 129.36 93.1617 129.36H81.4417C81.1217 129.36 80.8617 129.16 80.8617 128.78C80.8617 128.4 81.1217 128.2 81.4417 128.2H93.3617C94.6817 128.2 94.8017 129.02 94.8017 129.76V131.76C94.8017 132.5 94.6817 133.32 93.3617 133.32ZM96.3217 143.86C96.3217 144.24 96.0617 144.44 95.7417 144.44H79.7417C79.4217 144.44 79.1617 144.24 79.1617 143.86C79.1617 143.48 79.4217 143.28 79.7417 143.28H87.1017V139.96C87.1017 139.56 87.3617 139.36 87.7417 139.36C88.1217 139.36 88.4017 139.56 88.4017 139.96V143.28H95.7417C96.0617 143.28 96.3217 143.48 96.3217 143.86ZM99.3856 143.02V129.42C99.3856 128.96 99.5856 128.68 100.226 128.68H104.406C107.466 128.68 110.126 129.88 110.126 133.12V133.26C110.126 136.54 107.586 137.72 104.586 137.72H100.686V143.02C100.686 143.42 100.406 143.62 100.026 143.62C99.6456 143.62 99.3856 143.42 99.3856 143.02ZM104.246 129.78H100.686V136.62H104.586C107.146 136.62 108.726 135.7 108.726 133.4V133.1C108.726 130.82 106.826 129.78 104.246 129.78ZM113.477 131.1C113.477 130.44 113.977 130.04 114.677 130.04C115.337 130.04 115.857 130.44 115.857 131.1C115.857 131.76 115.337 132.18 114.677 132.18C113.977 132.18 113.477 131.76 113.477 131.1ZM114.057 142.82V134.12C114.057 133.72 114.337 133.52 114.717 133.52C115.097 133.52 115.397 133.72 115.397 134.12V142.82C115.397 143.22 115.097 143.42 114.717 143.42C114.337 143.42 114.057 143.22 114.057 142.82ZM124.356 143.76C120.936 143.76 119.436 142.2 119.216 139.9C119.196 139.48 119.176 139.1 119.176 138.74C119.176 138.38 119.196 138.02 119.216 137.64C119.316 135.36 120.856 133.56 124.316 133.56C125.836 133.56 126.976 134.1 127.516 134.5C127.776 134.68 127.856 134.92 127.736 135.22C127.596 135.52 127.296 135.6 126.976 135.44C126.276 135.08 125.736 134.7 124.396 134.7C121.816 134.7 120.656 135.78 120.516 137.6C120.476 138.36 120.476 139.1 120.516 139.84C120.676 141.7 121.716 142.64 124.516 142.64C125.856 142.64 126.576 142.16 127.256 141.78C127.516 141.62 127.836 141.68 128.016 141.92C128.236 142.22 128.076 142.54 127.916 142.68C127.336 143.16 126.196 143.76 124.356 143.76ZM131.143 142.82V129.12C131.143 128.72 131.403 128.52 131.783 128.52C132.163 128.52 132.443 128.72 132.443 129.12V136.6L138.183 133.42C138.483 133.18 138.823 133.26 139.063 133.56C139.283 133.82 139.323 134.18 139.003 134.44L132.583 137.92C132.503 137.98 132.423 138.04 132.563 138.12L139.263 142.28C139.603 142.5 139.663 142.84 139.503 143.14C139.283 143.48 138.903 143.58 138.583 143.4L132.443 139.44V142.82C132.443 143.22 132.163 143.42 131.783 143.42C131.403 143.42 131.143 143.22 131.143 142.82Z" fill="black"/>
</svg>
