<svg width="24" height="24" viewBox="0 0 24 24" fill="none" xmlns="http://www.w3.org/2000/svg">
<path d="M9.422 19.0461C7.60762 19.1149 6.07848 17.705 6 15.8911C6 14.1461 7.532 11.5081 9.422 11.5081H11.578" stroke="white" stroke-width="1.4" stroke-linecap="round" stroke-linejoin="round"/>
<path fill-rule="evenodd" clip-rule="evenodd" d="M13.7 7.2C13.7 8.41503 12.7151 9.4 11.5 9.4C10.285 9.4 9.30005 8.41503 9.30005 7.2C9.30005 5.98497 10.285 5 11.5 5C12.7151 5 13.7 5.98497 13.7 7.2Z" stroke="white" stroke-width="1.4" stroke-linecap="round" stroke-linejoin="round"/>
<path d="M13.4873 19.1027L13.4871 19.1023C13.4775 19.0806 13.4613 19.0625 13.4407 19.0506C13.4198 19.0386 13.3956 19.0334 13.3715 19.0359C13.3714 19.0359 13.3713 19.0359 13.3712 19.0359L12.8933 19.0868L12.8923 19.0869C12.6152 19.116 12.3356 19.0642 12.0873 18.9377C11.8391 18.8113 11.6328 18.6156 11.4934 18.3744L13.4873 19.1027ZM13.4873 19.1027L13.6829 19.5426C13.6829 19.5427 13.683 19.5428 13.683 19.5429C13.683 19.5429 13.683 19.5429 13.6831 19.543C13.7962 19.7977 13.9809 20.0141 14.2146 20.166L14.5961 19.5791M13.4873 19.1027L14.5961 19.5791M16.208 18.4462L16.5578 19.0525C16.5787 19.0404 16.6029 19.0353 16.627 19.0377C16.6271 19.0377 16.6272 19.0377 16.6273 19.0377L17.1053 19.0886L17.1057 19.0887L15.0001 20.3988C15.2789 20.3988 15.5517 20.318 15.7854 20.166L15.4039 19.5791L15.7854 20.166C16.0192 20.0141 16.2039 19.7975 16.3171 19.5426L16.5124 19.1035C16.5124 19.1034 16.5124 19.1033 16.5124 19.1033C16.5221 19.0818 16.5383 19.0638 16.5587 19.052L16.208 18.4462ZM16.208 18.4462C16.06 18.5318 15.9428 18.6621 15.8731 18.8183L15.6773 19.2586L16.7004 18.3416C16.5293 18.3236 16.357 18.3602 16.208 18.4462ZM14.5961 19.5791L14.2146 20.166C14.4483 20.318 14.7211 20.3988 14.9999 20.3988L14.5961 19.5791ZM18.119 16.3493L18.119 16.3529C18.1189 16.3767 18.1263 16.4 18.1401 16.4194C18.1403 16.4196 18.1404 16.4198 18.1405 16.42L18.4226 16.8076C18.4226 16.8076 18.4226 16.8076 18.4227 16.8076C18.5867 17.033 18.6819 17.3012 18.6965 17.5797C18.7112 17.858 18.6448 18.1345 18.5054 18.3758C18.5053 18.376 18.5052 18.3761 18.5051 18.3763L17.8991 18.026L18.119 16.3493ZM18.119 16.3493C18.119 16.3253 18.1266 16.3019 18.1407 16.2825L18.4241 15.8931C18.4241 15.8931 18.4241 15.8931 18.4241 15.8931C18.5882 15.6677 18.6834 15.3994 18.698 15.121C18.7126 14.8427 18.6463 14.5662 18.5069 14.3249C18.3676 14.0834 18.1612 13.8875 17.9127 13.761L17.5951 14.3847L17.9127 13.761C17.6643 13.6344 17.3845 13.5827 17.1072 13.612L17.1067 13.6121M18.119 16.3493L17.1067 13.6121M17.1067 13.6121L16.6288 13.6629C16.6287 13.663 16.6286 13.663 16.6285 13.663C16.6048 13.6654 16.581 13.6604 16.5602 13.6487C16.5401 13.6368 16.5243 13.6189 16.5148 13.5975L16.5148 13.5975M17.1067 13.6121L16.5148 13.5975M16.5148 13.5975L16.5134 13.5943M16.5148 13.5975L16.5134 13.5943M16.5134 13.5943L16.3171 13.1562M16.5134 13.5943L16.3171 13.1562M13.4873 13.5961L13.4873 13.5961L13.6829 13.1562C13.683 13.1561 13.683 13.156 13.6831 13.1559C13.7962 12.9011 13.9809 12.6847 14.2146 12.5328C14.4483 12.3809 14.7211 12.3 14.9999 12.3L13.4873 13.5961ZM13.4873 13.5961L13.4867 13.5975M13.4873 13.5961L13.4867 13.5975M13.4867 13.5975C13.4772 13.6189 13.4613 13.6368 13.4413 13.6487C13.4205 13.6604 13.3967 13.6654 13.3729 13.663C13.3729 13.663 13.3728 13.663 13.3727 13.6629L12.893 13.612L12.8928 13.612M13.4867 13.5975L12.8928 13.612M12.8928 13.612C12.6155 13.5827 12.3357 13.6344 12.0873 13.761L12.0873 13.761M12.8928 13.612L12.0873 13.761M12.0873 13.761C11.839 13.8874 11.6327 14.0831 11.4934 14.3244L12.0873 13.761ZM11.881 16.3495L11.881 16.3493C11.881 16.3253 11.8734 16.302 11.8593 16.2826C11.8593 16.2825 11.8593 16.2825 11.8593 16.2825L11.5759 15.8931C11.5759 15.8931 11.5759 15.8931 11.5759 15.8931C11.4118 15.6677 11.3166 15.3994 11.302 15.121C11.2874 14.8427 11.3537 14.5662 11.4931 14.3249L11.881 16.3495ZM11.881 16.3495C11.881 16.3735 11.8734 16.3969 11.8593 16.4163M11.881 16.3495L11.8593 16.4163M16.3171 13.1562C16.3169 13.1557 16.3167 13.1553 16.3165 13.1549M16.3171 13.1562L16.3165 13.1549M16.3165 13.1549C16.2033 12.9006 16.0188 12.6845 15.7854 12.5328C15.5517 12.3809 15.2789 12.3 15.0001 12.3L16.3165 13.1549ZM11.8593 16.4163L11.5759 16.8057C11.5759 16.8057 11.5759 16.8057 11.5759 16.8057C11.4118 17.0312 11.3166 17.2994 11.302 17.5778C11.2873 17.8562 11.3538 18.1329 11.4933 18.3743L11.8593 16.4163Z" stroke="white" stroke-width="1.4" stroke-linecap="round" stroke-linejoin="round"/>
<path d="M15 17.3C15.5523 17.3 16 16.8523 16 16.3C16 15.7478 15.5523 15.3 15 15.3C14.4477 15.3 14 15.7478 14 16.3C14 16.8523 14.4477 17.3 15 17.3Z" fill="white"/>
</svg>
