<svg width="24" height="24" viewBox="0 0 24 24" fill="none" xmlns="http://www.w3.org/2000/svg">
<path d="M9 5.7C9.3866 5.7 9.7 5.3866 9.7 5C9.7 4.6134 9.3866 4.3 9 4.3V5.7ZM4.3 11C4.3 11.3866 4.6134 11.7 5 11.7C5.3866 11.7 5.7 11.3866 5.7 11H4.3ZM9 4.3C8.6134 4.3 8.3 4.6134 8.3 5C8.3 5.3866 8.6134 5.7 9 5.7V4.3ZM18.3 11C18.3 11.3866 18.6134 11.7 19 11.7C19.3866 11.7 19.7 11.3866 19.7 11H18.3ZM9.7 5C9.7 4.6134 9.3866 4.3 9 4.3C8.6134 4.3 8.3 4.6134 8.3 5H9.7ZM8.3 11C8.3 11.3866 8.6134 11.7 9 11.7C9.3866 11.7 9.7 11.3866 9.7 11H8.3ZM9 11.7C9.3866 11.7 9.7 11.3866 9.7 11C9.7 10.6134 9.3866 10.3 9 10.3V11.7ZM5 10.3C4.6134 10.3 4.3 10.6134 4.3 11C4.3 11.3866 4.6134 11.7 5 11.7V10.3ZM9 10.3C8.6134 10.3 8.3 10.6134 8.3 11C8.3 11.3866 8.6134 11.7 9 11.7V10.3ZM19 11.7C19.3866 11.7 19.7 11.3866 19.7 11C19.7 10.6134 19.3866 10.3 19 10.3V11.7ZM5.7 11C5.7 10.6134 5.3866 10.3 5 10.3C4.6134 10.3 4.3 10.6134 4.3 11H5.7ZM19.7 11C19.7 10.6134 19.3866 10.3 19 10.3C18.6134 10.3 18.3 10.6134 18.3 11H19.7ZM9 4.3C6.40426 4.3 4.3 6.40426 4.3 9H5.7C5.7 7.17746 7.17746 5.7 9 5.7V4.3ZM4.3 9V11H5.7V9H4.3ZM9 5.7H15V4.3H9V5.7ZM15 5.7C16.8225 5.7 18.3 7.17746 18.3 9H19.7C19.7 6.40426 17.5957 4.3 15 4.3V5.7ZM18.3 9V11H19.7V9H18.3ZM8.3 5V11H9.7V5H8.3ZM9 10.3H5V11.7H9V10.3ZM9 11.7H19V10.3H9V11.7ZM4.3 11V15H5.7V11H4.3ZM4.3 15C4.3 17.5957 6.40426 19.7 9 19.7V18.3C7.17746 18.3 5.7 16.8225 5.7 15H4.3ZM9 19.7H15V18.3H9V19.7ZM15 19.7C17.5957 19.7 19.7 17.5957 19.7 15H18.3C18.3 16.8225 16.8225 18.3 15 18.3V19.7ZM19.7 15V11H18.3V15H19.7Z" fill="white"/>
</svg>
