<svg width="24" height="24" viewBox="0 0 24 24" fill="none" xmlns="http://www.w3.org/2000/svg">
<g clip-path="url(#clip0_1942_37897)">
<path d="M15.7483 6.33333L18.9084 11.6667C18.9684 11.768 19 11.883 19 12C19 12.117 18.9684 12.232 18.9084 12.3333L15.7483 17.6667C15.6886 17.7674 15.6029 17.8512 15.4997 17.9097C15.3965 17.9682 15.2794 17.9993 15.1601 18H8.83994C8.72057 17.9993 8.60347 17.9682 8.50028 17.9097C8.39708 17.8512 8.31138 17.7674 8.2517 17.6667L5.09164 12.3333C5.0316 12.232 5 12.117 5 12C5 11.883 5.0316 11.768 5.09164 11.6667L8.2517 6.33333C8.31138 6.23257 8.39708 6.14879 8.50028 6.09032C8.60347 6.03184 8.72057 6.0007 8.83994 6H15.1601C15.2794 6.0007 15.3965 6.03184 15.4997 6.09032C15.6029 6.14879 15.6886 6.23257 15.7483 6.33333Z" stroke="white" stroke-width="1.4" stroke-linecap="round" stroke-linejoin="round"/>
<rect x="11.5" y="11" width="1" height="4" rx="0.5" fill="white"/>
<rect x="11.5" y="9" width="1" height="1" rx="0.5" fill="white"/>
</g>
<defs>
<clipPath id="clip0_1942_37897">
<rect width="24" height="24" fill="white"/>
</clipPath>
</defs>
</svg>
