<svg width="126" height="40" viewBox="0 0 126 40" fill="none" xmlns="http://www.w3.org/2000/svg">
<path d="M5.59998 3.52H24.8C30.1019 3.52 34.4 7.81806 34.4 13.12C34.4 18.4219 30.1019 22.72 24.8 22.72H20C12.0471 22.72 5.59998 16.2729 5.59998 8.32V3.52Z" fill="#AD2A4B"/>
<path opacity="0.8" d="M5.59998 3.52C14.4365 3.52 21.6 10.6834 21.6 19.52V28.48C21.6 32.8983 18.0183 36.48 13.6 36.48C9.1817 36.48 5.59998 32.8983 5.59998 28.48V3.52Z" fill="#E31E30"/>
<path d="M61.0978 25C61.0978 26.82 60.0578 27.64 57.4378 27.64H50.0578C47.4378 27.64 46.3978 26.82 46.3978 25C46.3978 23.18 47.4378 22.36 50.0578 22.36H57.4378C60.0578 22.36 61.0978 23.18 61.0978 25ZM60.7178 15.38C61.1178 15.5 61.2978 15.74 61.2378 16.08C61.2178 16.46 60.9378 16.7 60.4578 16.64C56.8778 16.16 55.2178 15.7 53.7378 13.84C52.2978 15.7 50.3978 16.34 47.0178 16.64C46.5378 16.7 46.2778 16.42 46.2578 16.08C46.2178 15.7 46.3978 15.48 46.7978 15.4C49.9578 15.14 52.5978 14.36 53.0378 12.2H47.5378C47.2178 12.2 46.9578 12 46.9578 11.62C46.9578 11.24 47.2178 11.04 47.5378 11.04H59.9378C60.2578 11.04 60.5178 11.24 60.5178 11.62C60.5178 12 60.2578 12.2 59.9378 12.2H54.4578C54.8378 14.34 57.5578 15.02 60.7178 15.38ZM59.7978 25C59.7978 23.94 59.2378 23.52 57.1578 23.52H50.3378C48.2578 23.52 47.6978 23.94 47.6978 25C47.6978 26.06 48.2578 26.48 50.3378 26.48H57.1578C59.2378 26.48 59.7978 26.06 59.7978 25ZM62.3178 19.72C62.3178 20.1 62.0578 20.3 61.7378 20.3H45.7378C45.4178 20.3 45.1578 20.1 45.1578 19.72C45.1578 19.34 45.4178 19.14 45.7378 19.14H53.0978V17.16C53.0978 16.76 53.3578 16.56 53.7378 16.56C54.1178 16.56 54.3978 16.76 54.3978 17.16V19.14H61.7378C62.0578 19.14 62.3178 19.34 62.3178 19.72ZM78.3617 16.32H67.3617C67.1417 16.32 67.0217 16.4 67.0217 16.72V18.9C67.0217 19.22 67.1417 19.3 67.3617 19.3H79.2217C79.5417 19.3 79.8017 19.5 79.8017 19.88C79.8017 20.26 79.5417 20.46 79.2217 20.46H67.1617C65.8417 20.46 65.7217 19.64 65.7217 18.9V16.72C65.7217 15.98 65.8417 15.16 67.1617 15.16H78.1617C78.3817 15.16 78.5017 15.08 78.5017 14.76V12.76C78.5017 12.44 78.3817 12.36 78.1617 12.36H66.4417C66.1217 12.36 65.8617 12.16 65.8617 11.78C65.8617 11.4 66.1217 11.2 66.4417 11.2H78.3617C79.6817 11.2 79.8017 12.02 79.8017 12.76V14.76C79.8017 15.5 79.6817 16.32 78.3617 16.32ZM81.3217 26.86C81.3217 27.24 81.0617 27.44 80.7417 27.44H64.7417C64.4217 27.44 64.1617 27.24 64.1617 26.86C64.1617 26.48 64.4217 26.28 64.7417 26.28H72.1017V22.96C72.1017 22.56 72.3617 22.36 72.7417 22.36C73.1217 22.36 73.4017 22.56 73.4017 22.96V26.28H80.7417C81.0617 26.28 81.3217 26.48 81.3217 26.86ZM84.3856 26.02V12.42C84.3856 11.96 84.5856 11.68 85.2256 11.68H89.4056C92.4656 11.68 95.1256 12.88 95.1256 16.12V16.26C95.1256 19.54 92.5856 20.72 89.5856 20.72H85.6856V26.02C85.6856 26.42 85.4056 26.62 85.0256 26.62C84.6456 26.62 84.3856 26.42 84.3856 26.02ZM89.2456 12.78H85.6856V19.62H89.5856C92.1456 19.62 93.7256 18.7 93.7256 16.4V16.1C93.7256 13.82 91.8256 12.78 89.2456 12.78ZM98.4773 14.1C98.4773 13.44 98.9773 13.04 99.6773 13.04C100.337 13.04 100.857 13.44 100.857 14.1C100.857 14.76 100.337 15.18 99.6773 15.18C98.9773 15.18 98.4773 14.76 98.4773 14.1ZM99.0573 25.82V17.12C99.0573 16.72 99.3373 16.52 99.7173 16.52C100.097 16.52 100.397 16.72 100.397 17.12V25.82C100.397 26.22 100.097 26.42 99.7173 26.42C99.3373 26.42 99.0573 26.22 99.0573 25.82ZM109.356 26.76C105.936 26.76 104.436 25.2 104.216 22.9C104.196 22.48 104.176 22.1 104.176 21.74C104.176 21.38 104.196 21.02 104.216 20.64C104.316 18.36 105.856 16.56 109.316 16.56C110.836 16.56 111.976 17.1 112.516 17.5C112.776 17.68 112.856 17.92 112.736 18.22C112.596 18.52 112.296 18.6 111.976 18.44C111.276 18.08 110.736 17.7 109.396 17.7C106.816 17.7 105.656 18.78 105.516 20.6C105.476 21.36 105.476 22.1 105.516 22.84C105.676 24.7 106.716 25.64 109.516 25.64C110.856 25.64 111.576 25.16 112.256 24.78C112.516 24.62 112.836 24.68 113.016 24.92C113.236 25.22 113.076 25.54 112.916 25.68C112.336 26.16 111.196 26.76 109.356 26.76ZM116.143 25.82V12.12C116.143 11.72 116.403 11.52 116.783 11.52C117.163 11.52 117.443 11.72 117.443 12.12V19.6L123.183 16.42C123.483 16.18 123.823 16.26 124.063 16.56C124.283 16.82 124.323 17.18 124.003 17.44L117.583 20.92C117.503 20.98 117.423 21.04 117.563 21.12L124.263 25.28C124.603 25.5 124.663 25.84 124.503 26.14C124.283 26.48 123.903 26.58 123.583 26.4L117.443 22.44V25.82C117.443 26.22 117.163 26.42 116.783 26.42C116.403 26.42 116.143 26.22 116.143 25.82Z" fill="black"/>
</svg>
