<svg width="80" height="80" viewBox="0 0 80 80" fill="none" xmlns="http://www.w3.org/2000/svg">
<circle cx="40" cy="40" r="37.5" fill="white" stroke="#E67E82" stroke-width="5"/>
<path d="M25.001 36.25C25.001 27.9657 31.7167 21.25 40.001 21.25C48.2852 21.25 55.001 27.9657 55.001 36.25V51.25H25.001V36.25Z" fill="url(#paint0_linear_1111_19067)"/>
<path d="M22.5 52C22.5 50.8954 23.3954 50 24.5 50H55.5C56.6046 50 57.5 50.8954 57.5 52V59.25C57.5 60.3546 56.6046 61.25 55.5 61.25H24.5C23.3954 61.25 22.5 60.3546 22.5 59.25V52Z" fill="url(#paint1_linear_1111_19067)"/>
<path d="M21.25 58.5C21.25 57.9477 21.6977 57.5 22.25 57.5H57.75C58.3023 57.5 58.75 57.9477 58.75 58.5V61.5C58.75 62.0523 58.3023 62.5 57.75 62.5H22.25C21.6977 62.5 21.25 62.0523 21.25 61.5V58.5Z" fill="#2E3B3B"/>
<path d="M33.751 41.25C33.751 37.7982 36.5492 35 40.001 35C43.4528 35 46.251 37.7982 46.251 41.25V50H33.751V41.25Z" fill="url(#paint2_linear_1111_19067)"/>
<path d="M20 32.5H22.5" stroke="#FFBC00" stroke-width="2" stroke-linecap="round"/>
<path d="M40 15V17.5" stroke="#FFBC00" stroke-width="2" stroke-linecap="round"/>
<path d="M25.001 21.25L27.501 22.5" stroke="#FFBC00" stroke-width="2" stroke-linecap="round"/>
<path d="M57.5 32.5H60" stroke="#FFBC00" stroke-width="2" stroke-linecap="round"/>
<path d="M55 21.25L52.5 22.5" stroke="#FFBC00" stroke-width="2" stroke-linecap="round"/>
<defs>
<linearGradient id="paint0_linear_1111_19067" x1="25.001" y1="37.5" x2="55.001" y2="37.5" gradientUnits="userSpaceOnUse">
<stop offset="0.5001" stop-color="#FF5F7B"/>
<stop offset="0.5002" stop-color="#DF566E"/>
</linearGradient>
<linearGradient id="paint1_linear_1111_19067" x1="22.5" y1="56.0938" x2="57.5" y2="56.0937" gradientUnits="userSpaceOnUse">
<stop offset="0.498873" stop-color="#F0F7FF"/>
<stop offset="0.5002" stop-color="#D7E9FC"/>
</linearGradient>
<linearGradient id="paint2_linear_1111_19067" x1="33.751" y1="43.125" x2="46.251" y2="43.125" gradientUnits="userSpaceOnUse">
<stop offset="0.5001" stop-color="#FF9BAD"/>
<stop offset="0.5002" stop-color="#F7798F"/>
</linearGradient>
</defs>
</svg>
