<svg width="32" height="32" viewBox="0 0 32 32" fill="none" xmlns="http://www.w3.org/2000/svg">
<circle cx="16" cy="16" r="14" fill="#E0A54D"/>
<path d="M25 14.1679C25 20.0026 16.6597 24.7254 16.3046 24.9205C16.2109 24.9727 16.1063 25 16 25C15.8937 25 15.7891 24.9727 15.6954 24.9205C15.4262 24.7704 10.5887 22.0289 8.24795 18.178C8.21775 18.1276 8.20109 18.0697 8.19969 18.0103C8.19828 17.951 8.21218 17.8923 8.23995 17.8404C8.26772 17.7885 8.30835 17.7452 8.35765 17.715C8.40695 17.6848 8.46312 17.6689 8.52036 17.6687H11.5C11.6059 17.6688 11.7101 17.6418 11.8035 17.59C11.8968 17.5382 11.9764 17.4634 12.0352 17.372L12.7857 16.2051L14.822 19.3725C14.9 19.4939 15.0142 19.5853 15.1472 19.6329C15.2801 19.6805 15.4245 19.6815 15.558 19.6359C15.6997 19.5861 15.821 19.488 15.902 19.3575L16.9868 17.6687H18.5714C18.6596 17.6689 18.7468 17.6503 18.8277 17.6141C18.9086 17.5779 18.9815 17.5248 19.0417 17.4581C19.102 17.3914 19.1485 17.3126 19.1781 17.2265C19.2078 17.1404 19.2201 17.049 19.2143 16.9577C19.1999 16.7863 19.1236 16.6269 19.0006 16.5114C18.8777 16.396 18.7172 16.333 18.5513 16.3351H16.6429C16.537 16.335 16.4328 16.3621 16.3394 16.4138C16.246 16.4656 16.1664 16.5405 16.1077 16.6318L15.3571 17.7988L13.3209 14.6314C13.2428 14.5098 13.1284 14.4182 12.9953 14.3706C12.8622 14.323 12.7177 14.3221 12.584 14.368C12.4427 14.418 12.3218 14.5161 12.2409 14.6464L11.1561 16.3351H7.60509C7.53639 16.3353 7.46944 16.3127 7.41406 16.2705C7.35867 16.2284 7.31776 16.1689 7.29732 16.1009C7.10343 15.4761 7.00316 14.8242 7 14.1679C7.00149 12.7978 7.52687 11.4842 8.46088 10.5154C9.39489 9.54654 10.6613 9.00157 11.9821 9.00003C13.6415 9.00003 15.0944 9.7402 16 10.9913C16.9056 9.7402 18.3585 9.00003 20.0179 9.00003C21.3387 9.00157 22.6051 9.54654 23.5391 10.5154C24.4731 11.4842 24.9985 12.7978 25 14.1679Z" fill="white"/>
</svg>
