<svg width="24" height="24" viewBox="0 0 24 24" fill="none" xmlns="http://www.w3.org/2000/svg">
<path fill-rule="evenodd" clip-rule="evenodd" d="M16 12C16 14.2091 14.2091 16 12 16C9.79086 16 8 14.2091 8 12C8 9.79086 9.79086 8 12 8C14.2091 8 16 9.79086 16 12Z" stroke="#282D38" stroke-width="1.4" stroke-linecap="round" stroke-linejoin="round"/>
<path d="M20 12.7001C20.3866 12.7001 20.7 12.3867 20.7 12.0001C20.7 11.6135 20.3866 11.3001 20 11.3001V12.7001ZM18 11.3001C17.6134 11.3001 17.3 11.6135 17.3 12.0001C17.3 12.3867 17.6134 12.7001 18 12.7001V11.3001ZM6 12.7001C6.3866 12.7001 6.7 12.3867 6.7 12.0001C6.7 11.6135 6.3866 11.3001 6 11.3001V12.7001ZM4 11.3001C3.6134 11.3001 3.3 11.6135 3.3 12.0001C3.3 12.3867 3.6134 12.7001 4 12.7001V11.3001ZM12.7 4C12.7 3.6134 12.3866 3.3 12 3.3C11.6134 3.3 11.3 3.6134 11.3 4H12.7ZM11.3 6C11.3 6.3866 11.6134 6.7 12 6.7C12.3866 6.7 12.7 6.3866 12.7 6H11.3ZM12.7 18C12.7 17.6134 12.3866 17.3 12 17.3C11.6134 17.3 11.3 17.6134 11.3 18H12.7ZM11.3 20C11.3 20.3866 11.6134 20.7 12 20.7C12.3866 20.7 12.7 20.3866 12.7 20H11.3ZM18.1521 6.83768C18.4255 6.56432 18.4255 6.1211 18.1521 5.84773C17.8787 5.57437 17.4355 5.57437 17.1621 5.84773L18.1521 6.83768ZM15.7473 7.26259C15.4739 7.53596 15.4739 7.97917 15.7473 8.25254C16.0206 8.52591 16.4639 8.52591 16.7372 8.25254L15.7473 7.26259ZM8.25267 16.7372C8.52604 16.4638 8.52604 16.0206 8.25267 15.7472C7.9793 15.4738 7.53609 15.4738 7.26272 15.7472L8.25267 16.7372ZM5.84786 17.1621C5.5745 17.4354 5.5745 17.8787 5.84786 18.152C6.12123 18.4254 6.56445 18.4254 6.83781 18.152L5.84786 17.1621ZM6.83781 5.84773C6.56445 5.57437 6.12123 5.57437 5.84786 5.84773C5.5745 6.1211 5.5745 6.56432 5.84786 6.83768L6.83781 5.84773ZM7.26272 8.25254C7.53609 8.52591 7.9793 8.52591 8.25267 8.25254C8.52604 7.97917 8.52604 7.53596 8.25267 7.26259L7.26272 8.25254ZM16.7384 15.7483C16.465 15.4749 16.0218 15.4749 15.7484 15.7483C15.4751 16.0216 15.4751 16.4648 15.7484 16.7382L16.7384 15.7483ZM17.1622 18.1519C17.4355 18.4253 17.8787 18.4253 18.1521 18.1519C18.4255 17.8786 18.4255 17.4353 18.1521 17.162L17.1622 18.1519ZM20 11.3001H18V12.7001H20V11.3001ZM6 11.3001H4V12.7001H6V11.3001ZM11.3 4V6H12.7V4H11.3ZM11.3 18V20H12.7V18H11.3ZM17.1621 5.84773L15.7473 7.26259L16.7372 8.25254L18.1521 6.83768L17.1621 5.84773ZM7.26272 15.7472L5.84786 17.1621L6.83781 18.152L8.25267 16.7372L7.26272 15.7472ZM5.84786 6.83768L7.26272 8.25254L8.25267 7.26259L6.83781 5.84773L5.84786 6.83768ZM15.7484 16.7382L17.1622 18.1519L18.1521 17.162L16.7384 15.7483L15.7484 16.7382Z" fill="#282D38"/>
</svg>
