<svg width="32" height="32" viewBox="0 0 32 32" fill="none" xmlns="http://www.w3.org/2000/svg">
<g clip-path="url(#clip0_1426_10097)">
<circle cx="16" cy="16" r="14" fill="#4FCD5C"/>
<path fill-rule="evenodd" clip-rule="evenodd" d="M10 8.00003C8.89543 8.00003 8 8.89546 8 10V22C8 23.1046 8.89543 24 10 24H22C23.1046 24 24 23.1046 24 22V10C24 8.89546 23.1046 8.00003 22 8.00003H10ZM14 10H13V21C13 21.5523 13.4477 22 14 22C14.5523 22 15 21.5523 15 21V18H17C19.2091 18 21 16.2092 21 14C21 11.7909 19.2091 10 17 10H15H14ZM15 12H17C18.1046 12 19 12.8955 19 14C19 15.1046 18.1046 16 17 16H15V12Z" fill="white"/>
</g>
<defs>
<clipPath id="clip0_1426_10097">
<rect width="32" height="32" fill="white"/>
</clipPath>
</defs>
</svg>
