<svg width="24" height="24" viewBox="0 0 24 24" fill="none" xmlns="http://www.w3.org/2000/svg">
<g clip-path="url(#clip0_404_2350)">
<path d="M21 19H3M21 19V5M21 19H17C17 17.9391 17.4214 16.9217 18.1716 16.1716C18.9217 15.4214 19.9391 15 21 15V19ZM3 19V5M3 19H7C7 17.9391 6.57857 16.9217 5.82843 16.1716C5.07828 15.4214 4.06087 15 3 15V19ZM3 5H21M3 5H7C7 6.06087 6.57857 7.07828 5.82843 7.82843C5.07828 8.57857 4.06087 9 3 9V5ZM21 5H17C17 6.06087 17.4214 7.07828 18.1716 7.82843C18.9217 8.57857 19.9391 9 21 9V5Z" stroke="#773147" stroke-width="2" stroke-linecap="round" stroke-linejoin="round"/>
<path d="M9 10L10 15L12 10L14 15L15 10M8 12H16" stroke="#773147" stroke-width="2" stroke-linecap="round" stroke-linejoin="round"/>
</g>
<defs>
<clipPath id="clip0_404_2350">
<rect width="24" height="24" fill="white"/>
</clipPath>
</defs>
</svg>
