<svg width="24" height="24" viewBox="0 0 24 24" fill="none" xmlns="http://www.w3.org/2000/svg">
<g clip-path="url(#clip0_558_678)">
<path d="M18 21C18 21.076 17.9683 21.2321 17.7382 21.4653C17.5038 21.7028 17.1151 21.9625 16.5558 22.2022C15.4409 22.68 13.8308 23 12 23C10.1692 23 8.55915 22.68 7.44417 22.2022C6.8849 21.9625 6.4962 21.7028 6.26184 21.4653C6.03173 21.2321 6 21.076 6 21C6 20.924 6.03173 20.7679 6.26184 20.5347C6.4962 20.2972 6.8849 20.0375 7.44417 19.7978C8.55915 19.32 10.1692 19 12 19C13.8308 19 15.4409 19.32 16.5558 19.7978C17.1151 20.0375 17.5038 20.2972 17.7382 20.5347C17.9683 20.7679 18 20.924 18 21Z" stroke="#282D38" stroke-width="2"/>
<path d="M8.5563 16.3164L8.55629 16.3163C6.08765 13.4778 5 11.1052 5 9.23379V9.01231C5 5.14517 8.14251 2 12 2C15.8575 2 19 5.14516 19 9.01234V9.23383C19 11.1052 17.9123 13.4778 15.4437 16.3164L15.4437 16.3164C13.9411 18.0442 12.4538 19.3305 12 19.711C11.5461 19.3303 10.0588 18.0441 8.5563 16.3164Z" fill="white" stroke="#282D38" stroke-width="2"/>
<path d="M10 9C10 7.89809 10.8981 7 12 7C13.1019 7 14 7.89809 14 9C14 10.1019 13.1019 11 12 11C10.8981 11 10 10.1019 10 9Z" fill="white" stroke="#282D38" stroke-width="2"/>
</g>
<defs>
<clipPath id="clip0_558_678">
<rect width="24" height="24" fill="white"/>
</clipPath>
</defs>
</svg>
