<svg width="30" height="31" viewBox="0 0 30 31" fill="none" xmlns="http://www.w3.org/2000/svg">
<g clip-path="url(#clip0_988_12833)">
<g filter="url(#filter0_d_988_12833)">
<path d="M15 3.50081C16.6514 3.54657 17.634 5.56202 19.1603 6.19423C20.5158 6.75574 22.4765 5.9495 23.4848 7.01531C24.6202 8.21541 23.8899 10.3354 24.522 11.8617C25.0836 13.2172 27.0401 14.0335 26.9994 15.5002C26.9536 17.1515 24.9382 18.1342 24.306 19.6605C23.7444 21.016 24.5507 22.9767 23.4848 23.985C22.2848 25.1203 20.1648 24.39 18.6385 25.0222C17.283 25.5837 16.4667 27.5402 15 27.4996C13.3486 27.4538 12.366 25.4383 10.8397 24.8061C9.48417 24.2446 7.52354 25.0509 6.51519 23.985C5.37982 22.785 6.11012 20.6649 5.47796 19.1387C4.9164 17.7831 2.95994 16.9668 3.00063 15.5002C3.04638 13.8488 5.06184 12.8661 5.69401 11.3399C6.25557 9.98429 5.44928 8.02366 6.51519 7.01531C7.71519 5.87999 9.83521 6.6103 11.3615 5.97808C12.717 5.41662 13.5333 3.46018 15 3.50081Z" fill="#FF7A00" fill-opacity="0.5" shape-rendering="crispEdges"/>
<path d="M15 3.50081C16.6514 3.54657 17.634 5.56202 19.1603 6.19423C20.5158 6.75574 22.4765 5.9495 23.4848 7.01531C24.6202 8.21541 23.8899 10.3354 24.522 11.8617C25.0836 13.2172 27.0401 14.0335 26.9994 15.5002C26.9536 17.1515 24.9382 18.1342 24.306 19.6605C23.7444 21.016 24.5507 22.9767 23.4848 23.985C22.2848 25.1203 20.1648 24.39 18.6385 25.0222C17.283 25.5837 16.4667 27.5402 15 27.4996C13.3486 27.4538 12.366 25.4383 10.8397 24.8061C9.48417 24.2446 7.52354 25.0509 6.51519 23.985C5.37982 22.785 6.11012 20.6649 5.47796 19.1387C4.9164 17.7831 2.95994 16.9668 3.00063 15.5002C3.04638 13.8488 5.06184 12.8661 5.69401 11.3399C6.25557 9.98429 5.44928 8.02366 6.51519 7.01531C7.71519 5.87999 9.83521 6.6103 11.3615 5.97808C12.717 5.41662 13.5333 3.46018 15 3.50081Z" stroke="#A85E1A" stroke-miterlimit="22.926" stroke-linecap="round" stroke-linejoin="round" shape-rendering="crispEdges"/>
</g>
<path d="M14.9998 22.7002C18.9655 22.7002 22.1998 19.4658 22.1998 15.5002C22.1998 11.5345 18.9655 8.30016 14.9998 8.30016C11.0342 8.30016 7.7998 11.5345 7.7998 15.5002C7.7998 19.4658 11.0342 22.7002 14.9998 22.7002Z" fill="white" fill-opacity="0.6" stroke="#A85E1A" stroke-miterlimit="22.926" stroke-linecap="round" stroke-linejoin="round"/>
<path d="M13.7559 12.4552L16.4801 13.7853L18.0174 12.1642L19.0208 16.3397L14.1246 19.1665L11.2625 16.0642L13.3977 15.5649L13.7559 12.4552Z" fill="#FFE500"/>
<path d="M13.7559 12.4552L16.4801 13.7853L18.0174 12.1642L19.0208 16.3397L14.1246 19.1665L11.2625 16.0642L13.3977 15.5649L13.7559 12.4552Z" fill="url(#paint0_linear_988_12833)" fill-opacity="0.7"/>
<path d="M13.7559 12.4552L16.4801 13.7853L18.0174 12.1642L19.0208 16.3397L14.1246 19.1665L11.2625 16.0642L13.3977 15.5649L13.7559 12.4552Z" stroke="#A85E1A" stroke-miterlimit="22.926" stroke-linecap="round" stroke-linejoin="round"/>
</g>
<defs>
<filter id="filter0_d_988_12833" x="-3.5" y="-2.99982" width="37" height="37" filterUnits="userSpaceOnUse" color-interpolation-filters="sRGB">
<feFlood flood-opacity="0" result="BackgroundImageFix"/>
<feColorMatrix in="SourceAlpha" type="matrix" values="0 0 0 0 0 0 0 0 0 0 0 0 0 0 0 0 0 0 127 0" result="hardAlpha"/>
<feOffset/>
<feGaussianBlur stdDeviation="3"/>
<feComposite in2="hardAlpha" operator="out"/>
<feColorMatrix type="matrix" values="0 0 0 0 0 0 0 0 0 0 0 0 0 0 0 0 0 0 0.3 0"/>
<feBlend mode="normal" in2="BackgroundImageFix" result="effect1_dropShadow_988_12833"/>
<feBlend mode="normal" in="SourceGraphic" in2="effect1_dropShadow_988_12833" result="shape"/>
</filter>
<linearGradient id="paint0_linear_988_12833" x1="13.8067" y1="19.0966" x2="17.9447" y2="11.8895" gradientUnits="userSpaceOnUse">
<stop stop-color="white" stop-opacity="0"/>
<stop offset="0.486971" stop-color="white"/>
<stop offset="1" stop-color="white" stop-opacity="0"/>
</linearGradient>
<clipPath id="clip0_988_12833">
<rect width="30" height="30" fill="white" transform="translate(0 0.500061)"/>
</clipPath>
</defs>
</svg>
