<svg width="32" height="32" viewBox="0 0 32 32" fill="none" xmlns="http://www.w3.org/2000/svg">
<g filter="url(#filter0_d_1568_32484)">
<circle cx="16" cy="16" r="12" fill="#5FCDF0" fill-opacity="0.8" shape-rendering="crispEdges"/>
</g>
<path d="M19.2002 13.7975C19.2002 13.3886 19.4491 13.0209 19.8288 12.869L21.0288 12.389C21.6857 12.1262 22.4002 12.61 22.4002 13.3175V18.0434C22.4002 18.7509 21.6857 19.2346 21.0288 18.9719L19.8288 18.4919C19.4491 18.34 19.2002 17.9723 19.2002 17.5634V13.7975Z" fill="white"/>
<path fill-rule="evenodd" clip-rule="evenodd" d="M12.6001 11.2C10.9432 11.2 9.6001 12.5431 9.6001 14.2V17.16C9.6001 18.8169 10.9432 20.16 12.6001 20.16H15.5601C17.217 20.16 18.5601 18.8169 18.5601 17.16V14.2C18.5601 12.5431 17.217 11.2 15.5601 11.2H12.6001ZM14.0801 16.96C14.787 16.96 15.3601 16.3869 15.3601 15.68C15.3601 14.9731 14.787 14.4 14.0801 14.4C13.3732 14.4 12.8001 14.9731 12.8001 15.68C12.8001 16.3869 13.3732 16.96 14.0801 16.96Z" fill="white"/>
<defs>
<filter id="filter0_d_1568_32484" x="1" y="2" width="30" height="30" filterUnits="userSpaceOnUse" color-interpolation-filters="sRGB">
<feFlood flood-opacity="0" result="BackgroundImageFix"/>
<feColorMatrix in="SourceAlpha" type="matrix" values="0 0 0 0 0 0 0 0 0 0 0 0 0 0 0 0 0 0 127 0" result="hardAlpha"/>
<feOffset dy="1"/>
<feGaussianBlur stdDeviation="1.5"/>
<feComposite in2="hardAlpha" operator="out"/>
<feColorMatrix type="matrix" values="0 0 0 0 0 0 0 0 0 0 0 0 0 0 0 0 0 0 0.2 0"/>
<feBlend mode="normal" in2="BackgroundImageFix" result="effect1_dropShadow_1568_32484"/>
<feBlend mode="normal" in="SourceGraphic" in2="effect1_dropShadow_1568_32484" result="shape"/>
</filter>
</defs>
</svg>
