<svg width="32" height="32" viewBox="0 0 32 32" fill="none" xmlns="http://www.w3.org/2000/svg">
<g filter="url(#filter0_d_1568_32496)">
<circle cx="16" cy="16" r="12" fill="#5081CC" fill-opacity="0.8" shape-rendering="crispEdges"/>
</g>
<path d="M18.0386 11.5944C18.2564 11.4246 18.2954 11.1104 18.1256 10.8926C17.9559 10.6748 17.6417 10.6359 17.4239 10.8056L18.0386 11.5944ZM15.7814 12.0856C15.5636 12.2553 15.5247 12.5695 15.6944 12.7873C15.8642 13.0051 16.1783 13.0441 16.3961 12.8744L15.7814 12.0856ZM15.7813 12.8744C15.9991 13.0441 16.3133 13.0051 16.483 12.7873C16.6528 12.5695 16.6138 12.2553 16.396 12.0856L15.7813 12.8744ZM14.7535 10.8056C14.5357 10.6359 14.2215 10.6748 14.0518 10.8926C13.882 11.1104 13.921 11.4246 14.1388 11.5944L14.7535 10.8056ZM15.5887 12.48C15.5887 12.7562 15.8126 12.98 16.0887 12.98C16.3649 12.98 16.5887 12.7562 16.5887 12.48H15.5887ZM16.5887 9.60001C16.5887 9.32386 16.3649 9.10001 16.0887 9.10001C15.8126 9.10001 15.5887 9.32386 15.5887 9.60001H16.5887ZM16.5887 12.4801C16.5887 12.204 16.3649 11.9801 16.0887 11.9801C15.8126 11.9801 15.5887 12.204 15.5887 12.4801H16.5887ZM15.5887 19.5201C15.5887 19.7963 15.8126 20.0201 16.0887 20.0201C16.3649 20.0201 16.5887 19.7963 16.5887 19.5201H15.5887ZM14.1388 20.4057C13.921 20.5754 13.882 20.8896 14.0518 21.1074C14.2215 21.3252 14.5357 21.3642 14.7535 21.1945L14.1388 20.4057ZM16.396 19.9145C16.6138 19.7447 16.6528 19.4305 16.483 19.2127C16.3133 18.9949 15.9991 18.956 15.7813 19.1257L16.396 19.9145ZM16.3961 19.1257C16.1783 18.956 15.8642 18.9949 15.6944 19.2127C15.5247 19.4305 15.5636 19.7447 15.7814 19.9145L16.3961 19.1257ZM17.4239 21.1945C17.6417 21.3642 17.9559 21.3252 18.1256 21.1074C18.2954 20.8896 18.2564 20.5754 18.0386 20.4057L17.4239 21.1945ZM16.5887 19.5201C16.5887 19.2439 16.3649 19.0201 16.0887 19.0201C15.8126 19.0201 15.5887 19.2439 15.5887 19.5201H16.5887ZM15.5887 22.4001C15.5887 22.6762 15.8126 22.9001 16.0887 22.9001C16.3649 22.9001 16.5887 22.6762 16.5887 22.4001H15.5887ZM11.1792 16.5469C10.9211 16.4487 10.6322 16.5783 10.534 16.8363C10.4357 17.0944 10.5653 17.3833 10.8234 17.4815L11.1792 16.5469ZM12.782 18.2271C13.0401 18.3254 13.3289 18.1958 13.4272 17.9377C13.5254 17.6796 13.3958 17.3908 13.1378 17.2925L12.782 18.2271ZM13.4539 17.8375C13.4966 17.5647 13.31 17.3089 13.0372 17.2662C12.7644 17.2235 12.5086 17.4101 12.4659 17.6829L13.4539 17.8375ZM12.149 19.7085C12.1063 19.9813 12.2928 20.2371 12.5657 20.2798C12.8385 20.3225 13.0943 20.1359 13.137 19.8631L12.149 19.7085ZM13.205 18.196C13.4457 18.0606 13.5311 17.7557 13.3957 17.5151C13.2603 17.2744 12.9555 17.189 12.7148 17.3244L13.205 18.196ZM10.1548 18.7644C9.91409 18.8998 9.82873 19.2046 9.96411 19.4453C10.0995 19.686 10.4044 19.7714 10.645 19.636L10.1548 18.7644ZM12.7148 17.3242C12.4742 17.4596 12.3888 17.7645 12.5242 18.0052C12.6596 18.2458 12.9644 18.3312 13.2051 18.1958L12.7148 17.3242ZM19.4629 14.6758C19.7036 14.5404 19.7889 14.2356 19.6536 13.9949C19.5182 13.7542 19.2133 13.6688 18.9726 13.8042L19.4629 14.6758ZM20.9984 15.4529C21.2565 15.5511 21.5453 15.4216 21.6436 15.1635C21.7418 14.9054 21.6123 14.6166 21.3542 14.5183L20.9984 15.4529ZM19.3956 13.7727C19.1375 13.6745 18.8487 13.804 18.7504 14.0621C18.6522 14.3202 18.7817 14.609 19.0398 14.7073L19.3956 13.7727ZM18.7237 14.163C18.681 14.4358 18.8676 14.6916 19.1404 14.7343C19.4132 14.777 19.669 14.5904 19.7117 14.3176L18.7237 14.163ZM20.0286 12.292C20.0713 12.0191 19.8848 11.7634 19.6119 11.7207C19.3391 11.678 19.0833 11.8646 19.0407 12.1374L20.0286 12.292ZM18.9726 13.8042C18.7319 13.9396 18.6465 14.2444 18.7819 14.4851C18.9173 14.7258 19.2221 14.8111 19.4628 14.6757L18.9726 13.8042ZM22.0228 13.2357C22.2635 13.1004 22.3489 12.7955 22.2135 12.5548C22.0781 12.3141 21.7733 12.2288 21.5326 12.3642L22.0228 13.2357ZM10.8234 14.5183C10.5653 14.6166 10.4357 14.9054 10.534 15.1635C10.6322 15.4216 10.9211 15.5511 11.1792 15.4529L10.8234 14.5183ZM13.1378 14.7073C13.3958 14.609 13.5254 14.3202 13.4272 14.0621C13.3289 13.804 13.0401 13.6745 12.782 13.7727L13.1378 14.7073ZM12.4659 14.3176C12.5086 14.5904 12.7644 14.777 13.0372 14.7343C13.31 14.6916 13.4966 14.4358 13.4539 14.163L12.4659 14.3176ZM13.137 12.1374C13.0943 11.8646 12.8385 11.678 12.5657 11.7207C12.2928 11.7634 12.1063 12.0191 12.149 12.292L13.137 12.1374ZM12.7148 14.6757C12.9555 14.8111 13.2603 14.7258 13.3957 14.4851C13.5311 14.2444 13.4457 13.9396 13.205 13.8042L12.7148 14.6757ZM10.645 12.3642C10.4044 12.2288 10.0995 12.3141 9.96411 12.5548C9.82873 12.7955 9.91409 13.1004 10.1548 13.2357L10.645 12.3642ZM13.2051 13.8042C12.9644 13.6688 12.6596 13.7542 12.5242 13.9949C12.3888 14.2356 12.4742 14.5404 12.7148 14.6758L13.2051 13.8042ZM18.9726 18.1958C19.2133 18.3312 19.5182 18.2458 19.6536 18.0052C19.7889 17.7645 19.7036 17.4596 19.4629 17.3242L18.9726 18.1958ZM21.3542 17.4815C21.6123 17.3833 21.7418 17.0944 21.6436 16.8363C21.5453 16.5783 21.2565 16.4487 20.9984 16.5469L21.3542 17.4815ZM19.0398 17.2925C18.7817 17.3908 18.6522 17.6796 18.7504 17.9377C18.8487 18.1958 19.1375 18.3254 19.3956 18.2271L19.0398 17.2925ZM19.7117 17.6829C19.669 17.4101 19.4132 17.2235 19.1404 17.2662C18.8676 17.3089 18.681 17.5647 18.7237 17.8375L19.7117 17.6829ZM19.0407 19.8631C19.0833 20.1359 19.3391 20.3225 19.6119 20.2798C19.8848 20.2371 20.0713 19.9813 20.0286 19.7085L19.0407 19.8631ZM19.4628 17.3244C19.2221 17.189 18.9173 17.2744 18.7819 17.5151C18.6465 17.7557 18.7319 18.0606 18.9726 18.196L19.4628 17.3244ZM21.5326 19.636C21.7733 19.7714 22.0781 19.686 22.2135 19.4453C22.3489 19.2046 22.2635 18.8998 22.0228 18.7644L21.5326 19.636ZM17.4239 10.8056L15.7814 12.0856L16.3961 12.8744L18.0386 11.5944L17.4239 10.8056ZM16.396 12.0856L14.7535 10.8056L14.1388 11.5944L15.7813 12.8744L16.396 12.0856ZM16.5887 12.48V9.60001H15.5887V12.48H16.5887ZM15.5887 12.4801V19.5201H16.5887V12.4801H15.5887ZM14.7535 21.1945L16.396 19.9145L15.7813 19.1257L14.1388 20.4057L14.7535 21.1945ZM15.7814 19.9145L17.4239 21.1945L18.0386 20.4057L16.3961 19.1257L15.7814 19.9145ZM15.5887 19.5201V22.4001H16.5887V19.5201H15.5887ZM10.8234 17.4815L12.782 18.2271L13.1378 17.2925L11.1792 16.5469L10.8234 17.4815ZM12.4659 17.6829L12.149 19.7085L13.137 19.8631L13.4539 17.8375L12.4659 17.6829ZM12.7148 17.3244L10.1548 18.7644L10.645 19.636L13.205 18.196L12.7148 17.3244ZM13.2051 18.1958L19.4629 14.6758L18.9726 13.8042L12.7148 17.3242L13.2051 18.1958ZM21.3542 14.5183L19.3956 13.7727L19.0398 14.7073L20.9984 15.4529L21.3542 14.5183ZM19.7117 14.3176L20.0286 12.292L19.0407 12.1374L18.7237 14.163L19.7117 14.3176ZM19.4628 14.6757L22.0228 13.2357L21.5326 12.3642L18.9726 13.8042L19.4628 14.6757ZM11.1792 15.4529L13.1378 14.7073L12.782 13.7727L10.8234 14.5183L11.1792 15.4529ZM13.4539 14.163L13.137 12.1374L12.149 12.292L12.4659 14.3176L13.4539 14.163ZM13.205 13.8042L10.645 12.3642L10.1548 13.2357L12.7148 14.6757L13.205 13.8042ZM12.7148 14.6758L18.9726 18.1958L19.4629 17.3242L13.2051 13.8042L12.7148 14.6758ZM20.9984 16.5469L19.0398 17.2925L19.3956 18.2271L21.3542 17.4815L20.9984 16.5469ZM18.7237 17.8375L19.0407 19.8631L20.0286 19.7085L19.7117 17.6829L18.7237 17.8375ZM18.9726 18.196L21.5326 19.636L22.0228 18.7644L19.4628 17.3244L18.9726 18.196Z" fill="white"/>
<defs>
<filter id="filter0_d_1568_32496" x="1" y="2" width="30" height="30" filterUnits="userSpaceOnUse" color-interpolation-filters="sRGB">
<feFlood flood-opacity="0" result="BackgroundImageFix"/>
<feColorMatrix in="SourceAlpha" type="matrix" values="0 0 0 0 0 0 0 0 0 0 0 0 0 0 0 0 0 0 127 0" result="hardAlpha"/>
<feOffset dy="1"/>
<feGaussianBlur stdDeviation="1.5"/>
<feComposite in2="hardAlpha" operator="out"/>
<feColorMatrix type="matrix" values="0 0 0 0 0 0 0 0 0 0 0 0 0 0 0 0 0 0 0.2 0"/>
<feBlend mode="normal" in2="BackgroundImageFix" result="effect1_dropShadow_1568_32496"/>
<feBlend mode="normal" in="SourceGraphic" in2="effect1_dropShadow_1568_32496" result="shape"/>
</filter>
</defs>
</svg>
