<svg width="24" height="24" viewBox="0 0 24 24" fill="none" xmlns="http://www.w3.org/2000/svg">
<g clip-path="url(#clip0_404_2338)">
<path d="M19 17H20C20.2652 17 20.5196 16.8946 20.7071 16.7071C20.8946 16.5196 21 16.2652 21 16" stroke="#773147" stroke-width="2" stroke-linecap="round" stroke-linejoin="round"/>
<path d="M9.99999 7.00002H7.61999C7.43363 6.99873 7.25061 7.04954 7.09158 7.14672C6.93256 7.2439 6.80386 7.38359 6.71999 7.55002L4.99999 11L3.54999 11.72C3.38356 11.8039 3.24387 11.9326 3.14669 12.0916C3.04951 12.2506 2.9987 12.4337 2.99999 12.62V16C2.99999 16.2652 3.10535 16.5196 3.29289 16.7071C3.48042 16.8947 3.73478 17 3.99999 17H4.99999" stroke="#773147" stroke-width="2" stroke-linecap="round" stroke-linejoin="round"/>
<path d="M9 17H15M9 17C9 16.6044 8.8827 16.2178 8.66294 15.8889C8.44318 15.56 8.13082 15.3036 7.76537 15.1522C7.39992 15.0009 6.99778 14.9613 6.60982 15.0384C6.22186 15.1156 5.86549 15.3061 5.58579 15.5858C5.30608 15.8655 5.1156 16.2219 5.03843 16.6098C4.96126 16.9978 5.00087 17.3999 5.15224 17.7654C5.30362 18.1308 5.55996 18.4432 5.88886 18.6629C6.21776 18.8827 6.60444 19 7 19C7.53043 19 8.03914 18.7893 8.41421 18.4142C8.78929 18.0391 9 17.5304 9 17ZM19 17C19 16.6044 18.8827 16.2178 18.6629 15.8889C18.4432 15.56 18.1308 15.3036 17.7654 15.1522C17.3999 15.0009 16.9978 14.9613 16.6098 15.0384C16.2219 15.1156 15.8655 15.3061 15.5858 15.5858C15.3061 15.8655 15.1156 16.2219 15.0384 16.6098C14.9613 16.9978 15.0009 17.3999 15.1522 17.7654C15.3036 18.1308 15.56 18.4432 15.8889 18.6629C16.2178 18.8827 16.6044 19 17 19C17.5304 19 18.0391 18.7893 18.4142 18.4142C18.7893 18.0391 19 17.5304 19 17Z" stroke="#773147" stroke-width="2" stroke-linecap="round" stroke-linejoin="round"/>
<path d="M18.12 10.17L21 13M16 5C16.5933 5 17.1734 5.17595 17.6667 5.50559C18.1601 5.83524 18.5446 6.30377 18.7716 6.85195C18.9987 7.40013 19.0581 8.00333 18.9424 8.58527C18.8266 9.16721 18.5409 9.70176 18.1213 10.1213C17.7018 10.5409 17.1672 10.8266 16.5853 10.9424C16.0033 11.0581 15.4001 10.9987 14.8519 10.7716C14.3038 10.5446 13.8352 10.1601 13.5056 9.66671C13.1759 9.17336 13 8.59334 13 8C13 7.20435 13.3161 6.44129 13.8787 5.87868C14.4413 5.31607 15.2044 5 16 5Z" stroke="#773147" stroke-width="2" stroke-linecap="round" stroke-linejoin="round"/>
</g>
<defs>
<clipPath id="clip0_404_2338">
<rect width="24" height="24" fill="white"/>
</clipPath>
</defs>
</svg>
