<svg width="20" height="21" viewBox="0 0 20 21" fill="none" xmlns="http://www.w3.org/2000/svg">
<path d="M11.4142 18.0352C10.6332 18.8162 9.36684 18.8162 8.58579 18.0352L4.69667 14.146C3.64779 13.0971 2.93349 11.7608 2.64411 10.3059C2.35473 8.85106 2.50326 7.34307 3.07092 5.97263C3.63858 4.60219 4.59987 3.43085 5.83324 2.60674C7.0666 1.78264 8.51665 1.34277 10 1.34277C11.4834 1.34277 12.9334 1.78264 14.1668 2.60674C15.4001 3.43085 16.3614 4.60219 16.9291 5.97263C17.4968 7.34307 17.6453 8.85106 17.3559 10.3059C17.0665 11.7608 16.3522 13.0971 15.3033 14.146L11.4142 18.0352ZM14.125 12.9677C14.9408 12.1519 15.4963 11.1125 15.7213 9.98094C15.9463 8.8494 15.8308 7.67654 15.3892 6.61067C14.9477 5.5448 14.2 4.6338 13.2408 3.99285C12.2815 3.3519 11.1537 3.0098 10 3.0098C8.8463 3.0098 7.71851 3.3519 6.75924 3.99285C5.79997 4.6338 5.05229 5.5448 4.61076 6.61067C4.16923 7.67654 4.05368 8.8494 4.27871 9.98094C4.50374 11.1125 5.05926 12.1519 5.875 12.9677L8.58579 15.6785C9.36684 16.4595 10.6332 16.4595 11.4142 15.6785L14.125 12.9677ZM10 10.5094C9.55798 10.5094 9.13405 10.3338 8.82149 10.0212C8.50893 9.70866 8.33334 9.28474 8.33334 8.84271C8.33334 8.40068 8.50893 7.97676 8.82149 7.6642C9.13405 7.35164 9.55798 7.17604 10 7.17604C10.442 7.17604 10.866 7.35164 11.1785 7.6642C11.4911 7.97676 11.6667 8.40068 11.6667 8.84271C11.6667 9.28474 11.4911 9.70866 11.1785 10.0212C10.866 10.3338 10.442 10.5094 10 10.5094Z" fill="#3F3F45"/>
</svg>
