<svg width="40" height="40" viewBox="0 0 40 40" fill="none" xmlns="http://www.w3.org/2000/svg">
<path d="M25.8788 24C25.7033 23.2519 25.7106 22.4371 25.9885 21.5853C26.3614 20.4371 27.2242 19.4964 28.299 18.9705C29.2276 18.5187 30.1123 18.4446 30.924 18.5853C31.1433 18.6224 31.3334 18.4446 31.3334 18.215V8.14845C31.3334 7.33365 30.6753 6.66699 29.871 6.66699H10.1291C9.32481 6.66699 8.66675 7.33365 8.66675 8.14845V18.2075C8.66675 18.4298 8.85686 18.6075 9.07621 18.5705C10.0194 18.4298 11.0577 18.5779 12.1691 19.3335C12.9515 19.8668 13.573 20.6371 13.8728 21.5408C14.1652 22.4075 14.1799 23.2445 13.9971 24C13.9459 24.2297 14.1214 24.4445 14.3553 24.4445H15.3059C15.4741 24.4445 15.6203 24.326 15.6569 24.1556C16.1248 22.2001 17.865 20.7482 19.9416 20.7482C22.0181 20.7482 23.751 22.2075 24.2263 24.1556C24.2702 24.326 24.4091 24.4445 24.5773 24.4445H25.5278C25.7618 24.4445 25.9373 24.2297 25.8861 24H25.8788ZM23.5024 15.7483L19.0788 18.489C18.3622 18.9335 17.4336 18.4075 17.4336 17.5557V12.0743C17.4336 11.2225 18.3549 10.6966 19.0788 11.141L23.5024 13.8817C24.1898 14.3113 24.1898 15.3187 23.5024 15.7483Z" fill="#C8C8D7"/>
<path d="M20 27.913C21.8304 27.913 23.316 26.5636 23.316 24.9086C23.316 23.2536 21.8304 21.9043 20 21.9043C18.1696 21.9043 16.6922 23.2536 16.6922 24.9086C16.6922 26.5636 18.1778 27.913 20 27.913ZM23.2996 29.4263H16.7004C15.2066 29.4263 14 30.5222 14 31.879V32.5872C14 32.9972 14.3694 33.3327 14.8208 33.3327H25.1792C25.6306 33.3327 26 32.9972 26 32.5872V31.879C26 30.5222 24.7934 29.4263 23.2996 29.4263Z" fill="#773147"/>
<path d="M30.6667 25.3739C32.4971 25.3739 33.9828 24.0246 33.9828 22.3696C33.9828 20.7146 32.4971 19.3652 30.6667 19.3652C28.8364 19.3652 27.359 20.7146 27.359 22.3696C27.359 24.0246 28.8446 25.3739 30.6667 25.3739ZM33.9663 26.8872H27.3672C25.8733 26.8872 24.6667 27.9831 24.6667 29.3399V30.0481C24.6667 30.4582 25.0361 30.7936 25.4875 30.7936H35.846C36.2974 30.7936 36.6667 30.4582 36.6667 30.0481V29.3399C36.6667 27.9831 35.4602 26.8872 33.9663 26.8872Z" fill="#773147"/>
<path d="M9.33337 25.3739C11.1637 25.3739 12.6494 24.0246 12.6494 22.3696C12.6494 20.7146 11.1637 19.3652 9.33337 19.3652C7.503 19.3652 6.02558 20.7146 6.02558 22.3696C6.02558 24.0246 7.51121 25.3739 9.33337 25.3739ZM12.633 26.8872H6.03379C4.53994 26.8872 3.33337 27.9831 3.33337 29.3399V30.0481C3.33337 30.4582 3.70273 30.7936 4.15417 30.7936H14.5126C14.964 30.7936 15.3334 30.4582 15.3334 30.0481V29.3399C15.3334 27.9831 14.1268 26.8872 12.633 26.8872Z" fill="#773147"/>
</svg>
