<svg width="56" height="56" viewBox="0 0 56 56" fill="none" xmlns="http://www.w3.org/2000/svg">
<path fill-rule="evenodd" clip-rule="evenodd" d="M11.516 17.7348H17.4056V20.9344H11.516V17.7348Z" fill="#B6BDBF"/>
<path fill-rule="evenodd" clip-rule="evenodd" d="M11.516 8.90085H17.4056V12.1005H11.516V8.90085Z" fill="#B6BDBF"/>
<path fill-rule="evenodd" clip-rule="evenodd" d="M21.303 49.004C21.303 49.551 21.7522 50.0002 22.2993 50.0002H25.3784C25.9255 50.0002 26.3722 49.551 26.3722 49.004V45.714H21.303V49.004Z" fill="#2E3B3B"/>
<path fill-rule="evenodd" clip-rule="evenodd" d="M42.7693 49.004C42.7693 49.551 43.2185 50.0002 43.7656 50.0002H46.8447C47.3918 50.0002 47.841 49.551 47.841 49.004V45.714H42.7693V49.004Z" fill="#2E3B3B"/>
<path fill-rule="evenodd" clip-rule="evenodd" d="M9.21436 7.69646V46.23L11.0458 47.4484L12.6072 46.23V20.9341V17.7345V12.1006V8.90103V7.69646C12.6072 6.76285 11.8443 6 10.9107 6C9.97712 6 9.21436 6.76285 9.21436 7.69646Z" fill="#B6BDBF"/>
<rect x="15.2629" y="7.15765" width="16.2103" height="16.2103" rx="2" fill="#00B3FF"/>
<path d="M23.3681 7.15765H29.4732C30.5778 7.15765 31.4732 8.05308 31.4732 9.15765V21.3679C31.4732 22.4725 30.5778 23.3679 29.4732 23.3679H23.3681V7.15765Z" fill="#00A3E8"/>
<path d="M23.8114 15.7101H23.2102C22.1056 15.7101 21.2102 16.6056 21.2102 17.7101L21.2102 18.9761H20.8944L20.8944 11.6495H23.8114C24.9301 11.6495 25.8417 12.5611 25.8417 13.6798C25.8417 14.7986 24.9301 15.7101 23.8114 15.7101Z" stroke="white" stroke-width="2"/>
<path fill-rule="evenodd" clip-rule="evenodd" d="M19.1449 33.3135C19.1449 34.4428 20.0609 35.3663 21.1826 35.3663H22.1939L24.618 33.3135L24.1413 31.2607H21.1826C20.0609 31.2607 19.1449 32.1842 19.1449 33.3135Z" fill="#EA344A"/>
<path fill-rule="evenodd" clip-rule="evenodd" d="M45.003 31.2607L44.8675 33.1604L46.9478 35.3663H47.9617C49.0809 35.3663 49.9994 34.4429 49.9994 33.3136C49.9994 32.1843 49.0809 31.2608 47.9617 31.2608H45.003V31.2607Z" fill="#EA344A"/>
<path fill-rule="evenodd" clip-rule="evenodd" d="M22.194 35.3661H46.9478L45.0029 31.2605L43.9539 29.0471C42.8773 26.776 42.6665 26.8036 40.0968 26.8112H29.045C26.4777 26.8036 26.2669 26.776 25.1904 29.0471L24.1415 31.2605L22.194 35.3661Z" fill="#F0F7FF"/>
<path d="M46.5256 36.1045H34.9469V26.8427H40.9663C42.569 26.8345 42.7005 26.8047 43.3719 29.2634L45.3126 32.983L46.5256 36.1045Z" fill="#D7E9FC"/>
<path d="M48.1674 37.9361L46.9477 35.3663L46.8846 35.2455C46.8846 35.2455 43.8491 28.8425 43.827 28.7964C43.3454 27.7898 42.962 27.0975 42.3025 26.7284C41.6668 26.3716 40.94 26.3734 39.6191 26.3777H29.4348C28.1148 26.3734 27.3879 26.3716 26.7523 26.7284C26.0936 27.0975 25.7103 27.7898 25.2287 28.7964C25.2065 28.8425 22.1685 35.3955 22.1685 35.3955L22.1802 35.3953L20.9768 37.9361C20.5427 38.8496 20.5879 38.7968 20.5879 39.8082V45.5926C20.5879 46.3254 20.613 46.5989 21.3031 46.5989H26.3723H42.7694H47.8411C48.5313 46.5989 48.5538 46.3254 48.5538 45.5926V39.8081C48.5539 38.7968 48.6015 38.8495 48.1674 37.9361ZM23.6477 35.1635C23.6477 35.1635 26.5753 28.9938 26.6789 28.7964C26.9471 28.2829 27.1551 27.9917 27.388 27.8607C27.7262 27.6712 28.3672 27.673 29.4304 27.6765H39.6228C40.687 27.673 41.3288 27.6712 41.6678 27.8607C41.9006 27.9917 42.1078 28.2829 42.377 28.7964C42.4805 28.9938 45.402 35.1507 45.402 35.1507L23.6477 35.1635Z" fill="#FF5F7B"/>
<path d="M37.9387 43.7H31.2057C30.8389 43.7 30.5418 43.4028 30.5418 43.0361C30.5418 42.6694 30.839 42.3721 31.2057 42.3721H37.9387C38.3055 42.3721 38.6027 42.6694 38.6027 43.0361C38.6027 43.4027 38.3055 43.7 37.9387 43.7ZM37.9387 40.6986H31.2057C30.8389 40.6986 30.5418 40.4014 30.5418 40.0347C30.5418 39.668 30.839 39.3707 31.2057 39.3707H37.9387C38.3055 39.3707 38.6027 39.668 38.6027 40.0347C38.6027 40.4014 38.3055 40.6986 37.9387 40.6986Z" fill="#2E3B3B"/>
<path fill-rule="evenodd" clip-rule="evenodd" d="M40.8044 40.9092C40.8044 42.0837 41.7555 43.0347 42.9274 43.0347C44.1019 43.0347 45.053 42.0836 45.053 40.9092C45.053 39.7348 44.1018 38.7837 42.9274 38.7837C41.7554 38.7837 40.8044 39.7348 40.8044 40.9092Z" fill="#D7E9FC"/>
<path fill-rule="evenodd" clip-rule="evenodd" d="M24.0886 40.9092C24.0886 42.0837 25.0422 43.0347 26.2141 43.0347C27.3886 43.0347 28.3396 42.0836 28.3396 40.9092C28.3396 39.7348 27.3885 38.7837 26.2141 38.7837C25.0421 38.7837 24.0886 39.7348 24.0886 40.9092Z" fill="#D7E9FC"/>
<path d="M42.93 43.6997C41.3919 43.6997 40.1405 42.4483 40.1405 40.9101C40.1405 39.372 41.3918 38.1206 42.93 38.1206C44.4668 38.1206 45.7171 39.372 45.7171 40.9101C45.7171 42.4483 44.4669 43.6997 42.93 43.6997ZM42.93 39.4485C42.1242 39.4485 41.4685 40.1042 41.4685 40.9101C41.4685 41.716 42.1242 42.3717 42.93 42.3717C43.7345 42.3717 44.3891 41.716 44.3891 40.9101C44.3891 40.1042 43.7346 39.4485 42.93 39.4485Z" fill="#2E3B3B"/>
<path d="M26.214 43.6997C24.6772 43.6997 23.4269 42.4483 23.4269 40.9101C23.4269 39.372 24.6772 38.1206 26.214 38.1206C27.7522 38.1206 29.0035 39.372 29.0035 40.9101C29.0035 42.4483 27.7522 43.6997 26.214 43.6997ZM26.214 39.4485C25.4095 39.4485 24.7549 40.1042 24.7549 40.9101C24.7549 41.716 25.4095 42.3717 26.214 42.3717C27.0199 42.3717 27.6756 41.716 27.6756 40.9101C27.6755 40.1042 27.0199 39.4485 26.214 39.4485Z" fill="#2E3B3B"/>
<path fill-rule="evenodd" clip-rule="evenodd" d="M6.38396 49.9919H15.4383C15.6516 49.9919 15.8247 49.8187 15.8247 49.6079V48.1097C15.8247 47.0758 14.9765 46.2301 13.9426 46.2301H7.88217C6.8457 46.2301 6 47.0759 6 48.1098V49.608C6 49.8187 6.17316 49.9919 6.38396 49.9919Z" fill="#2E3B3B"/>
</svg>
