<svg width="24" height="24" viewBox="0 0 24 24" fill="none" xmlns="http://www.w3.org/2000/svg">
<path fill-rule="evenodd" clip-rule="evenodd" d="M4 9.62801L14.4337 6.90717V16.8827L10.1886 15.7164C10.2591 16.764 9.48877 17.6798 8.44463 17.7897C7.38124 17.6746 6.60552 16.7297 6.69979 15.6642V14.9392L4 14.1619V9.62801Z" stroke="#282D38" stroke-width="1.4" stroke-linecap="round" stroke-linejoin="round"/>
<path d="M20 12.0953C20.3866 12.0953 20.7 11.7819 20.7 11.3953C20.7 11.0087 20.3866 10.6953 20 10.6953V12.0953ZM18.4303 10.6953C18.0437 10.6953 17.7303 11.0087 17.7303 11.3953C17.7303 11.7819 18.0437 12.0953 18.4303 12.0953V10.6953ZM17.6626 16.3763C17.9342 16.6514 18.3774 16.6542 18.6525 16.3826C18.9276 16.111 18.9305 15.6678 18.6589 15.3927L17.6626 16.3763ZM17.5507 14.2702C17.2791 13.995 16.8359 13.9922 16.5607 14.2638C16.2856 14.5354 16.2828 14.9786 16.5544 15.2537L17.5507 14.2702ZM18.6602 7.39934C18.932 7.12443 18.9295 6.68122 18.6546 6.4094C18.3797 6.13759 17.9365 6.14009 17.6647 6.415L18.6602 7.39934ZM16.5548 7.53753C16.2829 7.81244 16.2854 8.25565 16.5604 8.52746C16.8353 8.79928 17.2785 8.79677 17.5503 8.52186L16.5548 7.53753ZM15.1336 16.8824C15.1336 16.4958 14.8202 16.1824 14.4336 16.1824C14.047 16.1824 13.7336 16.4958 13.7336 16.8824H15.1336ZM13.7336 17.7893C13.7336 18.1759 14.047 18.4893 14.4336 18.4893C14.8202 18.4893 15.1336 18.1759 15.1336 17.7893H13.7336ZM13.7336 6.90695C13.7336 7.29355 14.047 7.60695 14.4336 7.60695C14.8202 7.60695 15.1336 7.29355 15.1336 6.90695H13.7336ZM15.1336 6C15.1336 5.6134 14.8202 5.3 14.4336 5.3C14.047 5.3 13.7336 5.6134 13.7336 6H15.1336ZM3.3 9.628C3.3 10.0146 3.6134 10.328 4 10.328C4.3866 10.328 4.7 10.0146 4.7 9.628H3.3ZM4.7 8.72105C4.7 8.33445 4.3866 8.02105 4 8.02105C3.6134 8.02105 3.3 8.33445 3.3 8.72105H4.7ZM3.3 15.0683C3.3 15.4549 3.6134 15.7683 4 15.7683C4.3866 15.7683 4.7 15.4549 4.7 15.0683H3.3ZM4.7 14.1613C4.7 13.7747 4.3866 13.4613 4 13.4613C3.6134 13.4613 3.3 13.7747 3.3 14.1613H4.7ZM6.85203 14.2559C6.47468 14.1718 6.10063 14.4096 6.01656 14.7869C5.93249 15.1643 6.17025 15.5383 6.54759 15.6224L6.85203 14.2559ZM10.0364 16.3996C10.4138 16.4837 10.7878 16.246 10.8719 15.8686C10.956 15.4913 10.7182 15.1172 10.3409 15.0331L10.0364 16.3996ZM20 10.6953H18.4303V12.0953H20V10.6953ZM18.6589 15.3927L17.5507 14.2702L16.5544 15.2537L17.6626 16.3763L18.6589 15.3927ZM17.6647 6.415L16.5548 7.53753L17.5503 8.52186L18.6602 7.39934L17.6647 6.415ZM13.7336 16.8824V17.7893H15.1336V16.8824H13.7336ZM15.1336 6.90695V6H13.7336V6.90695H15.1336ZM4.7 9.628V8.72105H3.3V9.628H4.7ZM4.7 15.0683V14.1613H3.3V15.0683H4.7ZM6.54759 15.6224L10.0364 16.3996L10.3409 15.0331L6.85203 14.2559L6.54759 15.6224Z" fill="#282D38"/>
</svg>
