<svg width="48" height="48" viewBox="0 0 48 48" fill="none" xmlns="http://www.w3.org/2000/svg">
<path fill-rule="evenodd" clip-rule="evenodd" d="M41.983 24.9419C41.4888 24.9164 41.1111 24.4949 41.1111 24C41.1111 23.5051 41.4888 23.0836 41.983 23.0581L43.8767 22.9604C44.4815 22.9292 45 23.3944 45 24C45 24.6056 44.4815 25.0708 43.8767 25.0396L41.983 24.9419ZM38.8205 15.442C39.0684 15.8703 39.6066 16.0476 40.0473 15.8226L41.7334 14.9618C42.2744 14.6856 42.4907 14.0199 42.1865 13.4942C41.8822 12.9684 41.1991 12.8272 40.69 13.1585L39.1033 14.191C38.6886 14.4609 38.5727 15.0137 38.8205 15.442ZM32.558 9.17946C32.9863 9.42731 33.5391 9.31143 33.809 8.89667L34.8415 7.30997C35.1728 6.80085 35.0316 6.11777 34.5058 5.81353C33.9801 5.50929 33.3144 5.72564 33.0382 6.26663L32.1774 7.95266C31.9524 8.39339 32.1297 8.93161 32.558 9.17946ZM24 6.88889C24.4949 6.88889 24.9164 6.51125 24.9419 6.01698L25.0396 4.12327C25.0708 3.51848 24.6056 3 24 3C23.3944 3 22.9292 3.51848 22.9604 4.12327L23.0581 6.01698C23.0836 6.51125 23.5051 6.88889 24 6.88889ZM15.442 9.17946C15.8703 8.93161 16.0476 8.39339 15.8226 7.95266L14.9618 6.26663C14.6856 5.72564 14.0199 5.5093 13.4942 5.81353C12.9684 6.11777 12.8272 6.80085 13.1585 7.30997L14.191 8.89667C14.4609 9.31143 15.0137 9.42731 15.442 9.17946ZM9.17946 15.442C9.42731 15.0137 9.31143 14.4609 8.89667 14.191L7.30997 13.1585C6.80085 12.8272 6.11777 12.9684 5.81353 13.4942C5.50929 14.0199 5.72564 14.6856 6.26663 14.9618L7.95266 15.8226C8.39339 16.0476 8.93161 15.8703 9.17946 15.442ZM6.01698 23.0581C6.51125 23.0836 6.88889 23.5051 6.88889 24C6.88889 24.4949 6.51125 24.9164 6.01698 24.9419L4.12327 25.0396C3.51848 25.0708 3 24.6056 3 24C3 23.3944 3.51848 22.9292 4.12327 22.9604L6.01698 23.0581ZM9.17946 32.558C8.93161 32.1297 8.39339 31.9524 7.95266 32.1774L6.26663 33.0382C5.72564 33.3144 5.5093 33.9801 5.81353 34.5058C6.11777 35.0316 6.80085 35.1728 7.30997 34.8415L8.89667 33.809C9.31143 33.5391 9.42731 32.9863 9.17946 32.558ZM15.442 38.8205C15.0137 38.5727 14.4609 38.6886 14.191 39.1033L13.1585 40.69C12.8272 41.1991 12.9684 41.8822 13.4942 42.1865C14.0199 42.4907 14.6856 42.2744 14.9618 41.7334L15.8226 40.0473C16.0476 39.6066 15.8703 39.0684 15.442 38.8205ZM24 41.1111C23.5051 41.1111 23.0836 41.4888 23.0581 41.983L22.9604 43.8767C22.9292 44.4815 23.3944 45 24 45C24.6056 45 25.0708 44.4815 25.0396 43.8767L24.9419 41.983C24.9164 41.4888 24.4949 41.1111 24 41.1111ZM32.558 38.8205C32.1297 39.0684 31.9524 39.6066 32.1774 40.0473L33.0382 41.7334C33.3144 42.2744 33.9801 42.4907 34.5058 42.1865C35.0316 41.8822 35.1728 41.1992 34.8415 40.69L33.809 39.1033C33.5391 38.6886 32.9863 38.5727 32.558 38.8205ZM38.8205 32.558C38.5727 32.9863 38.6886 33.5391 39.1033 33.809L40.69 34.8415C41.1991 35.1728 41.8822 35.0316 42.1865 34.5058C42.4907 33.9801 42.2744 33.3144 41.7334 33.0382L40.0473 32.1774C39.6066 31.9524 39.0684 32.1297 38.8205 32.558Z" fill="#FFD400"/>
<path d="M38.3889 24C38.3889 31.9467 31.9468 38.3889 24 38.3889C16.0532 38.3889 9.61111 31.9467 9.61111 24C9.61111 16.0532 16.0532 9.61108 24 9.61108C31.9468 9.61108 38.3889 16.0532 38.3889 24Z" fill="#FFD400"/>
</svg>
