<svg width="24" height="24" viewBox="0 0 24 24" fill="none" xmlns="http://www.w3.org/2000/svg">
<path d="M4.31813 9.14972C4.23071 9.52631 4.46513 9.90245 4.84172 9.98987C5.21831 10.0773 5.59445 9.84287 5.68187 9.46628L4.31813 9.14972ZM6 5V4.3C5.67438 4.3 5.39176 4.52453 5.31813 4.84172L6 5ZM10 5.7C10.3866 5.7 10.7 5.3866 10.7 5C10.7 4.6134 10.3866 4.3 10 4.3V5.7ZM5.7 9.30801C5.7 8.92141 5.3866 8.60801 5 8.60801C4.6134 8.60801 4.3 8.92141 4.3 9.30801H5.7ZM5 19H4.3C4.3 19.3866 4.6134 19.7 5 19.7V19ZM19 19V19.7C19.3866 19.7 19.7 19.3866 19.7 19H19ZM19.7 9.30801C19.7 8.92141 19.3866 8.60801 19 8.60801C18.6134 8.60801 18.3 8.92141 18.3 9.30801H19.7ZM5 8.60807C4.6134 8.60807 4.3 8.92147 4.3 9.30807C4.3 9.69467 4.6134 10.0081 5 10.0081V8.60807ZM10 10.0081C10.3866 10.0081 10.7 9.69467 10.7 9.30807C10.7 8.92147 10.3866 8.60807 10 8.60807V10.0081ZM9.99992 8.60807C9.61332 8.60807 9.29992 8.92147 9.29992 9.30807C9.29992 9.69467 9.61332 10.0081 9.99992 10.0081V8.60807ZM13.9999 10.0081C14.3865 10.0081 14.6999 9.69467 14.6999 9.30807C14.6999 8.92147 14.3865 8.60807 13.9999 8.60807V10.0081ZM9.29998 9.308C9.29998 9.6946 9.61338 10.008 9.99998 10.008C10.3866 10.008 10.7 9.6946 10.7 9.308H9.29998ZM10.7 5C10.7 4.6134 10.3866 4.3 9.99998 4.3C9.61338 4.3 9.29998 4.6134 9.29998 5H10.7ZM10.6999 9.30801C10.6999 8.92141 10.3865 8.60801 9.99992 8.60801C9.61332 8.60801 9.29992 8.92141 9.29992 9.30801H10.6999ZM9.99992 13H9.29992C9.29992 13.2426 9.42554 13.4679 9.63191 13.5955C9.83828 13.723 10.096 13.7346 10.313 13.6261L9.99992 13ZM11.9999 12L12.313 11.3739C12.1159 11.2754 11.8839 11.2754 11.6869 11.3739L11.9999 12ZM13.9999 13L13.6869 13.6261C13.9039 13.7346 14.1616 13.723 14.3679 13.5955C14.5743 13.4679 14.6999 13.2426 14.6999 13H13.9999ZM14.6999 9.30801C14.6999 8.92141 14.3865 8.60801 13.9999 8.60801C13.6133 8.60801 13.2999 8.92141 13.2999 9.30801H14.6999ZM9.99992 4.30007C9.61332 4.30007 9.29992 4.61347 9.29992 5.00007C9.29992 5.38666 9.61332 5.70007 9.99992 5.70007V4.30007ZM13.9999 5.70007C14.3865 5.70007 14.6999 5.38666 14.6999 5.00007C14.6999 4.61347 14.3865 4.30007 13.9999 4.30007V5.70007ZM18.3182 9.46628C18.4056 9.84287 18.7818 10.0773 19.1584 9.98987C19.5349 9.90245 19.7694 9.52631 19.682 9.14972L18.3182 9.46628ZM18.0001 5L18.682 4.84172C18.6083 4.52453 18.3257 4.3 18.0001 4.3V5ZM14.0001 4.3C13.6135 4.3 13.3001 4.6134 13.3001 5C13.3001 5.3866 13.6135 5.7 14.0001 5.7V4.3ZM19.0001 10.0081C19.3867 10.0081 19.7001 9.69467 19.7001 9.30807C19.7001 8.92147 19.3867 8.60807 19.0001 8.60807V10.0081ZM14.0001 8.60807C13.6135 8.60807 13.3001 8.92147 13.3001 9.30807C13.3001 9.69467 13.6135 10.0081 14.0001 10.0081V8.60807ZM13.2999 9.308C13.2999 9.6946 13.6133 10.008 13.9999 10.008C14.3865 10.008 14.6999 9.6946 14.6999 9.308H13.2999ZM14.6999 5C14.6999 4.6134 14.3865 4.3 13.9999 4.3C13.6133 4.3 13.2999 4.6134 13.2999 5H14.6999ZM5.68187 9.46628L6.68187 5.15828L5.31813 4.84172L4.31813 9.14972L5.68187 9.46628ZM6 5.7H10V4.3H6V5.7ZM4.3 9.30801V19H5.7V9.30801H4.3ZM5 19.7H19V18.3H5V19.7ZM19.7 19V9.30801H18.3V19H19.7ZM5 10.0081H10V8.60807H5V10.0081ZM9.99992 10.0081H13.9999V8.60807H9.99992V10.0081ZM10.7 9.308V5H9.29998V9.308H10.7ZM9.29992 9.30801V13H10.6999V9.30801H9.29992ZM10.313 13.6261L12.313 12.6261L11.6869 11.3739L9.68687 12.3739L10.313 13.6261ZM11.6869 12.6261L13.6869 13.6261L14.313 12.3739L12.313 11.3739L11.6869 12.6261ZM14.6999 13V9.30801H13.2999V13H14.6999ZM9.99992 5.70007H13.9999V4.30007H9.99992V5.70007ZM19.682 9.14972L18.682 4.84172L17.3182 5.15828L18.3182 9.46628L19.682 9.14972ZM18.0001 4.3H14.0001V5.7H18.0001V4.3ZM19.0001 8.60807H14.0001V10.0081H19.0001V8.60807ZM14.6999 9.308V5H13.2999V9.308H14.6999Z" fill="#282D38"/>
</svg>
