<svg width="56" height="56" viewBox="0 0 56 56" fill="none" xmlns="http://www.w3.org/2000/svg">
<circle cx="20" cy="28" r="20" fill="#F1F1F9"/>
<path d="M53.6438 17.457H30.7358V39.4051H53.6438V17.457Z" fill="#E0E7F4"/>
<path d="M53.5943 39.9258H30.6864C30.3849 39.9258 30.1428 39.6915 30.1428 39.3998V17.4518C30.1428 17.1601 30.3849 16.9258 30.6864 16.9258H53.5943C53.8958 16.9258 54.1379 17.1601 54.1379 17.4518V39.3998C54.1379 39.6915 53.8958 39.9258 53.5943 39.9258ZM31.2299 38.8738H53.0508V17.9778H31.2299V38.8738Z" fill="#282D38"/>
<rect x="39.1428" y="19.9434" width="6" height="1" rx="0.5" fill="#282D38"/>
<rect x="39.1428" y="26.9434" width="6" height="1" rx="0.5" fill="#282D38"/>
<rect x="39.1428" y="34.9434" width="6" height="1" rx="0.5" fill="#282D38"/>
<path d="M53.5943 25.3322H30.6864C30.3849 25.3322 30.1428 25.0979 30.1428 24.8063C30.1428 24.5146 30.3849 24.2803 30.6864 24.2803H53.5943C53.8958 24.2803 54.1379 24.5146 54.1379 24.8063C54.1379 25.0979 53.8958 25.3322 53.5943 25.3322Z" fill="#282D38"/>
<path d="M53.5943 32.5764H30.6864C30.3849 32.5764 30.1428 32.3421 30.1428 32.0504C30.1428 31.7587 30.3849 31.5244 30.6864 31.5244H53.5943C53.8958 31.5244 54.1379 31.7587 54.1379 32.0504C54.1379 32.3421 53.8958 32.5764 53.5943 32.5764Z" fill="#282D38"/>
<path d="M14.4787 19.7H14.48H35.801C37.2664 19.7 38.6601 20.5319 39.715 22.0105C40.7689 23.4878 41.4428 25.5645 41.4428 27.8906V28.0674C41.4428 32.9996 39.669 35.2394 38.0425 36.2897C37.2071 36.8292 36.3683 37.0828 35.736 37.2007C35.4208 37.2595 35.1605 37.2839 34.9828 37.2937C34.8941 37.2986 34.8264 37.2999 34.7833 37.3C34.7618 37.3001 34.7464 37.2998 34.7377 37.2996L34.731 37.2995L34.7303 37.2995L34.7298 37.2994L34.7296 37.2994C34.7291 37.2994 34.7291 37.2994 34.7294 37.2994L34.7168 37.2989H34.7017H14.4431C13.1383 37.2989 12.1707 36.8626 11.4292 36.1942C10.673 35.5123 10.1224 34.5606 9.7285 33.5012C8.93761 31.3739 8.84282 28.9912 8.84282 28.0674V27.8906C8.84282 25.5607 9.51585 23.4824 10.5685 22.0054C11.6221 20.527 13.0141 19.6973 14.4787 19.7Z" fill="#ECB548" stroke="#282D38" stroke-width="1.4"/>
<path d="M40.1377 34.7954C39.5003 33.7212 38.3231 33 36.9814 33H13.3094C11.9574 33 10.7751 33.7263 10.1428 34.8107C10.1428 34.8107 11.5205 37 13.7309 37H35.794C37.9427 37 40.1428 34.7954 40.1428 34.7954H40.1377Z" fill="#C08000"/>
<path d="M34.4762 40.8591H15.3213C10.8859 40.8591 6.99639 36.1494 6.99639 29.9675V29.7834C6.99639 28.5716 7.73751 27.9002 8.30758 27.9002C8.87765 27.9002 9.61877 28.5716 9.61877 29.7834V29.9675C9.61877 33.7261 12.0262 37.0987 15.326 37.0987H34.4762C37.776 37.0987 40.1834 33.7261 40.1834 29.9675V29.7834C40.1834 28.5716 40.9245 27.9002 41.4946 27.9002C42.0647 27.9002 42.8058 28.5716 42.8058 29.7834V29.9675C42.8058 36.1437 38.9161 40.8591 34.4808 40.8591H34.4762Z" fill="#FF8A35" stroke="#282D38" stroke-width="1.4"/>
<path d="M13.8278 41.666L12.6904 44.077H13.8278L15.7049 41.666H13.8278Z" fill="#282D38"/>
<path d="M35.6181 41.666L36.7554 44.077H35.6181L33.741 41.666H35.6181Z" fill="#282D38"/>
</svg>
