<svg width="24" height="24" viewBox="0 0 24 24" fill="none" xmlns="http://www.w3.org/2000/svg">
<g clip-path="url(#clip0_934_16729)">
<path d="M21 12C21 16.9706 16.9706 21 12 21C7.02944 21 3 16.9706 3 12C3 7.02944 7.02944 3 12 3C16.9706 3 21 7.02944 21 12Z" stroke="#AD2A4B" stroke-width="2"/>
<mask id="path-2-inside-1_934_16729" fill="white">
<path d="M9 10C9.55228 10 10 9.55228 10 9C10 8.44772 9.55228 8 9 8C8.44772 8 8 8.44772 8 9C8 9.55228 8.44772 10 9 10Z"/>
</mask>
<path d="M9 10C9.55228 10 10 9.55228 10 9C10 8.44772 9.55228 8 9 8C8.44772 8 8 8.44772 8 9C8 9.55228 8.44772 10 9 10Z" fill="#AD2A4B"/>
<path d="M8 9C8 8.44772 8.44772 8 9 8V12C10.6569 12 12 10.6569 12 9H8ZM9 8C9.55228 8 10 8.44772 10 9H6C6 10.6569 7.34315 12 9 12V8ZM10 9C10 9.55228 9.55228 10 9 10V6C7.34315 6 6 7.34315 6 9H10ZM9 10C8.44772 10 8 9.55228 8 9H12C12 7.34315 10.6569 6 9 6V10Z" fill="#AD2A4B" mask="url(#path-2-inside-1_934_16729)"/>
<mask id="path-4-inside-2_934_16729" fill="white">
<path d="M15 10C15.5523 10 16 9.55228 16 9C16 8.44772 15.5523 8 15 8C14.4477 8 14 8.44772 14 9C14 9.55228 14.4477 10 15 10Z"/>
</mask>
<path d="M15 10C15.5523 10 16 9.55228 16 9C16 8.44772 15.5523 8 15 8C14.4477 8 14 8.44772 14 9C14 9.55228 14.4477 10 15 10Z" fill="#AD2A4B"/>
<path d="M14 9C14 8.44772 14.4477 8 15 8V12C16.6569 12 18 10.6569 18 9H14ZM15 8C15.5523 8 16 8.44772 16 9H12C12 10.6569 13.3431 12 15 12V8ZM16 9C16 9.55228 15.5523 10 15 10V6C13.3431 6 12 7.34315 12 9H16ZM15 10C14.4477 10 14 9.55228 14 9H18C18 7.34315 16.6569 6 15 6V10Z" fill="#AD2A4B" mask="url(#path-4-inside-2_934_16729)"/>
<path d="M15 15C14.5 16 13.5 17 12 17C10.5 17 9.5 16 9 15" stroke="#AD2A4B" stroke-width="2" stroke-linecap="round"/>
</g>
<defs>
<clipPath id="clip0_934_16729">
<rect width="20" height="20" fill="white" transform="translate(2 2)"/>
</clipPath>
</defs>
</svg>
