<svg width="24" height="24" viewBox="0 0 24 24" fill="none" xmlns="http://www.w3.org/2000/svg">
<g clip-path="url(#clip0_1705_37921)">
<path d="M9.66667 15.8889V8.11111H12C12.6188 8.11111 13.2123 8.35694 13.6499 8.79453C14.0875 9.23211 14.3333 9.82561 14.3333 10.4444C14.3333 11.0633 14.0875 11.6568 13.6499 12.0944C13.2123 12.5319 12.6188 12.7778 12 12.7778H9.66667M18.2222 19H5.77778C5.5715 19 5.37367 18.9181 5.22781 18.7722C5.08194 18.6263 5 18.4285 5 18.2222V5.77778C5 5.5715 5.08194 5.37367 5.22781 5.22781C5.37367 5.08194 5.5715 5 5.77778 5H18.2222C18.4285 5 18.6263 5.08194 18.7722 5.22781C18.9181 5.37367 19 5.5715 19 5.77778V18.2222C19 18.4285 18.9181 18.6263 18.7722 18.7722C18.6263 18.9181 18.4285 19 18.2222 19Z" stroke="#282D38" stroke-width="1.4" stroke-linecap="round" stroke-linejoin="round"/>
</g>
<defs>
<clipPath id="clip0_1705_37921">
<rect width="24" height="24" fill="white"/>
</clipPath>
</defs>
</svg>
