<svg width="24" height="24" viewBox="0 0 24 24" fill="none" xmlns="http://www.w3.org/2000/svg">
<g clip-path="url(#clip0_9350_199520)">
<path d="M0 1.221C0 0.685 0.448 0.25 1 0.25H5C5.477 0.25 5.887 0.577 5.98 1.03L6.82 5.103L23 6.073C23.298 6.073 23.58 6.202 23.771 6.426C23.961 6.649 24.039 6.942 23.983 7.226L22.381 14.406C22.244 15.076 21.868 15.678 21.319 16.106C20.773 16.534 20.091 16.76 19.391 16.75H9.688C8.988 16.761 8.306 16.534 7.76 16.106C7.212 15.678 6.836 15.076 6.699 14.407L5.029 6.306C5.022 6.279 5.017 6.252 5.012 6.225L4.18 2.191H1C0.448 2.191 0 1.757 0 1.221ZM7.221 7.044L8.661 14.027C8.707 14.251 8.832 14.452 9.015 14.594C9.198 14.736 9.427 14.813 9.661 14.809H9.681H19.401H19.421C19.655 14.813 19.884 14.736 20.067 14.594C20.25 14.451 20.374 14.252 20.42 14.03L21.793 8.014L7.221 7.044Z" fill="#2E1A46"/>
<path d="M9.60107 18.032C8.08807 18.032 6.85107 19.269 6.85107 20.782C6.85107 22.295 8.08807 23.532 9.60107 23.532C11.1141 23.532 12.3511 22.295 12.3511 20.782C12.3511 19.269 11.1141 18.032 9.60107 18.032ZM9.60107 21.841C8.96607 21.841 8.54307 21.418 8.54307 20.782C8.54307 20.149 8.96607 19.725 9.60107 19.725C10.2351 19.725 10.6581 20.149 10.6581 20.782C10.6581 21.418 10.2351 21.841 9.60107 21.841Z" fill="#2E1A46"/>
<path d="M20.7329 18.032C19.2189 18.032 17.9819 19.269 17.9819 20.782C17.9819 22.295 19.2189 23.532 20.7329 23.532C22.2449 23.532 23.4819 22.295 23.4819 20.782C23.4819 19.269 22.2449 18.032 20.7329 18.032ZM20.7329 21.841C20.0969 21.841 19.6739 21.418 19.6739 20.782C19.6739 20.149 20.0969 19.725 20.7329 19.725C21.3669 19.725 21.7899 20.149 21.7899 20.782C21.7899 21.418 21.3669 21.841 20.7329 21.841Z" fill="#2E1A46"/>
<path d="M7.80994 19.425L6.26294 12.327L8.21594 11.925L9.76294 19.022L7.80994 19.425Z" fill="#2E1A46"/>
<path d="M16.604 20.042C16.604 20.548 16.298 20.958 15.92 20.958H11.475C11.097 20.958 10.791 20.548 10.791 20.042C10.791 19.535 11.097 19.125 11.475 19.125H15.92C16.299 19.125 16.604 19.535 16.604 20.042Z" fill="#2E1A46"/>
</g>
<defs>
<clipPath id="clip0_9350_199520">
<rect width="24" height="24" fill="white"/>
</clipPath>
</defs>
</svg>
