<svg width="40" height="40" viewBox="0 0 40 40" fill="none" xmlns="http://www.w3.org/2000/svg">
<path d="M6.42903 26.7695V21.6087L4.6899 20.7012V26.7301C3.89859 27.022 3.33337 27.7322 3.33337 28.5529C3.33337 29.6419 4.30729 30.5257 5.50729 30.5257C6.70729 30.5257 7.6812 29.6419 7.6812 28.5529C7.6812 27.7638 7.16816 27.0852 6.42903 26.7695Z" fill="#773147"/>
<path d="M20 29.149C19.36 29.149 18.7281 28.9754 18.1701 28.6613L9.10229 23.4127V27.529C9.14333 27.5538 9.18436 27.5868 9.22539 27.6116L18.3588 32.8933C19.3682 33.4801 20.6155 33.4801 21.6331 32.8933L30.7665 27.6116C31.7841 27.0248 32.4159 25.9255 32.4159 24.7435V22.5283L21.83 28.6531C21.272 28.9754 20.6401 29.1407 20 29.1407V29.149Z" fill="#C8C8D7"/>
<path d="M35.8543 15.3375L21.6331 7.10507C21.1243 6.81577 20.5663 6.66699 20 6.66699C19.4338 6.66699 18.8676 6.81577 18.367 7.10507L4.14578 15.3375C3.06257 15.9657 3.06257 17.5362 4.14578 18.1643L19.1958 26.8679C19.442 27.0085 19.721 27.0829 20 27.0829C20.2791 27.0829 20.5581 27.0085 20.8042 26.8679L35.8543 18.1643C36.9375 17.5362 36.9375 15.9657 35.8543 15.3375Z" fill="#773147"/>
</svg>
