<svg width="57" height="56" viewBox="0 0 57 56" fill="none" xmlns="http://www.w3.org/2000/svg">
<circle cx="20.6666" cy="28" r="20" fill="#F1F1F9"/>
<path d="M27.6666 9.58672H53.6666C53.8323 9.58672 53.9666 9.72103 53.9666 9.88672V43.8867C53.9666 44.0524 53.8323 44.1867 53.6666 44.1867H27.6666C27.5009 44.1867 27.3666 44.0524 27.3666 43.8867V9.88672C27.3666 9.72103 27.5009 9.58672 27.6666 9.58672Z" fill="#F0F0F0" stroke="#282D38" stroke-width="1.4"/>
<path d="M50.6988 32.8027C52.0518 27.1087 48.5411 21.394 42.8574 20.0385C37.1738 18.6831 31.4694 22.2002 30.1164 27.8942C28.7634 33.5882 32.2741 39.3029 37.9578 40.6584C43.6415 42.0138 49.3458 38.4967 50.6988 32.8027Z" fill="#C4CAD5"/>
<path d="M41.6549 37.6578C45.6833 37.6578 48.949 34.3862 48.949 30.3504C48.949 26.3146 45.6833 23.043 41.6549 23.043C37.6264 23.043 34.3607 26.3146 34.3607 30.3504C34.3607 34.3862 37.6264 37.6578 41.6549 37.6578Z" fill="#F0F0F0"/>
<path d="M48.2549 30.3512C48.2549 34.3904 44.9871 37.6587 40.9608 37.6587C36.9345 37.6587 33.6666 34.3848 33.6666 30.3512C33.6666 30.3512 36.3991 27.5858 41.5909 29.5803C46.7827 31.5691 48.2605 30.3512 48.2605 30.3512H48.2549Z" fill="#4C8DB6"/>
<path d="M27.6666 9.64336H53.6666C53.8323 9.64336 53.9666 9.77767 53.9666 9.94336V13.9434C53.9666 14.109 53.8323 14.2434 53.6666 14.2434H27.6666C27.5009 14.2434 27.3666 14.109 27.3666 13.9434V9.94336C27.3666 9.77767 27.5009 9.64336 27.6666 9.64336Z" fill="#C4CAD5" stroke="#282D38" stroke-width="1.4"/>
<path d="M46.8354 10.8867H45.6643C45.433 10.8867 45.2499 11.0742 45.2499 11.305V12.4733C45.2499 12.6992 45.433 12.8867 45.6643 12.8867H46.8354C47.0667 12.8867 47.2499 12.6992 47.2499 12.4733V11.305C47.2499 11.0742 47.0667 10.8867 46.8354 10.8867ZM46.421 12.055H46.0788V11.7184H46.421V12.055Z" fill="#282D38"/>
<path d="M49.4297 10.8867H48.2614C48.0306 10.8867 47.8431 11.0742 47.8431 11.305V12.4733C47.8431 12.6992 48.0306 12.8867 48.2614 12.8867H49.4297C49.6556 12.8867 49.8431 12.6992 49.8431 12.4733V11.305C49.8431 11.0742 49.6556 10.8867 49.4297 10.8867ZM49.0114 12.055H48.6749V11.7184H49.0114V12.055Z" fill="#282D38"/>
<path d="M52.0235 10.8867H50.8552C50.6293 10.8867 50.4418 11.0742 50.4418 11.305V12.4733C50.4418 12.6992 50.6293 12.8867 50.8552 12.8867H52.0235C52.2543 12.8867 52.4418 12.6992 52.4418 12.4733V11.305C52.4418 11.0742 52.2543 10.8867 52.0235 10.8867ZM51.61 12.055H51.2735V11.7184H51.61V12.055Z" fill="#282D38"/>
<path d="M48.5766 28.9265C47.9074 25.1722 44.6228 22.3174 40.6857 22.3174C36.3695 22.3174 32.8339 25.7532 32.6722 30.0438C32.6666 30.1444 32.6666 30.2505 32.6666 30.3511C32.6666 34.7814 36.2691 38.3848 40.6857 38.3848C45.1024 38.3848 48.7049 34.7814 48.7049 30.3511C48.7049 29.865 48.6602 29.3902 48.5766 28.9265ZM47.1769 31.3846C47.149 31.5913 47.1044 31.7925 47.0542 31.9936C47.0263 32.0997 46.9984 32.2059 46.965 32.3064C46.898 32.5131 46.8256 32.7143 46.7419 32.9098C46.7029 33.0104 46.6583 33.1053 46.6136 33.2003C46.569 33.2953 46.5188 33.3847 46.4742 33.4741C46.424 33.5746 46.3683 33.6696 46.3069 33.759C46.1954 33.9433 46.0783 34.1165 45.95 34.2897C45.8887 34.3735 45.8273 34.4573 45.7548 34.5355C45.6879 34.6193 45.621 34.6976 45.5485 34.7758C45.2418 35.1166 44.9016 35.4238 44.528 35.6864C44.4499 35.7479 44.3719 35.7981 44.2938 35.8484C44.199 35.9155 44.1042 35.9713 44.0094 36.0272C43.8588 36.1166 43.6971 36.2004 43.5409 36.2786C43.1394 36.4741 42.7156 36.6306 42.2751 36.7367C42.197 36.7591 42.1189 36.7758 42.0408 36.7926C41.9237 36.8149 41.8066 36.8373 41.6839 36.854C41.5947 36.8708 41.5055 36.882 41.4163 36.8931C41.3772 36.8931 41.3326 36.8931 41.2936 36.9043C41.0928 36.9211 40.8921 36.9322 40.6857 36.9322C40.4794 36.9322 40.2898 36.9211 40.0946 36.9043C39.6095 36.8652 39.141 36.7646 38.6893 36.6194C38.6001 36.5914 38.5165 36.5635 38.4272 36.53C38.3268 36.4965 38.2265 36.4574 38.1317 36.4127C37.68 36.2227 37.2506 35.9825 36.8602 35.6976C36.7766 35.6417 36.6929 35.5803 36.6148 35.5132C36.5312 35.4462 36.4531 35.3847 36.3806 35.3177C36.3026 35.2506 36.2245 35.1836 36.152 35.111L35.9345 34.8931C35.862 34.8205 35.7951 34.7422 35.7282 34.664C35.6612 34.5858 35.5943 34.5076 35.533 34.4294C35.4661 34.3512 35.4047 34.2674 35.349 34.1836C35.2151 33.9936 35.0869 33.7981 34.9753 33.597C34.9363 33.5299 34.8973 33.4629 34.8638 33.3958C34.7801 33.2394 34.7021 33.0774 34.6352 32.9098C34.5905 32.8148 34.5515 32.7143 34.518 32.6137C34.4065 32.312 34.3173 31.9992 34.2504 31.6751C34.2281 31.569 34.2113 31.4628 34.1946 31.3511C34.1723 31.245 34.1611 31.1332 34.15 31.0215C34.1388 30.9042 34.1277 30.7868 34.1277 30.6695C34.1165 30.5634 34.1165 30.4572 34.1165 30.3511C34.1165 30.1947 34.1165 30.0382 34.1388 29.8818C34.1556 29.5466 34.2058 29.2114 34.2783 28.893C34.9419 25.9599 37.5629 23.7643 40.6857 23.7643C44.1544 23.7643 47.004 26.4739 47.2382 29.8874C47.2549 30.0382 47.2605 30.1947 47.2605 30.3511C47.2605 30.4516 47.2605 30.5522 47.2494 30.6528C47.2438 30.8986 47.2159 31.1444 47.1769 31.3846Z" fill="#282D38"/>
<path d="M38.6666 19.9043H10.6666C9.56206 19.9043 8.66663 20.7997 8.66663 21.9043V37.5341C8.66663 38.6386 9.56206 39.5341 10.6666 39.5341H38.6666C39.7712 39.5341 40.6666 38.6386 40.6666 37.5341V21.9043C40.6666 20.7997 39.7712 19.9043 38.6666 19.9043Z" fill="#282D38"/>
<path d="M25.6956 39.5352H23.4237V43.1959H25.6956V39.5352Z" fill="#282D38"/>
<path d="M17.9873 43.1934H31.3562C32.9193 43.1934 34.1912 44.452 34.1912 45.999H15.1523C15.1523 44.452 16.4242 43.1934 17.9873 43.1934Z" fill="#282D38"/>
<path d="M39.2392 21.4316H10.1615V37.9387H39.2392V21.4316Z" fill="#BDE5FF"/>
<path d="M12.2828 28.3C12.1257 28.3 11.9687 28.2396 11.8478 28.1188C11.6062 27.8832 11.6062 27.4906 11.8478 27.255L15.865 23.2379C16.1066 22.9962 16.4932 22.9962 16.7288 23.2379C16.9704 23.4735 16.9704 23.8661 16.7288 24.1017L12.7117 28.1188C12.5909 28.2396 12.4338 28.3 12.2767 28.3H12.2828Z" fill="#4C8DB6"/>
<path d="M16.2828 28.3C16.1257 28.3 15.9687 28.2396 15.8478 28.1188C15.6062 27.8832 15.6062 27.4906 15.8478 27.255L19.865 23.2379C20.1066 22.9962 20.4932 22.9962 20.7288 23.2379C20.9704 23.4735 20.9704 23.8661 20.7288 24.1017L16.7117 28.1188C16.5909 28.2396 16.4338 28.3 16.2767 28.3H16.2828Z" fill="#4C8DB6"/>
</svg>
