<svg width="30" height="31" viewBox="0 0 30 31" fill="none" xmlns="http://www.w3.org/2000/svg">
<g clip-path="url(#clip0_988_12834)">
<g filter="url(#filter0_d_988_12834)">
<path d="M15 3.50076C16.6514 3.54652 17.634 5.56197 19.1603 6.19419C20.5158 6.7557 22.4765 5.94946 23.4848 7.01527C24.6202 8.21537 23.8899 10.3354 24.522 11.8616C25.0836 13.2172 27.0401 14.0335 26.9994 15.5001C26.9536 17.1515 24.9382 18.1342 24.306 19.6605C23.7444 21.016 24.5507 22.9766 23.4848 23.985C22.2848 25.1203 20.1648 24.39 18.6385 25.0222C17.283 25.5837 16.4667 27.5402 15 27.4996C13.3486 27.4538 12.366 25.4383 10.8397 24.8061C9.48417 24.2446 7.52354 25.0509 6.51519 23.985C5.37982 22.7849 6.11012 20.6649 5.47796 19.1387C4.9164 17.7831 2.95994 16.9668 3.00063 15.5001C3.04638 13.8488 5.06184 12.8661 5.69401 11.3399C6.25557 9.98425 5.44928 8.02362 6.51519 7.01527C7.71519 5.87995 9.83521 6.61026 11.3615 5.97804C12.717 5.41658 13.5333 3.46013 15 3.50076Z" fill="#7CDB64" fill-opacity="0.5" shape-rendering="crispEdges"/>
<path d="M15 3.50076C16.6514 3.54652 17.634 5.56197 19.1603 6.19419C20.5158 6.7557 22.4765 5.94946 23.4848 7.01527C24.6202 8.21537 23.8899 10.3354 24.522 11.8616C25.0836 13.2172 27.0401 14.0335 26.9994 15.5001C26.9536 17.1515 24.9382 18.1342 24.306 19.6605C23.7444 21.016 24.5507 22.9766 23.4848 23.985C22.2848 25.1203 20.1648 24.39 18.6385 25.0222C17.283 25.5837 16.4667 27.5402 15 27.4996C13.3486 27.4538 12.366 25.4383 10.8397 24.8061C9.48417 24.2446 7.52354 25.0509 6.51519 23.985C5.37982 22.7849 6.11012 20.6649 5.47796 19.1387C4.9164 17.7831 2.95994 16.9668 3.00063 15.5001C3.04638 13.8488 5.06184 12.8661 5.69401 11.3399C6.25557 9.98425 5.44928 8.02362 6.51519 7.01527C7.71519 5.87995 9.83521 6.61026 11.3615 5.97804C12.717 5.41658 13.5333 3.46013 15 3.50076Z" stroke="#1B8243" stroke-miterlimit="22.926" stroke-linecap="round" stroke-linejoin="round" shape-rendering="crispEdges"/>
</g>
<path d="M14.9998 22.7002C18.9654 22.7002 22.1998 19.4658 22.1998 15.5002C22.1998 11.5346 18.9654 8.30017 14.9998 8.30017C11.0342 8.30017 7.7998 11.5346 7.7998 15.5002C7.7998 19.4658 11.0342 22.7002 14.9998 22.7002Z" fill="white" fill-opacity="0.6" stroke="#1B8243" stroke-miterlimit="22.926" stroke-linecap="round" stroke-linejoin="round"/>
<path d="M13.5777 12.554L16.3766 13.8427L17.8951 12.232L19.0208 16.3397L14.1246 19.1665L11.1401 16.132L13.2943 15.6223L13.5777 12.554Z" fill="#26D16A"/>
<path d="M13.5777 12.554L16.3766 13.8427L17.8951 12.232L19.0208 16.3397L14.1246 19.1665L11.1401 16.132L13.2943 15.6223L13.5777 12.554Z" fill="url(#paint0_linear_988_12834)" fill-opacity="0.7"/>
<path d="M13.5777 12.554L16.3766 13.8427L17.8951 12.232L19.0208 16.3397L14.1246 19.1665L11.1401 16.132L13.2943 15.6223L13.5777 12.554Z" stroke="#1B8243" stroke-miterlimit="22.926" stroke-linecap="round" stroke-linejoin="round"/>
</g>
<defs>
<filter id="filter0_d_988_12834" x="-3.5" y="-2.99988" width="37" height="37.0001" filterUnits="userSpaceOnUse" color-interpolation-filters="sRGB">
<feFlood flood-opacity="0" result="BackgroundImageFix"/>
<feColorMatrix in="SourceAlpha" type="matrix" values="0 0 0 0 0 0 0 0 0 0 0 0 0 0 0 0 0 0 127 0" result="hardAlpha"/>
<feOffset/>
<feGaussianBlur stdDeviation="3"/>
<feComposite in2="hardAlpha" operator="out"/>
<feColorMatrix type="matrix" values="0 0 0 0 0 0 0 0 0 0 0 0 0 0 0 0 0 0 0.3 0"/>
<feBlend mode="normal" in2="BackgroundImageFix" result="effect1_dropShadow_988_12834"/>
<feBlend mode="normal" in="SourceGraphic" in2="effect1_dropShadow_988_12834" result="shape"/>
</filter>
<linearGradient id="paint0_linear_988_12834" x1="13.8002" y1="19.1002" x2="17.1002" y2="11.6002" gradientUnits="userSpaceOnUse">
<stop offset="0.15625" stop-color="white" stop-opacity="0"/>
<stop offset="0.486971" stop-color="white"/>
<stop offset="0.838542" stop-color="white" stop-opacity="0"/>
</linearGradient>
<clipPath id="clip0_988_12834">
<rect width="30" height="30" fill="white" transform="translate(0 0.500061)"/>
</clipPath>
</defs>
</svg>
