<svg width="24" height="24" viewBox="0 0 24 24" fill="none" xmlns="http://www.w3.org/2000/svg">
<g clip-path="url(#clip0_404_2328)">
<path d="M5.98637 9V7C5.98637 5.93913 6.4078 4.92172 7.15795 4.17157C7.90809 3.42143 8.92551 3 9.98637 3H13.9864C15.0472 3 16.0647 3.42143 16.8148 4.17157C17.5649 4.92172 17.9864 5.93913 17.9864 7V9" stroke="#773147" stroke-width="2" stroke-linecap="round" stroke-linejoin="round"/>
<path d="M6.98638 21V19V21ZM16.9864 21V19V21ZM17.8264 8.99997C17.0405 9.07298 16.3113 9.44016 15.7847 10.028C15.258 10.6158 14.9729 11.3809 14.9864 12.17V15H8.98638V12.17C8.99985 11.3809 8.71472 10.6158 8.1881 10.028C7.66147 9.44016 6.93222 9.07298 6.14638 8.99997C5.4282 8.96489 4.72131 9.18892 4.15444 9.63126C3.58757 10.0736 3.19842 10.7048 3.05788 11.41C2.91733 12.1152 3.03472 12.8474 3.38869 13.4732C3.74265 14.0991 4.30963 14.577 4.98638 14.82V18C4.98638 18.2652 5.09174 18.5195 5.27927 18.7071C5.46681 18.8946 5.72116 19 5.98638 19H17.9864C18.2516 19 18.506 18.8946 18.6935 18.7071C18.881 18.5195 18.9864 18.2652 18.9864 18V14.82C19.6631 14.577 20.2301 14.0991 20.5841 13.4732C20.938 12.8474 21.0554 12.1152 20.9149 11.41C20.7743 10.7048 20.3852 10.0736 19.8183 9.63126C19.2515 9.18892 18.5446 8.96489 17.8264 8.99997Z" stroke="#773147" stroke-width="2" stroke-linecap="round" stroke-linejoin="round"/>
</g>
<defs>
<clipPath id="clip0_404_2328">
<rect width="24" height="24" fill="white"/>
</clipPath>
</defs>
</svg>
