<svg width="24" height="24" viewBox="0 0 24 24" fill="none" xmlns="http://www.w3.org/2000/svg">
<g clip-path="url(#clip0_1708_7909)">
<path d="M16.444 9.55897C16.4484 9.47904 16.4484 9.39891 16.444 9.31897C16.4412 8.28142 16.1358 7.26721 15.5653 6.4006C14.9947 5.534 14.1838 4.85262 13.2318 4.43997C12.2799 4.02731 11.2282 3.90129 10.2057 4.07734C9.1832 4.2534 8.23424 4.72388 7.4751 5.43115C6.71596 6.13842 6.17961 7.05177 5.93175 8.05929C5.6839 9.06681 5.7353 10.1247 6.07967 11.1035C6.42404 12.0822 7.04642 12.9393 7.87055 13.5696C8.69468 14.2 9.68478 14.5762 10.7195 14.6523" stroke="#773147" stroke-width="1.4" stroke-linecap="round" stroke-linejoin="round"/>
<path d="M9.33333 19.9858C5.37778 19.657 4 18.2081 4 18.2081V17.3192C4.00312 16.3775 4.30524 15.4612 4.8628 14.7023C5.42035 13.9435 6.20453 13.3813 7.10222 13.097" stroke="#773147" stroke-width="1.4" stroke-linecap="round" stroke-linejoin="round"/>
<path d="M17.4842 18.3144L19.9998 20.8744M15.5553 13.7633C16.0828 13.7633 16.5983 13.9197 17.0369 14.2128C17.4754 14.5058 17.8172 14.9222 18.019 15.4095C18.2209 15.8968 18.2737 16.433 18.1708 16.9502C18.0679 17.4675 17.8139 17.9427 17.441 18.3156C17.068 18.6886 16.5929 18.9425 16.0756 19.0454C15.5583 19.1483 15.0221 19.0955 14.5348 18.8937C14.0476 18.6918 13.6311 18.3501 13.3381 17.9115C13.0451 17.473 12.8887 16.9574 12.8887 16.43C12.8887 15.7228 13.1696 15.0445 13.6697 14.5444C14.1698 14.0443 14.8481 13.7633 15.5553 13.7633Z" stroke="#E45E63" stroke-width="1.4" stroke-linecap="round" stroke-linejoin="round"/>
</g>
<defs>
<clipPath id="clip0_1708_7909">
<rect width="24" height="24" fill="white"/>
</clipPath>
</defs>
</svg>
