<svg width="50" height="50" viewBox="0 0 50 50" fill="none" xmlns="http://www.w3.org/2000/svg">
<g clip-path="url(#clip0_927_9972)">
<path d="M25 1.46582C28.2387 1.55557 30.166 5.5084 33.1594 6.74834C35.8179 7.84961 39.6632 6.26836 41.6409 8.35869C43.8676 10.7124 42.4353 14.8703 43.6751 17.8637C44.7765 20.5223 48.6136 22.1232 48.5338 24.9997C48.4441 28.2385 44.4913 30.1658 43.2514 33.1592C42.1501 35.8178 43.7314 39.6631 41.6409 41.6407C39.2874 43.8674 35.1294 42.4351 32.136 43.675C29.4775 44.7763 27.8765 48.6134 25 48.5337C21.7612 48.4439 19.8339 44.491 16.8405 43.2512C14.182 42.1499 10.3367 43.7311 8.35904 41.6407C6.13228 39.2871 7.56461 35.1292 6.32476 32.1358C5.22339 29.4772 1.38628 27.8763 1.46607 24.9997C1.55582 21.7609 5.50865 19.8337 6.74849 16.8403C7.84986 14.1816 6.26851 10.3363 8.35904 8.35869C10.7126 6.13203 14.8705 7.56436 17.8639 6.32441C20.5224 5.22324 22.1234 1.38613 25 1.46582Z" fill="#FF7A00" fill-opacity="0.5" stroke="#282D38" stroke-miterlimit="22.926" stroke-linecap="round" stroke-linejoin="round"/>
<path d="M25 39.2576C32.8529 39.2576 39.2578 32.8527 39.2578 24.9998C39.2578 17.1468 32.8529 10.7419 25 10.7419C17.1471 10.7419 10.7422 17.1468 10.7422 24.9998C10.7422 32.8527 17.1471 39.2576 25 39.2576Z" fill="white" fill-opacity="0.6" stroke="#282D38" stroke-miterlimit="22.926" stroke-linecap="round" stroke-linejoin="round"/>
<path d="M22.0803 19.9138L27.8087 22.2602L31.0985 18.9323L33.1195 27.0258L22.6985 33.0424L16.7211 27.2331L21.2481 26.048L22.0803 19.9138Z" fill="#FFE500" stroke="#282D38" stroke-miterlimit="22.926" stroke-linecap="round" stroke-linejoin="round"/>
</g>
<defs>
<clipPath id="clip0_927_9972">
<rect width="50" height="50" fill="white"/>
</clipPath>
</defs>
</svg>
