<svg width="44" height="46" viewBox="0 0 44 46" fill="none" xmlns="http://www.w3.org/2000/svg">
<path fill-rule="evenodd" clip-rule="evenodd" d="M22 44C34.1503 44 44 34.1503 44 22C44 9.84974 34.1503 0 22 0C9.84974 0 0 9.84974 0 22C0 28.3533 2.6931 34.0776 7 38.0936V43.7639C7 45.2507 8.56462 46.2177 9.89443 45.5528L15.1649 42.9175C17.3164 43.6201 19.6139 44 22 44Z" fill="#C8C8D7"/>
<path fill-rule="evenodd" clip-rule="evenodd" d="M19.6522 23.8261C19.6522 25.1227 20.7033 26.1739 22 26.1739C23.2967 26.1739 24.3478 25.1227 24.3478 23.8261V13.913C24.3478 12.6163 23.2967 11.5652 22 11.5652C20.7033 11.5652 19.6522 12.6163 19.6522 13.913L19.6522 23.8261ZM22 32.4348C23.2967 32.4348 24.3478 31.3836 24.3478 30.0869C24.3478 28.7903 23.2967 27.7391 22 27.7391C20.7033 27.7391 19.6522 28.7903 19.6522 30.0869C19.6522 31.3836 20.7033 32.4348 22 32.4348Z" fill="white"/>
</svg>
