<svg width="110" height="110" viewBox="0 0 110 110" fill="none" xmlns="http://www.w3.org/2000/svg">
<rect width="110" height="110" rx="55" fill="#F7F7FD"/>
<path d="M51.5167 57.3449C51.4172 56.7363 51.8869 56.1836 52.5036 56.1836H78.4554C79.072 56.1836 79.5417 56.7363 79.4423 57.3449L75.3794 82.2001C75.3003 82.6837 74.8825 83.0388 74.3925 83.0388H56.5665C56.0765 83.0388 55.6586 82.6837 55.5796 82.2001L51.5167 57.3449Z" fill="#7FACFA" stroke="#0B93E2" stroke-width="2"/>
<rect x="48.4448" y="51.6748" width="34.069" height="5.21381" rx="2.6069" fill="#E8EDFC" stroke="#0B93E2" stroke-width="2"/>
<rect x="39.8374" y="22" width="5.37776" height="49.6443" rx="2.68888" fill="#E8EDFC" stroke="#0B93E2" stroke-width="2"/>
<rect x="26.8035" y="77.8252" width="30.4621" height="8.82071" rx="1" fill="white" stroke="#E45E63" stroke-width="2"/>
<path d="M35.2715 81.7844V86.2931" stroke="#E45E63" stroke-width="2" stroke-linecap="round"/>
<path d="M41.5837 81.7844V86.2931" stroke="#E45E63" stroke-width="2" stroke-linecap="round"/>
<path d="M47.8958 81.7844V86.2931" stroke="#E45E63" stroke-width="2" stroke-linecap="round"/>
<rect x="25" y="72.415" width="34.069" height="5.21381" rx="2.6069" fill="#E8EDFC" stroke="#0B93E2" stroke-width="2"/>
<rect x="38.28" y="66.2668" width="7.91898" height="7.91898" rx="3.95949" fill="#CAD9FC" stroke="#0B93E2" stroke-width="2"/>
<path d="M63.8733 59.7205L76.8074 72.6546C78.6594 74.5066 81.662 74.5066 83.514 72.6546V72.6546C85.366 70.8026 85.366 67.8 83.514 65.948L80.6398 63.0738" stroke="#0B93E2" stroke-width="2" stroke-linecap="round"/>
<path d="M74.7741 21.4833L75.7127 21.1384L74.7741 21.4833C74.9765 22.0342 75.4107 22.4684 75.9616 22.6708L76.3065 21.7322L75.9616 22.6708L81.5454 24.7224L75.9616 26.7741L76.3065 27.7127L75.9616 26.7741C75.4107 26.9765 74.9765 27.4107 74.7741 27.9616L75.7127 28.3065L74.7741 27.9616L72.7224 33.5454L70.6708 27.9616L69.7322 28.3065L70.6708 27.9616C70.4684 27.4107 70.0342 26.9765 69.4833 26.7741L69.1384 27.7127L69.4833 26.7741L63.8995 24.7224L69.4833 22.6708L69.1819 21.8506L69.4833 22.6708C70.0342 22.4684 70.4684 22.0342 70.6708 21.4833L69.7322 21.1384L70.6708 21.4833L72.7224 15.8995L74.7741 21.4833Z" fill="white" stroke="#0B93E2" stroke-width="2"/>
<path d="M32.2138 29.8995L33.054 32.1861C33.2564 32.737 33.6906 33.1712 34.2415 33.3736L36.5281 34.2138L34.2415 35.054C33.6906 35.2564 33.2564 35.6906 33.054 36.2415L32.2138 38.5281L31.3736 36.2415C31.1712 35.6906 30.737 35.2564 30.1861 35.054L27.8995 34.2138L30.1861 33.3736C30.737 33.1712 31.1712 32.737 31.3736 32.1861L32.2138 29.8995Z" fill="#D6F0FF" stroke="#0B93E2" stroke-width="2"/>
<path d="M22.514 49.869L23.4527 50.2139L22.514 49.869L22 51.268L21.486 49.869L20.5473 50.2139L21.486 49.869C21.2836 49.3181 20.8494 48.8839 20.2985 48.6815L18.8995 48.1675L20.2985 47.6535C20.8494 47.451 21.2836 47.0169 21.486 46.4659L22 45.067L22.514 46.4659C22.7164 47.0169 23.1506 47.451 23.7015 47.6535L24.0464 46.7148L23.7015 47.6535L25.1005 48.1675L23.7015 48.6815L24.0464 49.6201L23.7015 48.6815C23.1506 48.8839 22.7164 49.3181 22.514 49.869Z" fill="white" stroke="#0B93E2" stroke-width="2"/>
<circle cx="31.6069" cy="61.6069" r="2.6069" fill="white" stroke="#0B93E2" stroke-width="2"/>
<circle cx="58.3001" cy="40.9705" r="3.50863" fill="white" stroke="#0B93E2" stroke-width="2"/>
<path d="M90.0397 41.9533C90.0397 44.3891 88.0651 46.3637 85.6293 46.3637C83.1936 46.3637 81.219 44.3891 81.219 41.9533C81.219 39.5176 83.1936 37.543 85.6293 37.543C88.0651 37.543 90.0397 39.5176 90.0397 41.9533Z" fill="#D6F0FF" stroke="#0B93E2" stroke-width="2"/>
</svg>
