<svg width="32" height="32" viewBox="0 0 32 32" fill="none" xmlns="http://www.w3.org/2000/svg">
<g clip-path="url(#clip0_1568_32507)">
<g filter="url(#filter0_d_1568_32507)">
<circle cx="16" cy="16" r="12" fill="#F9945B" fill-opacity="0.8" shape-rendering="crispEdges"/>
</g>
<path fill-rule="evenodd" clip-rule="evenodd" d="M10.3999 12.4C10.3999 11.2954 11.2953 10.4 12.3999 10.4H15.8666C16.9711 10.4 17.8666 11.2954 17.8666 12.4V21.6H10.3999V12.4ZM12.2665 14.1332C12.2665 13.7896 12.5451 13.511 12.8887 13.511H15.3776C15.7213 13.511 15.9999 13.7896 15.9999 14.1332C15.9999 14.4768 15.7213 14.7554 15.3776 14.7554H12.8887C12.5451 14.7554 12.2665 14.4768 12.2665 14.1332ZM12.8887 16C12.5451 16 12.2665 16.2786 12.2665 16.6222C12.2665 16.9659 12.5451 17.2444 12.8887 17.2444H15.3776C15.7213 17.2444 15.9999 16.9659 15.9999 16.6222C15.9999 16.2786 15.7213 16 15.3776 16H12.8887Z" fill="white"/>
<path d="M18.7998 14.6227C18.7998 13.7905 19.7569 13.3224 20.4137 13.8333L20.8277 14.1553C21.3149 14.5342 21.5998 15.1168 21.5998 15.734V21.6002H18.7998V14.6227Z" fill="white"/>
</g>
<defs>
<filter id="filter0_d_1568_32507" x="1" y="2" width="30" height="30" filterUnits="userSpaceOnUse" color-interpolation-filters="sRGB">
<feFlood flood-opacity="0" result="BackgroundImageFix"/>
<feColorMatrix in="SourceAlpha" type="matrix" values="0 0 0 0 0 0 0 0 0 0 0 0 0 0 0 0 0 0 127 0" result="hardAlpha"/>
<feOffset dy="1"/>
<feGaussianBlur stdDeviation="1.5"/>
<feComposite in2="hardAlpha" operator="out"/>
<feColorMatrix type="matrix" values="0 0 0 0 0 0 0 0 0 0 0 0 0 0 0 0 0 0 0.2 0"/>
<feBlend mode="normal" in2="BackgroundImageFix" result="effect1_dropShadow_1568_32507"/>
<feBlend mode="normal" in="SourceGraphic" in2="effect1_dropShadow_1568_32507" result="shape"/>
</filter>
<clipPath id="clip0_1568_32507">
<rect width="32" height="32" fill="white"/>
</clipPath>
</defs>
</svg>
