<svg width="40" height="40" viewBox="0 0 40 40" fill="none" xmlns="http://www.w3.org/2000/svg">
<path d="M30.7786 27.7986C31.3649 26.3832 31.6667 24.8661 31.6667 23.334C31.6667 21.1644 30.9993 19.0473 29.7552 17.2699L22.4577 6.84498C21.2634 5.13883 18.7366 5.13883 17.5423 6.84498L10.2449 17.2699C9.00073 19.0473 8.33337 21.1644 8.33337 23.334C8.33337 24.8661 8.63514 26.3832 9.22145 27.7986C9.80775 29.2141 10.6671 30.5002 11.7505 31.5836C12.8338 32.6669 14.1199 33.5263 15.5354 34.1126C16.9509 34.6989 18.468 35.0007 20 35.0007C21.5321 35.0007 23.0492 34.6989 24.4647 34.1126C25.8801 33.5263 27.1663 32.6669 28.2496 31.5836C29.333 30.5002 30.1923 29.2141 30.7786 27.7986Z" fill="#69B7FF" stroke="#282D38" stroke-width="2"/>
<path d="M23.5355 26.8695C22.8363 27.5688 21.9454 28.045 20.9755 28.2379C20.0055 28.4308 19.0002 28.3318 18.0866 27.9534C17.173 27.5749 16.3921 26.9341 15.8427 26.1118C15.2932 25.2896 15 24.3229 15 23.334" stroke="#282D38" stroke-width="2" stroke-linecap="round"/>
</svg>
