<svg width="20" height="20" viewBox="0 0 20 20" fill="none" xmlns="http://www.w3.org/2000/svg">
<g clip-path="url(#clip0_927_11949)">
<path d="M9.99998 0.586304C11.2955 0.622202 12.0664 2.20333 13.2638 2.69931C14.3272 3.13982 15.8653 2.50732 16.6563 3.34345C17.5471 4.28493 16.9741 5.9481 17.4701 7.14544C17.9106 8.20888 19.4454 8.84927 19.4135 9.99986C19.3776 11.2954 17.7965 12.0663 17.3006 13.2636C16.86 14.3271 17.4926 15.8652 16.6563 16.6563C15.7149 17.5469 14.0518 16.974 12.8544 17.47C11.791 17.9105 11.1506 19.4453 9.99998 19.4135C8.70447 19.3776 7.93358 17.7964 6.73619 17.3004C5.67279 16.8599 4.13467 17.4924 3.34362 16.6563C2.45291 15.7148 3.02584 14.0517 2.5299 12.8543C2.08936 11.7909 0.554514 11.1505 0.586428 9.99986C0.622326 8.70435 2.20346 7.93345 2.6994 6.73611C3.13994 5.67263 2.5074 4.13451 3.34362 3.34345C4.28502 2.45279 5.94818 3.02572 7.14557 2.52974C8.20897 2.08927 8.84936 0.554428 9.99998 0.586304Z" fill="#B5B5B5" fill-opacity="0.5" stroke="#282D38" stroke-miterlimit="22.926" stroke-linecap="round" stroke-linejoin="round"/>
<path d="M10 15.703C13.1412 15.703 15.7031 13.1411 15.7031 9.99988C15.7031 6.85871 13.1412 4.29675 10 4.29675C6.85883 4.29675 4.29688 6.85871 4.29688 9.99988C4.29688 13.1411 6.85883 15.703 10 15.703Z" fill="white" fill-opacity="0.6" stroke="#282D38" stroke-miterlimit="22.926" stroke-linecap="round" stroke-linejoin="round"/>
<path d="M8 9.85896L9.69779 11.8199L13 7.99988" stroke="black" stroke-linecap="round" stroke-linejoin="round"/>
</g>
<defs>
<clipPath id="clip0_927_11949">
<rect width="20" height="20" fill="white"/>
</clipPath>
</defs>
</svg>
