<svg width="24" height="24" viewBox="0 0 24 24" fill="none" xmlns="http://www.w3.org/2000/svg">
<rect x="2" y="15" width="20" height="5" fill="#3CDB83"/>
<path fill-rule="evenodd" clip-rule="evenodd" d="M3.92163 5.2034C4.20738 4.9322 4.67067 4.9322 4.95642 5.2034L7.35008 7.47516C8.7392 6.78147 10.3213 6.38889 12 6.38889C13.6787 6.38889 15.2608 6.78147 16.6499 7.47516L19.0436 5.2034C19.3293 4.9322 19.7926 4.9322 20.0784 5.2034C20.3641 5.4746 20.3641 5.91429 20.0784 6.18549L17.9225 8.23161C20.3954 9.95943 22 12.7417 22 15.8796C22 15.957 21.999 16.0342 21.9971 16.1111H2.00292C2.00098 16.0342 2 15.957 2 15.8796C2 12.7417 3.6046 9.95943 6.07755 8.23161L3.92163 6.18549C3.63588 5.91429 3.63588 5.4746 3.92163 5.2034ZM8.09756 12.8704C8.63638 12.8704 9.07317 12.4558 9.07317 11.9444C9.07317 11.4331 8.63638 11.0185 8.09756 11.0185C7.55875 11.0185 7.12195 11.4331 7.12195 11.9444C7.12195 12.4558 7.55875 12.8704 8.09756 12.8704ZM16.878 11.9444C16.878 12.4558 16.4413 12.8704 15.9024 12.8704C15.3636 12.8704 14.9268 12.4558 14.9268 11.9444C14.9268 11.4331 15.3636 11.0185 15.9024 11.0185C16.4413 11.0185 16.878 11.4331 16.878 11.9444Z" fill="#3CDB83"/>
</svg>
