<svg width="132" height="70" viewBox="0 0 132 70" fill="none" xmlns="http://www.w3.org/2000/svg">
<g clip-path="url(#clip0_988_12927)">
<g filter="url(#filter0_d_988_12927)">
<path d="M66 7.00161C69.8532 7.10839 72.1461 11.8111 75.7074 13.2863C78.8703 14.5965 83.4451 12.7152 85.7979 15.2021C88.4471 18.0024 86.743 22.9491 88.2181 26.5103C89.5284 29.6733 94.0935 31.578 93.9985 35.0002C93.8918 38.8534 89.189 41.1463 87.714 44.7076C86.4037 47.8705 88.285 52.4454 85.7979 54.7982C82.9979 57.4473 78.0512 55.7432 74.4898 57.2184C71.327 58.5286 69.4223 63.0936 66 62.9988C62.1468 62.892 59.8539 58.1892 56.2926 56.7141C53.1297 55.4039 48.5549 57.2852 46.2021 54.7982C43.5529 51.998 45.257 47.0513 43.7819 43.4901C42.4716 40.3271 37.9065 38.4224 38.0015 35.0002C38.1082 31.147 42.811 28.8541 44.286 25.2929C45.5963 22.1298 43.715 17.555 46.2021 15.2021C49.0021 12.5531 53.9488 14.2571 57.5102 12.7819C60.673 11.4719 62.5777 6.90681 66 7.00161Z" fill="#7CDB64" fill-opacity="0.5" shape-rendering="crispEdges"/>
<path d="M66 7.00161C69.8532 7.10839 72.1461 11.8111 75.7074 13.2863C78.8703 14.5965 83.4451 12.7152 85.7979 15.2021C88.4471 18.0024 86.743 22.9491 88.2181 26.5103C89.5284 29.6733 94.0935 31.578 93.9985 35.0002C93.8918 38.8534 89.189 41.1463 87.714 44.7076C86.4037 47.8705 88.285 52.4454 85.7979 54.7982C82.9979 57.4473 78.0512 55.7432 74.4898 57.2184C71.327 58.5286 69.4223 63.0936 66 62.9988C62.1468 62.892 59.8539 58.1892 56.2926 56.7141C53.1297 55.4039 48.5549 57.2852 46.2021 54.7982C43.5529 51.998 45.257 47.0513 43.7819 43.4901C42.4716 40.3271 37.9065 38.4224 38.0015 35.0002C38.1082 31.147 42.811 28.8541 44.286 25.2929C45.5963 22.1298 43.715 17.555 46.2021 15.2021C49.0021 12.5531 53.9488 14.2571 57.5102 12.7819C60.673 11.4719 62.5777 6.90681 66 7.00161Z" stroke="#1B8243" stroke-miterlimit="22.926" stroke-linecap="round" stroke-linejoin="round" shape-rendering="crispEdges"/>
</g>
<path d="M66.0002 51.8003C75.2534 51.8003 82.8003 44.2534 82.8003 35.0002C82.8003 25.7471 75.2534 18.2002 66.0002 18.2002C56.7471 18.2002 49.2002 25.7471 49.2002 35.0002C49.2002 44.2534 56.7471 51.8003 66.0002 51.8003Z" fill="white" fill-opacity="0.6" stroke="#1B8243" stroke-miterlimit="22.926" stroke-linecap="round" stroke-linejoin="round"/>
<path d="M62.6807 28.1259L69.2115 31.1327L72.7546 27.3746L75.3812 36.9591L63.9568 43.5549L56.993 36.4746L62.0193 35.2852L62.6807 28.1259Z" fill="#26D16A"/>
<path d="M62.6807 28.1259L69.2115 31.1327L72.7546 27.3746L75.3812 36.9591L63.9568 43.5549L56.993 36.4746L62.0193 35.2852L62.6807 28.1259Z" fill="url(#paint0_linear_988_12927)" fill-opacity="0.7"/>
<path d="M62.6807 28.1259L69.2115 31.1327L72.7546 27.3746L75.3812 36.9591L63.9568 43.5549L56.993 36.4746L62.0193 35.2852L62.6807 28.1259Z" stroke="#1B8243" stroke-miterlimit="22.926" stroke-linecap="round" stroke-linejoin="round"/>
</g>
<path d="M29.4805 13.0241L37.0544 18.5862C37.8331 19.1581 37.4286 20.3922 36.4625 20.3922H25.3383C24.5486 20.3922 24.0705 19.5198 24.4954 18.8542L28.0457 13.2921C28.3566 12.8049 29.0147 12.682 29.4805 13.0241Z" fill="#F59DD9"/>
<path d="M12.9273 22.0241L15.0544 23.5862C15.8331 24.1581 15.4286 25.3922 14.4625 25.3922H11.3383C10.5486 25.3922 10.0705 24.5198 10.4954 23.8542L11.4925 22.2921C11.8035 21.8049 12.4615 21.682 12.9273 22.0241Z" fill="#5DB1FF"/>
<path d="M12.1037 32.0031L28.2773 33.1315C29.2989 33.2028 29.5657 34.5812 28.6446 35.0286L15.4801 41.4228C14.9579 41.6764 14.3303 41.4337 14.1147 40.8947L11.1056 33.3721C10.8317 32.6874 11.368 31.9518 12.1037 32.0031Z" fill="#FF5D5D"/>
<path d="M26.3964 55.722L36.0415 53.2736C37.0225 53.0246 37.7102 54.2235 37 54.9446L31.3006 60.7316C30.9336 61.1042 30.3415 61.1311 29.9422 60.7933L25.9965 57.4546C25.3757 56.9293 25.6082 55.9221 26.3964 55.722Z" fill="#FFC85D"/>
<path d="M3.56128 50.308L13.5114 50.4394C14.5234 50.4528 14.8774 51.7888 14.0048 52.3015L7.00181 56.4163C6.55087 56.6812 5.97193 56.5539 5.67371 56.1243L2.72656 51.8781C2.26287 51.2101 2.74812 50.2973 3.56128 50.308Z" fill="#9CEA77"/>
<path d="M101.585 11.6581L97.009 19.8292C96.4978 20.742 97.5544 21.7276 98.4295 21.1543L107.908 14.9442C108.585 14.501 108.482 13.4797 107.731 13.1793L102.829 11.2182C102.362 11.0317 101.83 11.2199 101.585 11.6581Z" fill="#FF5D5D"/>
<path d="M101.585 11.6581L97.009 19.8292C96.4978 20.742 97.5544 21.7276 98.4295 21.1543L107.908 14.9442C108.585 14.501 108.482 13.4797 107.731 13.1793L102.829 11.2182C102.362 11.0317 101.83 11.2199 101.585 11.6581Z" fill="#FF5D5D"/>
<path d="M124.595 12.1317L116.384 16.6363C115.467 17.1396 115.841 18.5353 116.887 18.5128L128.216 18.2692C129.024 18.2519 129.479 17.3316 129.001 16.6789L125.883 12.4178C125.586 12.0125 125.035 11.8901 124.595 12.1317Z" fill="#FFC85D"/>
<path d="M122.899 49.9774L117.561 49.2553C116.524 49.115 115.995 50.4597 116.85 51.0631L122.174 54.8224C122.835 55.2889 123.747 54.8187 123.751 54.0099L123.765 50.9728C123.767 50.4706 123.396 50.0447 122.899 49.9774Z" fill="#F59DD9"/>
<path d="M119.212 29.8051L103.272 34.859C102.32 35.161 102.351 36.5191 103.316 36.7781L119.256 41.0544C119.891 41.2248 120.515 40.7462 120.515 40.0886V30.7583C120.515 30.082 119.857 29.6007 119.212 29.8051Z" fill="#9CEA77"/>
<path d="M104.776 50.9993L96.2688 48.6855C95.2171 48.3995 94.5315 49.7634 95.3886 50.4368L103.896 57.1211C104.552 57.6366 105.514 57.1692 105.514 56.3347V51.9643C105.514 51.513 105.212 51.1177 104.776 50.9993Z" fill="#5DB1FF"/>
<defs>
<filter id="filter0_d_988_12927" x="31.5" y="0.500153" width="69" height="69.0001" filterUnits="userSpaceOnUse" color-interpolation-filters="sRGB">
<feFlood flood-opacity="0" result="BackgroundImageFix"/>
<feColorMatrix in="SourceAlpha" type="matrix" values="0 0 0 0 0 0 0 0 0 0 0 0 0 0 0 0 0 0 127 0" result="hardAlpha"/>
<feOffset/>
<feGaussianBlur stdDeviation="3"/>
<feComposite in2="hardAlpha" operator="out"/>
<feColorMatrix type="matrix" values="0 0 0 0 0 0 0 0 0 0 0 0 0 0 0 0 0 0 0.3 0"/>
<feBlend mode="normal" in2="BackgroundImageFix" result="effect1_dropShadow_988_12927"/>
<feBlend mode="normal" in="SourceGraphic" in2="effect1_dropShadow_988_12927" result="shape"/>
</filter>
<linearGradient id="paint0_linear_988_12927" x1="63.1998" y1="43.4003" x2="70.8998" y2="25.9003" gradientUnits="userSpaceOnUse">
<stop offset="0.15625" stop-color="white" stop-opacity="0"/>
<stop offset="0.486971" stop-color="white"/>
<stop offset="0.838542" stop-color="white" stop-opacity="0"/>
</linearGradient>
<clipPath id="clip0_988_12927">
<rect width="70" height="70" fill="white" transform="translate(31)"/>
</clipPath>
</defs>
</svg>
