<svg width="91" height="80" viewBox="0 0 91 80" fill="none" xmlns="http://www.w3.org/2000/svg">
<mask id="mask0_1708_13460" style="mask-type:alpha" maskUnits="userSpaceOnUse" x="0" y="0" width="91" height="80">
<path d="M84.2904 40C84.2904 45.6888 92.7948 56.6003 90.654 61.5C84.4815 75.6272 60.6929 80 44.2903 80C28.6734 80 7.58689 74.5503 0.999634 61.5C-1.7313 56.0896 4.29035 46.4744 4.29035 40C4.29035 17.9086 22.199 0 44.2903 0C66.3817 0 84.2904 17.9086 84.2904 40Z" fill="#FF9C9C"/>
</mask>
<g mask="url(#mask0_1708_13460)">
<circle cx="44.29" cy="40" r="40" fill="#6CA96C"/>
<path d="M45.229 47.7471L43.8297 56.8852L43.3282 60.1608L38.2021 93.637L32.3244 93.421L32.0645 93.4108L35.4523 47.6844L41.6116 47.7245L45.229 47.7471Z" fill="#002442"/>
<path d="M54.3791 92.9266L47.922 93.4499L44.0814 65.6234L43.3276 60.1609L42.9193 57.2019L41.611 47.7246L41.4854 46.8116L52.6549 47.0871L54.3791 92.9266Z" fill="#002442"/>
<path d="M43.9649 58.0229L44.0819 65.6229L43.3281 60.1604L38.202 93.6365L32.3242 93.4206L37.6085 92.6485L42.9198 57.2014L43.8295 56.8847L47.0787 55.7548L43.9649 58.0229Z" fill="#00192E"/>
<path d="M47.9319 93.4593L53.7338 91.7988L52.0269 50.2076C52.0269 50.2076 42.7711 51.7868 35.3262 47.9807L52.9226 47.6969L54.3728 92.6892L47.9308 93.4583L47.9319 93.4593Z" fill="#00192E"/>
<path d="M44.9456 4C54.9281 3.99794 53.179 23.9243 53.179 23.9243L35.8587 24.4106C35.8587 24.4106 33.215 4.00206 44.9456 4Z" fill="black"/>
<path d="M40.2045 21.4872L34.8271 22.6932C34.8271 22.6932 37.4308 34.268 34.995 47.8836C34.995 47.8836 45.3805 51.0944 52.9239 47.6913C52.9239 47.6913 51.9882 28.461 53.7341 22.6284C53.7341 22.6284 50.6571 21.4234 48.8646 21.4553C48.8646 21.4553 44.2974 30.5749 40.2045 21.4872Z" fill="#7394FF"/>
<path d="M21.4041 34.3012L21.2979 34.2889L18.1582 33.9116L17.8051 33.8694C17.8051 33.8694 17.5441 33.378 17.2148 32.8094C16.9311 32.319 16.5975 31.772 16.3365 31.4307C16.213 31.2693 16.1058 31.1551 16.0289 31.114C15.5967 30.8858 15.7408 29.9748 15.7408 29.9748C15.3617 29.7353 15.6292 29.1534 15.7007 29.0135C15.705 29.0053 15.7083 28.9991 15.7115 28.994C15.7148 28.9868 15.717 28.9837 15.717 28.9837C15.391 28.665 15.7105 27.9032 15.7105 27.9032C15.6942 27.8795 15.5188 27.5639 15.5079 27.5402C15.4863 27.4929 15.4722 27.4436 15.4668 27.3932C15.4234 26.9953 15.8718 26.4977 16.3332 26.1091C16.3971 26.0546 16.4621 26.0032 16.5249 25.9538C16.669 25.8417 16.8076 25.743 16.9246 25.6659C17.0285 25.597 17.1174 25.5436 17.1802 25.5107C17.3989 25.3955 17.8289 25.5847 18.1982 25.7996C18.1982 25.7996 18.1993 25.8006 18.2004 25.8016C18.5578 26.0093 18.8589 26.2396 18.8589 26.2396C19.1947 24.5082 20.1542 25.1467 20.1066 27.3336C20.0958 27.8291 20.1304 28.2363 20.1911 28.5684C20.242 28.848 20.3102 29.0742 20.3849 29.2582C20.4012 29.2994 20.4185 29.3384 20.4358 29.3744C20.4586 29.4248 20.4824 29.47 20.5052 29.5122V29.5132C20.5149 29.5317 20.5257 29.5482 20.5355 29.5656C20.7218 29.8792 20.8983 29.9748 20.8983 29.9748L21.3857 34.1645L21.4019 34.3023L21.4041 34.3012Z" fill="#FECCA9"/>
<g opacity="0.4">
<path d="M21.3884 34.1621C21.3592 34.2053 21.3289 34.2465 21.2986 34.2876L18.1588 33.9103C17.9465 33.5041 17.7981 32.987 17.6996 32.3578C17.4115 30.5123 18.9234 30.8999 18.9711 30.3529C19.0187 29.8059 18.7653 29.5952 18.7653 29.5952L19.1606 29.371C19.1606 29.371 19.7411 31.561 20.0996 31.2412C20.4061 30.9688 20.665 30.028 20.5382 29.5623C20.7245 29.8758 20.9011 29.9715 20.9011 29.9715L21.3884 34.1611V34.1621Z" fill="#ED9277"/>
</g>
<path d="M36.5888 32.2007C36.5888 32.2007 36.5769 32.2222 36.5552 32.2634C36.1675 32.9779 32.5284 39.6433 30.7587 41.4529C29.2522 42.992 21.126 34.5253 21.126 34.5253C21.2278 34.0431 20.7881 29.7722 20.7881 29.7722C22.2762 30.5104 28.8872 34.551 28.8872 34.551C28.8872 34.551 29.8955 32.2952 31.623 28.0593C33.3505 23.8224 34.8278 22.6945 34.8278 22.6945C34.8797 22.7953 34.9404 22.9886 35.0086 23.2518C35.1538 23.809 35.3292 24.6839 35.5122 25.671C35.8772 27.6491 36.2628 30.0837 36.4588 31.3483C36.5411 31.8768 36.5899 32.2007 36.5899 32.2007H36.5888Z" fill="#7394FF"/>
<path d="M42.8038 25.4727C41.8442 24.7088 40.4416 21.3642 41.1716 21.4023C41.9016 21.4414 42.0836 21.0877 42.0836 21.0877C42.2211 20.882 42.246 20.3998 42.2276 19.9033C42.2005 19.1897 42.0836 18.4454 42.0836 18.4454L47.4111 17.3514C47.4111 17.3514 47.1274 18.9697 47.0396 19.9022C47.0136 20.1819 47.005 20.3998 47.0266 20.4944C47.123 20.9047 47.6981 20.9499 47.6981 20.9499C47.6981 20.9499 47.5357 22.2844 47.6797 22.706C47.8238 23.1265 43.7634 26.2345 42.8038 25.4706V25.4727Z" fill="#FECCA9"/>
<g opacity="0.5">
<path d="M47.4106 17.353C47.4106 17.353 47.1268 18.9713 47.0391 19.9038C45.0484 23.0078 42.2271 19.9038 42.2271 19.9038C42.2 19.1903 42.083 18.4459 42.083 18.4459L47.4106 17.352V17.353Z" fill="#F48069"/>
</g>
<path d="M48.8504 21.4034C48.4886 24.0693 45.2893 27.382 42.9889 26.0834C42.8102 25.9817 42.6412 25.8696 42.4831 25.7483C40.617 24.313 40.2119 21.6357 40.2119 21.6357C40.2119 21.6357 40.591 21.2358 41.5506 21.3725C41.5506 21.3725 41.6231 23.8616 43.2889 24.6245C43.5651 24.751 43.8813 24.825 44.2431 24.825C46.7872 24.825 47.6991 20.952 47.6991 20.952C47.6991 20.952 48.7074 20.7145 48.8504 21.4023V21.4034Z" fill="white"/>
<path d="M38.5581 12.8789C38.5581 12.8789 36.574 12.4718 37.1989 14.5065C37.8238 16.5422 38.804 16.5185 39.4159 16.3088C39.4159 16.3088 40.1751 20.1581 44.6103 20.1581C49.0454 20.1581 49.5967 16.2738 49.5967 16.2738C49.5967 16.2738 51.2505 16.5997 51.7162 14.7614C52.1819 12.9242 50.6548 12.844 50.6548 12.844C50.6548 12.844 48.2721 7.24575 44.02 7.28071C39.769 7.31567 38.5581 12.8779 38.5581 12.8779V12.8789Z" fill="#FECCA9"/>
<path d="M39.3057 14.4922C39.3057 14.4922 38.4339 9.46458 42.0784 8.95565C42.0784 8.95565 42.1304 10.3241 43.4192 11.1003V10.1678C43.4192 10.1678 44.512 12.5418 47.2716 11.488C47.2716 11.488 46.5427 10.7487 46.6337 10.2398C46.6337 10.2398 50.5251 10.1668 48.8984 15.9696C48.8984 15.9696 49.7702 15.3877 50.6551 13.4373C50.6551 13.4373 51.2573 12.6816 51.8031 13.2635C51.8031 13.2635 52.505 7.99126 49.4497 5.78385C46.703 3.80057 41.8986 5.351 41.8986 5.351C41.8986 5.351 37.0736 4.92844 37.3281 13.1227C37.3281 13.1227 38.4317 12.1059 39.3068 14.4922H39.3057Z" fill="black"/>
<path d="M16.5112 32.1818C16.5112 32.1818 14.8151 24.774 16.209 23.64C17.6029 22.506 18.66 25.4567 18.66 25.4567C18.66 25.4567 20.8986 22.4032 22.3922 24.2939C23.8857 26.1836 19.2069 28.5463 20.3019 31.0035L16.5112 32.1828V32.1818Z" fill="#FFCF17"/>
<path d="M4.29004 63.3224C4.29004 63.3224 4.29004 47.6721 9.74973 37.7126C12.8343 32.0856 20.8998 26.9398 26.9714 35.5391C33.0441 44.1384 23.9854 52.1713 32.9445 63.3224H4.29004Z" fill="#FFCF17"/>
<g style="mix-blend-mode:multiply" opacity="0.5">
<path d="M32.9441 63.3225H29.4599C20.5009 52.1713 29.5596 44.1385 23.4869 35.5391C21.545 32.7889 19.1243 31.3731 16.7178 30.9259C20.1121 30.3018 24.075 31.4369 26.9711 35.5391C33.0438 44.1385 23.9851 52.1713 32.9441 63.3225Z" fill="#FFCF17"/>
</g>
<path d="M21.8949 32.326C21.8527 32.326 21.8104 32.3137 21.7736 32.2869L20.5725 31.4151C20.292 31.2115 19.9433 31.1025 19.5902 31.1128L16.4255 31.192C16.3139 31.195 16.224 31.1128 16.2208 31.0079C16.2175 30.903 16.3042 30.8167 16.4147 30.8136L19.5794 30.7344C20.0245 30.7242 20.462 30.8588 20.814 31.1138L22.0151 31.9857C22.1029 32.0494 22.1191 32.1677 22.052 32.2509C22.013 32.2993 21.9534 32.325 21.8938 32.325L21.8949 32.326Z" fill="#D1A600"/>
<path d="M23.6714 49.555L21.7793 47.0001L24.2855 45.3551C24.2855 45.3551 26.3151 47.0145 25.9263 48.7274C25.8787 48.9371 25.7455 49.1314 25.5429 49.227C25.3913 49.299 24.5758 49.4429 23.6703 49.555H23.6714Z" fill="white"/>
<path d="M22.2237 53.2636L20.5244 51.4345L21.6216 49.2117L21.7678 49.8029L23.6165 49.7103C23.6165 49.7103 25.2942 49.5684 25.6808 49.3525L24.3844 51.9784C24.2382 52.2745 23.9534 52.4873 23.6165 52.5542C23.3144 52.6138 22.8032 52.6611 22.201 52.6436L22.2237 53.2646V53.2636Z" fill="white"/>
<path d="M15.0027 49.7682L18.2909 49.8771L18.1609 52.7672C18.1609 52.7672 15.5421 53.3029 14.3377 51.9745C14.1904 51.8121 14.1081 51.5941 14.1492 51.3834C14.1807 51.225 14.5511 50.5208 15.0038 49.7682H15.0027Z" fill="white"/>
<path d="M12.761 46.4332L15.3225 46.2502L16.5279 48.4216L15.9431 48.1759L14.9055 49.6318C14.9055 49.6318 14.012 50.9879 13.9611 51.4104L12.5369 48.8452C12.3766 48.5553 12.369 48.2119 12.5174 47.9168C12.6495 47.6526 12.9181 47.2372 13.2972 46.791L12.7621 46.4332H12.761Z" fill="white"/>
<path d="M19.0309 42.3828L17.4984 45.1465L14.8135 43.778C14.8135 43.778 15.4438 41.3064 17.2276 40.854C17.4453 40.7985 17.689 40.8231 17.8709 40.9496C18.0074 41.0452 18.5143 41.6683 19.0309 42.3818V42.3828Z" fill="white"/>
<path d="M23.1689 41.9157L22.2277 44.1848L19.6435 44.2711L20.132 43.8774L19.2027 42.3567C19.2027 42.3567 18.3049 41.0037 17.9258 40.7765L20.9789 40.6747C21.3233 40.6634 21.6526 40.8073 21.8692 41.0613C22.0631 41.2895 22.3403 41.6998 22.5981 42.2169L23.1699 41.9146L23.1689 41.9157Z" fill="white"/>
<path d="M19.221 28.7239C19.312 28.7948 19.3445 29.1382 19.1582 29.3768C19.0748 29.4837 18.9481 29.569 18.7618 29.6009C18.856 29.6811 18.9134 30.2291 18.5322 30.4214C18.5278 30.4296 18.4315 30.5859 18.1444 30.5098C18.0502 30.5242 18.0784 30.518 18.1358 30.5067C17.8423 30.4244 17.4989 30.1345 17.3387 30.1787C17.1773 30.224 16.1668 31.2346 16.0227 31.1102C15.5917 30.882 15.7379 29.971 15.7379 29.971C15.3599 29.7305 15.6285 29.1496 15.7 29.0108C15.7032 29.0036 15.7076 28.9974 15.7097 28.9923C15.7097 28.9912 15.7119 28.9892 15.7119 28.9881C15.7152 28.983 15.7162 28.9809 15.7162 28.9809C15.3913 28.6612 15.7119 27.9004 15.7119 27.9004C15.6957 27.8778 15.5213 27.5611 15.5105 27.5364C15.4985 27.5097 15.4888 27.4829 15.4823 27.4562C15.4823 27.4531 15.4801 27.45 15.4801 27.4459C15.4801 27.4428 15.4801 27.4408 15.479 27.4387C15.4769 27.4305 15.4758 27.4223 15.4747 27.4141C15.4736 27.4058 15.4725 27.3976 15.4715 27.3894C15.4238 26.936 16.013 26.3551 16.5329 25.952C16.5329 25.952 16.5415 25.9449 16.5469 25.9407C16.8123 25.7361 17.0581 25.5788 17.1892 25.51C17.4091 25.3948 17.8379 25.585 18.2073 25.7999C18.2073 25.7999 18.2083 25.7999 18.2094 25.8019C18.439 25.9521 18.6795 26.1351 18.9048 26.3355C19.4441 26.8136 19.1831 27.194 18.9914 27.3195C19.221 27.5775 19.391 27.8387 19.416 28.0094C19.4744 28.4196 19.2232 28.726 19.2232 28.726L19.221 28.7239Z" fill="#FECCA9"/>
<path d="M18.9875 27.3127C18.9594 27.3302 18.9344 27.3435 18.9117 27.3497C18.9149 27.3466 18.9409 27.3281 18.9702 27.2932C19.0601 27.1873 19.1911 26.9405 18.8565 26.6043C18.7882 26.5354 18.7005 26.4635 18.59 26.3874C17.742 25.8106 17.6954 25.6019 16.9427 25.9165C16.8452 25.9576 16.7456 26.009 16.6481 26.0676C16.1077 26.3925 15.591 26.9529 15.5022 27.323C15.4827 27.4052 15.4838 27.4782 15.5098 27.5358C15.5055 27.5276 15.5022 27.5183 15.499 27.5091C15.4957 27.5019 15.4936 27.4947 15.4903 27.4875C15.4882 27.4803 15.486 27.4741 15.4838 27.4669C15.4838 27.4638 15.4827 27.4618 15.4817 27.4587C15.4795 27.4515 15.4784 27.4443 15.4762 27.4371C15.473 27.4207 15.4697 27.4052 15.4687 27.3888C15.4199 26.9354 16.008 26.3535 16.5268 25.9494C16.5268 25.9494 16.5366 25.9412 16.5409 25.9381C16.8062 25.7325 17.051 25.5752 17.1821 25.5063C17.4008 25.3911 17.8308 25.5803 18.2001 25.7952C18.2001 25.7952 18.2012 25.7962 18.2023 25.7972C18.433 25.9463 18.6723 26.1293 18.8987 26.3288C19.4391 26.8058 19.1792 27.1873 18.9864 27.3117L18.9875 27.3127Z" fill="#ED9277"/>
<path d="M15.7012 29.0115C15.7109 28.992 15.7174 28.9817 15.7174 28.9817C15.7228 29.0002 15.7174 29.0095 15.7012 29.0115Z" fill="#ED9277"/>
<path d="M19.2226 28.7193C19.2226 28.7193 19.6981 27.8526 18.6584 27.1822C18.6584 27.1822 18.0832 26.6352 17.6988 26.7494C17.3143 26.8635 15.9236 27.8999 15.7915 28.162C15.6832 28.3769 15.6529 28.7913 15.7796 29.0123C15.7558 29.0072 15.7341 29.001 15.7135 28.9928C15.7168 28.9856 15.7189 28.9825 15.7189 28.9825C15.3929 28.6638 15.7124 27.9019 15.7124 27.9019C15.6962 27.8793 15.5207 27.5626 15.5099 27.539C15.4882 27.4917 15.4742 27.4434 15.4688 27.392C15.485 27.3735 15.5002 27.32 15.5002 27.32C15.5002 27.32 15.5781 27.7107 15.7828 27.6264C15.9388 27.5626 17.3262 26.3525 17.8905 26.5057C18.4547 26.6589 19.3548 27.5924 19.4143 28.0027C19.4739 28.4129 19.2237 28.7203 19.2237 28.7203L19.2226 28.7193Z" fill="#ED9277"/>
<path d="M19.1606 29.3726C19.0772 29.4795 18.9504 29.5659 18.7652 29.5968C18.7652 29.5968 19.0122 29.4826 19.1508 29.3017C19.2645 29.1526 19.3057 28.9593 19.0772 28.7475C18.7674 28.4596 17.7677 27.9343 17.445 28.0145C17.3248 28.0443 17.0562 28.2221 16.7659 28.4463C16.2764 28.8226 15.8345 29.2503 15.7543 29.3726C15.5529 29.6821 15.7424 29.9741 15.7424 29.9741C15.3634 29.7345 15.6309 29.1526 15.7024 29.0128C15.7067 29.0045 15.7099 28.9984 15.7132 28.9932C15.7164 28.986 15.7186 28.983 15.7186 28.983C15.7186 28.983 15.7294 28.9727 15.75 28.9542C15.8789 28.838 16.376 28.399 16.8428 28.0946C17.1526 27.8921 17.4482 27.7492 17.6139 27.7985C17.9822 27.9096 18.7219 28.3774 19.0598 28.6067C19.14 28.6601 19.1974 28.7012 19.2223 28.7208C19.3133 28.7917 19.3468 29.1341 19.1616 29.3726H19.1606Z" fill="#ED9277"/>
<path d="M18.5373 30.4168C18.4853 30.4435 18.4257 30.462 18.3564 30.4733C18.2568 30.4898 18.1907 30.5001 18.1485 30.5052C18.0542 30.5196 18.0824 30.5134 18.1398 30.5031C18.2048 30.4908 18.3077 30.4733 18.3077 30.4733H18.3087C18.3412 30.461 18.9824 30.2194 18.6315 29.6416C18.6315 29.6416 17.4196 29.0946 17.1564 29.1511C17.034 29.1779 16.7448 29.3794 16.4697 29.6107C16.1502 29.8791 15.8491 30.1854 15.8491 30.3016C15.8491 30.5186 15.861 30.8486 16.0289 31.1097C15.5968 30.8815 15.7408 29.9706 15.7408 29.9706C15.7311 29.9294 16.147 29.5696 16.5542 29.2941C16.826 29.11 17.0936 28.965 17.2279 28.9794C17.5636 29.0134 18.6564 29.5038 18.7636 29.5943C18.8589 29.6745 18.9163 30.2225 18.5362 30.4147L18.5373 30.4168Z" fill="#ED9277"/>
<path d="M18.5377 30.417C18.5377 30.417 18.4445 30.5836 18.1488 30.5065C18.1456 30.5065 18.1434 30.5054 18.1402 30.5044C17.8456 30.4232 17.5023 30.1332 17.343 30.1785C17.1817 30.2237 16.1733 31.2364 16.0293 31.112C16.0531 31.0884 17.0528 30.0746 17.2954 30.0469C17.5412 30.0191 18.3091 30.4746 18.3091 30.4746H18.3102L18.5377 30.418V30.417Z" fill="#ED9277"/>
<path d="M67.1758 34.2604L67.2819 34.2481L70.4217 33.8707L70.7748 33.8286C70.7748 33.8286 71.0358 33.3371 71.365 32.7686C71.6488 32.2782 71.9824 31.7312 72.2434 31.3899C72.3669 31.2284 72.4741 31.1143 72.551 31.0732C72.9831 30.8449 72.8391 29.934 72.8391 29.934C73.2182 29.6945 72.9506 29.1125 72.8792 28.9727C72.8748 28.9645 72.8716 28.9583 72.8683 28.9532C72.8651 28.946 72.8629 28.9429 72.8629 28.9429C73.1889 28.6242 72.8694 27.8623 72.8694 27.8623C72.8857 27.8387 73.0611 27.523 73.0719 27.4994C73.0936 27.4521 73.1077 27.4027 73.1131 27.3524C73.1564 26.9545 72.708 26.4569 72.2467 26.0682C72.1828 26.0137 72.1178 25.9623 72.055 25.913C71.9109 25.8009 71.7723 25.7022 71.6553 25.6251C71.5513 25.5562 71.4625 25.5027 71.3997 25.4698C71.1809 25.3547 70.7509 25.5439 70.3816 25.7588C70.3816 25.7588 70.3805 25.7598 70.3795 25.7608C70.0221 25.9685 69.721 26.1988 69.721 26.1988C69.3852 24.4674 68.4256 25.1059 68.4733 27.2927C68.4841 27.7883 68.4495 28.1954 68.3888 28.5275C68.3379 28.8072 68.2697 29.0334 68.1949 29.2174C68.1776 29.2585 68.1614 29.2976 68.144 29.3336C68.1213 29.384 68.0975 29.4292 68.0747 29.4714V29.4724C68.065 29.4909 68.0541 29.5073 68.0444 29.5248C67.8581 29.8384 67.6816 29.934 67.6816 29.934L67.1942 34.1237L67.1779 34.2614L67.1758 34.2604Z" fill="#FECCA9"/>
<g opacity="0.4">
<path d="M67.1914 34.1224C67.2206 34.1656 67.251 34.2067 67.2813 34.2478L70.4211 33.8705C70.6334 33.4644 70.7817 32.9472 70.8803 32.318C71.1684 30.4725 69.6564 30.8601 69.6088 30.3132C69.5611 29.7662 69.8146 29.5554 69.8146 29.5554L69.4192 29.3313C69.4192 29.3313 68.8387 31.5212 68.4802 31.2015C68.1737 30.929 67.9149 29.9883 68.0416 29.5225C67.8553 29.8361 67.6788 29.9317 67.6788 29.9317L67.1914 34.1214V34.1224Z" fill="#ED9277"/>
</g>
<path d="M51.9913 32.1609C51.9913 32.1609 52.0032 32.1825 52.0249 32.2236C52.4126 32.9382 56.0517 39.6036 57.8214 41.4131C59.3279 42.9522 67.4541 34.4855 67.4541 34.4855C67.3523 34.0033 67.792 29.7324 67.792 29.7324C66.3039 30.4706 59.6929 34.5112 59.6929 34.5112C59.6929 34.5112 58.6846 32.2555 56.9571 28.0196C55.2297 23.7826 53.7524 22.6548 53.7524 22.6548C53.7004 22.7555 53.6397 22.9488 53.5715 23.212C53.4264 23.7693 53.2509 24.6442 53.0679 25.6312C52.7029 27.6093 52.3173 30.044 52.1213 31.3086C52.039 31.837 51.9902 32.1609 51.9902 32.1609H51.9913Z" fill="#7394FF"/>
<path d="M72.2041 31.6634C72.2041 31.6634 73.7637 24.7338 72.3709 23.5997C70.977 22.4657 69.92 25.4164 69.92 25.4164C69.92 25.4164 67.6813 22.3629 66.1878 24.2536C64.6942 26.1433 69.373 28.506 68.2781 30.9632L72.2041 31.6644V31.6634Z" fill="#87C53E"/>
<path d="M84.2902 63.2821C84.2902 63.2821 84.2902 47.6318 78.8305 37.6723C75.7459 32.0453 67.6815 26.8995 61.6088 35.4988C55.5361 44.0981 64.5948 52.131 55.6357 63.2821H84.2902Z" fill="#87C53E"/>
<g style="mix-blend-mode:multiply" opacity="0.5">
<path d="M55.6357 63.2827H59.1199C68.079 52.1315 59.0203 44.0987 65.093 35.4994C67.0349 32.7491 69.4556 31.3334 71.8621 30.8861C68.4678 30.2621 64.5049 31.3971 61.6088 35.4994C55.5361 44.0987 64.5948 52.1315 55.6357 63.2827Z" fill="#87C53E"/>
</g>
<path d="M66.6847 32.2862C66.727 32.2862 66.7692 32.2739 66.806 32.2472L68.0071 31.3753C68.2877 31.1717 68.6364 31.0628 68.9895 31.073L72.1542 31.1522C72.2657 31.1553 72.3556 31.073 72.3589 30.9682C72.3621 30.8633 72.2755 30.7769 72.165 30.7739L69.0003 30.6947C68.5552 30.6844 68.1176 30.8191 67.7656 31.0741L66.5645 31.9459C66.4768 32.0097 66.4605 32.1279 66.5277 32.2112C66.5667 32.2595 66.6262 32.2852 66.6858 32.2852L66.6847 32.2862Z" fill="#57960D"/>
<path d="M64.9089 49.5142L66.801 46.9593L64.2948 45.3142C64.2948 45.3142 62.2652 46.9737 62.654 48.6865C62.7016 48.8963 62.8349 49.0906 63.0374 49.1862C63.189 49.2582 64.0046 49.4021 64.91 49.5142H64.9089Z" fill="white"/>
<path d="M66.3575 53.2227L68.0568 51.3937L66.9597 49.1709L66.8135 49.762L64.9647 49.6695C64.9647 49.6695 63.287 49.5276 62.9004 49.3117L64.1968 51.9376C64.343 52.2337 64.6279 52.4465 64.9647 52.5133C65.2669 52.573 65.7781 52.6203 66.3803 52.6028L66.3575 53.2238V53.2227Z" fill="white"/>
<path d="M73.5772 49.7273L70.2891 49.8363L70.419 52.7264C70.419 52.7264 73.0379 53.2621 74.2422 51.9337C74.3895 51.7713 74.4718 51.5533 74.4307 51.3425C74.3993 51.1842 74.0289 50.4799 73.5761 49.7273H73.5772Z" fill="white"/>
<path d="M75.8196 46.3935L73.2582 46.2105L72.0527 48.3819L72.6376 48.1362L73.6752 49.592C73.6752 49.592 74.5687 50.9481 74.6196 51.3707L76.0438 48.8055C76.2041 48.5155 76.2117 48.1722 76.0633 47.8771C75.9312 47.6128 75.6626 47.1975 75.2835 46.7513L75.8185 46.3935H75.8196Z" fill="white"/>
<path d="M69.5498 42.3415L71.0823 45.1051L73.7672 43.7366C73.7672 43.7366 73.1369 41.265 71.3531 40.8126C71.1354 40.7571 70.8917 40.7818 70.7098 40.9082C70.5733 41.0038 70.0653 41.6269 69.5498 42.3404V42.3415Z" fill="white"/>
<path d="M65.4112 41.8754L66.3524 44.1445L68.9366 44.2308L68.4481 43.8371L69.3774 42.3165C69.3774 42.3165 70.2752 40.9634 70.6543 40.7362L67.6012 40.6344C67.2568 40.6231 66.9275 40.7671 66.7109 41.021C66.517 41.2492 66.2398 41.6595 65.982 42.1766L65.4102 41.8744L65.4112 41.8754Z" fill="white"/>
<path d="M69.359 28.6825C69.2681 28.7535 69.2356 29.0969 69.4219 29.3354C69.5053 29.4423 69.632 29.5277 69.8183 29.5595C69.724 29.6397 69.6666 30.1877 70.0479 30.38C70.0522 30.3882 70.1486 30.5445 70.4356 30.4684C70.5298 30.4828 70.5017 30.4766 70.4443 30.4653C70.7378 30.3831 71.0811 30.0931 71.2414 30.1374C71.4028 30.1826 72.4133 31.1933 72.5573 31.0688C72.9884 30.8406 72.8422 29.9297 72.8422 29.9297C73.2202 29.6891 72.9516 29.1082 72.8801 28.9694C72.8768 28.9622 72.8725 28.956 72.8703 28.9509C72.8703 28.9499 72.8682 28.9478 72.8682 28.9468C72.8649 28.9416 72.8638 28.9396 72.8638 28.9396C73.1887 28.6198 72.8682 27.859 72.8682 27.859C72.8844 27.8364 73.0588 27.5197 73.0696 27.495C73.0815 27.4683 73.0913 27.4416 73.0978 27.4148C73.0978 27.4118 73.0999 27.4087 73.0999 27.4046C73.0999 27.4015 73.0999 27.3994 73.101 27.3974C73.1032 27.3891 73.1043 27.3809 73.1053 27.3727C73.1064 27.3645 73.1075 27.3562 73.1086 27.348C73.1562 26.8946 72.5671 26.3137 72.0472 25.9107C72.0472 25.9107 72.0385 25.9035 72.0331 25.8994C71.7678 25.6948 71.5219 25.5375 71.3909 25.4686C71.171 25.3534 70.7421 25.5436 70.3728 25.7585C70.3728 25.7585 70.3717 25.7585 70.3706 25.7606C70.141 25.9107 69.9006 26.0937 69.6753 26.2942C69.1359 26.7723 69.397 27.1527 69.5887 27.2781C69.359 27.5362 69.189 27.7973 69.1641 27.968C69.1056 28.3782 69.3569 28.6846 69.3569 28.6846L69.359 28.6825Z" fill="#FECCA9"/>
<path d="M69.593 27.273C69.6212 27.2904 69.6461 27.3038 69.6688 27.31C69.6656 27.3069 69.6396 27.2884 69.6103 27.2534C69.5205 27.1475 69.3894 26.9008 69.7241 26.5646C69.7923 26.4957 69.88 26.4237 69.9905 26.3476C70.8385 25.7708 70.8851 25.5621 71.6378 25.8767C71.7353 25.9179 71.8349 25.9693 71.9324 26.0279C72.4729 26.3528 72.9895 26.9131 73.0783 27.2832C73.0978 27.3655 73.0967 27.4385 73.0707 27.4961C73.075 27.4878 73.0783 27.4786 73.0815 27.4693C73.0848 27.4621 73.087 27.4549 73.0902 27.4477C73.0924 27.4405 73.0945 27.4344 73.0967 27.4272C73.0967 27.4241 73.0978 27.422 73.0989 27.419C73.101 27.4118 73.1021 27.4046 73.1043 27.3974C73.1075 27.3809 73.1108 27.3655 73.1119 27.349C73.1606 26.8956 72.5725 26.3137 72.0537 25.9096C72.0537 25.9096 72.044 25.9014 72.0396 25.8983C71.7743 25.6927 71.5295 25.5354 71.3985 25.4665C71.1797 25.3514 70.7497 25.5405 70.3804 25.7554C70.3804 25.7554 70.3793 25.7565 70.3782 25.7575C70.1475 25.9066 69.9082 26.0896 69.6818 26.289C69.1414 26.7661 69.4013 27.1475 69.5941 27.2719L69.593 27.273Z" fill="#ED9277"/>
<path d="M72.8786 28.9713C72.8689 28.9517 72.8624 28.9414 72.8624 28.9414C72.857 28.9599 72.8624 28.9692 72.8786 28.9713Z" fill="#ED9277"/>
<path d="M69.3581 28.679C69.3581 28.679 68.8826 27.8123 69.9224 27.1419C69.9224 27.1419 70.4975 26.595 70.882 26.7091C71.2664 26.8232 72.6571 27.8596 72.7892 28.1217C72.8975 28.3366 72.9279 28.751 72.8011 28.972C72.825 28.9669 72.8466 28.9607 72.8672 28.9525C72.8639 28.9453 72.8618 28.9422 72.8618 28.9422C73.1878 28.6235 72.8683 27.8616 72.8683 27.8616C72.8845 27.839 73.06 27.5223 73.0708 27.4987C73.0925 27.4514 73.1066 27.4031 73.112 27.3517C73.0957 27.3332 73.0806 27.2797 73.0806 27.2797C73.0806 27.2797 73.0026 27.6704 72.7979 27.5861C72.6419 27.5223 71.2545 26.3122 70.6903 26.4654C70.126 26.6186 69.226 27.5522 69.1664 27.9624C69.1068 28.3726 69.357 28.68 69.357 28.68L69.3581 28.679Z" fill="#ED9277"/>
<path d="M69.4193 29.3312C69.5027 29.4382 69.6294 29.5245 69.8146 29.5554C69.8146 29.5554 69.5677 29.4412 69.429 29.2603C69.3153 29.1112 69.2742 28.9179 69.5027 28.7061C69.8124 28.4183 70.8121 27.8929 71.1349 27.9731C71.2551 28.0029 71.5237 28.1808 71.8139 28.4049C72.3035 28.7812 72.7454 29.2089 72.8255 29.3312C73.027 29.6407 72.8374 29.9327 72.8374 29.9327C73.2165 29.6931 72.949 29.1112 72.8775 28.9714C72.8732 28.9632 72.8699 28.957 72.8667 28.9519C72.8634 28.9447 72.8612 28.9416 72.8612 28.9416C72.8612 28.9416 72.8504 28.9313 72.8298 28.9128C72.701 28.7966 72.2038 28.3576 71.737 28.0533C71.4273 27.8507 71.1316 27.7078 70.9659 27.7572C70.5966 27.8682 69.8579 28.336 69.52 28.5653C69.4399 28.6187 69.3825 28.6599 69.3576 28.6794C69.2666 28.7503 69.233 29.0927 69.4193 29.3312Z" fill="#ED9277"/>
<path d="M70.0421 30.377C70.0941 30.4038 70.1536 30.4223 70.223 30.4336C70.3226 30.45 70.3887 30.4603 70.4309 30.4654C70.5251 30.4798 70.497 30.4737 70.4396 30.4634C70.3746 30.4511 70.2717 30.4336 70.2717 30.4336H70.2706C70.2381 30.4212 69.5969 30.1796 69.9478 29.6018C69.9478 29.6018 71.1598 29.0548 71.423 29.1114C71.5454 29.1381 71.8345 29.3396 72.1096 29.571C72.4291 29.8393 72.7302 30.1457 72.7302 30.2619C72.7302 30.4788 72.7183 30.8088 72.5504 31.07C72.9826 30.8417 72.8385 29.9308 72.8385 29.9308C72.8483 29.8897 72.4324 29.5298 72.0252 29.2543C71.7533 29.0703 71.4858 28.9253 71.3515 28.9397C71.0157 28.9736 69.9229 29.464 69.8157 29.5545C69.7204 29.6347 69.663 30.1827 70.0432 30.375L70.0421 30.377Z" fill="#ED9277"/>
<path d="M70.042 30.3766C70.042 30.3766 70.1351 30.5432 70.4308 30.4651C70.4341 30.4651 70.4362 30.464 70.4395 30.463C70.7341 30.3818 71.0774 30.0919 71.2366 30.1371C71.398 30.1823 72.4063 31.195 72.5504 31.0706C72.5265 31.047 71.5269 30.0333 71.2843 30.0055C71.0384 29.9777 70.2705 30.4332 70.2705 30.4332H70.2694L70.042 30.3766Z" fill="#ED9277"/>
</g>
</svg>
