<svg width="16" height="16" viewBox="0 0 16 16" fill="none" xmlns="http://www.w3.org/2000/svg">
<path d="M7.08539 2.46263C7.74726 1.98987 8.66663 2.46299 8.66663 3.27636V12.7233C8.66663 13.5367 7.74726 14.0098 7.08539 13.5371L3.99996 11.3332H2.66663C1.56206 11.3332 0.666626 10.4377 0.666626 9.33317V6.6665C0.666626 5.56194 1.56206 4.66651 2.66663 4.66651H3.99996L7.08539 2.46263Z" fill="#282D38"/>
<path d="M10.6624 11.2703C11.4897 10.4282 11.9999 9.27372 11.9999 8.00005C11.9999 6.72103 11.4854 5.56219 10.652 4.71924" stroke="#282D38" stroke-linecap="round" stroke-linejoin="round"/>
<path d="M12.5188 2.81445C13.8459 4.14153 14.6667 5.97486 14.6667 7.9999C14.6667 10.0249 13.8459 11.8583 12.5188 13.1854" stroke="#282D38" stroke-linecap="round" stroke-linejoin="round"/>
</svg>
