<svg width="24" height="24" viewBox="0 0 24 24" fill="none" xmlns="http://www.w3.org/2000/svg">
<g clip-path="url(#clip0_1708_15197)">
<path d="M15.5505 9.32545H17.6186C17.8314 9.32271 18.038 9.39649 18.2009 9.53334C18.3639 9.6702 18.4722 9.86102 18.5062 10.0711L19.9886 18.9472C20.0093 19.0751 20.0018 19.206 19.9666 19.3306C19.9313 19.4553 19.8693 19.5708 19.7847 19.6689C19.7001 19.767 19.595 19.8454 19.4769 19.8986C19.3588 19.9518 19.2305 19.9785 19.1009 19.9769H4.89906C4.76953 19.9785 4.64119 19.9518 4.52307 19.8986C4.40496 19.8454 4.29991 19.767 4.21533 19.6689C4.13074 19.5708 4.06866 19.4553 4.03343 19.3306C3.99821 19.206 3.99071 19.0751 4.01145 18.9472L5.49377 10.0711C5.52779 9.86102 5.63613 9.6702 5.79905 9.53334C5.96197 9.39649 6.16863 9.32271 6.38138 9.32545H8.44953" stroke="#773147" stroke-width="1.4" stroke-linecap="round" stroke-linejoin="round"/>
<path d="M15.5502 7.55047C15.5502 6.60883 15.1761 5.70575 14.5102 5.03991C13.8444 4.37407 12.9413 4 11.9997 4C11.058 4 10.155 4.37407 9.48913 5.03991C8.82328 5.70575 8.44922 6.60883 8.44922 7.55047C8.44922 11.1009 11.9997 14.6514 11.9997 14.6514C11.9997 14.6514 15.5502 11.1009 15.5502 7.55047Z" stroke="#E45E63" stroke-width="1.4" stroke-linecap="round" stroke-linejoin="round"/>
</g>
<defs>
<clipPath id="clip0_1708_15197">
<rect width="24" height="24" fill="white"/>
</clipPath>
</defs>
</svg>
