<svg width="57" height="56" viewBox="0 0 57 56" fill="none" xmlns="http://www.w3.org/2000/svg">
<circle cx="20.3335" cy="28" r="20" fill="#F1F1F9"/>
<path d="M28.6094 7.58672H48.6094C48.7751 7.58672 48.9094 7.72103 48.9094 7.88672V35.8867C48.9094 36.0524 48.7751 36.1867 48.6094 36.1867H28.6094C28.4437 36.1867 28.3094 36.0524 28.3094 35.8867V7.88672C28.3094 7.72103 28.4437 7.58672 28.6094 7.58672Z" fill="#BDE5FF" stroke="#282D38" stroke-width="1.4"/>
<path d="M30.9497 15.3C30.7926 15.3 30.6355 15.2396 30.5147 15.1188C30.2731 14.8832 30.2731 14.4906 30.5147 14.255L34.5318 10.2379C34.7735 9.99623 35.1601 9.99623 35.3957 10.2379C35.6373 10.4735 35.6373 10.8661 35.3957 11.1017L31.3786 15.1188C31.2577 15.2396 31.1007 15.3 30.9436 15.3H30.9497Z" fill="#4C8DB6"/>
<path d="M34.9497 15.3C34.7926 15.3 34.6355 15.2396 34.5147 15.1188C34.2731 14.8832 34.2731 14.4906 34.5147 14.255L38.5318 10.2379C38.7735 9.99623 39.1601 9.99623 39.3957 10.2379C39.6373 10.4735 39.6373 10.8661 39.3957 11.1017L35.3786 15.1188C35.2577 15.2396 35.1007 15.3 34.9436 15.3H34.9497Z" fill="#4C8DB6"/>
<path d="M46.4197 26.0234V44.0357" stroke="#9696A3" stroke-width="0.4" stroke-miterlimit="10"/>
<path d="M37.5044 35.0293H55.3376" stroke="#9696A3" stroke-width="0.4" stroke-miterlimit="10"/>
<path d="M40.1155 28.6611L52.7241 41.3981" stroke="#9696A3" stroke-width="0.4" stroke-miterlimit="10"/>
<path d="M40.1155 41.3981L52.7241 28.6611" stroke="#9696A3" stroke-width="0.4" stroke-miterlimit="10"/>
<path d="M46.4197 26.0234V44.0357" stroke="#9696A3" stroke-width="0.4" stroke-miterlimit="10"/>
<path d="M37.5044 35.0293H55.3376" stroke="#9696A3" stroke-width="0.4" stroke-miterlimit="10"/>
<path d="M40.1155 28.6611L52.7241 41.3981" stroke="#9696A3" stroke-width="0.4" stroke-miterlimit="10"/>
<path d="M40.1155 41.3981L52.7241 28.6611" stroke="#9696A3" stroke-width="0.4" stroke-miterlimit="10"/>
<path d="M43.1477 26.6523L49.6919 43.4064" stroke="#9696A3" stroke-width="0.4" stroke-miterlimit="10"/>
<path d="M38.1271 38.3355L54.7148 31.7246" stroke="#9696A3" stroke-width="0.4" stroke-miterlimit="10"/>
<path d="M38.2421 31.4434L54.6001 38.6163" stroke="#9696A3" stroke-width="0.4" stroke-miterlimit="10"/>
<path d="M42.8693 43.2905L49.97 26.7686" stroke="#9696A3" stroke-width="0.4" stroke-miterlimit="10"/>
<path d="M44.6406 26.2041L48.2012 43.8554" stroke="#9696A3" stroke-width="0.4" stroke-miterlimit="10"/>
<path d="M37.6831 36.8266L55.1565 33.2324" stroke="#9696A3" stroke-width="0.4" stroke-miterlimit="10"/>
<path d="M38.9849 30.0615L53.8574 39.9984" stroke="#9696A3" stroke-width="0.4" stroke-miterlimit="10"/>
<path d="M41.5015 42.5409L51.3408 27.5195" stroke="#9696A3" stroke-width="0.4" stroke-miterlimit="10"/>
<path d="M41.5575 27.4795L51.282 42.5782" stroke="#9696A3" stroke-width="0.4" stroke-miterlimit="10"/>
<path d="M38.9466 39.9407L53.8958 30.1172" stroke="#9696A3" stroke-width="0.4" stroke-miterlimit="10"/>
<path d="M37.6984 33.1621L55.0876 36.8862" stroke="#9696A3" stroke-width="0.4" stroke-miterlimit="10"/>
<path d="M44.5743 43.8391L48.2676 26.2188" stroke="#9696A3" stroke-width="0.4" stroke-miterlimit="10"/>
<path d="M18.2239 26.0234V44.0357" stroke="#9696A3" stroke-width="0.4" stroke-miterlimit="10"/>
<path d="M9.30856 35.0293H27.1418" stroke="#9696A3" stroke-width="0.4" stroke-miterlimit="10"/>
<path d="M11.9197 28.6611L24.5283 41.3981" stroke="#9696A3" stroke-width="0.4" stroke-miterlimit="10"/>
<path d="M11.9197 41.3981L24.5283 28.6611" stroke="#9696A3" stroke-width="0.4" stroke-miterlimit="10"/>
<path d="M18.2239 26.0234V44.0357" stroke="#9696A3" stroke-width="0.4" stroke-miterlimit="10"/>
<path d="M9.30856 35.0293H27.1418" stroke="#9696A3" stroke-width="0.4" stroke-miterlimit="10"/>
<path d="M11.9197 28.6611L24.5283 41.3981" stroke="#9696A3" stroke-width="0.4" stroke-miterlimit="10"/>
<path d="M11.9197 41.3981L24.5283 28.6611" stroke="#9696A3" stroke-width="0.4" stroke-miterlimit="10"/>
<path d="M14.9516 26.6523L21.4958 43.4064" stroke="#9696A3" stroke-width="0.4" stroke-miterlimit="10"/>
<path d="M9.9313 38.3355L26.519 31.7246" stroke="#9696A3" stroke-width="0.4" stroke-miterlimit="10"/>
<path d="M10.0463 31.4434L26.4043 38.6163" stroke="#9696A3" stroke-width="0.4" stroke-miterlimit="10"/>
<path d="M14.6735 43.2905L21.7742 26.7686" stroke="#9696A3" stroke-width="0.4" stroke-miterlimit="10"/>
<path d="M16.4446 26.2041L20.0051 43.8554" stroke="#9696A3" stroke-width="0.4" stroke-miterlimit="10"/>
<path d="M9.48704 36.8266L26.9604 33.2324" stroke="#9696A3" stroke-width="0.4" stroke-miterlimit="10"/>
<path d="M10.7888 30.0615L25.6614 39.9984" stroke="#9696A3" stroke-width="0.4" stroke-miterlimit="10"/>
<path d="M13.3052 42.5409L23.1445 27.5195" stroke="#9696A3" stroke-width="0.4" stroke-miterlimit="10"/>
<path d="M13.3615 27.4805L23.0859 42.5792" stroke="#9696A3" stroke-width="0.4" stroke-miterlimit="10"/>
<path d="M10.7504 39.9416L25.697 30.1182" stroke="#9696A3" stroke-width="0.4" stroke-miterlimit="10"/>
<path d="M9.50218 33.1631L26.9475 36.8965" stroke="#9696A3" stroke-width="0.4" stroke-miterlimit="10"/>
<path d="M16.3783 43.8401L20.0715 26.2197" stroke="#9696A3" stroke-width="0.4" stroke-miterlimit="10"/>
<path d="M46.6269 25.9413C51.6326 25.9413 55.7315 29.999 55.7822 35.0044C55.8329 40.0097 51.8162 44.0674 46.8106 44.0674C41.8049 44.0674 37.706 40.0097 37.6553 35.0044C37.6046 29.999 41.6213 25.9413 46.6269 25.9413Z" stroke="#282D38" stroke-width="2" stroke-miterlimit="10"/>
<path d="M18.2241 36.7281C17.2811 36.7281 16.5166 35.9559 16.5166 35.0032C16.5166 34.0506 17.2811 33.2783 18.2241 33.2783C19.1672 33.2783 19.9316 34.0506 19.9316 35.0032C19.9316 35.9559 19.1672 36.7281 18.2241 36.7281Z" fill="#878787"/>
<path d="M18.1321 25.9413C23.1377 25.9413 27.2367 29.999 27.2874 35.0044C27.3381 40.0097 23.3213 44.0674 18.3157 44.0674C13.3101 44.0674 9.2111 40.0097 9.1604 35.0044C9.10969 29.999 13.1265 25.9413 18.1321 25.9413Z" stroke="#282D38" stroke-width="2" stroke-miterlimit="10"/>
<path d="M46.7185 35.0029H33.5254L22.4788 19.1719L41.5474 22.8666L46.7185 35.0029Z" stroke="#F67619" stroke-width="2" stroke-linecap="round" stroke-linejoin="round"/>
<path d="M33.5254 35.0039L43.5051 19.8613" stroke="#F67619" stroke-width="2" stroke-linecap="round" stroke-linejoin="round"/>
<path d="M23.2341 14.0156L22.4786 19.1723L18.2239 35.0033" stroke="#F67619" stroke-width="2" stroke-linecap="round" stroke-linejoin="round"/>
<path d="M33.584 37.6487C32.1702 37.6487 31.024 36.4909 31.024 35.0626C31.024 33.6344 32.1702 32.4766 33.584 32.4766C34.9979 32.4766 36.144 33.6344 36.144 35.0626C36.144 36.4909 34.9979 37.6487 33.584 37.6487Z" fill="#878787"/>
<path d="M33.3335 33.0566H46.3335" stroke="#878787" stroke-miterlimit="10" stroke-linecap="round"/>
<path d="M33.584 37.3574L46.8613 38.412" stroke="#878787" stroke-miterlimit="10" stroke-linecap="round"/>
<path d="M44.9311 36.5666C44.1088 35.7359 44.1088 34.3891 44.9311 33.5584C45.7534 32.7277 47.0867 32.7277 47.909 33.5584C48.7313 34.3891 48.7313 35.7359 47.909 36.5666C47.0867 37.3973 45.7534 37.3973 44.9311 36.5666Z" fill="#878787"/>
<path d="M45.5164 35.0631C45.5164 35.5685 45.9222 35.9759 46.42 35.9759C46.9177 35.9759 47.3235 35.5659 47.3235 35.0631C47.3235 34.5603 46.9177 34.1504 46.42 34.1504C45.9222 34.1504 45.5164 34.5603 45.5164 35.0631Z" fill="#686868"/>
<path d="M33.0938 30.7002L34.3062 39.4021" stroke="#878787" stroke-width="2" stroke-miterlimit="10"/>
<path d="M32.4101 30.9913H33.7807C33.99 30.9913 34.1636 30.8185 34.1636 30.6045C34.1636 30.3931 33.9926 30.2178 33.7807 30.2178H32.4101C32.2008 30.2178 32.0273 30.3905 32.0273 30.6045C32.0273 30.8159 32.1983 30.9913 32.4101 30.9913Z" fill="#686868"/>
<path d="M33.6223 39.7891H34.9929C35.2022 39.7891 35.3757 39.6164 35.3757 39.4024C35.3757 39.191 35.2047 39.0156 34.9929 39.0156H33.6223C33.413 39.0156 33.2394 39.1884 33.2394 39.4024C33.2394 39.6138 33.4104 39.7891 33.6223 39.7891Z" fill="#686868"/>
<path d="M32.1393 35.0625C32.1393 35.8695 32.7876 36.5244 33.5865 36.5244C34.3854 36.5244 35.0337 35.8695 35.0337 35.0625C35.0337 34.2555 34.3854 33.6006 33.5865 33.6006C32.7876 33.6006 32.1393 34.2555 32.1393 35.0625Z" fill="#686868"/>
<path d="M46.8997 35.2849L47.1958 36.4477C47.1167 36.7365 46.4148 36.9298 47.2035 37.8967C47.2035 37.8967 47.4511 38.3634 47.0529 38.6058C46.6547 38.8481 46.4225 38.3634 46.4225 38.3634L45.5189 35.0605L46.8997 35.2823V35.2849Z" fill="#686868"/>
<path d="M45.6737 19.0734C45.7038 18.9354 45.6983 18.7973 45.6721 18.6832L45.1199 18.9045C45.3022 18.961 45.4857 19.0221 45.6703 19.0887C45.6713 19.0841 45.6724 19.0795 45.6734 19.0747L45.6737 19.0734Z" fill="#282D38" stroke="#282D38" stroke-width="3"/>
<path d="M23.5532 13.8867H20.0003C20.0003 13.8867 17.619 14.0156 17.619 16.5501C17.619 19.0846 20.128 18.6979 20.128 18.6979" stroke="#282D38" stroke-width="2" stroke-linecap="round" stroke-linejoin="round"/>
</svg>
