<svg width="24" height="24" viewBox="0 0 24 24" fill="none" xmlns="http://www.w3.org/2000/svg">
<ellipse cx="12" cy="22" rx="8" ry="2" fill="#D9D9D9"/>
<path d="M8.5 19L6.5 22" stroke="#282D38" stroke-linecap="round"/>
<path d="M7.5 20.5H16.5" stroke="#282D38" stroke-linecap="round"/>
<path d="M8 2H16" stroke="#282D38" stroke-linecap="round"/>
<path d="M15.5 19L17.5 22" stroke="#282D38" stroke-linecap="round"/>
<path d="M5.5 12.5H18.5V17C18.5 17.8284 17.8284 18.5 17 18.5H7C6.17157 18.5 5.5 17.8284 5.5 17V12.5Z" fill="#33418C" stroke="#33418C"/>
<path d="M5.5 6C5.5 5.17157 6.17157 4.5 7 4.5H17C17.8284 4.5 18.5 5.17157 18.5 6V13.5H5.5V6Z" fill="white" stroke="#33418C"/>
<rect x="8" y="15" width="2" height="2" rx="1" fill="white"/>
<rect x="14" y="15" width="2" height="2" rx="1" fill="white"/>
</svg>
