<svg width="32" height="32" viewBox="0 0 32 32" fill="none" xmlns="http://www.w3.org/2000/svg">
<g clip-path="url(#clip0_1426_18640)">
<circle cx="16" cy="16" r="14" fill="#9556D4"/>
<path d="M19.4155 18.1344C19.6228 18.4379 19.7933 18.7703 19.9185 19.1272C19.9699 19.2738 19.8927 19.4343 19.7461 19.4857C19.5989 19.5371 19.4389 19.4594 19.3876 19.3133C18.866 17.825 17.4264 16.7925 15.7781 16.7925C14.4848 16.7925 13.2954 17.4266 12.5899 18.4743C12.5031 18.6032 12.3284 18.6373 12.1995 18.5505C12.0707 18.4637 12.0366 18.289 12.1234 18.1601C12.2991 17.8992 12.5007 17.661 12.7235 17.4478L12.356 11.759C12.3285 11.3485 12.5475 10.9612 12.9143 10.7731L13.1836 10.6349C13.55 10.447 13.9921 10.4947 14.3099 10.7565L14.6134 11.0066C14.7977 11.1584 15.066 11.1476 15.2376 10.9814L16.7561 9.51009C16.929 9.34255 16.9473 9.0734 16.7986 8.88401L15.5731 7.32303C15.3338 7.0183 14.9197 6.91566 14.5659 7.07343L10.3777 8.94055C10.1525 9.04093 9.98301 9.23402 9.9126 9.47028L7.08159 19.1922C6.86683 19.9132 7.08325 20.6772 7.64591 21.1878C8.92747 22.3509 11.0811 23.8421 14.0632 24.3413C16.0085 24.6673 18.0523 24.5178 19.9737 23.9092C20.0574 23.8827 20.1485 23.8967 20.2203 23.9471C22.0478 25.2306 24.3046 24.9706 25 24.8497V15.9944C22.8729 14.9585 20.2342 15.9816 19.4155 18.1344Z" fill="white"/>
</g>
<defs>
<clipPath id="clip0_1426_18640">
<rect width="32" height="32" fill="white"/>
</clipPath>
</defs>
</svg>
