<svg width="24" height="24" viewBox="0 0 24 24" fill="none" xmlns="http://www.w3.org/2000/svg">
<path d="M4 18V16.0803L6.48963 12.59H17.5104L20 16.0803V18H4Z" stroke="#282D38" stroke-miterlimit="22.926" stroke-linecap="round" stroke-linejoin="round"/>
<path d="M10.1079 18V16.6737C10.1079 15.5794 10.9593 14.6842 12 14.6842C13.0407 14.6842 13.8921 15.5795 13.8921 16.6737V18" stroke="#282D38" stroke-miterlimit="22.926" stroke-linecap="round" stroke-linejoin="round"/>
<path d="M7.64992 6H11.499H16.3483C16.4564 6.3491 16.6788 6.72135 17.0456 7.04731C17.4652 7.42026 18.0267 7.74531 18.7052 8.09421H11.5004H5.29443C5.97151 7.74531 6.53443 7.42022 6.95409 7.04731C7.32086 6.72135 7.5433 6.3491 7.64992 6Z" stroke="#282D38" stroke-miterlimit="22.926" stroke-linecap="round" stroke-linejoin="round"/>
<path d="M7.38574 10.1884H16.614V8.09421H7.38574V10.1884Z" stroke="#282D38" stroke-miterlimit="22.926" stroke-linecap="round" stroke-linejoin="round"/>
<path d="M7.38609 10.1884H16.6143C16.94 11.2409 18.3226 11.8297 19.2035 12.2826H4.79688C5.67462 11.8303 7.06492 11.24 7.38609 10.1884Z" stroke="#282D38" stroke-miterlimit="22.926" stroke-linecap="round" stroke-linejoin="round"/>
</svg>
