<svg width="24" height="24" viewBox="0 0 24 24" fill="none" xmlns="http://www.w3.org/2000/svg">
<rect width="24" height="24" rx="12" fill="url(#paint0_linear_889_9833)"/>
<path d="M16.5942 14.4049L17.9473 15.5325C18.279 15.8089 18.4448 15.947 18.5784 15.98C18.8517 16.0473 19.1349 15.9147 19.2581 15.6616C19.3184 15.5379 19.3184 15.322 19.3184 14.8903V9.09385C19.3184 8.66216 19.3184 8.44631 19.2581 8.32257C19.1349 8.06951 18.8517 7.93686 18.5784 8.00421C18.4448 8.03715 18.279 8.17533 17.9473 8.45169L16.5942 9.57929C16.3737 9.76302 16.2635 9.85488 16.1749 9.9599C15.9971 10.1706 15.8782 10.4245 15.8301 10.696C15.8062 10.8313 15.8062 10.9748 15.8062 11.2618V12.7224C15.8062 13.0094 15.8062 13.1529 15.8301 13.2882C15.8782 13.5596 15.9971 13.8136 16.1749 14.0243C16.2635 14.1293 16.3737 14.2212 16.5942 14.4049Z" fill="white"/>
<path d="M4.6842 9.44224C4.6842 8.90049 4.6842 8.62962 4.78964 8.4227C4.88238 8.24068 5.03036 8.0927 5.21237 7.99996C5.41929 7.89453 5.69016 7.89453 6.23191 7.89453H11.1677C12.5864 7.89453 13.2958 7.89453 13.8377 8.17063C14.3143 8.41349 14.7018 8.80102 14.9447 9.27767C15.2208 9.81954 15.2208 10.5289 15.2208 11.9476V14.5419C15.2208 15.0837 15.2208 15.3546 15.1154 15.5615C15.0226 15.7435 14.8746 15.8915 14.6926 15.9842C14.4857 16.0897 14.2148 16.0897 13.6731 16.0897H8.73728C7.31857 16.0897 6.60921 16.0897 6.06734 15.8136C5.59069 15.5707 5.20317 15.1832 4.9603 14.7065C4.6842 14.1646 4.6842 13.4553 4.6842 12.0366V9.44224Z" fill="white"/>
<defs>
<linearGradient id="paint0_linear_889_9833" x1="12" y1="0" x2="12" y2="24" gradientUnits="userSpaceOnUse">
<stop stop-color="#57A3FF"/>
<stop offset="1" stop-color="#3C82FB"/>
</linearGradient>
</defs>
</svg>
