<svg width="16" height="16" viewBox="0 0 16 16" fill="none" xmlns="http://www.w3.org/2000/svg">
<path fill-rule="evenodd" clip-rule="evenodd" d="M2 3.97674V12.6823C1.9996 13.0314 2.12921 13.3663 2.3603 13.6134C2.59139 13.8605 2.90504 13.9995 3.23225 13.9999H12.7677C13.095 13.9995 13.4086 13.8605 13.6397 13.6134C13.8708 13.3663 14.0004 13.0314 14 12.6823V5.29434C14.0004 4.94532 13.8708 4.61042 13.6397 4.36332C13.4086 4.11622 13.095 3.97716 12.7677 3.97674H8.402M2 3.9768V3.3176C1.9996 2.96858 2.12921 2.63368 2.3603 2.38658C2.59139 2.13948 2.90504 2.00042 3.23225 2H7.16975C7.49696 2.00042 7.81061 2.13948 8.0417 2.38658C8.2728 2.63368 8.4024 2.96858 8.402 3.3176V3.9768M2 3.9767H8.402H2Z" fill="white"/>
<path d="M2.5 3.97674C2.5 3.7006 2.27614 3.47674 2 3.47674C1.72386 3.47674 1.5 3.7006 1.5 3.97674H2.5ZM2 12.6823L2.5 12.6829V12.6823H2ZM2.3603 13.6134L2.72548 13.2718H2.72548L2.3603 13.6134ZM3.23225 13.9999L3.2316 14.4999H3.23225V13.9999ZM12.7677 13.9999V14.4999L12.7684 14.4999L12.7677 13.9999ZM13.6397 13.6134L13.2745 13.2718L13.6397 13.6134ZM14 12.6823H13.5L13.5 12.6829L14 12.6823ZM14 5.29434L13.5 5.29377V5.29434H14ZM13.6397 4.36332L13.2745 4.70485V4.70485L13.6397 4.36332ZM12.7677 3.97674L12.7684 3.47674H12.7677V3.97674ZM8.402 3.47674C8.12586 3.47674 7.902 3.7006 7.902 3.97674C7.902 4.25288 8.12586 4.47674 8.402 4.47674V3.47674ZM1.5 3.9768C1.5 4.25294 1.72386 4.4768 2 4.4768C2.27614 4.4768 2.5 4.25294 2.5 3.9768H1.5ZM2 3.3176H2.5L2.5 3.31703L2 3.3176ZM2.3603 2.38658L2.72548 2.72811L2.3603 2.38658ZM3.23225 2V1.5L3.2316 1.5L3.23225 2ZM7.16975 2L7.1704 1.5H7.16975V2ZM8.0417 2.38658L7.67652 2.72811V2.72811L8.0417 2.38658ZM8.402 3.3176L7.902 3.31703V3.3176H8.402ZM7.902 3.9768C7.902 4.25294 8.12586 4.4768 8.402 4.4768C8.67814 4.4768 8.902 4.25294 8.902 3.9768H7.902ZM2 3.4767C1.72386 3.4767 1.5 3.70056 1.5 3.9767C1.5 4.25285 1.72386 4.4767 2 4.4767V3.4767ZM8.402 4.4767C8.67814 4.4767 8.902 4.25285 8.902 3.9767C8.902 3.70056 8.67814 3.4767 8.402 3.4767V4.4767ZM1.5 3.97674V12.6823H2.5V3.97674H1.5ZM1.5 12.6818C1.49946 13.1534 1.67427 13.6118 1.99511 13.9549L2.72548 13.2718C2.58414 13.1207 2.49974 12.9094 2.5 12.6829L1.5 12.6818ZM1.99511 13.9549C2.31698 14.299 2.76099 14.4993 3.2316 14.4999L3.2329 13.4999C3.04909 13.4997 2.8658 13.4219 2.72548 13.2718L1.99511 13.9549ZM3.23225 14.4999H12.7677V13.4999H3.23225V14.4999ZM12.7684 14.4999C13.239 14.4993 13.683 14.299 14.0049 13.9549L13.2745 13.2718C13.1342 13.4219 12.9509 13.4997 12.7671 13.4999L12.7684 14.4999ZM14.0049 13.9549C14.3257 13.6118 14.5005 13.1534 14.5 12.6818L13.5 12.6829C13.5003 12.9094 13.4159 13.1207 13.2745 13.2718L14.0049 13.9549ZM14.5 12.6823V5.29434H13.5V12.6823H14.5ZM14.5 5.29491C14.5005 4.82332 14.3257 4.36486 14.0049 4.02179L13.2745 4.70485C13.4159 4.85598 13.5003 5.06731 13.5 5.29377L14.5 5.29491ZM14.0049 4.02179C13.683 3.67763 13.239 3.47735 12.7684 3.47674L12.7671 4.47674C12.9509 4.47698 13.1342 4.55481 13.2745 4.70485L14.0049 4.02179ZM12.7677 3.47674H8.402V4.47674H12.7677V3.47674ZM2.5 3.9768V3.3176H1.5V3.9768H2.5ZM2.5 3.31703C2.49974 3.09057 2.58414 2.87924 2.72548 2.72811L1.99511 2.04505C1.67427 2.38812 1.49946 2.84658 1.5 3.31817L2.5 3.31703ZM2.72548 2.72811C2.8658 2.57807 3.04909 2.50024 3.2329 2.5L3.2316 1.5C2.76099 1.50061 2.31698 1.70089 1.99511 2.04505L2.72548 2.72811ZM3.23225 2.5H7.16975V1.5H3.23225V2.5ZM7.1691 2.5C7.35291 2.50024 7.5362 2.57807 7.67652 2.72811L8.40689 2.04505C8.08502 1.70089 7.64101 1.50061 7.1704 1.5L7.1691 2.5ZM7.67652 2.72811C7.81786 2.87924 7.90226 3.09057 7.902 3.31703L8.902 3.31817C8.90254 2.84658 8.72773 2.38812 8.40689 2.04505L7.67652 2.72811ZM7.902 3.3176V3.9768H8.902V3.3176H7.902ZM2 4.4767H8.402V3.4767H2V4.4767Z" fill="#282D38"/>
<path d="M6 9H10" stroke="#282D38" stroke-linecap="round"/>
<path d="M8 7L8 11" stroke="#282D38" stroke-linecap="round"/>
</svg>
