<svg width="24" height="24" viewBox="0 0 24 24" fill="none" xmlns="http://www.w3.org/2000/svg">
<ellipse cx="12" cy="22" rx="8" ry="2" fill="#D9D9D9"/>
<rect x="3.5" y="6.5" width="2" height="4" rx="1" fill="#282D38" stroke="#282D38"/>
<rect x="18.5" y="6.5" width="2" height="4" rx="1" fill="#282D38" stroke="#282D38"/>
<path d="M7.5 19.5H9.5V20.5C9.5 21.0523 9.05228 21.5 8.5 21.5C7.94772 21.5 7.5 21.0523 7.5 20.5V19.5Z" fill="#282D38" stroke="#282D38"/>
<path d="M14.5 19.5H16.5V20.5C16.5 21.0523 16.0523 21.5 15.5 21.5C14.9477 21.5 14.5 21.0523 14.5 20.5V19.5Z" fill="#282D38" stroke="#282D38"/>
<path d="M5.5 13.5H18.5V18C18.5 18.8284 17.8284 19.5 17 19.5H7C6.17157 19.5 5.5 18.8284 5.5 18V13.5Z" fill="#00A3FF" stroke="#00A3FF"/>
<path d="M5.5 6C5.5 5.17157 6.17157 4.5 7 4.5H17C17.8284 4.5 18.5 5.17157 18.5 6V14.5H5.5V6Z" fill="white" stroke="#00A3FF"/>
<rect x="8" y="16" width="2" height="2" rx="1" fill="white"/>
<rect x="14" y="16" width="2" height="2" rx="1" fill="white"/>
</svg>
