<svg width="24" height="24" viewBox="0 0 24 24" fill="none" xmlns="http://www.w3.org/2000/svg">
<path fill-rule="evenodd" clip-rule="evenodd" d="M7.53269 7H8.98751C9.39862 7.01092 9.72393 7.38407 9.71435 7.83375V16.1663C9.72393 16.6159 9.39862 16.9891 8.98751 17H7.53269C7.12157 16.9891 6.79627 16.6159 6.80585 16.1663V14.5H4.72704C4.31593 14.4891 3.99062 14.1159 4.00021 13.6663V10.3338C3.99062 9.88407 4.31593 9.51092 4.72704 9.5H6.80585V7.83375C6.79627 7.38407 7.12157 7.01092 7.53269 7Z" stroke="#282D38" stroke-width="1.4" stroke-linecap="round" stroke-linejoin="round"/>
<path fill-rule="evenodd" clip-rule="evenodd" d="M16.4675 17H15.0127C14.6016 16.9891 14.2763 16.6159 14.2859 16.1663V7.83375C14.2763 7.38407 14.6016 7.01092 15.0127 7H16.4675C16.8786 7.01092 17.2039 7.38407 17.1943 7.83375V9.5H19.272C19.4696 9.50492 19.6574 9.59553 19.7939 9.7519C19.9305 9.90828 20.0046 10.1176 20 10.3338V13.6663C20.0096 14.1159 19.6843 14.4891 19.2732 14.5H17.1943V16.1663C17.2039 16.6159 16.8786 16.9891 16.4675 17Z" stroke="#282D38" stroke-width="1.4" stroke-linecap="round" stroke-linejoin="round"/>
<path d="M6.10566 14.5001C6.10566 14.8867 6.41906 15.2001 6.80566 15.2001C7.19226 15.2001 7.50566 14.8867 7.50566 14.5001H6.10566ZM7.50566 9.50006C7.50566 9.11346 7.19226 8.80006 6.80566 8.80006C6.41906 8.80006 6.10566 9.11346 6.10566 9.50006H7.50566ZM17.8951 9.50006C17.8951 9.11346 17.5817 8.80006 17.1951 8.80006C16.8085 8.80006 16.4951 9.11346 16.4951 9.50006H17.8951ZM16.4951 14.5001C16.4951 14.8867 16.8085 15.2001 17.1951 15.2001C17.5817 15.2001 17.8951 14.8867 17.8951 14.5001H16.4951ZM9.71411 11.3007C9.32751 11.3007 9.01411 11.6141 9.01411 12.0007C9.01411 12.3873 9.32751 12.7007 9.71411 12.7007V11.3007ZM14.2854 12.7007C14.672 12.7007 14.9854 12.3873 14.9854 12.0007C14.9854 11.6141 14.672 11.3007 14.2854 11.3007V12.7007ZM7.50566 14.5001V9.50006H6.10566V14.5001H7.50566ZM16.4951 9.50006V14.5001H17.8951V9.50006H16.4951ZM9.71411 12.7007H14.2854V11.3007H9.71411V12.7007Z" fill="#282D38"/>
</svg>
