<svg width="24" height="24" viewBox="0 0 24 24" fill="none" xmlns="http://www.w3.org/2000/svg">
<path d="M6.30207 17.331C6.49171 17.1203 6.76188 17 7.04536 17H16.9546C17.2381 17 17.5083 17.1203 17.6979 17.331L19.4979 19.331C20.0771 19.9746 19.6204 21 18.7546 21H5.24536C4.37959 21 3.9229 19.9746 4.50207 19.331L6.30207 17.331Z" fill="black" fill-opacity="0.3"/>
<path d="M6.2409 12.1L6.7463 10.0899C7.07148 9.24875 7.40697 8.60474 7.8384 8.16889C8.25278 7.75025 8.77913 7.5 9.56094 7.5H14.4392C15.22 7.5 15.7462 7.75016 16.1608 8.16893C16.5923 8.60484 16.9282 9.2489 17.2538 10.09L17.7585 12.0991L6.2409 12.1Z" fill="white" stroke="#223370" stroke-linecap="round" stroke-linejoin="round"/>
<path fill-rule="evenodd" clip-rule="evenodd" d="M8.36495 16.5996V17.7509C8.38292 18.3118 7.94341 18.7814 7.38255 18.8005C6.82168 18.7809 6.38252 18.311 6.40095 17.7501V16.5996" fill="#223370"/>
<path d="M8.36495 16.5996V17.7509C8.38292 18.3118 7.94341 18.7814 7.38255 18.8005C6.82168 18.7809 6.38252 18.311 6.40095 17.7501V16.5996H8.36495Z" stroke="#223370"/>
<path fill-rule="evenodd" clip-rule="evenodd" d="M17.9646 16.5996V17.7509C17.9825 18.3118 17.543 18.7814 16.9822 18.8005C16.4213 18.7809 15.9821 18.311 16.0006 17.7501V16.5996" fill="#223370"/>
<path d="M17.9646 16.5996V17.7509C17.9825 18.3118 17.543 18.7814 16.9822 18.8005C16.4213 18.7809 15.9821 18.311 16.0006 17.7501V16.5996H17.9646Z" stroke="#223370"/>
<rect x="4.5" y="11.5" width="15" height="5.4" rx="1.5" fill="#4264DA" stroke="#2A3F87"/>
<rect x="8" y="14.1992" width="1.6" height="0.8" rx="0.4" fill="white"/>
<rect x="14.4004" y="14.1992" width="1.6" height="0.8" rx="0.4" fill="white"/>
<path d="M14.8004 9.40039L14.4004 10.2004" stroke="#537EEF" stroke-linecap="round"/>
<path d="M13.1998 9.40039L12.7998 10.2004" stroke="#537EEF" stroke-linecap="round"/>
<path d="M4 7L8.743 3.94317C10.6887 2.68561 13.3103 2.68561 15.256 3.94317L20 7" stroke="#223370" stroke-linecap="round"/>
</svg>
