<svg width="40" height="40" viewBox="0 0 40 40" fill="none" xmlns="http://www.w3.org/2000/svg">
<path fill-rule="evenodd" clip-rule="evenodd" d="M35 14C35 20.0751 30.0751 25 24 25C23.317 25 22.6486 24.9378 22 24.8186V25H12.5H11V24.85C7.57664 24.1551 5 21.1284 5 17.5C5 13.3579 8.35786 10 12.5 10C12.9128 10 13.3177 10.0333 13.7123 10.0975C15.287 5.94876 19.2991 3 24 3C30.0751 3 35 7.92487 35 14Z" fill="#F1F1F9"/>
<path d="M12 14.5C12 15.0523 12.4477 15.5 13 15.5C13.5523 15.5 14 15.0523 14 14.5H12ZM34 14.5C34 19.7034 29.5672 24 24 24V26C30.5831 26 36 20.8946 36 14.5H34ZM14 14.5C14 9.29663 18.4328 5 24 5V3C17.4169 3 12 8.1054 12 14.5H14ZM24 5C29.5672 5 34 9.29663 34 14.5H36C36 8.1054 30.5831 3 24 3V5Z" fill="#282D38"/>
<path d="M18.567 12.8125C17.1707 11.0979 15.0251 10 12.619 10C8.41116 10 5 13.3579 5 17.5C5 21.6421 8.41116 25 12.619 25H25" stroke="#282D38" stroke-width="2" stroke-linecap="round"/>
<path d="M18.5 25.5L13.5 33" stroke="#282D38" stroke-width="2" stroke-linecap="round"/>
<path d="M24.5 28.5L19.5 36" stroke="#282D38" stroke-width="2" stroke-linecap="round"/>
</svg>
