<svg width="360" height="280" viewBox="0 0 360 280" fill="none" xmlns="http://www.w3.org/2000/svg">
<rect width="360" height="280" fill="#B4DEFD"/>
<g style="mix-blend-mode:multiply">
<path d="M229.004 279H297.497V62.2771H229.004L229.004 279Z" fill="#F5F5F5"/>
<path d="M229.004 278.401H263.253V62.2771H229.004L229.004 278.401Z" fill="#EBEBEB"/>
<path d="M265.494 62.2771H289.68V41H265.494V62.2771Z" fill="#F5F5F5"/>
<path d="M265.494 62.2771H271.258V41H265.494V62.2771Z" fill="#EBEBEB"/>
<path d="M303.206 62.2771V61.0349H227V62.2771" fill="#E0E0E0"/>
<path d="M278.184 83.7631H283.981V71.5553H278.184V83.7631Z" fill="#FAFAFA"/>
<path d="M263.253 88.5506C263.253 88.677 270.922 88.7814 280.375 88.7814C289.828 88.7814 297.497 88.677 297.497 88.5506C297.497 88.4241 289.833 88.3197 280.375 88.3197C270.916 88.3197 263.253 88.4241 263.253 88.5506Z" fill="#E0E0E0"/>
<path d="M243.632 83.7631H249.429V71.5553H243.632V83.7631Z" fill="#E0E0E0"/>
<path d="M228.707 88.5506C228.707 88.677 236.376 88.7814 245.829 88.7814C255.282 88.7814 262.951 88.677 262.951 88.5506C262.951 88.4241 255.287 88.3197 245.829 88.3197C236.371 88.3197 228.707 88.4241 228.707 88.5506Z" fill="#E0E0E0"/>
<path d="M243.632 107.992H249.429V95.784H243.632V107.992Z" fill="#E0E0E0"/>
<path d="M228.707 112.785C228.707 112.911 236.376 113.016 245.829 113.016C255.282 113.016 262.951 112.911 262.951 112.785C262.951 112.658 255.287 112.554 245.829 112.554C236.371 112.554 228.707 112.658 228.707 112.785Z" fill="#E0E0E0"/>
<path d="M243.632 132.957H249.429V120.749H243.632V132.957Z" fill="#E0E0E0"/>
<path d="M228.707 137.745C228.707 137.871 236.376 137.975 245.829 137.975C255.282 137.975 262.951 137.871 262.951 137.745C262.951 137.618 255.287 137.514 245.829 137.514C236.371 137.514 228.707 137.618 228.707 137.745Z" fill="#E0E0E0"/>
<path d="M243.632 157.922H249.429V145.714H243.632V157.922Z" fill="#E0E0E0"/>
<path d="M228.707 162.71C228.707 162.836 236.376 162.941 245.829 162.941C255.282 162.941 262.951 162.836 262.951 162.71C262.951 162.583 255.287 162.479 245.829 162.479C236.371 162.479 228.707 162.583 228.707 162.71Z" fill="#E0E0E0"/>
<path d="M243.632 182.167H249.429V169.96H243.632V182.167Z" fill="#E0E0E0"/>
<path d="M228.707 186.961C228.707 187.087 236.376 187.191 245.829 187.191C255.282 187.191 262.951 187.087 262.951 186.961C262.951 186.834 255.287 186.73 245.829 186.73C236.371 186.73 228.707 186.834 228.707 186.961Z" fill="#E0E0E0"/>
<path d="M243.632 206.517H249.429V194.309H243.632V206.517Z" fill="#E0E0E0"/>
<path d="M243.632 231.18H249.429V218.972H243.632V231.18Z" fill="#E0E0E0"/>
<path d="M228.707 211.305C228.707 211.431 236.376 211.536 245.829 211.536C255.282 211.536 262.951 211.431 262.951 211.305C262.951 211.178 255.287 211.074 245.829 211.074C236.371 211.074 228.707 211.178 228.707 211.305Z" fill="#E0E0E0"/>
<path d="M278.184 108.366H283.981V96.1577H278.184V108.366Z" fill="#FAFAFA"/>
<path d="M263.253 113.153C263.253 113.279 270.922 113.384 280.375 113.384C289.828 113.384 297.497 113.279 297.497 113.153C297.497 113.027 289.833 112.922 280.375 112.922C270.916 112.922 263.253 113.027 263.253 113.153Z" fill="#E0E0E0"/>
<path d="M278.184 132.963H283.981V120.755H278.184V132.963Z" fill="#FAFAFA"/>
<path d="M263.253 137.756C263.253 137.882 270.922 137.986 280.375 137.986C289.828 137.986 297.497 137.882 297.497 137.756C297.497 137.629 289.833 137.525 280.375 137.525C270.916 137.525 263.253 137.629 263.253 137.756Z" fill="#E0E0E0"/>
<path d="M278.184 157.565H283.981V145.357H278.184V157.565Z" fill="#FAFAFA"/>
<path d="M263.253 162.358C263.253 162.484 270.922 162.589 280.375 162.589C289.828 162.589 297.497 162.484 297.497 162.358C297.497 162.232 289.833 162.127 280.375 162.127C270.916 162.127 263.253 162.232 263.253 162.358Z" fill="#E0E0E0"/>
<path d="M278.184 182.167H283.981V169.96H278.184V182.167Z" fill="#FAFAFA"/>
<path d="M263.253 186.961C263.253 187.087 270.922 187.191 280.375 187.191C289.828 187.191 297.497 187.087 297.497 186.961C297.497 186.834 289.833 186.73 280.375 186.73C270.916 186.73 263.253 186.834 263.253 186.961Z" fill="#E0E0E0"/>
<path d="M278.184 206.77H283.981V194.562H278.184V206.77Z" fill="#FAFAFA"/>
<path d="M263.253 211.563C263.253 211.689 270.922 211.794 280.375 211.794C289.828 211.794 297.497 211.689 297.497 211.563C297.497 211.437 289.833 211.332 280.375 211.332C270.916 211.332 263.253 211.437 263.253 211.563Z" fill="#E0E0E0"/>
<path d="M278.184 231.372H283.981V219.165H278.184V231.372Z" fill="#FAFAFA"/>
<path d="M273.9 279H353.057L353.404 154.097H274.247L273.9 279Z" fill="#EBEBEB"/>
<path d="M274.248 279H313.826V154.102H274.248V279Z" fill="#E0E0E0"/>
<path d="M316.413 154.097H344.364V129.511H316.413V154.097Z" fill="#EBEBEB"/>
<path d="M316.414 154.097H323.075V129.511H316.414V154.097Z" fill="#E0E0E0"/>
<path d="M271.93 154.097H360V152.662H271.93V154.097Z" fill="#E0E0E0"/>
<path d="M331.08 178.93H337.78V164.826H331.08V178.93Z" fill="white"/>
<path d="M313.826 184.465C313.826 184.613 322.684 184.734 333.613 184.734C344.541 184.734 353.405 184.613 353.405 184.465C353.405 184.317 344.546 184.196 333.613 184.196C322.679 184.196 313.826 184.317 313.826 184.465Z" fill="#E0E0E0"/>
<path d="M291.16 178.93H297.86V164.826H291.16V178.93Z" fill="#F5F5F5"/>
<path d="M273.906 184.465C273.906 184.613 282.764 184.734 293.693 184.734C304.621 184.734 313.485 184.613 313.485 184.465C313.485 184.317 304.627 184.196 293.693 184.196C282.759 184.196 273.906 184.317 273.906 184.465Z" fill="#EBEBEB"/>
<path d="M291.16 206.935H297.86V192.831H291.16V206.935Z" fill="#F5F5F5"/>
<path d="M273.906 212.47C273.906 212.618 282.764 212.739 293.693 212.739C304.621 212.739 313.485 212.618 313.485 212.47C313.485 212.322 304.627 212.201 293.693 212.201C282.759 212.201 273.906 212.322 273.906 212.47Z" fill="#EBEBEB"/>
<path d="M291.16 235.781H297.86V221.677H291.16V235.781Z" fill="#F5F5F5"/>
<path d="M273.906 241.316C273.906 241.464 282.764 241.585 293.693 241.585C304.621 241.585 313.485 241.464 313.485 241.316C313.485 241.167 304.627 241.046 293.693 241.046C282.759 241.046 273.906 241.167 273.906 241.316Z" fill="#EBEBEB"/>
<path d="M291.16 264.632H297.86V250.528H291.16V264.632Z" fill="#F5F5F5"/>
<path d="M273.906 270.167C273.906 270.315 282.764 270.436 293.693 270.436C304.621 270.436 313.485 270.315 313.485 270.167C313.485 270.019 304.627 269.898 293.693 269.898C282.759 269.898 273.906 270.019 273.906 270.167Z" fill="#EBEBEB"/>
<path d="M331.08 207.364H337.78V193.26H331.08V207.364Z" fill="white"/>
<path d="M313.826 212.893C313.826 213.042 322.684 213.163 333.613 213.163C344.541 213.163 353.405 213.042 353.405 212.893C353.405 212.745 344.546 212.624 333.613 212.624C322.679 212.624 313.826 212.745 313.826 212.893Z" fill="#E0E0E0"/>
<path d="M331.08 235.792H337.78V221.688H331.08V235.792Z" fill="white"/>
<path d="M313.826 241.327C313.826 241.475 322.684 241.596 333.613 241.596C344.541 241.596 353.405 241.475 353.405 241.327C353.405 241.178 344.546 241.057 333.613 241.057C322.679 241.057 313.826 241.178 313.826 241.327Z" fill="#E0E0E0"/>
<path d="M331.08 264.22H337.78V250.116H331.08V264.22Z" fill="white"/>
<path d="M313.826 269.76C313.826 269.909 322.684 270.03 333.613 270.03C344.541 270.03 353.405 269.909 353.405 269.76C353.405 269.612 344.546 269.491 333.613 269.491C322.679 269.491 313.826 269.612 313.826 269.76Z" fill="#E0E0E0"/>
</g>
</svg>
