<svg width="320" height="200" viewBox="0 0 320 200" fill="none" xmlns="http://www.w3.org/2000/svg">
<rect width="320" height="180" rx="20" fill="#3AA981"/>
<path d="M138.68 123.18H103.53V189.8H138.68V123.18Z" fill="#FFF6F3"/>
<path d="M138.68 123.18H123.43V189.8H138.68V123.18Z" fill="#F4E5E1"/>
<path d="M119.26 130.41H99C100.56 128 102.12 125.59 103.69 123.17H123.43L119.27 130.41H119.26Z" fill="#F4E5E1"/>
<path d="M138.71 123.18H123.43L127.4 120H142.69L138.71 123.18Z" fill="#EDE1D9"/>
<path d="M227.239 93.5986H186.969V195.533H227.239V93.5986Z" fill="#FFC757"/>
<path d="M215.42 195.178C215.295 195.178 215.206 195.071 215.206 194.965V93.5988C215.206 93.4745 215.313 93.3857 215.42 93.3857C215.527 93.3857 215.634 93.4923 215.634 93.5988V194.947C215.634 195.071 215.527 195.16 215.42 195.16V195.178Z" fill="#210B04"/>
<path d="M228.29 92.1963H185.829V94.718H228.29V92.1963Z" fill="#FFC757"/>
<path d="M214.671 94.9487H186.97C186.845 94.9487 186.756 94.8421 186.756 94.7356C186.756 94.629 186.863 94.5225 186.97 94.5225H214.671C214.796 94.5225 214.885 94.629 214.885 94.7356C214.885 94.8421 214.778 94.9487 214.671 94.9487Z" fill="#210B04"/>
<path d="M215.331 94.9489C215.206 94.9489 215.117 94.8424 215.117 94.7358V92.4983C215.117 92.3739 215.224 92.2852 215.331 92.2852C215.438 92.2852 215.545 92.3917 215.545 92.4983V94.7358C215.545 94.8601 215.438 94.9489 215.331 94.9489Z" fill="#210B04"/>
<path d="M227.239 94.9487H216.579C216.454 94.9487 216.365 94.8421 216.365 94.7356C216.365 94.629 216.472 94.5225 216.579 94.5225H227.239C227.363 94.5225 227.453 94.629 227.453 94.7356C227.453 94.8421 227.346 94.9487 227.239 94.9487Z" fill="#210B04"/>
<path d="M184.046 137.623V195.373C184.046 196.545 183.083 197.522 181.907 197.522H131.958C130.675 197.522 129.641 196.492 129.641 195.213V137.25C129.641 135.58 131.013 134.213 132.707 134.213H180.623C182.513 134.213 184.046 135.74 184.046 137.623Z" fill="#EDE1D9"/>
<path d="M184.046 137.623V195.373C184.046 196.546 183.084 197.522 181.907 197.522H168.021V134.195H180.624C182.513 134.195 184.046 135.723 184.046 137.605V137.623Z" fill="#CEBCB3"/>
<path d="M148.75 182.072C157.188 182.072 164.027 174.479 164.027 165.113C164.027 155.746 157.188 148.153 148.75 148.153C140.313 148.153 133.474 155.746 133.474 165.113C133.474 174.479 140.313 182.072 148.75 182.072Z" fill="#FFF6F3"/>
<path d="M148.75 180.563C156.439 180.563 162.673 173.646 162.673 165.113C162.673 156.58 156.439 149.663 148.75 149.663C141.061 149.663 134.828 156.58 134.828 165.113C134.828 173.646 141.061 180.563 148.75 180.563Z" fill="#31363E"/>
<path opacity="0.2" d="M148.572 155.115C145.007 159.519 140.319 165.344 140.943 166.018C141.477 166.622 145.043 162.147 148.964 163.177C149.606 163.337 150.105 163.479 150.337 163.941C151.656 166.587 141.067 173.477 142.101 176.176C143.011 178.538 153.261 178.68 157.557 172.056C159.927 168.416 160.534 162.644 158.519 160.744C156.879 159.199 153.974 160.673 153.047 158.933C152.726 158.311 153.029 157.991 153.011 155.115C153.011 152.948 152.993 151.847 152.565 151.616C151.799 151.172 150.105 153.214 148.572 155.115Z" fill="#FFF6F3"/>
<path d="M141.549 136.113H132.012V141.796H141.549V136.113Z" fill="#FFF6F3"/>
<path d="M145.613 141.157C146.824 141.157 147.806 140.131 147.806 138.866C147.806 137.601 146.824 136.575 145.613 136.575C144.402 136.575 143.42 137.601 143.42 138.866C143.42 140.131 144.402 141.157 145.613 141.157Z" fill="#31363E"/>
<path d="M156.79 137.569H150.586C150.462 137.569 150.355 137.463 150.355 137.338C150.355 137.214 150.462 137.107 150.586 137.107H156.79C156.915 137.107 157.022 137.214 157.022 137.338C157.022 137.463 156.915 137.569 156.79 137.569Z" fill="#31363E"/>
<path d="M156.79 138.386H150.586C150.462 138.386 150.355 138.279 150.355 138.155C150.355 138.03 150.462 137.924 150.586 137.924H156.79C156.915 137.924 157.022 138.03 157.022 138.155C157.022 138.279 156.915 138.386 156.79 138.386Z" fill="#31363E"/>
<path d="M156.79 139.203H150.586C150.462 139.203 150.355 139.096 150.355 138.972C150.355 138.848 150.462 138.741 150.586 138.741H156.79C156.915 138.741 157.022 138.848 157.022 138.972C157.022 139.096 156.915 139.203 156.79 139.203Z" fill="#31363E"/>
<path d="M156.79 140.038H150.586C150.462 140.038 150.355 139.931 150.355 139.807C150.355 139.683 150.462 139.576 150.586 139.576H156.79C156.915 139.576 157.022 139.683 157.022 139.807C157.022 139.931 156.915 140.038 156.79 140.038Z" fill="#31363E"/>
<path d="M166.933 137.569H160.73C160.605 137.569 160.498 137.463 160.498 137.338C160.498 137.214 160.605 137.107 160.73 137.107H166.933C167.058 137.107 167.165 137.214 167.165 137.338C167.165 137.463 167.058 137.569 166.933 137.569Z" fill="#31363E"/>
<path d="M166.933 138.386H160.73C160.605 138.386 160.498 138.279 160.498 138.155C160.498 138.03 160.605 137.924 160.73 137.924H166.933C167.058 137.924 167.165 138.03 167.165 138.155C167.165 138.279 167.058 138.386 166.933 138.386Z" fill="#31363E"/>
<path d="M166.933 139.203H160.73C160.605 139.203 160.498 139.096 160.498 138.972C160.498 138.848 160.605 138.741 160.73 138.741H166.933C167.058 138.741 167.165 138.848 167.165 138.972C167.165 139.096 167.058 139.203 166.933 139.203Z" fill="#31363E"/>
<path d="M166.933 140.038H160.73C160.605 140.038 160.498 139.931 160.498 139.807C160.498 139.683 160.605 139.576 160.73 139.576H166.933C167.058 139.576 167.165 139.683 167.165 139.807C167.165 139.931 167.058 140.038 166.933 140.038Z" fill="#31363E"/>
<path d="M165.133 189.939H158.84C158.18 189.939 157.646 190.472 157.646 191.129V195.072C157.646 195.729 158.18 196.261 158.84 196.261H165.133C165.792 196.261 166.327 195.729 166.327 195.072V191.129C166.327 190.472 165.792 189.939 165.133 189.939Z" fill="#CEBCB3"/>
<path d="M165.721 163.532H162.066V170.05H165.721V163.532Z" fill="#CEBCB3"/>
<path d="M177.005 116.152H136.682V134.302H177.005V116.152Z" fill="#C1E4E8"/>
<path d="M166.986 134.515C166.862 134.515 166.772 134.408 166.772 134.302V116.33C166.772 116.206 166.879 116.117 166.986 116.117C167.093 116.117 167.2 116.224 167.2 116.33V134.302C167.2 134.426 167.093 134.515 166.986 134.515Z" fill="#210B04"/>
<path d="M174.812 98.0029H141.549V116.152H174.812V98.0029Z" fill="#FFC757"/>
<path d="M166.559 116.366C166.434 116.366 166.345 116.259 166.345 116.153V98.1809C166.345 98.0566 166.452 97.9678 166.559 97.9678C166.666 97.9678 166.773 98.0743 166.773 98.1809V116.153C166.773 116.277 166.666 116.366 166.559 116.366Z" fill="#210B04"/>
<path d="M165.667 116.117H141.798C141.673 116.117 141.584 116.01 141.584 115.904C141.584 115.797 141.691 115.69 141.798 115.69H165.667C165.792 115.69 165.881 115.797 165.881 115.904C165.881 116.01 165.774 116.117 165.667 116.117Z" fill="#210B04"/>
<path d="M174.67 116.117H167.236C167.111 116.117 167.022 116.01 167.022 115.904C167.022 115.797 167.129 115.69 167.236 115.69H174.67C174.794 115.69 174.884 115.797 174.884 115.904C174.884 116.01 174.777 116.117 174.67 116.117Z" fill="#210B04"/>
<path d="M162.69 98.1634L141.87 98.1989L136.415 89.0355L157.236 89L162.69 98.1634Z" fill="#FFC757"/>
<path d="M153.849 97.986L174.67 98.0037L180.124 93.6174L159.286 93.5996L153.849 97.986Z" fill="#FFC757"/>
<path d="M165.667 98.1811H142.119C141.994 98.1811 141.905 98.0745 141.905 97.968C141.905 97.8614 142.012 97.7549 142.119 97.7549H165.667C165.792 97.7549 165.881 97.8614 165.881 97.968C165.881 98.0745 165.774 98.1811 165.667 98.1811Z" fill="#210B04"/>
<path d="M174.812 98.2162H167.218C167.094 98.2162 167.004 98.1097 167.004 98.0031C167.004 97.8966 167.111 97.79 167.218 97.79H174.812C174.937 97.79 175.026 97.8966 175.026 98.0031C175.026 98.1097 174.919 98.2162 174.812 98.2162Z" fill="#210B04"/>
<path d="M162.209 97.9149C162.209 97.9149 162.049 97.8794 162.013 97.7906L159.785 93.6884C159.731 93.5818 159.767 93.4398 159.874 93.3865C159.981 93.3332 160.124 93.3865 160.177 93.4753L162.405 97.5775C162.459 97.6841 162.423 97.8261 162.316 97.8794C162.28 97.8794 162.245 97.8972 162.209 97.8972V97.9149Z" fill="#210B04"/>
<path d="M215.277 198.943H212.336V182.836H218.611C217.506 188.199 216.383 193.58 215.277 198.943Z" fill="#4F3B30"/>
<path d="M279.434 198.943H282.375V182.836H276.1C277.205 188.199 278.328 193.58 279.434 198.943Z" fill="#4F3B30"/>
<path d="M277.134 187.826H216.65C205.437 187.826 196.346 178.769 196.346 167.599V162.946H302.091C302.091 176.674 290.914 187.826 277.116 187.826H277.134Z" fill="#EF6333"/>
<path d="M212.746 177.206C214.368 167.137 210.5 157.832 203.316 153.978C197.327 150.764 187.273 150.373 183.725 156.109C181.087 160.407 182.977 166.711 186.399 170.476C190.018 174.454 195.811 176.052 201.355 174.56L212.746 177.224V177.206Z" fill="#EF6333"/>
<path d="M282.749 177.206C281.127 167.137 284.995 157.832 292.179 153.978C298.169 150.764 308.223 150.373 311.77 156.109C314.408 160.407 312.519 166.711 309.096 170.476C305.477 174.454 299.684 176.052 294.14 174.56L282.749 177.224V177.206Z" fill="#EF6333"/>
<path d="M246.295 173.016C273.083 173.016 294.8 162.855 294.8 150.32C294.8 137.786 273.083 127.625 246.295 127.625C219.506 127.625 197.79 137.786 197.79 150.32C197.79 162.855 219.506 173.016 246.295 173.016Z" fill="#EF6333"/>
<path d="M207.042 167.28C206.917 167.28 206.828 167.173 206.828 167.066C206.828 166.942 206.935 166.836 207.042 166.836L287.937 166.427C288.578 164.225 289.452 162.076 290.504 160.034C291.68 157.796 293.106 155.665 294.728 153.73C294.817 153.641 294.942 153.623 295.049 153.694C295.138 153.765 295.156 153.907 295.085 154.014C293.48 155.932 292.072 158.027 290.914 160.229C289.844 162.289 288.97 164.456 288.329 166.693C288.293 166.782 288.222 166.853 288.115 166.853L207.042 167.262V167.28Z" fill="#210B04"/>
<path d="M207.06 166.534C206.953 166.534 206.846 166.445 206.846 166.338C206.596 164.119 205.954 161.988 204.938 160.034C202.942 156.181 200 153.872 197.897 152.611C197.79 152.54 197.754 152.416 197.826 152.309C197.897 152.203 198.022 152.167 198.129 152.238C200.304 153.535 203.298 155.896 205.348 159.839C206.382 161.845 207.042 164.03 207.309 166.303C207.309 166.427 207.238 166.534 207.113 166.552C207.113 166.552 207.113 166.552 207.095 166.552L207.06 166.534Z" fill="#210B04"/>
<path d="M201.266 175.52C201.177 175.52 201.088 175.449 201.052 175.36C201.017 175.236 201.088 175.112 201.195 175.076C202.104 174.81 203.405 174.242 204.564 173.016C205.972 171.525 206.382 169.82 206.507 168.95C206.507 168.825 206.632 168.736 206.757 168.754C206.881 168.754 206.97 168.879 206.953 169.003C206.828 169.926 206.382 171.738 204.885 173.318C203.673 174.615 202.264 175.236 201.32 175.502C201.302 175.502 201.284 175.502 201.248 175.502L201.266 175.52Z" fill="#210B04"/>
<path d="M295.994 175.52C294.853 175.342 291.127 174.525 289.256 171.222C288.739 170.316 288.418 169.304 288.293 168.203C288.293 168.079 288.364 167.972 288.489 167.954C288.614 167.937 288.721 168.025 288.739 168.15C288.863 169.18 289.166 170.139 289.648 170.991C291.413 174.117 294.978 174.898 296.029 175.076C296.154 175.093 296.226 175.2 296.208 175.324C296.208 175.431 296.101 175.52 295.994 175.52Z" fill="#210B04"/>
<path d="M219.217 150.054C218.736 150.054 218.326 149.663 218.326 149.166C218.326 148.669 218.718 148.278 219.217 148.278C219.716 148.278 220.108 148.669 220.108 149.166C220.108 149.663 219.716 150.054 219.217 150.054ZM219.217 148.722C218.967 148.722 218.771 148.918 218.771 149.166C218.771 149.415 218.967 149.61 219.217 149.61C219.467 149.61 219.663 149.415 219.663 149.166C219.663 148.918 219.467 148.722 219.217 148.722Z" fill="#210B04"/>
<path d="M245.225 148.385C244.637 148.385 244.174 147.905 244.174 147.337C244.174 146.769 244.655 146.289 245.225 146.289C245.796 146.289 246.277 146.769 246.277 147.337C246.277 147.905 245.796 148.385 245.225 148.385ZM245.225 146.715C244.887 146.715 244.619 146.982 244.619 147.319C244.619 147.656 244.887 147.923 245.225 147.923C245.564 147.923 245.831 147.656 245.831 147.319C245.831 146.982 245.564 146.715 245.225 146.715Z" fill="#210B04"/>
<path d="M272.321 149.645C271.84 149.645 271.465 149.255 271.465 148.793C271.465 148.331 271.858 147.94 272.321 147.94C272.784 147.94 273.177 148.331 273.177 148.793C273.177 149.255 272.784 149.645 272.321 149.645ZM272.321 148.384C272.089 148.384 271.911 148.562 271.911 148.793C271.911 149.024 272.089 149.201 272.321 149.201C272.553 149.201 272.731 149.024 272.731 148.793C272.731 148.562 272.553 148.384 272.321 148.384Z" fill="#210B04"/>
<path d="M218.611 146.13C218.486 146.13 218.397 146.041 218.397 145.916C218.29 144.229 217.862 142.596 217.149 141.068C216.258 139.204 214.921 137.517 213.281 136.22C213.192 136.149 213.174 136.007 213.245 135.901C213.316 135.812 213.459 135.794 213.566 135.865C215.277 137.197 216.65 138.937 217.577 140.873C218.326 142.454 218.753 144.123 218.86 145.881C218.86 146.005 218.771 146.112 218.646 146.112L218.611 146.13Z" fill="#210B04"/>
<path d="M220.215 165.078C220.055 165.06 219.983 164.936 220.001 164.811C220.5 161.828 220.589 158.809 220.269 155.826C220.126 154.423 219.876 153.037 219.538 151.67C219.502 151.546 219.573 151.439 219.698 151.404C219.823 151.368 219.93 151.439 219.966 151.564C220.304 152.949 220.554 154.369 220.696 155.79C221.017 158.809 220.928 161.863 220.429 164.9C220.411 165.007 220.322 165.078 220.215 165.078Z" fill="#210B04"/>
<path d="M206.596 154.298C206.596 154.298 206.471 154.263 206.418 154.21C206.346 154.121 206.364 153.979 206.453 153.89C208.29 152.469 210.34 151.404 212.532 150.729C214.012 150.285 215.527 150.001 217.06 149.912C217.185 149.912 217.292 150.001 217.292 150.125C217.292 150.25 217.203 150.356 217.078 150.356C215.58 150.445 214.101 150.711 212.657 151.137C210.5 151.795 208.503 152.842 206.721 154.227C206.685 154.263 206.632 154.281 206.578 154.281L206.596 154.298Z" fill="#210B04"/>
<path d="M222.622 149.983C222.622 149.983 222.461 149.948 222.426 149.877C222.372 149.77 222.408 149.628 222.515 149.575C223.959 148.758 225.474 148.101 227.025 147.621C232.997 145.792 238.523 146.822 242.106 148.03C242.23 148.065 242.284 148.19 242.248 148.314C242.213 148.438 242.088 148.492 241.963 148.456C238.434 147.284 233.014 146.254 227.15 148.065C225.617 148.527 224.137 149.184 222.729 149.983C222.693 150.001 222.657 150.019 222.622 150.019V149.983Z" fill="#210B04"/>
<path d="M245.118 144.336C244.958 144.318 244.887 144.194 244.904 144.088C245.279 141.548 245.404 138.973 245.297 136.416C245.19 134.018 244.887 131.621 244.37 129.277C244.352 129.153 244.423 129.046 244.548 129.011C244.673 128.993 244.78 129.064 244.815 129.188C245.332 131.55 245.653 133.983 245.76 136.416C245.867 139.009 245.724 141.601 245.35 144.176C245.35 144.283 245.243 144.372 245.136 144.372L245.118 144.336Z" fill="#210B04"/>
<path d="M245.992 164.776C245.831 164.74 245.742 164.634 245.778 164.51C246.491 160.905 246.544 157.3 245.956 153.766C245.724 152.381 245.386 150.978 244.94 149.628C244.904 149.504 244.976 149.379 245.083 149.344C245.207 149.308 245.332 149.362 245.368 149.486C245.813 150.853 246.152 152.274 246.402 153.677C247.008 157.246 246.954 160.922 246.223 164.581C246.206 164.687 246.116 164.758 246.01 164.758L245.992 164.776Z" fill="#210B04"/>
<path d="M270.378 149.645C266.26 148.651 262.106 147.976 257.935 147.656C254.459 147.39 250.912 147.354 247.418 147.55C247.275 147.55 247.186 147.461 247.186 147.337C247.186 147.212 247.275 147.106 247.4 147.106C250.912 146.893 254.477 146.928 257.971 147.212C262.142 147.532 266.331 148.207 270.431 149.219C270.556 149.255 270.627 149.361 270.592 149.485C270.574 149.592 270.467 149.645 270.378 149.645Z" fill="#210B04"/>
<path d="M272.963 147.071C272.802 147.035 272.713 146.929 272.749 146.804C273.248 144.425 273.48 141.974 273.462 139.541C273.444 137.197 273.177 134.87 272.66 132.58C272.642 132.455 272.713 132.349 272.838 132.313C272.963 132.296 273.07 132.367 273.105 132.473C273.622 134.782 273.89 137.161 273.908 139.523C273.925 141.992 273.694 144.46 273.194 146.893C273.177 147 273.088 147.071 272.981 147.071H272.963Z" fill="#210B04"/>
<path d="M270.948 164.545C270.752 164.474 270.699 164.35 270.734 164.243C272.143 160.887 272.784 157.424 272.624 153.961C272.588 152.931 272.464 151.883 272.267 150.835C272.25 150.711 272.321 150.605 272.446 150.569C272.571 150.551 272.677 150.622 272.713 150.747C272.909 151.794 273.034 152.86 273.07 153.925C273.23 157.442 272.571 160.976 271.144 164.385C271.109 164.474 271.02 164.527 270.931 164.527L270.948 164.545Z" fill="#210B04"/>
<path d="M291.555 154.92C291.555 154.92 291.448 154.92 291.413 154.866C288.792 152.629 284.496 149.858 278.863 149.379C277.473 149.255 276.047 149.29 274.638 149.468C274.496 149.485 274.406 149.397 274.389 149.272C274.389 149.148 274.46 149.041 274.585 149.024C276.029 148.846 277.473 148.811 278.899 148.935C284.657 149.414 289.042 152.238 291.716 154.529C291.805 154.6 291.823 154.742 291.733 154.849C291.698 154.902 291.627 154.92 291.573 154.92H291.555Z" fill="#210B04"/>
<path d="M284.621 186.921H210.643V188.306H284.621V186.921Z" fill="#4F3B30"/>
<path d="M285.815 166.978L250.983 166.587L257.418 124.837L292.251 125.228L285.815 166.978Z" fill="#E2A379"/>
<path d="M284.888 165.592L252.338 165.219L258.345 126.222L290.896 126.595L284.888 165.592Z" fill="#EDE1D9"/>
<path d="M283.765 163.924L253.96 163.586L259.468 127.874L289.274 128.211L283.765 163.924Z" fill="#CEBCB3"/>
<path d="M270.628 149.38C269.754 149.38 268.881 149.291 268.043 149.131C259.219 147.373 256.491 137.25 256.206 136.114C256.171 135.99 256.242 135.883 256.367 135.848C256.491 135.812 256.598 135.883 256.634 136.007C256.901 137.126 259.558 147 268.114 148.705C275.993 150.285 285.298 144.159 290.254 134.178C290.307 134.072 290.45 134.018 290.557 134.072C290.664 134.125 290.718 134.267 290.664 134.374C286.154 143.466 278.061 149.38 270.61 149.38H270.628Z" fill="#210B04"/>
<path d="M102.249 189.467H95.7509V195.174H102.249V189.467Z" fill="#212526"/>
<path d="M119.402 195.062H78.5974V197.004H119.402V195.062Z" fill="#3A4245"/>
<path d="M73.7083 152H124.292C125.235 152 126 152.766 126 153.711V189.524C126 190.468 125.235 191.235 124.292 191.235H73.7083C72.7652 191.235 72 190.468 72 189.524V153.711C72 152.766 72.7652 152 73.7083 152Z" fill="#3A4245"/>
<path d="M72 189.525C72 190.469 72.7652 191.235 73.7083 191.235H124.292C125.235 191.235 126 190.469 126 189.525V153.711L72 189.525Z" fill="#2E3638"/>
<path d="M122.703 188.617C122.703 188.924 122.455 189.172 122.149 189.172H121.09C120.784 189.172 120.536 188.924 120.536 188.617C120.536 188.311 120.784 188.062 121.09 188.062H122.149C122.455 188.062 122.703 188.311 122.703 188.617Z" fill="#FF3912"/>
<path d="M123.564 155.454H74.4363V185.813H123.564V155.454Z" fill="#92D3EA"/>
<path d="M28.762 34.488V33.012H30.022V38.862H18.088V33.012H19.348V34.488H28.762ZM19.348 35.676V37.674H28.762V35.676H19.348ZM17.008 28.962L20.032 23.526H23.38L26.404 28.962H24.892L22.516 24.714H20.986L18.502 28.962H17.008ZM27.142 31.086H22.264V33.138H21.004V31.086H16.432V29.898H27.142V31.086ZM28.762 32.184V23.418H30.022V32.184H28.762ZM38.129 37.278V28.368H39.389V37.278H47.147V38.466H32.621V37.278H38.129ZM44.465 24.678H33.575V23.49H45.941L44.717 33.552H43.385L44.465 24.678ZM55.2479 25.668H56.5979L56.1479 31.05H59.0639L59.5139 25.668H60.8639L60.4139 31.05H62.6819V32.238H53.0879V31.05H54.7979L55.2479 25.668ZM65.6159 25.974V23.418H66.8759V34.506H65.6159V30.186H62.4839V28.998H65.6159V27.162H62.4839V25.974H65.6159ZM56.0579 33.606V37.674H67.2539V38.862H54.7979V33.606H56.0579ZM53.1059 23.616H62.8439V24.804H53.1059V23.616ZM71.1849 37.098H78.3849V38.286H69.9249V29.934H76.3329V24.804H69.9609V23.616H77.5929V31.122H71.1849V37.098ZM81.3549 23.418H82.6149V38.466H81.3549V23.418ZM89.2459 32.904C88.9819 32.892 88.6459 32.88 88.2379 32.868C87.7819 32.856 87.3859 32.766 87.0499 32.598C86.7139 32.43 86.4319 32.214 86.2039 31.95C85.9879 31.686 85.8199 31.392 85.6999 31.068C85.5919 30.732 85.5379 30.402 85.5379 30.078C85.5379 29.754 85.5859 29.43 85.6819 29.106C85.7899 28.782 85.9519 28.494 86.1679 28.242C86.3839 27.978 86.6659 27.768 87.0139 27.612C87.3619 27.444 87.7819 27.354 88.2739 27.342C88.6339 27.33 88.9459 27.324 89.2099 27.324C89.4859 27.324 89.7499 27.324 90.0019 27.324C90.2539 27.324 90.5119 27.33 90.7759 27.342C91.0399 27.342 91.3459 27.342 91.6939 27.342C92.1859 27.342 92.6059 27.426 92.9539 27.594C93.3019 27.75 93.5839 27.96 93.7999 28.224C94.0159 28.488 94.1719 28.782 94.2679 29.106C94.3759 29.43 94.4299 29.754 94.4299 30.078C94.4299 30.402 94.3699 30.732 94.2499 31.068C94.1419 31.392 93.9739 31.686 93.7459 31.95C93.5299 32.214 93.2479 32.43 92.8999 32.598C92.5639 32.766 92.1739 32.856 91.7299 32.868C91.3219 32.88 90.9859 32.892 90.7219 32.904C90.4579 32.904 90.2119 32.904 89.9839 32.904C89.7559 32.904 89.5099 32.904 89.2459 32.904ZM99.0019 38.862H86.6719V34.092H87.9319V37.674H99.0019V38.862ZM89.9839 31.716C90.5239 31.716 91.1179 31.698 91.7659 31.662C92.1379 31.638 92.4499 31.488 92.7019 31.212C92.9659 30.936 93.0979 30.558 93.0979 30.078C93.0979 29.574 92.9659 29.19 92.7019 28.926C92.4499 28.65 92.1379 28.506 91.7659 28.494C91.1179 28.47 90.5239 28.458 89.9839 28.458C89.4439 28.458 88.8499 28.47 88.2019 28.494C87.8299 28.506 87.5119 28.65 87.2479 28.926C86.9959 29.19 86.8699 29.574 86.8699 30.078C86.8699 30.558 86.9959 30.936 87.2479 31.212C87.5119 31.488 87.8299 31.638 88.2019 31.662C88.8499 31.698 89.4439 31.716 89.9839 31.716ZM98.2459 28.224H100.82V29.412H98.2459V34.488H96.9859V23.418H98.2459V28.224ZM94.7539 25.092V26.28H85.1959V25.092H89.2819L89.8039 23.004H91.1719L90.6679 25.092H94.7539ZM33.706 56.12V47.826H37.658V69.562H33.706V60.072H32.328V69.562H28.376V47.826H32.328V56.12H33.706ZM16.884 69.302V47.852H26.634V51.44H21.096V65.714H27.388V69.302H16.884ZM39.9302 52.246V48.944H44.3242L44.6882 47.228H50.1222L49.8102 48.944H53.7362V51.232H56.2062V47.826H60.4182V60.956H56.2062V59.63H53.5542V55.99H56.2062V54.872H53.5542V52.246H39.9302ZM46.7162 60.592C45.5028 60.592 44.5928 60.5833 43.9862 60.566C42.8422 60.5313 41.9322 60.176 41.2562 59.5C40.5802 58.8067 40.2422 57.8967 40.2422 56.77C40.2422 55.6607 40.4848 54.8373 40.9702 54.3C41.4555 53.7453 42.0708 53.39 42.8162 53.234C43.5615 53.078 44.4888 53 45.5982 53H46.7162H47.9122C49.0042 53 49.9142 53.078 50.6422 53.234C51.3875 53.39 51.9942 53.7453 52.4622 54.3C52.9475 54.8373 53.1902 55.6607 53.1902 56.77C53.1902 57.8967 52.8522 58.8067 52.1762 59.5C51.5002 60.176 50.5902 60.5313 49.4462 60.566C48.8395 60.5833 47.9295 60.592 46.7162 60.592ZM46.6902 57.706C46.7768 57.706 47.0368 57.7147 47.4702 57.732C47.9035 57.732 48.2588 57.654 48.5362 57.498C48.8308 57.342 48.9782 57.0993 48.9782 56.77C48.9782 56.3367 48.7962 56.068 48.4322 55.964C48.0682 55.86 47.7128 55.8167 47.3662 55.834C47.0195 55.834 46.8028 55.834 46.7162 55.834C46.6295 55.834 46.3695 55.834 45.9362 55.834C45.5028 55.8167 45.1475 55.886 44.8702 56.042C44.5928 56.1807 44.4542 56.4233 44.4542 56.77C44.4542 57.2033 44.6362 57.472 45.0002 57.576C45.3642 57.68 45.7108 57.732 46.0402 57.732C46.3868 57.7147 46.6035 57.706 46.6902 57.706ZM50.5382 70.186C49.0648 70.186 47.6002 70.16 46.1442 70.108C44.7228 70.056 43.5788 69.6747 42.7122 68.964C41.8628 68.2707 41.4382 67.2393 41.4382 65.87C41.4382 63.1487 43.0242 61.7447 46.1962 61.658C47.2362 61.6233 48.7875 61.606 50.8502 61.606C51.8728 61.606 53.4242 61.6233 55.5042 61.658C58.6762 61.71 60.2622 63.114 60.2622 65.87C60.2622 67.2393 59.8288 68.2707 58.9622 68.964C58.1128 69.6747 56.9775 70.056 55.5562 70.108C54.4468 70.16 52.7742 70.186 50.5382 70.186ZM50.8502 66.832C52.6528 66.832 54.0048 66.8147 54.9062 66.78C55.3915 66.7627 55.7468 66.702 55.9722 66.598C56.2148 66.5113 56.3362 66.2687 56.3362 65.87C56.3362 65.454 56.2235 65.2027 55.9982 65.116C55.7728 65.012 55.4088 64.9513 54.9062 64.934C54.0048 64.8993 52.6528 64.882 50.8502 64.882C49.0475 64.882 47.6955 64.8993 46.7942 64.934C46.2915 64.9513 45.9275 65.012 45.7022 65.116C45.4768 65.2027 45.3642 65.454 45.3642 65.87C45.3642 66.2687 45.4768 66.5113 45.7022 66.598C45.9448 66.702 46.3088 66.7627 46.7942 66.78C47.6955 66.8147 49.0475 66.832 50.8502 66.832ZM87.8134 51.57V47.826H91.7654V59.682H87.8134V55.522H86.3574V59.682H82.4054V47.826H86.3574V51.57H87.8134ZM78.4534 59.266L77.2054 52.688C77.1708 53.26 76.5901 55.0367 75.4634 58.018L74.9694 59.344H70.6014L74.7094 47.878H79.6494L82.0934 59.266H78.4534ZM82.0154 70.16C80.0221 70.16 78.5228 70.134 77.5174 70.082C76.0614 70.0127 74.9088 69.5447 74.0594 68.678C73.2274 67.8287 72.8114 66.6847 72.8114 65.246C72.8114 63.738 73.2188 62.5767 74.0334 61.762C74.8654 60.9473 76.0441 60.514 77.5694 60.462C78.6268 60.4273 80.2214 60.41 82.3534 60.41C84.4854 60.41 86.0801 60.4273 87.1374 60.462C88.6628 60.4967 89.8328 60.9213 90.6474 61.736C91.4794 62.5507 91.8954 63.7207 91.8954 65.246C91.8954 66.6847 91.4708 67.8287 90.6214 68.678C89.7721 69.5447 88.6281 70.0127 87.1894 70.082C86.0454 70.134 84.3208 70.16 82.0154 70.16ZM84.0174 66.494C85.1441 66.494 85.9848 66.4767 86.5394 66.442C87.0421 66.4073 87.4061 66.312 87.6314 66.156C87.8568 66 87.9694 65.6967 87.9694 65.246C87.9694 64.778 87.8568 64.466 87.6314 64.31C87.4061 64.154 87.0421 64.0587 86.5394 64.024C85.9848 63.9893 85.1441 63.972 84.0174 63.972H82.3534H80.6894C79.5628 63.972 78.7221 63.9893 78.1674 64.024C77.6648 64.0587 77.3008 64.154 77.0754 64.31C76.8501 64.466 76.7374 64.778 76.7374 65.246C76.7374 65.6967 76.8501 66 77.0754 66.156C77.3008 66.312 77.6648 66.4073 78.1674 66.442C78.7221 66.4767 79.5628 66.494 80.6894 66.494H82.3534H84.0174ZM94.4276 51.336V48.788H99.0816L99.4196 47.462H104.854L104.542 48.788H108.104V51.336H94.4276ZM114.058 55.834V60.826H109.846V47.826H114.058V52.246H116.736V55.834H114.058ZM94.7396 54.664C94.7396 53.7453 95.0082 53.0867 95.5456 52.688C96.0829 52.272 96.6809 52.0293 97.3396 51.96C97.9982 51.8733 98.8996 51.83 100.044 51.83H102.54C103.614 51.83 104.498 51.8733 105.192 51.96C105.885 52.0467 106.5 52.298 107.038 52.714C107.592 53.1127 107.87 53.7627 107.87 54.664C107.87 55.4613 107.67 56.0593 107.272 56.458C106.873 56.8567 106.379 57.1167 105.79 57.238C105.218 57.3593 104.507 57.4287 103.658 57.446V58.2H108.546V60.774H94.1156V58.2H98.9256V57.446C98.0589 57.4287 97.3396 57.3593 96.7676 57.238C96.1956 57.1167 95.7102 56.8567 95.3116 56.458C94.9302 56.0593 94.7396 55.4613 94.7396 54.664ZM98.8736 54.664C98.8736 55.028 99.1856 55.2013 99.8096 55.184C100.451 55.1667 100.798 55.158 100.85 55.158H101.76C101.812 55.158 102.011 55.1667 102.358 55.184C102.704 55.184 103.016 55.1493 103.294 55.08C103.571 54.9933 103.71 54.8547 103.71 54.664C103.71 54.4213 103.536 54.274 103.19 54.222C102.843 54.17 102.522 54.1527 102.228 54.17C101.95 54.17 101.786 54.17 101.734 54.17H100.85C100.798 54.17 100.451 54.1613 99.8096 54.144C99.1856 54.1267 98.8736 54.3 98.8736 54.664ZM114.318 70.108H95.9096V64.57H109.846V63.92H95.9096V61.606H114.058V66.858H100.148V67.664H114.318V70.108ZM137.059 69.562V63.946H134.407L134.329 65.688H135.993V69.302H124.735V65.688H125.645L126.321 52.532H129.987L129.311 65.688H130.689L131.391 52.532H135.005L134.953 53.494H137.059V47.826H140.777V69.562H137.059ZM141.791 69.562V47.826H145.509V69.562H141.791ZM124.917 47.852H135.889V51.466H124.917V47.852ZM137.059 59.942V57.498H134.745L134.615 59.942H137.059ZM164.421 69.562V47.826H168.633V69.562H164.421ZM161.665 47.852L158.077 69.302H153.761L156.725 51.44H148.665V47.852H161.665ZM173.193 54.846V47.878H191.081V54.846H173.193ZM186.895 52.012V50.686H177.405V52.012H186.895ZM186.869 62.724H173.193V59.916H179.771V58.642H171.633V55.912H192.641V58.642H184.503V59.916H191.081V66.286H177.431V67.3H191.341V70.108H173.193V63.634H186.869V62.724ZM31.028 86.276C30.872 86.016 30.43 85.288 29.702 84.092C28.9913 82.896 28.2807 81.7953 27.57 80.79C27.2927 81.2927 27.128 81.5873 27.076 81.674L22.188 89.032H16.754L24.684 77.722H29.832L37.008 89.032H32.718L31.028 86.276ZM24.736 100.03V94.44H16.624V90.67H37.606V94.44H29.468V100.03H24.736ZM54.9874 99.562V89.552H49.9954L48.3834 99.302H44.0674L47.0314 81.44H39.2314V77.852H51.9714L50.6714 85.6H54.9874V77.826H59.1994V99.562H54.9874ZM85.6847 93.062V77.826H89.8967V93.062H85.6847ZM79.1847 90.384C78.9073 89.3787 78.682 88.5293 78.5087 87.836C77.9367 85.6693 77.4253 83.9013 76.9747 82.532C76.94 82.6707 76.8793 82.8873 76.7927 83.182C76.7233 83.4767 76.6453 83.7193 76.5587 83.91L73.8547 90.41H69.2007L74.4787 77.878H79.4187L82.9547 90.384H79.1847ZM90.2347 96.546V100.134H71.5667V92.048H75.7787V96.546H90.2347ZM104.207 83.078L104.545 84.118H109.095V77.826H113.307V89.916H109.095V87.758H105.715L106.391 89.734H102.569L102.257 88.85C101.39 86.5447 100.766 84.6553 100.385 83.182C100.246 83.702 99.9255 84.5253 99.4228 85.652C99.3362 85.808 99.2235 86.042 99.0848 86.354L97.4468 89.812H92.7928L95.8868 83.078H93.0788V79.646H97.5248L97.9668 77.488H103.401L103.011 79.646H106.365V83.078H104.207ZM103.843 100.134C101.884 100.134 100.419 100.108 99.4488 100.056C97.9928 99.9867 96.8402 99.536 95.9908 98.704C95.1588 97.8893 94.7428 96.7627 94.7428 95.324C94.7428 93.816 95.1502 92.6807 95.9648 91.918C96.7968 91.1553 97.9755 90.748 99.5008 90.696C100.541 90.6613 102.092 90.644 104.155 90.644C105.177 90.644 106.729 90.6613 108.809 90.696C110.334 90.7307 111.504 91.138 112.319 91.918C113.151 92.6807 113.567 93.816 113.567 95.324C113.567 96.7627 113.142 97.8893 112.293 98.704C111.443 99.536 110.299 99.9867 108.861 100.056C107.751 100.108 106.079 100.134 103.843 100.134ZM105.767 96.468C106.859 96.468 107.673 96.4507 108.211 96.416C108.696 96.3813 109.051 96.2947 109.277 96.156C109.519 96.0173 109.641 95.74 109.641 95.324C109.641 94.908 109.519 94.6307 109.277 94.492C109.034 94.3533 108.679 94.2753 108.211 94.258C107.673 94.2233 106.859 94.206 105.767 94.206H104.155H102.543C101.451 94.206 100.636 94.2233 100.099 94.258C99.6308 94.2753 99.2755 94.3533 99.0328 94.492C98.7902 94.6307 98.6688 94.908 98.6688 95.324C98.6688 95.792 98.7728 96.0867 98.9808 96.208C99.2062 96.3293 99.5788 96.3987 100.099 96.416C101 96.4507 102.352 96.468 104.155 96.468H105.767Z" fill="white"/>
</svg>
