<svg width="312" height="217" viewBox="0 0 312 217" fill="none" xmlns="http://www.w3.org/2000/svg">
<path d="M282.593 212.293C276.968 213.291 271.438 213.7 260.379 214.519C246.555 215.543 236.03 215.893 234.227 215.951C176.967 217.788 102.437 216.711 83.7882 216.428C83.7882 216.428 -5.34961 218.615 0.253504 199.004C2.68109 190.509 71.8011 189.622 105.509 190.514C136.934 191.346 168.489 189.236 199.928 189.868C231.034 190.493 304.514 186.88 311.835 200.375C313.932 204.24 295.567 209.991 282.593 212.293Z" fill="#E6E6E6"/>
<path d="M84.1109 206.35L216.93 206.35C220.656 206.35 223.677 203.33 223.677 199.605L223.677 12.315C223.677 8.58995 220.656 5.57022 216.93 5.57022L84.1109 5.57022C80.3848 5.57022 77.3642 8.58995 77.3642 12.315L77.3642 199.605C77.3642 203.33 80.3848 206.35 84.1109 206.35Z" fill="#7C7C7C"/>
<path d="M85.7498 202.954L215.993 202.954C218.022 202.954 219.666 201.31 219.666 199.282L219.666 12.6383C219.666 10.6103 218.022 8.96623 215.993 8.96623L85.7498 8.96623C83.7213 8.96623 82.0768 10.6103 82.0768 12.6383L82.0768 199.282C82.0768 201.31 83.7213 202.954 85.7498 202.954Z" fill="white"/>
<path d="M116.231 11.264C116.662 11.264 117.011 10.9152 117.011 10.485C117.011 10.0548 116.662 9.70599 116.231 9.70599C115.801 9.70599 115.452 10.0548 115.452 10.485C115.452 10.9152 115.801 11.264 116.231 11.264Z" fill="#312A2A"/>
<path d="M93.0312 11.264C93.4615 11.264 93.8104 10.9152 93.8104 10.485C93.8104 10.0548 93.4615 9.70599 93.0312 9.70599C92.6008 9.70599 92.252 10.0548 92.252 10.485C92.252 10.9152 92.6008 11.264 93.0312 11.264Z" fill="#312A2A"/>
<path d="M209.031 11.264C209.462 11.264 209.81 10.9152 209.81 10.485C209.81 10.0548 209.462 9.70599 209.031 9.70599C208.601 9.70599 208.252 10.0548 208.252 10.485C208.252 10.9152 208.601 11.264 209.031 11.264Z" fill="#312A2A"/>
<path d="M185.831 11.264C186.261 11.264 186.61 10.9152 186.61 10.485C186.61 10.0548 186.261 9.70599 185.831 9.70599C185.401 9.70599 185.052 10.0548 185.052 10.485C185.052 10.9152 185.401 11.264 185.831 11.264Z" fill="#312A2A"/>
<path d="M162.632 11.264C163.062 11.264 163.411 10.9152 163.411 10.485C163.411 10.0548 163.062 9.70599 162.632 9.70599C162.201 9.70599 161.853 10.0548 161.853 10.485C161.853 10.9152 162.201 11.264 162.632 11.264Z" fill="#312A2A"/>
<path d="M139.431 11.264C139.861 11.264 140.21 10.9152 140.21 10.485C140.21 10.0548 139.861 9.70599 139.431 9.70599C139 9.70599 138.651 10.0548 138.651 10.485C138.651 10.9152 139 11.264 139.431 11.264Z" fill="#312A2A"/>
<path d="M209.138 10.9463C208.883 10.9463 208.677 10.7393 208.677 10.485C208.677 10.2307 208.884 10.0237 209.138 10.0237C211.647 10.0237 213.689 7.98268 213.689 5.47395C213.689 2.96522 211.647 0.924218 209.138 0.924218C206.629 0.924218 204.587 2.96522 204.587 5.47395C204.587 5.72908 204.38 5.93526 204.126 5.93526C203.871 5.93526 203.664 5.72827 203.664 5.47395C203.664 2.45577 206.12 0.000793457 209.139 0.000793457C212.158 0.000793457 214.613 2.45577 214.613 5.47395C214.613 8.49213 212.158 10.9471 209.139 10.9471L209.138 10.9463Z" fill="#312A2A"/>
<path d="M209.138 10.9463C208.883 10.9463 208.677 10.7393 208.677 10.485C208.677 10.2307 208.884 10.0237 209.138 10.0237C211.648 10.0237 213.689 7.98268 213.689 5.47395C213.689 5.21882 213.896 5.01263 214.151 5.01263C214.405 5.01263 214.612 5.21962 214.612 5.47395C214.612 8.49212 212.156 10.9471 209.137 10.9471L209.138 10.9463Z" fill="#312A2A"/>
<path d="M185.831 10.9463C185.576 10.9463 185.37 10.7393 185.37 10.485C185.37 10.2307 185.577 10.0237 185.831 10.0237C188.341 10.0237 190.382 7.98268 190.382 5.47395C190.382 2.96522 188.341 0.924218 185.831 0.924218C183.322 0.924218 181.28 2.96522 181.28 5.47395C181.28 5.72908 181.073 5.93526 180.819 5.93526C180.564 5.93526 180.357 5.72827 180.357 5.47395C180.357 2.45577 182.813 0.000793457 185.832 0.000793457C188.851 0.000793457 191.307 2.45577 191.307 5.47395C191.307 8.49213 188.851 10.9471 185.832 10.9471L185.831 10.9463Z" fill="#312A2A"/>
<path d="M185.832 10.9463C185.576 10.9463 185.37 10.7393 185.37 10.485C185.37 10.2307 185.577 10.0237 185.832 10.0237C188.341 10.0237 190.383 7.98268 190.383 5.47395C190.383 5.21882 190.59 5.01263 190.844 5.01263C191.098 5.01263 191.305 5.21962 191.305 5.47395C191.305 8.49212 188.85 10.9471 185.831 10.9471L185.832 10.9463Z" fill="#312A2A"/>
<path d="M162.525 10.9463C162.269 10.9463 162.063 10.7393 162.063 10.485C162.063 10.2307 162.27 10.0237 162.525 10.0237C165.034 10.0237 167.076 7.98268 167.076 5.47395C167.076 2.96522 165.034 0.924218 162.525 0.924218C160.015 0.924218 157.974 2.96522 157.974 5.47395C157.974 5.72908 157.767 5.93526 157.512 5.93526C157.258 5.93526 157.051 5.72827 157.051 5.47395C157.051 2.45577 159.506 0.000793457 162.525 0.000793457C165.545 0.000793457 168 2.45577 168 5.47395C168 8.49213 165.545 10.9471 162.525 10.9471L162.525 10.9463Z" fill="#312A2A"/>
<path d="M162.525 10.9463C162.27 10.9463 162.063 10.7393 162.063 10.485C162.063 10.2307 162.271 10.0237 162.525 10.0237C165.034 10.0237 167.076 7.98268 167.076 5.47395C167.076 5.21882 167.283 5.01263 167.537 5.01263C167.792 5.01263 167.999 5.21962 167.999 5.47395C167.999 8.49212 165.543 10.9471 162.524 10.9471L162.525 10.9463Z" fill="#312A2A"/>
<path d="M139.218 10.9463C138.963 10.9463 138.757 10.7393 138.757 10.485C138.757 10.2307 138.964 10.0237 139.218 10.0237C141.727 10.0237 143.769 7.98268 143.769 5.47395C143.769 2.96522 141.727 0.924218 139.218 0.924218C136.709 0.924218 134.667 2.96522 134.667 5.47395C134.667 5.72908 134.46 5.93526 134.206 5.93526C133.951 5.93526 133.744 5.72827 133.744 5.47395C133.744 2.45577 136.2 0.000793457 139.219 0.000793457C142.238 0.000793457 144.694 2.45577 144.694 5.47395C144.694 8.49213 142.238 10.9471 139.219 10.9471L139.218 10.9463Z" fill="#312A2A"/>
<path d="M139.217 10.9463C138.962 10.9463 138.756 10.7393 138.756 10.485C138.756 10.2307 138.963 10.0237 139.217 10.0237C141.727 10.0237 143.768 7.98268 143.768 5.47395C143.768 5.21882 143.975 5.01263 144.23 5.01263C144.484 5.01263 144.691 5.21962 144.691 5.47395C144.691 8.49212 142.236 10.9471 139.216 10.9471L139.217 10.9463Z" fill="#312A2A"/>
<path d="M115.911 10.9463C115.656 10.9463 115.45 10.7393 115.45 10.485C115.45 10.2307 115.657 10.0237 115.911 10.0237C118.421 10.0237 120.462 7.98268 120.462 5.47395C120.462 2.96522 118.421 0.924218 115.911 0.924218C113.402 0.924218 111.36 2.96522 111.36 5.47395C111.36 5.72908 111.153 5.93526 110.899 5.93526C110.645 5.93526 110.438 5.72827 110.438 5.47395C110.438 2.45577 112.893 0.000793457 115.912 0.000793457C118.931 0.000793457 121.387 2.45577 121.387 5.47395C121.387 8.49213 118.931 10.9471 115.912 10.9471L115.911 10.9463Z" fill="#312A2A"/>
<path d="M115.911 10.9463C115.655 10.9463 115.449 10.7393 115.449 10.485C115.449 10.2307 115.656 10.0237 115.911 10.0237C118.42 10.0237 120.462 7.98268 120.462 5.47395C120.462 5.21882 120.669 5.01263 120.923 5.01263C121.178 5.01263 121.385 5.21962 121.385 5.47395C121.385 8.49212 118.929 10.9471 115.91 10.9471L115.911 10.9463Z" fill="#312A2A"/>
<path d="M92.6038 10.9463C92.3486 10.9463 92.1424 10.7393 92.1424 10.485C92.1424 10.2307 92.3494 10.0237 92.6038 10.0237C95.1132 10.0237 97.1548 7.98268 97.1548 5.47395C97.1548 2.96522 95.1132 0.924218 92.6038 0.924218C90.0944 0.924218 88.0528 2.96522 88.0528 5.47395C88.0528 5.72908 87.8457 5.93526 87.5913 5.93526C87.3369 5.93526 87.1299 5.72827 87.1299 5.47395C87.1299 2.45577 89.5856 0.000793457 92.6046 0.000793457C95.6236 0.000793457 98.0793 2.45577 98.0793 5.47395C98.0793 8.49213 95.6236 10.9471 92.6046 10.9471L92.6038 10.9463Z" fill="#312A2A"/>
<path d="M92.604 10.9463C92.3488 10.9463 92.1426 10.7393 92.1426 10.485C92.1426 10.2307 92.3496 10.0237 92.604 10.0237C95.1135 10.0237 97.155 7.98268 97.155 5.47395C97.155 5.21882 97.3621 5.01263 97.6165 5.01263C97.8709 5.01263 98.0779 5.21962 98.0779 5.47395C98.0779 8.49212 95.6223 10.9471 92.6032 10.9471L92.604 10.9463Z" fill="#312A2A"/>
<path d="M207.261 84.821H118.827C117.711 84.821 116.807 83.7853 116.807 82.5073C116.807 81.2292 117.711 80.1935 118.827 80.1935H207.261C208.377 80.1935 209.281 81.2292 209.281 82.5073C209.281 83.7853 208.377 84.821 207.261 84.821Z" fill="#E6E6E6"/>
<path d="M207.262 90.4531H118.827C118.667 90.4531 118.538 90.324 118.538 90.1643C118.538 90.0047 118.667 89.8755 118.827 89.8755H207.262C207.422 89.8755 207.551 90.0047 207.551 90.1643C207.551 90.324 207.422 90.4531 207.262 90.4531Z" fill="#252525"/>
<path d="M179.625 99.6127H118.827C117.769 99.6127 116.912 98.6307 116.912 97.4193C116.912 96.2078 117.769 95.2258 118.827 95.2258H179.625C180.683 95.2258 181.54 96.2078 181.54 97.4193C181.54 98.6307 180.683 99.6127 179.625 99.6127Z" fill="#7A7A7A"/>
<path d="M207.261 48.3374H118.827C117.711 48.3374 116.807 47.3016 116.807 46.0236C116.807 44.7456 117.711 43.7098 118.827 43.7098H207.261C208.377 43.7098 209.281 44.7456 209.281 46.0236C209.281 47.3016 208.377 48.3374 207.261 48.3374Z" fill="#E6E6E6"/>
<path d="M207.262 53.9686H118.827C118.667 53.9686 118.538 53.8395 118.538 53.6798C118.538 53.5202 118.667 53.391 118.827 53.391H207.262C207.422 53.391 207.551 53.5202 207.551 53.6798C207.551 53.8395 207.422 53.9686 207.262 53.9686Z" fill="#252525"/>
<path d="M179.625 63.1282H118.827C117.769 63.1282 116.912 62.1462 116.912 60.9348C116.912 59.7233 117.769 58.7413 118.827 58.7413H179.625C180.683 58.7413 181.54 59.7233 181.54 60.9348C181.54 62.1462 180.683 63.1282 179.625 63.1282Z" fill="#7A7A7A"/>
<path d="M207.261 121.071H118.827C117.711 121.071 116.807 120.035 116.807 118.757C116.807 117.479 117.711 116.443 118.827 116.443H207.261C208.377 116.443 209.281 117.479 209.281 118.757C209.281 120.035 208.377 121.071 207.261 121.071Z" fill="#E6E6E6"/>
<path d="M207.262 126.702H118.827C118.667 126.702 118.538 126.573 118.538 126.413C118.538 126.253 118.667 126.124 118.827 126.124H207.262C207.422 126.124 207.551 126.253 207.551 126.413C207.551 126.573 207.422 126.702 207.262 126.702Z" fill="#252525"/>
<path d="M179.625 135.861H118.827C117.769 135.861 116.912 134.879 116.912 133.668C116.912 132.456 117.769 131.474 118.827 131.474H179.625C180.683 131.474 181.54 132.456 181.54 133.668C181.54 134.879 180.683 135.861 179.625 135.861Z" fill="#7A7A7A"/>
<path d="M206.785 154.701H97.478C96.0993 154.701 94.9814 153.666 94.9814 152.388C94.9814 151.109 96.0993 150.074 97.478 150.074H206.785C208.163 150.074 209.281 151.109 209.281 152.388C209.281 153.666 208.163 154.701 206.785 154.701Z" fill="#E6E6E6"/>
<path d="M206.785 160.333H97.4784C97.3187 160.333 97.1895 160.204 97.1895 160.044C97.1895 159.885 97.3187 159.756 97.4784 159.756H206.785C206.945 159.756 207.074 159.885 207.074 160.044C207.074 160.204 206.945 160.333 206.785 160.333Z" fill="#252525"/>
<path d="M206.183 169.493H116.333C114.769 169.493 113.503 168.511 113.503 167.3C113.503 166.088 114.77 165.106 116.333 165.106H206.183C207.746 165.106 209.013 166.088 209.013 167.3C209.013 168.511 207.745 169.493 206.183 169.493Z" fill="#7A7A7A"/>
<path d="M101.94 100.185C107.705 100.185 112.378 95.5127 112.378 89.7495C112.378 83.9862 107.705 79.3142 101.94 79.3142C96.1753 79.3142 91.502 83.9862 91.502 89.7495C91.502 95.5127 96.1753 100.185 101.94 100.185Z" fill="#1A72C2"/>
<path d="M109.321 63.1127C113.397 59.0375 113.397 52.4303 109.321 48.355C105.244 44.2798 98.6351 44.2798 94.5587 48.355C90.4823 52.4303 90.4823 59.0375 94.5587 63.1127C98.6351 67.188 105.244 67.188 109.321 63.1127Z" fill="#BA6157"/>
<path d="M100.948 62.6468C100.843 62.6468 100.745 62.5891 100.694 62.4968L96.8341 55.4303C96.7579 55.2907 96.8092 55.115 96.9489 55.0388C97.0893 54.9626 97.2643 55.0139 97.3405 55.1535L100.936 61.7354L106.666 50.2893C106.737 50.1465 106.91 50.0887 107.053 50.1601C107.196 50.2315 107.254 50.4048 107.182 50.5476L101.205 62.4872C101.157 62.5834 101.06 62.6444 100.953 62.6468C100.951 62.6468 100.949 62.6468 100.948 62.6468Z" fill="#252525"/>
<path d="M101.94 65.7846C107.705 65.7846 112.378 61.1126 112.378 55.3493C112.378 49.5861 107.705 44.9141 101.94 44.9141C96.1753 44.9141 91.502 49.5861 91.502 55.3493C91.502 61.1126 96.1753 65.7846 101.94 65.7846Z" fill="#1A72C2"/>
<path d="M101.94 135.487C107.705 135.487 112.378 130.815 112.378 125.052C112.378 119.289 107.705 114.617 101.94 114.617C96.1753 114.617 91.502 119.289 91.502 125.052C91.502 130.815 96.1753 135.487 101.94 135.487Z" fill="#1A72C2"/>
<path d="M99.5821 23.4659H201.201C202.55 23.4659 203.646 24.561 203.646 25.9096V32.5244C203.646 33.8731 202.55 34.9682 201.201 34.9682H99.5821C98.2331 34.9682 97.1377 33.8731 97.1377 32.5244V25.9088C97.1377 24.5602 98.2331 23.4651 99.5821 23.4651V23.4659Z" fill="#E6E6E6"/>
<path d="M114.512 176.075H206.356C207.971 176.075 209.281 177.385 209.281 178.999V185.531C209.281 187.145 207.971 188.455 206.356 188.455H114.512C112.897 188.455 111.587 187.145 111.587 185.531V178.999C111.587 177.385 112.897 176.075 114.512 176.075Z" fill="#E6E6E6"/>
<path d="M101.585 130.61L96.1211 125.202L97.9027 123.403L101.467 126.93L107.383 120.274L109.277 121.955L101.585 130.61Z" fill="white"/>
<path d="M101.585 95.4176L96.1211 90.0095L97.9027 88.2099L101.467 91.7376L107.383 85.0811L109.277 86.7626L101.585 95.4176Z" fill="white"/>
<path d="M101.585 61.4603L96.1211 56.0529L97.9027 54.2534L101.467 57.781L107.383 51.1245L109.277 52.8061L101.585 61.4603Z" fill="white"/>
<path d="M205.597 148.355H272.103V90.3609H205.597V148.355Z" fill="url(#paint0_linear_1464_27322)"/>
<path d="M175.668 148.355H242.174V90.3609H175.668V148.355Z" fill="url(#paint1_linear_1464_27322)"/>
<path d="M211.549 90.3617H203.571V99.1298H211.549V90.3617Z" fill="white"/>
<path d="M262.429 90.3617H254.451V99.1298H262.429V90.3617Z" fill="white"/>
<path d="M272.103 131.995C271.989 131.995 271.897 131.904 271.897 131.79V90.5663H254.923C254.81 90.5663 254.718 90.474 254.718 90.3609C254.718 90.2478 254.809 90.1555 254.923 90.1555H272.103C272.216 90.1555 272.308 90.2478 272.308 90.3609V131.789C272.308 131.902 272.216 131.994 272.103 131.994V131.995Z" fill="#1A292F"/>
<path d="M242.173 120.674C242.06 120.674 241.968 120.582 241.968 120.468V90.3618C241.968 90.2486 242.059 90.1564 242.173 90.1564C242.287 90.1564 242.379 90.2486 242.379 90.3618V120.468C242.379 120.581 242.287 120.674 242.173 120.674Z" fill="#1A292F"/>
<path d="M217.935 206.351H284.44V148.356H217.935V206.351Z" fill="url(#paint2_linear_1464_27322)"/>
<path d="M188.005 206.351H254.511V148.356H188.005V206.351Z" fill="url(#paint3_linear_1464_27322)"/>
<path d="M274.766 148.355H266.788V157.123H274.766V148.355Z" fill="white"/>
<path d="M284.439 189.99C284.326 189.99 284.234 189.898 284.234 189.784V148.561H267.26C267.147 148.561 267.055 148.469 267.055 148.355C267.055 148.241 267.146 148.15 267.26 148.15H284.439C284.553 148.15 284.645 148.241 284.645 148.355V189.783C284.645 189.897 284.553 189.989 284.439 189.989V189.99Z" fill="#1A292F"/>
<path d="M254.51 178.668C254.397 178.668 254.305 178.576 254.305 178.462V148.561H225.689C225.576 148.561 225.483 148.469 225.483 148.355C225.483 148.241 225.575 148.15 225.689 148.15H254.51C254.623 148.15 254.716 148.241 254.716 148.355V178.462C254.716 178.575 254.624 178.667 254.51 178.667V178.668Z" fill="#1A292F"/>
<path d="M152.518 206.351H219.023V148.356H152.518V206.351Z" fill="url(#paint4_linear_1464_27322)"/>
<path d="M122.589 206.351H189.095V148.356H122.589V206.351Z" fill="url(#paint5_linear_1464_27322)"/>
<path d="M158.47 148.355H150.492V157.123H158.47V148.355Z" fill="#AA9477"/>
<path d="M209.35 148.355H201.372V157.123H209.35V148.355Z" fill="white"/>
<path d="M219.023 189.99C218.91 189.99 218.818 189.898 218.818 189.784V148.561H201.844C201.731 148.561 201.639 148.469 201.639 148.355C201.639 148.241 201.73 148.15 201.844 148.15H219.023C219.137 148.15 219.229 148.241 219.229 148.355V189.783C219.229 189.897 219.137 189.989 219.023 189.989V189.99Z" fill="#1A292F"/>
<path d="M189.094 178.668C188.981 178.668 188.889 178.576 188.889 178.462V148.356C188.889 148.243 188.98 148.151 189.094 148.151C189.208 148.151 189.3 148.242 189.3 148.356V178.462C189.3 178.576 189.208 178.668 189.094 178.668Z" fill="#1A292F"/>
<path d="M164.417 178.534C162.978 177.02 155.199 170.575 155.199 170.575L160.416 166.673L170.562 175.803C170.562 175.803 170.358 176.11 170.002 176.547C170.432 176.998 170.832 177.411 170.857 177.417C171.46 180.233 165.102 183.145 165.102 183.145C166.238 180.709 164.742 178.886 164.418 178.532L164.417 178.534Z" fill="#F69D85"/>
<path d="M169.427 174.782C169.427 174.782 171.554 176.469 172.9 177.923C173.012 178.044 173.041 178.214 172.979 178.354C172.615 179.165 171.294 181.983 168.905 185.328C168.445 185.854 166.324 189.082 164.761 189.726C164.488 189.839 164.16 189.755 163.94 189.524C163.256 188.805 162.692 187.709 165.101 183.148C168.132 181.141 170.331 177.944 169.427 174.783V174.782Z" fill="#312A2A"/>
<path d="M125.11 191.156C126.231 189.394 130.609 180.292 130.609 180.292L135.656 184.412L129.242 196.459C129.242 196.459 128.894 196.335 128.385 196.096C128.052 196.621 127.747 197.11 127.747 197.135C125.159 198.399 120.797 192.934 120.797 192.934C123.436 193.447 124.844 191.556 125.11 191.156Z" fill="#F69D85"/>
<path d="M129.961 195.111C129.961 195.111 128.837 197.582 127.751 199.239C127.661 199.376 127.503 199.447 127.352 199.42C126.477 199.262 123.423 198.662 119.599 197.152C118.978 196.832 115.332 195.553 114.33 194.193C114.155 193.955 114.157 193.616 114.328 193.348C114.862 192.511 115.789 191.699 120.798 192.935C123.478 195.391 127.111 196.752 129.962 195.112L129.961 195.111Z" fill="#312A2A"/>
<path d="M177.48 125.226C177.48 125.226 167.086 125.136 166.511 125.145C162.042 130.549 146.488 137.419 135.864 146.496C134.073 148.195 131.421 152.85 134.803 156.716C141.733 164.637 156.707 174.28 163.123 178.199C164.703 177.515 168.172 173.305 167.648 172.706C165.016 167.319 158.214 161.481 152.581 155.942C161.557 153.653 173.748 150.249 178.102 147.708C185.846 143.187 177.48 125.226 177.48 125.226Z" fill="#DEDEDE"/>
<path d="M187.821 124.279C187.821 124.279 171.744 127.4 171.169 127.421C167.327 134.366 153.815 138.931 143.236 147.26C142.196 147.976 141.034 150.048 140.05 152.131C135.556 161.647 126.679 182.451 124.542 189.658C125.61 191.008 130.969 193.162 131.664 192.764C140.613 185.002 149.595 162.909 151.639 158.902C151.743 158.924 180.201 151.72 187.301 147.358C194.941 142.664 187.821 124.279 187.821 124.279Z" fill="#E6E6E6"/>
<path d="M136.463 160.305C136.418 160.305 136.371 160.295 136.329 160.272C136.189 160.198 136.136 160.024 136.21 159.885L141.563 149.801C142.514 148.01 143.913 146.474 145.61 145.361L168.456 130.376C168.589 130.29 168.766 130.326 168.853 130.459C168.94 130.591 168.903 130.769 168.77 130.855L145.924 145.84C144.307 146.9 142.974 148.363 142.068 150.07L136.716 160.154C136.664 160.251 136.565 160.306 136.463 160.306V160.305Z" fill="#1A292F"/>
<path d="M158.343 129.373C158.418 129.197 145.845 116.482 149.273 108.947C151.188 108.832 157.17 110.296 156.674 112.643C154.592 122.503 162.444 127.971 161.144 129.798C160.382 129.869 158.516 129.438 158.344 129.373H158.343Z" fill="#F69D85"/>
<path d="M147.56 109.722C151.061 100.587 157.116 89.3163 159.681 87.1381C163.421 88.7627 173.046 91.6525 172.925 92.1154C170.062 96.8465 169.043 103.1 163.895 108.392C161.998 110.341 160.201 113.249 157.535 116.177C155.53 118.377 148.697 110.582 147.56 109.722Z" fill="#30313C"/>
<path d="M183.117 79.2797C184.121 84.0589 186.382 90.6504 183.787 95.4609C178.094 98.7591 175.912 97.4209 169.681 95.3069C168.659 94.9603 167.669 94.527 166.68 94.0938C164.563 93.1672 162.446 92.2397 160.328 91.3131C159.861 91.1093 159.331 90.8229 159.264 90.3191C159.228 90.0431 159.347 89.7727 159.463 89.5192C160.583 87.0771 162 85.2775 162.93 82.4832C163.428 80.9878 163.984 79.2508 164.372 77.7241C164.744 76.2631 164.902 74.758 165.082 73.2618C165.359 70.9504 165.973 66.2202 167.265 63.4307C168.243 61.3182 168.712 62.2328 170.669 60.9717C172.625 59.7105 175.23 59.3326 177.322 60.3531C178.638 60.9941 179.657 62.0908 180.806 62.9701C181.535 63.5285 182.178 63.9088 182.47 64.8202C183.384 67.6787 182.767 71.1743 182.727 74.1178C182.702 75.8451 182.761 77.5845 183.117 79.2805L183.117 79.2797Z" fill="#312A2A"/>
<path d="M156.912 91.0788C159.107 86.2708 163.687 83.7083 167.916 83.466C168.789 83.4163 171.297 84.5058 174.669 84.943C178.025 84.3999 181.794 83.7917 181.812 83.7965C187.556 85.3562 189.184 85.4452 192.128 88.5003C192.617 89.0074 189.971 94.9835 189.56 97.3134C188.999 100.494 187.762 121.065 187.894 124.272C180.254 128.055 162.745 125.621 162.119 125.372C162.414 116.449 160.411 102.516 159.513 97.0976C159.158 94.9587 156.649 91.6565 156.912 91.0788Z" fill="#30313C"/>
<path d="M177.997 81.4908L178.492 71.3428L171.585 74.1034L171.24 81.7227C171.237 81.7748 171.232 81.8262 171.224 81.8767C171.13 82.4752 170.586 83.1026 169.981 83.1483L167.054 83.5992C167.054 83.5992 172.285 91.5819 182.09 83.8712C180.627 83.3786 179.687 83.174 178.849 82.8354C178.307 82.6172 177.969 82.0733 177.998 81.49L177.997 81.4908Z" fill="#F69D85"/>
<path d="M178.374 73.7624L178.151 78.3266C175.711 80.078 172.553 79.4056 171.356 79.1481L171.585 74.1034L177.316 71.8129C177.574 72.5028 178.077 73.0444 178.374 73.7624Z" fill="#C7795E"/>
<path d="M174.002 87.3843C172.388 87.3843 171.098 86.9647 170.139 86.4729C168.102 85.4275 167.114 83.8759 167.072 83.8102C166.988 83.6762 167.029 83.4997 167.163 83.4154C167.297 83.332 167.473 83.3721 167.557 83.5061C167.567 83.5213 168.517 85.0064 170.423 85.9763C172.974 87.2736 175.945 87.0851 179.254 85.4163C179.395 85.3449 179.567 85.4019 179.639 85.5431C179.71 85.6843 179.653 85.856 179.512 85.9274C177.385 87 175.545 87.3843 174.001 87.3843H174.002Z" fill="#1A292F"/>
<path d="M189.267 100.114C189.113 100.114 188.985 99.9914 188.981 99.8366C188.974 99.5806 188.811 93.5523 190.104 91.3139C190.184 91.1768 190.359 91.1302 190.495 91.2096C190.633 91.2891 190.679 91.464 190.6 91.6004C189.386 93.6991 189.551 99.7587 189.553 99.8197C189.558 99.9778 189.434 100.109 189.275 100.114C189.272 100.114 189.27 100.114 189.267 100.114Z" fill="#1A292F"/>
<path d="M168.972 60.8128C169.596 60.1012 170.419 59.5685 171.31 59.25C171.99 59.0069 172.712 58.9058 173.43 58.8328C174.385 58.7357 176.545 58.3932 179.453 60.2135C181.573 61.5405 182.329 63.746 182.506 65.1805C182.801 67.5761 182.223 70.0744 180.879 72.0793C179.535 74.0842 177.43 75.5716 175.084 76.1396C174.185 76.357 168.268 72.2855 167.421 70.6681C167.026 69.9131 164.912 65.4436 168.972 60.8136V60.8128Z" fill="#312A2A"/>
<path d="M180.535 69.475C180.538 74.2751 178.135 77.757 175.814 78.0827C171.161 78.7365 169.165 74.6666 168.763 69.601C168.385 64.8162 171.538 61.8582 174.858 61.8566C178.178 61.8542 180.531 64.675 180.535 69.475Z" fill="#F69D85"/>
<path d="M177.525 69.8016C177.529 70.1249 177.668 70.3849 177.834 70.3825C178 70.3801 178.132 70.1161 178.128 69.7928C178.123 69.4695 177.984 69.2095 177.818 69.2119C177.652 69.2143 177.52 69.4783 177.525 69.8016Z" fill="#312A2A"/>
<path d="M172.31 69.3507C172.276 69.6724 172.113 69.9179 171.948 69.9003C171.782 69.8826 171.676 69.6075 171.711 69.2865C171.745 68.9648 171.907 68.7193 172.073 68.737C172.239 68.7546 172.345 69.0298 172.31 69.3507Z" fill="#312A2A"/>
<path d="M169.073 69.6002C169.073 69.6002 167.106 67.9178 166.155 69.4662C165.893 69.8939 165.812 70.4137 165.917 70.9047C166.14 71.9453 167.014 73.5178 169.616 73.0099C169.619 73.1287 169.073 69.6002 169.073 69.6002Z" fill="#F69D85"/>
<path d="M168.804 72.0729C168.704 72.0729 168.608 72.0207 168.555 71.9285C167.867 70.725 166.684 70.6095 166.633 70.6047C166.476 70.5911 166.359 70.4531 166.372 70.2958C166.385 70.1386 166.521 70.0206 166.68 70.0343C166.741 70.0391 168.211 70.1707 169.053 71.6445C169.131 71.7816 169.083 71.9565 168.946 72.0352C168.901 72.0608 168.852 72.0729 168.804 72.0729Z" fill="#1A292F"/>
<path d="M167.372 71.7415C167.3 71.7415 167.229 71.715 167.174 71.6621C167.06 71.553 167.056 71.3717 167.165 71.2577L167.711 70.6873C167.82 70.5734 168.001 70.5686 168.115 70.6785C168.229 70.7876 168.233 70.9689 168.124 71.0828L167.579 71.6533C167.522 71.7118 167.447 71.7415 167.372 71.7415Z" fill="#1A292F"/>
<path d="M180.162 69.7678C180.162 69.7678 182.066 68.0141 183.074 69.5272C183.352 69.9452 183.452 70.4618 183.364 70.956C183.18 72.0046 182.364 73.6076 179.744 73.1952C179.747 73.3139 180.162 69.7678 180.162 69.7678Z" fill="#F69D85"/>
<path d="M180.512 72.2285C180.467 72.2285 180.422 72.218 180.379 72.1956C180.239 72.1226 180.185 71.9493 180.258 71.8097C181.045 70.3062 182.508 70.1209 182.57 70.1136C182.727 70.096 182.87 70.2083 182.887 70.3648C182.906 70.5212 182.793 70.6632 182.637 70.6817C182.583 70.6881 181.407 70.8493 180.765 72.0752C180.714 72.1731 180.614 72.2285 180.512 72.2285Z" fill="#1A292F"/>
<path d="M181.931 71.8459C181.859 71.8459 181.787 71.8186 181.731 71.7648L181.165 71.2145C181.051 71.1045 181.049 70.9232 181.159 70.8101C181.269 70.697 181.45 70.6946 181.563 70.8045L182.13 71.3549C182.243 71.4648 182.246 71.6461 182.136 71.7592C182.079 71.817 182.005 71.8459 181.93 71.8459H181.931Z" fill="#1A292F"/>
<path d="M168.749 69.3604C170.36 64.574 175.786 63.6842 175.665 61.9056C174.418 61.7957 173.644 60.4478 172.396 60.3379C171.979 60.301 171.555 60.2649 171.145 60.3467C170.587 60.4583 170.093 60.7816 169.657 61.1474C168.842 61.8318 168.172 62.6886 167.706 63.6457C167.471 64.1255 167.286 64.6414 167.273 65.1757C167.248 66.2002 167.852 67.1348 168.008 68.1481C168.132 68.9472 168.349 69.1405 168.749 69.3596V69.3604Z" fill="#312A2A"/>
<path d="M175.027 72.6978C174.785 72.6978 174.546 72.6609 174.314 72.5879C174.214 72.5566 173.911 72.4611 173.772 72.1844C173.611 71.8618 173.774 71.5153 173.845 71.3676C173.908 71.2337 173.975 71.1005 174.042 70.9681C174.182 70.6873 174.315 70.4225 174.421 70.1442C174.595 69.6885 174.655 69.2953 174.602 68.9415C174.579 68.7851 174.688 68.6399 174.844 68.6166C175.001 68.5942 175.146 68.7017 175.169 68.8581C175.236 69.3106 175.166 69.7976 174.956 70.3479C174.839 70.6528 174.693 70.9432 174.553 71.224C174.488 71.3532 174.424 71.4824 174.362 71.6123C174.285 71.7728 174.259 71.8787 174.284 71.9276C174.293 71.9453 174.33 71.9926 174.485 72.0415C174.681 72.1033 174.885 72.1306 175.09 72.1234C175.247 72.1178 175.38 72.2413 175.386 72.3994C175.391 72.5574 175.268 72.6898 175.11 72.6954C175.082 72.6962 175.054 72.697 175.026 72.697L175.027 72.6978Z" fill="#1A292F"/>
<path d="M175.273 61.9465C175.273 61.9465 179.872 64.7705 180.784 69.3146C180.784 69.3146 184.096 60.7751 174.9 60.5593L175.273 61.9465Z" fill="#312A2A"/>
<path d="M164.787 75.5861C163.825 79.8414 162.104 83.6369 160.594 88.2436C159.483 91.6365 161.717 96.7976 161.942 100.64C163.642 101.494 168.17 101.07 169.792 100.076C170.088 92.7853 171.709 88.9007 171.09 78.8578C170.562 78.9885 169.83 77.7121 169.385 77.3992C168.268 76.613 166.109 75.9326 164.788 75.5869L164.787 75.5861Z" fill="#312A2A"/>
<path d="M162.301 98.8947C162.203 98.8947 162.11 98.8458 162.056 98.7567C161.848 98.4126 161.624 98.0676 161.387 97.7025C159.88 95.3767 158.005 92.4821 159.309 87.9941C159.77 86.4056 160.782 84.7321 161.76 83.1131C162.951 81.1443 164.181 79.1089 164.456 77.1995C164.479 77.043 164.624 76.9347 164.78 76.9572C164.937 76.9796 165.045 77.1249 165.023 77.2813C164.731 79.3055 163.47 81.3914 162.25 83.4091C161.247 85.0698 160.298 86.6375 159.858 88.1538C158.627 92.3906 160.348 95.0478 161.866 97.3913C162.106 97.7603 162.331 98.1093 162.544 98.4599C162.626 98.5955 162.583 98.7712 162.448 98.853C162.402 98.8811 162.351 98.8947 162.301 98.8947Z" fill="#1A292F"/>
<path d="M176.379 74.0977C176.379 74.0977 174.021 73.9517 172.999 73.8009C172.999 73.8009 174.092 77.6486 176.379 74.0977Z" fill="white"/>
<path d="M179.406 68.6536C179.341 68.6536 179.275 68.6311 179.221 68.5862C179.18 68.5509 178.194 67.7454 176.77 68.1112C176.618 68.1505 176.461 68.0583 176.422 67.9051C176.383 67.7518 176.475 67.5962 176.628 67.5569C178.348 67.1148 179.542 68.1064 179.592 68.1489C179.712 68.2516 179.727 68.4322 179.625 68.5525C179.568 68.6191 179.488 68.6536 179.407 68.6536H179.406Z" fill="#1A292F"/>
<path d="M170.646 68.0181C170.56 68.0181 170.474 67.9788 170.418 67.9042C170.323 67.7782 170.348 67.5985 170.475 67.5031C171.671 66.6037 173.086 67.1396 173.145 67.1621C173.293 67.2199 173.365 67.3851 173.308 67.5327C173.251 67.6796 173.085 67.7526 172.938 67.6956C172.927 67.6908 171.756 67.2552 170.819 67.9604C170.768 67.9989 170.707 68.0181 170.647 68.0181H170.646Z" fill="#1A292F"/>
<path d="M161.315 109.125C161.177 109.125 161.057 109.027 161.033 108.888C160.154 103.76 158.556 95.7962 157.759 94.8752C157.656 94.7557 157.669 94.5752 157.788 94.4717C157.908 94.3682 158.088 94.381 158.192 94.5005C159.35 95.8379 161.371 107.469 161.597 108.791C161.623 108.946 161.519 109.095 161.363 109.121C161.347 109.125 161.331 109.125 161.315 109.125Z" fill="#1A292F"/>
<path d="M172.948 126.69C169.724 126.69 166.031 126.421 162.064 125.652C161.909 125.622 161.807 125.472 161.837 125.317C161.867 125.162 162.018 125.06 162.173 125.091C169.749 126.559 176.311 126.185 180.482 125.613C185.004 124.993 187.769 124.012 187.796 124.003C187.945 123.95 188.109 124.027 188.162 124.175C188.216 124.324 188.138 124.488 187.99 124.541C187.961 124.551 185.154 125.548 180.578 126.178C178.545 126.457 175.95 126.69 172.948 126.69V126.69Z" fill="#1A292F"/>
<path d="M199.621 108.986C198.99 108.366 198.516 107.821 196.974 108.355C192.772 109.811 179.044 114.323 175.07 116.05C174.715 116.164 174.963 116.207 174.697 116.301C175.647 117.601 175.913 120.678 176.011 121.026C178.498 120.737 196.967 120.121 201.034 116.201C203.649 113.681 201.135 110.472 199.621 108.986Z" fill="#F69D85"/>
<path d="M164.49 118.547C165.022 118.337 166.729 117.654 168.119 117.001C168.633 116.759 169.159 116.547 169.694 116.359C171.102 115.864 173.962 114.942 174.911 116.286C174.988 116.394 174.084 119.866 169.458 119.635C169.445 119.646 169.768 118.667 167.041 119.226C166.558 119.394 164.444 119.74 164.297 118.92C164.267 118.755 164.352 118.602 164.489 118.548L164.49 118.547Z" fill="#F69D85"/>
<path d="M202.15 113.139C202.177 113.13 202.205 113.119 202.231 113.108C202.553 112.973 202.813 112.62 202.721 112.283C202.689 112.169 202.621 112.066 202.604 111.95C202.577 111.782 202.659 111.617 202.685 111.449C202.756 110.985 202.413 110.575 202.206 110.155C201.848 109.427 201.887 108.595 201.671 107.827C201.437 106.993 201.17 106.144 200.897 105.318C200.093 102.887 199.085 100.522 197.96 98.224C196.236 94.6971 194.553 90.9866 191.799 88.1313C191.303 87.6162 190.542 86.9575 189.837 86.8324C185.476 86.0598 180.96 88.6736 181.269 93.0356C181.45 95.5949 182.953 98.1373 184.184 100.317C185.761 103.109 187.388 105.962 189.739 108.155C189.925 108.328 190.129 108.573 190.03 108.807C189.965 108.962 189.791 109.039 189.687 109.171C189.405 109.53 189.775 110.063 190.199 110.235C192.21 111.051 194.391 111.572 196.477 112.153C197.454 112.425 198.431 112.692 199.424 112.898C200.198 113.057 201.353 113.418 202.15 113.14V113.139Z" fill="#30313C"/>
<path d="M188.703 107.385C188.57 107.385 188.451 107.292 188.423 107.157C188.344 106.775 186.521 97.7442 188.495 93.1278C188.557 92.9826 188.725 92.9152 188.871 92.977C189.016 93.0388 189.083 93.2073 189.021 93.3525C187.118 97.8035 188.964 106.949 188.984 107.041C189.016 107.196 188.916 107.347 188.761 107.379C188.741 107.383 188.722 107.384 188.703 107.384V107.385Z" fill="#1A292F"/>
<path d="M194.806 109.805C194.788 109.805 194.771 109.803 194.753 109.8L190.111 108.934C189.955 108.906 189.853 108.756 189.882 108.601C189.911 108.445 190.061 108.343 190.216 108.372L194.858 109.238C195.014 109.267 195.116 109.416 195.087 109.571C195.061 109.709 194.941 109.805 194.806 109.805Z" fill="#1A292F"/>
<path d="M153.812 132.058C159.952 132.058 164.93 127.082 164.93 120.943C164.93 114.804 159.952 109.828 153.812 109.828C147.672 109.828 142.694 114.804 142.694 120.943C142.694 127.082 147.672 132.058 153.812 132.058Z" fill="white" stroke="#1A72C2" stroke-width="2"/>
<path d="M152.923 126.355L147.744 120.673L149.616 118.968L152.995 122.674L159.246 116.331L161.05 118.108L152.923 126.355Z" fill="#1A72C2"/>
<path d="M174.293 116.014C174.293 116.014 170.129 116.623 168.277 117.852C168.842 119.559 169.545 123.108 171.418 124.361C173.198 123.947 174.43 123.275 176.416 120.8C177.314 121.199 178.396 116.107 175.993 116.021C174.944 115.984 174.293 116.013 174.293 116.013V116.014Z" fill="#F69D85"/>
<path d="M168.826 117.604C168.831 117.583 168.833 117.571 168.833 117.571C168.833 117.571 168.826 117.575 168.812 117.581L168.792 117.549C168.792 117.549 168.718 117.601 168.597 117.69C167.411 118.29 162.176 120.997 162.526 121.835C162.662 122.056 163.153 122.062 164.088 121.774C163.021 122.329 162.192 122.89 162.283 123.265C162.377 123.489 162.658 123.628 163.414 123.515C162.971 123.777 162.704 124.029 162.742 124.241C162.836 124.507 163.188 124.674 164.27 124.504C164.124 124.62 164.045 124.736 164.053 124.851C164.155 125.291 164.657 125.739 168.113 125.082C170.674 124.748 172.76 123.906 172.76 123.906L168.825 117.604H168.826Z" fill="#F69D85"/>
<path d="M163.415 123.801C163.299 123.801 163.191 123.731 163.148 123.617C163.092 123.469 163.165 123.304 163.313 123.248L168.548 121.253C168.695 121.197 168.861 121.271 168.917 121.419C168.973 121.566 168.899 121.732 168.752 121.788L163.517 123.782C163.483 123.795 163.449 123.801 163.415 123.801Z" fill="#1A292F"/>
<path d="M164.27 124.791C164.143 124.791 164.026 124.705 163.993 124.576C163.954 124.422 164.046 124.267 164.2 124.227C164.238 124.218 168.041 123.239 169.04 122.83C169.186 122.77 169.354 122.84 169.414 122.986C169.474 123.132 169.403 123.3 169.257 123.359C168.222 123.783 164.5 124.741 164.342 124.781C164.318 124.787 164.294 124.79 164.27 124.79V124.791Z" fill="#1A292F"/>
<path d="M163.929 122.181C163.82 122.181 163.717 122.118 163.668 122.013C163.603 121.87 163.667 121.7 163.81 121.635L167.573 119.922C167.716 119.857 167.886 119.921 167.951 120.064C168.017 120.208 167.953 120.378 167.809 120.443L164.047 122.155C164.009 122.173 163.969 122.181 163.928 122.181H163.929Z" fill="#1A292F"/>
<path d="M147.524 168.058C147.483 168.058 147.443 168.049 147.403 168.031C147.26 167.965 147.198 167.794 147.264 167.651L151.378 158.782C151.414 158.703 151.484 158.646 151.567 158.624L154.739 157.824C154.893 157.785 155.048 157.878 155.086 158.032C155.125 158.185 155.033 158.34 154.879 158.379L151.839 159.147L147.782 167.892C147.734 167.997 147.63 168.058 147.522 168.058L147.524 168.058Z" fill="#1A292F"/>
<path d="M169.663 153.65C169.54 153.65 169.427 153.571 169.389 153.447C169.344 153.297 169.429 153.136 169.58 153.09L183.281 148.926C185.074 148.38 187.306 147.702 188.691 146.134C190.604 143.968 190.533 140.772 190.297 137.684C190.285 137.527 190.403 137.389 190.561 137.377C190.718 137.363 190.856 137.483 190.868 137.641C191.103 140.71 191.181 144.18 189.121 146.512C187.629 148.202 185.31 148.906 183.448 149.473L169.747 153.638C169.719 153.646 169.691 153.65 169.664 153.65H169.663Z" fill="#1A292F"/>
<path d="M23.2905 158.685C21.8909 169.686 21.212 192.558 20.501 194.652C20.3333 195.147 19.997 198.296 16.8359 199.629L28.3479 196.253L28.2853 195.299C30.2467 185.895 34.191 154.133 34.191 154.133C34.191 154.133 25.0809 144.609 23.2897 158.685H23.2905Z" fill="#F69D85"/>
<path d="M27.0771 198.902C27.0771 198.902 27.08 198.899 27.0815 198.897C27.08 198.902 27.0786 198.904 27.0771 198.902Z" fill="#F69D85"/>
<path d="M28.3741 202.587C28.8661 201.161 28.8693 199.634 28.7585 198.142C28.6566 196.774 28.7449 195.29 28.2867 195.3C24.3102 197.653 20.7206 195.862 20.5015 194.653C19.9711 194.635 16.4705 198.643 15.0742 198.991C9.90199 200.364 9.5208 201.53 9.49512 202.533C9.48629 202.871 28.3212 202.743 28.3749 202.587H28.3741Z" fill="#312A2A"/>
<path d="M15.2346 203.831C17.4254 203.824 19.6387 203.596 21.8007 203.235C23.6561 202.926 25.6294 203.077 27.5097 203.122C27.7063 203.124 27.9182 203.121 28.0803 203.025C28.0907 203.019 28.1004 203.012 28.1108 203.006C28.2536 202.906 28.3203 202.743 28.374 202.586C28.6356 201.827 28.7568 201.039 28.7977 200.244C28.3885 200.271 27.9808 200.316 27.5771 200.39C27.0603 200.483 26.5515 200.617 26.0411 200.739C21.1916 201.9 16.1566 202.14 11.1763 201.887C10.6723 201.862 10.1587 201.827 9.67317 201.7C9.53353 201.989 9.50063 202.267 9.49341 202.532C9.48458 202.871 9.7165 203.174 10.064 203.302C11.6602 203.892 13.5565 203.837 15.2329 203.831H15.2346Z" fill="#5B494E"/>
<path d="M55.6536 155.175C55.0421 167.896 54.2107 180.334 53.9563 191.687C54.0294 193.326 54.2212 195.194 54.6842 196.438C54.8664 196.928 55.1513 198.66 58.452 199.595L46.6118 197.658L46.5644 196.239C46.0227 188.035 43.417 155.728 43.417 155.728C43.417 155.728 56.2467 142.81 55.6528 155.176L55.6536 155.175Z" fill="#F69D85"/>
<path d="M47.8442 199.828C47.8442 199.828 47.8413 199.825 47.8398 199.824C47.8413 199.829 47.8427 199.83 47.8442 199.828Z" fill="#F69D85"/>
<path d="M46.5396 203.51C46.0508 202.083 46.0516 200.556 46.1664 199.063C46.2715 197.696 46.1873 196.211 46.6455 196.223C50.6163 198.585 54.2099 196.803 54.4322 195.594C54.9627 195.578 58.4536 199.594 59.8492 199.946C65.0181 201.331 65.3961 202.499 65.4202 203.501C65.4282 203.839 46.5941 203.665 46.5404 203.509L46.5396 203.51Z" fill="#312A2A"/>
<path d="M59.6761 204.787C57.4852 204.774 55.2727 204.54 53.1108 204.175C51.2562 203.862 49.282 204.008 47.4017 204.048C47.2051 204.05 46.9932 204.046 46.8311 203.949C46.8207 203.943 46.8111 203.936 46.8006 203.93C46.6578 203.83 46.592 203.666 46.5382 203.51C46.2782 202.75 46.1594 201.962 46.1201 201.166C46.5294 201.193 46.9371 201.24 47.3399 201.315C47.8559 201.41 48.3647 201.544 48.8751 201.668C53.7215 202.841 58.7564 203.093 63.7376 202.853C64.2416 202.828 64.7552 202.795 65.2407 202.668C65.3795 202.958 65.4116 203.235 65.418 203.501C65.4261 203.839 65.1933 204.141 64.8458 204.269C63.2481 204.855 61.3517 204.795 59.6753 204.785L59.6761 204.787Z" fill="#5B494E"/>
<path d="M55.5496 109.669C55.5496 109.669 58.7869 163.188 56.2863 193.197C52.3596 195 47.0992 194.008 44.983 193.775C43.3523 186.202 40.6871 133.604 40.6871 133.604C40.6871 133.604 36.3873 173.775 30.2296 193.051C26.7861 194.073 22.853 194.146 20.0049 192.394C20.0049 186.115 23.04 122.783 26.4522 109.971C28.6126 109.685 55.5504 109.669 55.5504 109.669H55.5496Z" fill="#19183B"/>
<path d="M40.687 133.786C40.6789 133.786 40.6709 133.786 40.6629 133.784C40.5626 133.771 40.492 133.679 40.5056 133.579L42.247 120.344C42.2535 120.296 42.2775 120.253 42.3152 120.224L45.1441 118.001C45.2235 117.938 45.3383 117.952 45.4009 118.031C45.4635 118.111 45.4498 118.226 45.3704 118.288L42.6001 120.466L40.8683 133.627C40.8563 133.719 40.7776 133.786 40.687 133.786Z" fill="#1A292F"/>
<path d="M21.9643 193.164C21.9643 193.164 21.9603 193.164 21.9579 193.164C21.8568 193.161 21.7781 193.076 21.7813 192.976C22.7123 165.834 24.5267 144.885 25.8846 132.09C27.3564 118.225 28.6243 110.68 28.6372 110.606C28.654 110.506 28.7487 110.439 28.8482 110.456C28.9477 110.472 29.0152 110.567 28.9983 110.667C28.9855 110.741 27.7191 118.278 26.2481 132.133C24.8911 144.921 23.0774 165.859 22.1473 192.988C22.1441 193.086 22.063 193.164 21.9643 193.164Z" fill="#1A292F"/>
<path d="M27.7243 118.328C27.6465 118.328 27.5742 118.277 27.5502 118.199C27.5205 118.103 27.5742 118 27.6705 117.971C30.05 117.231 31.643 115.776 32.4053 113.644C32.9751 112.052 32.8427 110.668 32.8411 110.655C32.8307 110.554 32.9037 110.464 33.0048 110.454C33.1051 110.444 33.195 110.517 33.2054 110.618C33.2119 110.677 33.3475 112.099 32.7496 113.767C32.1975 115.311 30.8862 117.354 27.7789 118.32C27.7604 118.326 27.7428 118.328 27.7243 118.328V118.328Z" fill="#1A292F"/>
<path d="M55.7709 116.299C55.7709 116.299 55.7661 116.299 55.7637 116.299C54.2349 116.242 53.052 115.236 52.3426 113.392C51.8178 112.027 51.7359 110.702 51.7327 110.646C51.7271 110.545 51.8041 110.46 51.9044 110.453C52.004 110.448 52.0914 110.525 52.0979 110.625C52.1011 110.677 52.4397 115.809 55.7774 115.933C55.8785 115.937 55.9571 116.021 55.9531 116.122C55.9491 116.221 55.868 116.298 55.7709 116.298V116.299Z" fill="#1A292F"/>
<path d="M61.8975 86.5043L66.4935 90.8807L65.5481 100.023C65.5481 100.023 58.3793 99.8245 51.6808 89.2408C51.5572 88.9592 61.8967 86.5043 61.8967 86.5043H61.8975Z" fill="#F69D85"/>
<path d="M56.7835 72.2157C56.7835 72.2157 61.0103 76.1661 65.3599 89.8859C65.3599 90.9321 63.5759 94.3899 57.3524 96.9725C56.5034 95.9118 39.4051 83.4725 56.7835 72.2157Z" fill="#BA6157"/>
<path d="M21.4516 87.946C21.4516 87.946 16.1927 93.6037 11.6481 96.9147C11.9459 96.6916 4.69922 91.5081 4.69922 91.5081C4.69922 91.5081 6.30905 87.743 15.4673 77.9046C15.6968 77.7707 21.4516 87.946 21.4516 87.946Z" fill="#F69D85"/>
<path d="M26.2129 69.9003C26.2129 69.9003 20.9003 70.9015 7.9077 85.089C7.35798 85.9796 12.2188 92.328 18.228 96.183C22.5864 93.7641 35.4289 86.8035 26.2129 69.9003Z" fill="#BA6157"/>
<path d="M65.1429 72.746C65.0955 72.9554 64.9214 72.9088 64.8708 73.16C63.9849 79.7603 59.3263 95.9704 62.8004 98.6251C64.5635 99.9722 66.0931 100.836 68.1001 98.9404C73.0211 94.2928 70.7805 76.1436 70.7725 73.6269C70.0879 73.0669 65.3531 72.7989 65.1421 72.7468L65.1429 72.746Z" fill="#F69D85"/>
<path d="M61.766 94.5776C61.6488 94.5776 61.5525 94.4854 61.5485 94.3674C61.5461 94.2976 61.3278 87.3314 62.7523 83.1042C62.7908 82.9903 62.9144 82.9293 63.0283 82.9678C63.1423 83.0064 63.2033 83.1299 63.1648 83.2438C61.766 87.3964 61.9819 94.2848 61.9843 94.3538C61.9883 94.4741 61.8944 94.5744 61.774 94.5784C61.7716 94.5784 61.7692 94.5784 61.7668 94.5784L61.766 94.5776Z" fill="#1A292F"/>
<path d="M44.8418 53.3613C44.8418 53.3613 46.1667 50.997 47.6618 52.1756C48.0743 52.5013 48.3415 52.9835 48.4162 53.5033C48.5735 54.6065 48.2821 56.4678 45.54 56.909C45.5809 57.0269 44.8418 53.3613 44.8418 53.3613Z" fill="#C7795E"/>
<path d="M35.4618 65.5744L34.9674 54.2206L42.6771 57.3487L43.019 65.8729C43.0422 66.4538 43.3897 66.9728 43.9186 67.2167L47.6856 68.9504C47.6856 68.9504 41.2944 77.2581 30.373 68.5766C31.6972 68.1273 33.3929 67.4943 34.4658 67.0876C35.0902 66.8509 35.4914 66.2403 35.4626 65.5737L35.4618 65.5744Z" fill="#F69D85"/>
<path d="M35.1982 59.5188L35.0361 55.8042C35.4743 55.4761 36.0505 55.3573 36.2808 54.754L42.6776 57.3494L42.924 63.4901C40.8134 63.4612 36.8675 62.4527 35.199 59.5188H35.1982Z" fill="#C7795E"/>
<path d="M34.3826 52.3496C34.2237 57.3735 36.9354 61.2308 40.3878 61.6456C45.5792 62.269 46.8095 57.7714 46.9684 52.7475C47.1273 47.7236 44.4389 43.5614 40.9632 43.4515C37.4875 43.3416 34.5415 47.3257 34.3826 52.3496Z" fill="#F69D85"/>
<path d="M39.4251 53.119C39.4356 53.4575 39.3031 53.7359 39.129 53.7415C38.9548 53.7471 38.8048 53.4776 38.7935 53.139C38.7831 52.8004 38.9155 52.5221 39.0897 52.5164C39.2638 52.5108 39.4139 52.7804 39.4251 53.119Z" fill="#312A2A"/>
<path d="M45.3109 53.3051C45.3213 53.6437 45.1889 53.9221 45.0147 53.9277C44.8406 53.9333 44.6905 53.6637 44.6793 53.3252C44.6689 52.9866 44.8013 52.7082 44.9754 52.7026C45.1496 52.697 45.2996 52.9666 45.3109 53.3051Z" fill="#312A2A"/>
<path d="M46.9609 51.7206C46.7153 50.4843 46.0685 46.1191 42.0889 46.0886C39.7239 46.0702 38.3652 46.6622 37.6743 46.9912C37.2136 47.211 36.8148 43.9088 36.5957 43.0576C38.5538 41.2822 42.71 40.9981 45.1946 42.5979C48.4985 44.7255 47.9664 50.0623 46.9609 51.7214V51.7206Z" fill="#312A2A"/>
<path d="M34.2796 53.3869C36.5475 52.3921 35.0484 48.2395 37.675 46.9912C37.6156 46.2475 37.5313 44.7632 37.2408 44.0765C37.3195 43.6609 37.0169 43.0119 36.5964 43.0576C29.3795 43.8342 31.8865 50.7667 32.5301 51.7527C33.0028 52.4764 33.3968 53.7833 34.2796 53.3869Z" fill="#312A2A"/>
<path d="M35.3352 52.7476C35.3352 52.7476 33.0842 50.7218 31.9799 52.2726C31.675 52.701 31.5538 53.2386 31.6292 53.7584C31.7881 54.8616 32.5898 56.5664 35.3464 56.2198C35.34 56.3442 35.3352 52.7468 35.3352 52.7468V52.7476Z" fill="#F69D85"/>
<path d="M34.594 55.0605C34.6164 55.0589 34.6397 55.0533 34.6614 55.0428C34.7488 55.0003 34.7858 54.8952 34.7432 54.8078C33.9961 53.2666 32.5331 53.0347 32.4713 53.0259C32.375 53.0115 32.2859 53.078 32.2715 53.1743C32.2571 53.2706 32.3237 53.3596 32.42 53.3741C32.4745 53.3821 33.7634 53.5931 34.427 54.9618C34.4591 55.0276 34.5265 55.0645 34.5948 55.0605H34.594Z" fill="#312A2A"/>
<path d="M34.5839 55.1231C34.4932 55.1231 34.4097 55.0717 34.3696 54.9891C33.7196 53.6485 32.4629 53.4439 32.4091 53.4359C32.2799 53.4166 32.19 53.2955 32.2085 53.1655C32.2277 53.0355 32.3489 52.9449 32.4789 52.9649C32.5423 52.9746 34.0358 53.2104 34.7973 54.7813C34.8543 54.8992 34.8054 55.042 34.6866 55.0998C34.6577 55.1134 34.6272 55.1215 34.5959 55.1231C34.5919 55.1231 34.5871 55.1231 34.5831 55.1231H34.5839ZM32.4452 53.0861C32.3898 53.0861 32.3409 53.127 32.3328 53.1832C32.324 53.2449 32.3666 53.3027 32.4283 53.3123C32.4845 53.3212 33.8038 53.5354 34.482 54.9337C34.502 54.9755 34.5454 55.0003 34.5903 54.9979C34.6055 54.9979 34.62 54.9931 34.6336 54.9867C34.6898 54.9594 34.7139 54.8912 34.6866 54.8343C33.9531 53.322 32.5222 53.0957 32.4612 53.0869C32.4556 53.0861 32.45 53.0853 32.4444 53.0853L32.4452 53.0861Z" fill="#312A2A"/>
<path d="M33.1202 54.6136C33.1596 54.6112 33.1981 54.596 33.2294 54.5679L33.8401 54.0103C33.9115 53.9445 33.9171 53.8338 33.8513 53.7616C33.7855 53.6902 33.6748 53.6846 33.6026 53.7504L32.9918 54.308C32.9204 54.3737 32.9148 54.4845 32.9806 54.5567C33.0175 54.5968 33.0689 54.616 33.1202 54.6136Z" fill="#312A2A"/>
<path d="M33.1109 54.6762C33.0443 54.6762 32.9809 54.6481 32.9351 54.5984C32.8926 54.551 32.8701 54.4909 32.8733 54.4267C32.8766 54.3633 32.9038 54.3047 32.9504 54.2614L33.5611 53.7038C33.6076 53.6605 33.6686 53.6388 33.7328 53.642C33.7962 53.6452 33.8548 53.6725 33.8982 53.7191C33.9415 53.7664 33.9632 53.8266 33.9599 53.8907C33.9567 53.9541 33.9294 54.0127 33.8829 54.056L33.2722 54.6136C33.2321 54.6505 33.1791 54.673 33.1245 54.6754C33.1205 54.6754 33.1157 54.6754 33.1117 54.6754L33.1109 54.6762ZM33.7216 53.7664C33.6935 53.7664 33.6662 53.7768 33.6454 53.7961L33.0347 54.3537C33.0122 54.3745 32.9993 54.4018 32.9977 54.4323C32.9961 54.4628 33.0066 54.4916 33.0274 54.5141C33.0507 54.539 33.0828 54.5534 33.1173 54.551C33.1438 54.5494 33.1679 54.539 33.1879 54.5213L33.7986 53.9638C33.8211 53.9429 33.834 53.9156 33.8356 53.8851C33.8372 53.8546 33.8267 53.8258 33.8059 53.8033C33.785 53.7808 33.7577 53.768 33.7272 53.7664C33.7256 53.7664 33.724 53.7664 33.7216 53.7664Z" fill="#312A2A"/>
<path d="M40.174 51.6813C40.2238 51.6789 40.2719 51.6556 40.304 51.6131C40.3634 51.5361 40.3498 51.427 40.2727 51.3676C40.2358 51.3387 39.3595 50.676 37.9631 51.277C37.874 51.3155 37.8323 51.419 37.8708 51.508C37.9093 51.5971 38.0128 51.6388 38.1019 51.6003C39.2985 51.0852 40.0263 51.6227 40.0568 51.646C40.0913 51.6725 40.1331 51.6837 40.1732 51.6821L40.174 51.6813Z" fill="#312A2A"/>
<path d="M40.1638 51.7439C40.1116 51.7439 40.0611 51.7271 40.0193 51.695C39.9904 51.6725 39.2882 51.1566 38.1262 51.6573C38.0676 51.6821 38.0034 51.6837 37.944 51.6597C37.8846 51.6364 37.8389 51.5907 37.8132 51.5329C37.7883 51.4743 37.7875 51.4102 37.8108 51.3508C37.8341 51.2914 37.8798 51.2457 37.9376 51.22C39.3685 50.6039 40.2729 51.289 40.3106 51.3187C40.4134 51.3989 40.4326 51.5482 40.3524 51.6517C40.3098 51.7062 40.2456 51.7399 40.1766 51.7439C40.1726 51.7439 40.1678 51.7439 40.1638 51.7439ZM39.1013 51.3163C39.7152 51.3163 40.0731 51.5794 40.094 51.5963C40.1156 51.6131 40.1413 51.6212 40.1694 51.6196C40.2023 51.618 40.2336 51.6019 40.2537 51.5754C40.2914 51.5257 40.2825 51.4551 40.2336 51.4166C40.1983 51.3893 39.35 50.7475 37.9866 51.3339C37.9585 51.346 37.9368 51.3684 37.9256 51.3965C37.9143 51.4246 37.9151 51.4559 37.9272 51.484C37.9392 51.5121 37.9617 51.5337 37.9898 51.5449C38.0179 51.5562 38.0492 51.5554 38.0773 51.5441C38.4697 51.3757 38.814 51.3171 39.1013 51.3171V51.3163Z" fill="#312A2A"/>
<path d="M45.7875 51.8417C45.8485 51.8385 45.9063 51.8032 45.936 51.7447C45.9793 51.658 45.944 51.5521 45.8573 51.5088C45.81 51.4847 44.6825 50.9328 43.8045 51.3251C43.7154 51.3644 43.6761 51.4687 43.7154 51.5577C43.7547 51.6468 43.8591 51.6861 43.9482 51.6468C44.676 51.3211 45.6904 51.8193 45.7 51.8241C45.7281 51.8385 45.7586 51.8441 45.7875 51.8425V51.8417Z" fill="#312A2A"/>
<path d="M45.778 51.9044C45.7411 51.9044 45.7049 51.8956 45.672 51.8795C45.6624 51.8747 44.6713 51.3909 43.9731 51.703C43.9153 51.7287 43.8503 51.7311 43.791 51.7078C43.7316 51.6854 43.6842 51.6405 43.6585 51.5827C43.6048 51.4631 43.6585 51.3219 43.7789 51.2682C44.6834 50.8638 45.8366 51.4287 45.8855 51.4527C46.0027 51.5113 46.0508 51.6549 45.9922 51.772C45.9537 51.8482 45.8775 51.8988 45.7916 51.9036C45.7876 51.9036 45.7836 51.9036 45.7788 51.9036L45.778 51.9044ZM44.5156 51.4744C45.1287 51.4744 45.7194 51.764 45.7274 51.768C45.7451 51.7768 45.7651 51.7817 45.7844 51.78C45.8253 51.7776 45.8622 51.7536 45.8807 51.7175C45.9088 51.6613 45.8855 51.5931 45.8293 51.565C45.7828 51.5418 44.6801 51.0018 43.8295 51.3821C43.7725 51.4078 43.7468 51.4752 43.7717 51.5321C43.7837 51.5602 43.8062 51.5811 43.8351 51.5923C43.8632 51.6027 43.8945 51.6019 43.9218 51.5899C44.1088 51.5065 44.3134 51.4752 44.5156 51.4752V51.4744Z" fill="#312A2A"/>
<path d="M42.4442 56.4019C42.7227 56.3866 42.9441 56.3096 43.1054 56.1708C43.3935 55.9237 43.3791 55.5747 43.3751 55.5178C43.2788 53.5105 43.0372 52.1915 43.0348 52.1779C43.0172 52.0824 42.9249 52.0198 42.8294 52.0367C42.7339 52.0543 42.6705 52.1466 42.6881 52.2421C42.6905 52.2549 42.9289 53.5546 43.0236 55.537C43.0236 55.5402 43.0236 55.5442 43.0244 55.5475C43.0244 55.5547 43.0412 55.7641 42.8727 55.9061C42.721 56.0344 42.3776 56.1435 41.6048 55.9398C41.5109 55.9149 41.4146 55.9711 41.3897 56.0649C41.3648 56.1588 41.421 56.2551 41.5149 56.2799C41.8736 56.3746 42.1842 56.4147 42.4442 56.4011V56.4019Z" fill="#312A2A"/>
<path d="M42.3432 56.4669C42.0993 56.4669 41.816 56.4244 41.499 56.3409C41.4372 56.3249 41.3858 56.2856 41.3537 56.2302C41.3216 56.1749 41.3128 56.1115 41.3297 56.0497C41.3457 55.9879 41.385 55.9366 41.4404 55.9045C41.495 55.8724 41.5592 55.8636 41.621 55.8804C42.4074 56.0882 42.718 55.9566 42.8328 55.8596C42.9764 55.7392 42.9628 55.5611 42.9628 55.5531C42.9628 55.5499 42.962 55.5451 42.962 55.5403C42.8673 53.5642 42.6297 52.2662 42.6273 52.2533C42.6033 52.1241 42.6891 51.9998 42.8183 51.9757C42.9475 51.9517 43.0719 52.0375 43.096 52.1667C43.0984 52.1795 43.3416 53.5105 43.4379 55.5146C43.4435 55.5844 43.4555 55.9526 43.1474 56.2182C42.9756 56.3658 42.7405 56.4484 42.4484 56.4645C42.4147 56.4661 42.3794 56.4669 42.344 56.4669H42.3432ZM41.56 55.9968C41.5399 55.9968 41.5207 56.0016 41.503 56.012C41.4765 56.0272 41.4581 56.0521 41.45 56.081C41.442 56.1107 41.4468 56.1412 41.4621 56.1676C41.4773 56.1941 41.5022 56.2126 41.5311 56.2206C41.8818 56.3129 42.1876 56.3538 42.4411 56.3401C42.7052 56.3257 42.9154 56.2535 43.0655 56.1243C43.3279 55.8981 43.3183 55.5836 43.3135 55.5234C43.218 53.533 42.9764 52.2036 42.974 52.1907C42.9628 52.129 42.9026 52.088 42.8416 52.0993C42.7806 52.1105 42.7389 52.1699 42.7509 52.2317C42.7533 52.2445 42.9925 53.5506 43.0872 55.5354V55.5435C43.0888 55.5539 43.1064 55.7938 42.9146 55.955C42.7509 56.0922 42.389 56.2118 41.5905 56.0008C41.5809 55.9984 41.5712 55.9968 41.5608 55.9968H41.56Z" fill="#312A2A"/>
<path d="M42.2064 58.6459C42.448 58.6331 42.7088 58.5906 42.9889 58.5087C43.082 58.4815 43.1357 58.3836 43.1084 58.2905C43.0811 58.1975 42.984 58.1437 42.8902 58.171C41.1078 58.6893 40.2226 57.4553 40.2138 57.4425C40.1584 57.3631 40.0485 57.343 39.969 57.3984C39.8896 57.4537 39.8695 57.5637 39.9249 57.6431C39.9337 57.6559 40.7001 58.7254 42.2056 58.6451L42.2064 58.6459Z" fill="#312A2A"/>
<path d="M42.0457 58.7125C40.6124 58.7125 39.8821 57.6904 39.8741 57.6799C39.838 57.6278 39.8235 57.5644 39.8348 57.5018C39.846 57.4392 39.8805 57.3847 39.9335 57.3486C39.9857 57.3125 40.0491 57.298 40.1116 57.3093C40.1742 57.3205 40.2288 57.355 40.2649 57.4079C40.273 57.42 41.1437 58.6146 42.8731 58.1124C42.9991 58.0754 43.1315 58.1485 43.1684 58.2744C43.2053 58.4004 43.1323 58.5327 43.0063 58.5697C42.7359 58.6483 42.4678 58.6948 42.2094 58.7093C42.154 58.7125 42.0995 58.7133 42.0457 58.7133V58.7125ZM40.0691 57.4296C40.0458 57.4296 40.0234 57.4368 40.0041 57.4505C39.9792 57.4681 39.9624 57.4938 39.9568 57.5235C39.9511 57.5532 39.9584 57.5836 39.9752 57.6085C39.9824 57.6189 40.7376 58.6635 42.2022 58.5841C42.451 58.5705 42.7094 58.5255 42.971 58.4493C43.0312 58.4317 43.0657 58.3683 43.0488 58.3081C43.0312 58.2479 42.9678 58.2134 42.9076 58.2303C41.0875 58.7598 40.1718 57.4906 40.163 57.4777C40.1454 57.4529 40.1197 57.436 40.0892 57.4304C40.0828 57.4288 40.0755 57.4288 40.0691 57.4288V57.4296Z" fill="#312A2A"/>
<path d="M34.2911 67.2496C34.2911 67.2496 39.7241 72.6385 45.2478 67.7663C45.3545 67.7991 53.6829 69.524 56.783 72.2157C56.5262 73.314 53.439 98.3692 55.7703 111.031C53.5144 112.225 41.5009 118.377 25.3905 112.546C25.9491 98.6725 25.3993 80.9886 21.4502 72.5093C22.3241 71.8948 27.0284 68.1778 34.2911 67.2488V67.2496Z" fill="#BA6157"/>
<path d="M40.6195 69.9373C39.7568 69.9373 38.8531 69.7824 37.9182 69.4703C35.7587 68.7507 34.2162 67.4702 34.1512 67.4157C34.0589 67.3387 34.0469 67.2015 34.124 67.1092C34.201 67.017 34.3382 67.0049 34.4305 67.0819C34.4458 67.0948 35.9834 68.3688 38.0667 69.0612C40.8241 69.9766 43.1883 69.4904 45.0926 67.6163C45.1785 67.532 45.3157 67.5328 45.4008 67.6187C45.4851 67.7045 45.4843 67.8417 45.3984 67.9267C44.043 69.2609 42.4203 69.9373 40.6195 69.9373Z" fill="#1A292F"/>
<path d="M24.6184 90.1042C24.5061 90.1042 24.4106 90.0175 24.4017 89.9036C24.0478 85.4068 23.4861 82.3285 22.7333 80.7552C22.6812 80.6469 22.7277 80.5169 22.836 80.4648C22.9444 80.4126 23.0744 80.4591 23.1266 80.5675C23.9026 82.1897 24.4772 85.3194 24.8359 89.8699C24.8455 89.9894 24.7556 90.0945 24.6361 90.1042C24.6305 90.1042 24.6248 90.1042 24.6184 90.1042Z" fill="#1A292F"/>
<path d="M70.7721 73.6261C71.8419 72.0946 72.5786 69.3131 72.7897 67.8329C72.5762 67.6034 72.3443 67.4951 72.0578 67.3154C70.2048 66.1489 67.0429 65.9363 65.4459 65.6771C65.0286 67.9299 64.7012 72.0512 64.7012 72.0512C64.7012 72.0512 64.7806 72.7476 64.9997 73.85C66.9859 73.1544 68.7177 74.0866 70.773 73.6269L70.7721 73.6261Z" fill="#F69D85"/>
<path d="M72.9741 65.0168C72.9533 64.7296 71.1885 65.6642 71.2078 65.3754C71.2255 65.1163 71.2431 64.9117 71.2568 64.9117C70.703 65.1019 70.2448 65.0489 69.8267 64.7448C68.7441 63.9562 68.2819 64.4576 67.8958 64.6012C67.7979 64.6381 67.7538 64.7529 67.6679 64.6919C67.6671 64.6919 67.6663 64.6903 67.6655 64.6903C67.6182 64.6574 67.4753 64.9077 67.4721 64.8507C67.2546 60.8177 67.4087 58.2849 66.5404 58.3523C65.4867 58.3996 65.376 66.1609 65.376 66.1609L72.5809 68.9664C72.5809 68.9664 73.113 66.9431 72.9749 65.0168H72.9741Z" fill="#F69D85"/>
<path d="M63.1826 62.7183C63.2171 63.3088 63.3182 65.203 63.3102 66.7939C63.307 67.3804 63.3343 67.9645 63.3905 68.5477C63.5365 70.0801 63.9113 73.2122 65.6022 73.521C65.7218 73.5427 68.4077 72.2454 67.5467 69.0483C67.3557 68.3399 66.9392 67.719 66.3975 67.2248C66.0018 66.8645 65.4553 66.1682 64.9369 64.8267C64.8839 64.2988 64.2869 62.1567 63.4507 62.3758C63.2821 62.4199 63.1746 62.5667 63.1834 62.7183H63.1826Z" fill="#F69D85"/>
<path d="M69.5786 63.9923C69.4381 64.8611 69.1203 65.6875 68.8635 66.3076C68.8025 66.4665 68.5329 67.3995 68.0883 67.2977C67.6814 67.2014 67.4278 66.5435 67.8829 63.8591C67.9382 63.5325 68.1365 63.2365 68.4366 63.0961C69.1918 62.7423 69.6556 63.5197 69.5794 63.9923H69.5786Z" fill="#F69D85"/>
<path d="M68.422 67.4373C68.3931 67.4373 68.3674 67.4349 68.3433 67.4309C68.3377 67.4301 68.3321 67.4293 68.3265 67.4277C67.723 67.2849 67.1676 66.7746 67.6259 64.0742C67.6459 63.9554 67.7591 63.876 67.8771 63.896C67.9958 63.9161 68.0753 64.0284 68.0552 64.1472C67.6106 66.7674 68.1836 66.9463 68.4164 67.0025C68.4525 67.0049 68.503 66.9832 68.5576 66.9407C68.7855 66.7642 69.0471 66.2684 69.1177 65.5576C69.1298 65.438 69.2357 65.3506 69.3561 65.3626C69.4757 65.3746 69.5631 65.4813 69.5511 65.6009C69.4773 66.3502 69.1988 66.9961 68.824 67.2849C68.6691 67.4052 68.5287 67.4373 68.422 67.4373Z" fill="#1A292F"/>
<path d="M67.45 71.4776C67.4356 71.4776 67.4211 71.476 67.4067 71.4736C67.2887 71.4503 67.2125 71.3356 67.2358 71.2176C67.8794 68.0021 65.2544 65.9739 65.2279 65.9539C65.1324 65.8817 65.1131 65.7453 65.1854 65.649C65.2576 65.5527 65.394 65.5343 65.4903 65.6065C65.5192 65.6281 68.3593 67.8224 67.6627 71.3027C67.6418 71.4062 67.5511 71.4776 67.4492 71.4776H67.45Z" fill="#1A292F"/>
<path d="M71.2433 64.3388C71.1535 65.2141 70.883 66.0573 70.6631 66.6919C70.6118 66.854 70.3959 67.8007 69.9465 67.7245C69.5348 67.6515 69.2435 67.0096 69.5428 64.3035C69.5789 63.9746 69.7603 63.6673 70.0516 63.5101C70.7851 63.1138 71.2931 63.8623 71.2441 64.3388H71.2433Z" fill="#F69D85"/>
<path d="M72.8468 64.9205C72.6285 65.7734 72.2377 66.5676 71.9255 67.1621C71.8509 67.3146 71.4978 68.2195 71.0644 68.0783C70.668 67.9459 70.4746 67.268 71.1695 64.6357C71.2538 64.3156 71.4785 64.038 71.7899 63.9257C72.5739 63.6417 72.9655 64.4568 72.8468 64.9213V64.9205Z" fill="#F69D85"/>
<path d="M69.993 67.9468C69.9657 67.9468 69.9384 67.9444 69.9095 67.9396C69.7675 67.9147 69.5644 67.8312 69.3927 67.5769C69.0059 67.0041 68.985 65.8881 69.3293 64.2595C69.3542 64.1416 69.4697 64.0669 69.5869 64.0918C69.7049 64.1167 69.7795 64.2322 69.7546 64.3493C69.3357 66.3278 69.5741 67.0683 69.753 67.333C69.8212 67.4341 69.9015 67.4959 69.9834 67.5103C69.985 67.5103 70.2273 67.524 70.5435 66.5003L70.5547 66.4642C70.5908 66.3494 70.7136 66.2861 70.8284 66.323C70.9432 66.3591 71.0065 66.4818 70.9696 66.5965L70.96 66.6286C70.8573 66.9624 70.5531 67.946 69.993 67.946V67.9468Z" fill="#1A292F"/>
<path d="M71.1943 68.1201C71.1565 68.1201 71.118 68.116 71.0795 68.108C71.0707 68.1064 71.0626 68.104 71.0538 68.1008C70.472 67.9059 70.2537 67.2488 70.9583 64.5788C70.9888 64.4625 71.1084 64.3935 71.2239 64.424C71.3403 64.4544 71.4093 64.574 71.3788 64.6895C70.6606 67.4084 71.0273 67.6291 71.1766 67.6828C71.5995 67.7414 72.2792 66.254 72.6347 64.8652C72.6644 64.7489 72.7832 64.6791 72.8996 64.708C73.0159 64.7376 73.0866 64.8564 73.0569 64.9727C72.9718 65.3049 72.2223 68.1185 71.1934 68.1185L71.1943 68.1201Z" fill="#1A292F"/>
<path d="M55.113 95.4232C54.9934 95.4232 54.8955 95.3262 54.8955 95.2066C54.8955 95.0951 54.8755 84.0285 55.9853 79.0286C56.011 78.9115 56.1274 78.8369 56.2445 78.8634C56.3617 78.889 56.4355 79.0054 56.4099 79.1225C55.3104 84.0758 55.3305 95.0943 55.3305 95.205C55.3305 95.3254 55.2334 95.4224 55.1138 95.4232H55.113Z" fill="#1A292F"/>
<path d="M30.7843 95.4601C30.9737 94.9137 29.315 92.1732 29.059 92.1379C23.3796 90.7595 7.62716 87.1798 5.03506 90.7932C3.71895 92.6272 3.55684 94.4203 5.64256 96.3209C10.5058 100.754 25.9508 98.8401 29.8237 98.4775C30.0902 97.4409 30.4344 96.471 30.7851 95.4601H30.7843Z" fill="#F69D85"/>
<path d="M56.5222 71.906H33.6523V102.535H56.5222V71.906Z" fill="#F6F6F6"/>
<path d="M33.6527 93.9775C33.7587 93.9775 33.8445 93.8917 33.8445 93.7858V71.906C33.8445 71.8001 33.7587 71.7142 33.6527 71.7142C33.5468 71.7142 33.4609 71.8001 33.4609 71.906V93.7858C33.4609 93.8917 33.5468 93.9775 33.6527 93.9775Z" fill="#312A2A"/>
<path d="M42.967 96.6146C42.8876 96.6146 42.8113 96.5713 42.7728 96.4959C42.7182 96.3892 42.7608 96.2576 42.8675 96.2031L51.8813 91.6012C51.9888 91.5466 52.1196 91.5891 52.1742 91.6958C52.2288 91.8025 52.1862 91.9341 52.0795 91.9887L43.0657 96.5906C43.0336 96.6066 42.9999 96.6146 42.967 96.6146Z" fill="#1A292F"/>
<path d="M46.0272 97.1465C45.9462 97.1465 45.8675 97.1008 45.8306 97.0222C45.7793 96.9139 45.825 96.7839 45.9334 96.7326L50.3504 94.633C50.4587 94.5817 50.5887 94.6274 50.6401 94.7357C50.6914 94.844 50.6457 94.974 50.5373 95.0253L46.1203 97.1249C46.0898 97.1393 46.0585 97.1457 46.0272 97.1457V97.1465Z" fill="#1A292F"/>
<path d="M27.4385 93.6567C27.4385 93.6567 32.0312 89.4327 34.1298 88.3624C34.1049 88.4154 35.478 94.8136 35.0768 97.1867C33.869 97.8566 33.1989 98.7536 29.8227 98.4776C29.5884 97.7323 27.4385 93.6567 27.4385 93.6567Z" fill="#F69D85"/>
<path d="M41.9006 95.704C41.8011 95.047 39.2362 94.8865 37.039 94.8704C37.035 94.8688 37.031 94.8672 37.0269 94.8656C36.7348 94.7389 36.7501 94.3169 37.047 94.2022C37.3134 94.0987 37.5261 94.0216 37.5325 94.0353C42.8636 92.5639 43.7078 91.7752 43.5553 91.2153C43.4534 90.9898 43.0377 90.924 42.4495 90.9601C43.2367 90.5831 43.4109 90.2726 43.3539 90.0006C43.0128 89.1133 38.079 90.1378 36.2461 90.5518C36.1337 90.5775 36.0278 90.4812 36.0471 90.3672C36.0471 90.3664 36.0471 90.3648 36.0471 90.364C36.0575 90.3015 36.1033 90.2493 36.1634 90.2317C40.5885 88.8999 42.2184 87.9652 42.0996 87.4012C41.6799 86.3101 34.1299 88.3632 34.1299 88.3632L35.0768 97.1874L36.6626 96.7823C41.0331 96.7229 41.895 96.2351 41.9006 95.7048V95.704Z" fill="#F69D85"/>
<path d="M36.3309 92.3842C36.229 92.3842 36.1383 92.312 36.1174 92.2085C36.0942 92.0905 36.1712 91.9758 36.2892 91.9525L42.4075 90.7451C42.5255 90.7218 42.6402 90.7989 42.6635 90.9168C42.6868 91.0347 42.6097 91.1495 42.4918 91.1727L36.3734 92.3802C36.359 92.3834 36.3453 92.3842 36.3309 92.3842Z" fill="#1A292F"/>
<path d="M9.2999 91.0228C9.21403 91.0228 9.13298 90.9722 9.09847 90.888C9.05272 90.7765 9.10569 90.6497 9.21724 90.604L13.0324 89.0363C13.1439 88.9906 13.2707 89.0435 13.3165 89.1551C13.3622 89.2666 13.3092 89.3933 13.1977 89.4391L9.38256 91.0067C9.35527 91.018 9.32718 91.0228 9.2999 91.0228Z" fill="#1A292F"/>
<path d="M28.6179 93.7971C28.597 93.7971 28.5753 93.7938 28.5545 93.7874C28.4397 93.7521 28.3747 93.6302 28.41 93.5155L28.8514 92.0746C28.8867 91.9598 29.0079 91.8948 29.1234 91.9301C29.2382 91.9654 29.3032 92.0874 29.2679 92.2021L28.8265 93.643C28.7976 93.7369 28.7117 93.7971 28.6187 93.7971H28.6179Z" fill="#1A292F"/>
<defs>
<linearGradient id="paint0_linear_1464_27322" x1="205.598" y1="119.359" x2="272.103" y2="119.359" gradientUnits="userSpaceOnUse">
<stop stop-color="#E8C46D"/>
<stop offset="1" stop-color="#E4B26B"/>
</linearGradient>
<linearGradient id="paint1_linear_1464_27322" x1="175.668" y1="119.359" x2="242.174" y2="119.359" gradientUnits="userSpaceOnUse">
<stop stop-color="#F2D09B"/>
<stop offset="1" stop-color="#F1CE79"/>
</linearGradient>
<linearGradient id="paint2_linear_1464_27322" x1="217.934" y1="177.353" x2="284.44" y2="177.353" gradientUnits="userSpaceOnUse">
<stop stop-color="#E8C46D"/>
<stop offset="1" stop-color="#E4B26B"/>
</linearGradient>
<linearGradient id="paint3_linear_1464_27322" x1="188.005" y1="177.353" x2="254.511" y2="177.353" gradientUnits="userSpaceOnUse">
<stop stop-color="#F2D09B"/>
<stop offset="1" stop-color="#F1CE79"/>
</linearGradient>
<linearGradient id="paint4_linear_1464_27322" x1="152.519" y1="177.353" x2="219.023" y2="177.353" gradientUnits="userSpaceOnUse">
<stop stop-color="#E8C46D"/>
<stop offset="1" stop-color="#E4B26B"/>
</linearGradient>
<linearGradient id="paint5_linear_1464_27322" x1="122.589" y1="177.353" x2="189.095" y2="177.353" gradientUnits="userSpaceOnUse">
<stop stop-color="#F2D09B"/>
<stop offset="1" stop-color="#F1CE79"/>
</linearGradient>
</defs>
</svg>
