<svg width="320" height="180" viewBox="0 0 320 180" fill="none" xmlns="http://www.w3.org/2000/svg">
<rect width="320" height="180" rx="20" fill="#CEE8FF"/>
<path d="M165.77 169.5H271.36C277.46 169.5 283.23 166.78 287.13 162.09C299.68 147 307.34 127.71 307.69 106.64C308.5 57.56 268.92 16.69 219.84 16C170.03 15.32 129.44 55.48 129.44 105.13C129.44 126.91 137.25 146.87 150.23 162.35C154.07 166.93 159.8 169.49 165.77 169.49V169.5Z" fill="#DCEEFF"/>
<path d="M129.75 96.6599C129.55 99.0999 129.44 101.57 129.44 104.07C129.44 125.85 137.25 145.81 150.23 161.29C154.07 165.87 159.8 168.43 165.77 168.43H271.36C277.46 168.43 283.23 165.71 287.13 161.02C299.68 145.93 307.34 126.64 307.69 105.57C307.74 102.57 307.64 99.5899 307.39 96.6599C245.92 127.46 166.76 80.0199 129.75 96.6599Z" fill="#41B4E6"/>
<path d="M220.4 174.13C264.826 174.13 300.84 172.227 300.84 169.88C300.84 167.533 264.826 165.63 220.4 165.63C175.974 165.63 139.96 167.533 139.96 169.88C139.96 172.227 175.974 174.13 220.4 174.13Z" fill="#0073AA"/>
<path d="M267.72 169.22C279.07 167.31 295.07 161.87 295.42 146.34C295.78 130.4 280.34 135.07 280.34 135.07C280.34 135.07 301.15 121.23 293.01 113.69C287.41 108.5 279.69 114.96 279.69 114.96C279.69 114.96 294.2 88.29 282.39 84.73L256.92 169.21H267.72V169.22Z" fill="#C8D264"/>
<path d="M255.12 169.22H256.91L282.38 84.7401C270.57 81.1801 267.93 111.42 267.93 111.42C267.93 111.42 265.07 101.77 257.53 103C246.58 104.79 256.27 127.82 256.27 127.82C256.27 127.82 245.98 115.39 237.47 128.87C226.29 146.59 248.98 164.76 255.12 169.22Z" fill="#AAC85A"/>
<path d="M278.4 97.96C272.67 113.43 269.67 129.43 263.67 145.43C261.67 153.43 258.67 160.43 257.23 168.18" stroke="#82BE50" stroke-width="0.95" stroke-miterlimit="10"/>
<path d="M259.01 108.46L269.4 127.81L288.75 117.43" stroke="#82BE50" stroke-width="0.95" stroke-miterlimit="10"/>
<path d="M280.73 144.02L261.38 154.4L251 135.05" stroke="#82BE50" stroke-width="0.95" stroke-miterlimit="10"/>
<path d="M286.57 169.22C284.72 167.53 282.2 166.04 282.2 166.04C282.2 166.04 297.75 169.19 300.48 166.2C304.69 161.58 288.89 159.83 288.89 159.83C288.89 159.83 313.19 159.92 314.32 152.14C314.98 147.61 298.91 149.48 298.91 149.48C298.91 149.48 316.5 143.15 313.96 134.56L269.14 169.24H286.57V169.22Z" fill="#82BE50"/>
<path d="M269.14 169.22L313.96 134.54C306.29 129.92 295.74 145.36 295.74 145.36C295.74 145.36 301.59 130.28 297.03 129.77C289.21 128.91 283.2 152.45 283.2 152.45C283.2 152.45 285.47 136.72 279.94 139.63C276.36 141.52 275.5 157.36 275.5 157.36C275.5 157.36 273.05 148.84 270.51 149.76C268.31 150.56 270.09 161.7 266.91 169.2H269.14V169.22Z" fill="#6EAA50"/>
<path d="M304.02 142.23C292.67 150.42 281.67 159.42 270.28 168.33" stroke="#5A915A" stroke-width="0.73" stroke-miterlimit="10"/>
<path d="M199.97 73.06C199.97 62.26 191.22 53.51 180.42 53.51C169.62 53.51 160.87 62.26 160.87 73.06C160.87 83.16 168.52 91.46 178.34 92.5L178.65 92.82L177.06 126.44H183.79L182.24 93.76L183.18 92.43C192.67 91.09 199.97 82.94 199.97 73.07V73.06Z" fill="#30A5CE"/>
<path d="M245.67 98.6899C245.67 86.7799 236.02 77.1299 224.11 77.1299C212.2 77.1299 202.55 86.7799 202.55 98.6899C202.55 109.82 210.99 118.98 221.81 120.13L222.15 120.48L220.39 157.54H227.82L226.11 121.5L227.15 120.03C237.62 118.55 245.67 109.56 245.67 98.6899Z" fill="#30A5CE"/>
<path d="M259.86 141.49H234.53V143.97H259.86V141.49Z" fill="#73C8F0"/>
<path d="M259.86 147.52H234.53V150H259.86V147.52Z" fill="#73C8F0"/>
<path d="M237.14 157.26H231.92V138.05C231.92 137.51 232.12 136.98 232.47 136.57L234.53 134.19L236.59 136.57C236.94 136.98 237.14 137.5 237.14 138.05V157.26Z" fill="white"/>
<path d="M245.58 157.26H240.36V138.05C240.36 137.51 240.56 136.98 240.91 136.57L242.97 134.19L245.03 136.57C245.38 136.98 245.58 137.5 245.58 138.05V157.26Z" fill="white"/>
<path d="M254.03 157.26H248.81V138.05C248.81 137.51 249.01 136.98 249.36 136.57L251.42 134.19L253.48 136.57C253.83 136.98 254.03 137.5 254.03 138.05V157.26Z" fill="white"/>
<path d="M262.47 157.26H257.25V138.05C257.25 137.51 257.45 136.98 257.8 136.57L259.86 134.19L261.92 136.57C262.27 136.98 262.47 137.5 262.47 138.05V157.26Z" fill="white"/>
<path d="M158.62 170.22C147.27 168.31 131.27 162.87 130.92 147.34C130.56 131.4 146 136.07 146 136.07C146 136.07 125.19 122.23 133.33 114.69C138.93 109.5 146.65 115.96 146.65 115.96C146.65 115.96 132.14 89.29 143.95 85.73L169.42 170.21H158.62V170.22Z" fill="#C8D264"/>
<path d="M171.22 170.22H169.43L143.96 85.7401C155.77 82.1801 158.41 112.42 158.41 112.42C158.41 112.42 161.27 102.77 168.81 104C179.76 105.79 170.07 128.82 170.07 128.82C170.07 128.82 180.36 116.39 188.87 129.87C200.05 147.59 177.36 165.76 171.22 170.22Z" fill="#AAC85A"/>
<path d="M147.94 98.96C153.67 114.43 156.67 130.43 162.67 146.43C164.67 154.43 167.67 161.43 169.11 169.18" stroke="#82BE50" stroke-width="0.95" stroke-miterlimit="10"/>
<path d="M167.33 109.46L156.94 128.81L137.59 118.43" stroke="#82BE50" stroke-width="0.95" stroke-miterlimit="10"/>
<path d="M145.61 145.02L164.96 155.4L175.34 136.05" stroke="#82BE50" stroke-width="0.95" stroke-miterlimit="10"/>
<path d="M139.77 170.22C141.62 168.53 144.14 167.04 144.14 167.04C144.14 167.04 128.59 170.19 125.86 167.2C121.65 162.58 137.45 160.83 137.45 160.83C137.45 160.83 113.15 160.92 112.02 153.14C111.36 148.61 127.43 150.48 127.43 150.48C127.43 150.48 109.84 144.15 112.38 135.56L157.2 170.24H139.77V170.22Z" fill="#82BE50"/>
<path d="M157.2 170.22L112.38 135.54C120.05 130.92 130.6 146.36 130.6 146.36C130.6 146.36 124.75 131.28 129.31 130.77C137.13 129.91 143.14 153.45 143.14 153.45C143.14 153.45 140.87 137.72 146.4 140.63C149.98 142.52 150.84 158.36 150.84 158.36C150.84 158.36 153.29 149.84 155.83 150.76C158.03 151.56 156.25 162.7 159.43 170.2H157.2V170.22Z" fill="#6EAA50"/>
<path d="M122.32 143.23C133.67 151.42 144.67 160.42 156.06 169.33" stroke="#5A915A" stroke-width="0.73" stroke-miterlimit="10"/>
<path d="M192.61 141.23H187.22V97.7201L186.62 83.9201C186.51 81.8401 188.17 80.0901 190.26 80.0901C192.02 80.0901 193.43 81.5501 193.36 83.3101L191.91 106.82L192.61 141.24V141.23Z" fill="#A56941"/>
<path d="M176.26 138.63H203.58V158.71C203.58 163.8 199.45 167.93 194.36 167.93H185.48C180.39 167.93 176.26 163.8 176.26 158.71V138.63Z" fill="#E4F2F6"/>
<path d="M190.36 138.63V167.93H194.36C199.45 167.93 203.58 163.8 203.58 158.71V138.63H190.36Z" fill="#B9CDD2"/>
<path d="M189.92 148.49C187.99 148.49 186.43 146.93 186.43 145V137.61H193.42V145C193.42 146.93 191.86 148.49 189.93 148.49H189.92Z" fill="#9BB9C3"/>
<path d="M173.59 44.0599C172.77 44.0799 171.97 44.2099 171.22 44.4399C169.4 44.9899 167.5 44.2299 166.64 42.5299C164.41 38.1399 159.86 35.1399 154.6 35.1399C150.66 35.1399 147.12 36.8299 144.65 39.5299C143.73 40.5399 142.29 40.8599 140.97 40.5099C139.47 40.1099 137.84 40.0199 136.16 40.3299C131.44 41.1799 127.75 45.1499 127.23 49.9199C126.5 56.5599 131.68 62.1699 138.17 62.1699H173.83C178.88 62.1699 182.96 58.0399 182.88 52.9699C182.8 48.0199 178.53 43.9299 173.59 44.0599Z" fill="white"/>
<path d="M173.59 44.0599C172.77 44.0799 171.97 44.2099 171.22 44.4399C169.4 44.9899 167.5 44.2299 166.64 42.5299C164.41 38.1399 159.86 35.1399 154.6 35.1399C150.66 35.1399 147.12 36.8299 144.65 39.5299C143.73 40.5399 142.29 40.8599 140.97 40.5099C139.47 40.1099 137.84 40.0199 136.16 40.3299C131.44 41.1799 127.75 45.1499 127.23 49.9199C126.5 56.5599 131.68 62.1699 138.17 62.1699H173.83C178.88 62.1699 182.96 58.0399 182.88 52.9699C182.8 48.0199 178.53 43.9299 173.59 44.0599Z" fill="white"/>
<path d="M63.59 84.0599C62.77 84.0799 61.97 84.2099 61.22 84.4399C59.4 84.9899 57.5 84.2299 56.64 82.5299C54.41 78.1399 49.86 75.1399 44.6 75.1399C40.66 75.1399 37.12 76.8299 34.65 79.5299C33.73 80.5399 32.29 80.8599 30.97 80.5099C29.47 80.1099 27.84 80.0199 26.16 80.3299C21.44 81.1799 17.75 85.1499 17.23 89.9199C16.5 96.5599 21.68 102.17 28.17 102.17H63.83C68.88 102.17 72.96 98.0399 72.88 92.9699C72.8 88.0199 68.53 83.9299 63.59 84.0599Z" fill="white"/>
<path d="M233.6 23.04C233.46 23.04 233.32 23.07 233.19 23.08C232.13 20.24 229.4 18.2 226.19 18.2C223.49 18.2 221.14 19.63 219.82 21.78C219.55 21.68 219.26 21.61 218.95 21.61C217.6 21.61 216.51 22.7 216.51 24.05C216.51 24.57 216.68 25.05 216.96 25.45C216.81 25.43 216.67 25.4 216.51 25.4C214.37 25.4 212.64 27.13 212.64 29.27C212.64 31.41 214.37 33.14 216.51 33.14H233.6C236.39 33.14 238.65 30.88 238.65 28.09C238.65 25.3 236.39 23.04 233.6 23.04Z" fill="white"/>
<path d="M259.14 73.1201C258.54 73.1401 257.95 73.2301 257.4 73.4001C256.07 73.8001 254.67 73.2401 254.04 72.0001C252.4 68.7801 249.06 66.5701 245.21 66.5701C242.32 66.5701 239.72 67.8101 237.91 69.7901C237.23 70.5301 236.18 70.7701 235.21 70.5101C234.11 70.2201 232.92 70.1501 231.68 70.3801C228.22 71.0001 225.51 73.9201 225.12 77.4201C224.59 82.2901 228.39 86.4101 233.15 86.4101H259.33C263.04 86.4101 266.03 83.3801 265.98 79.6601C265.92 76.0301 262.79 73.0301 259.16 73.1201H259.14Z" fill="white"/>
<path d="M192.09 156.65H287.46C289.43 156.65 291.03 158.25 291.03 160.22V168.95H188.52V160.22C188.52 158.25 190.12 156.65 192.09 156.65Z" fill="#AAC85A"/>
<path d="M284.02 167.14H272.71L275.71 103.87H281.02L284.02 167.14Z" fill="#A56941"/>
<path d="M278.37 110.32C296.507 110.32 311.21 95.6169 311.21 77.4799C311.21 59.3429 296.507 44.6399 278.37 44.6399C260.233 44.6399 245.53 59.3429 245.53 77.4799C245.53 95.6169 260.233 110.32 278.37 110.32Z" fill="#6EAA50"/>
<path d="M269.56 116.54L268.55 117.14L275.71 134.77V125.16L269.56 116.54Z" fill="#A56941"/>
<path d="M266.3 99.9699L279.57 110.82L277.15 111.83L278.91 91.4199L279.9 91.4599L280.03 111.94L280.05 115.43L277.62 112.95L265.63 100.71L266.3 99.9699Z" fill="#A56941"/>
<path d="M289.67 100.56L280.54 113.48L278.19 111.59L288.9 99.9299L289.67 100.56Z" fill="#A56941"/>
<path d="M253.87 156.65H287.04C289.25 156.65 291.04 158.44 291.04 160.65V168.95H249.87V160.65C249.87 158.44 251.66 156.65 253.87 156.65Z" fill="#6EAA50"/>
<path d="M170.94 154.28H145.61V156.76H170.94V154.28Z" fill="#73C8F0"/>
<path d="M170.94 160.32H145.61V162.8H170.94V160.32Z" fill="#73C8F0"/>
<path d="M148.22 170.06H143V150.85C143 150.31 143.2 149.78 143.55 149.37L145.61 146.99L147.67 149.37C148.02 149.78 148.22 150.3 148.22 150.85V170.06Z" fill="white"/>
<path d="M156.66 170.06H151.44V150.85C151.44 150.31 151.64 149.78 151.99 149.37L154.05 146.99L156.11 149.37C156.46 149.78 156.66 150.3 156.66 150.85V170.06Z" fill="white"/>
<path d="M165.1 170.06H159.88V150.85C159.88 150.31 160.08 149.78 160.43 149.37L162.49 146.99L164.55 149.37C164.9 149.78 165.1 150.3 165.1 150.85V170.06Z" fill="white"/>
<path d="M173.55 170.06H168.33V150.85C168.33 150.31 168.53 149.78 168.88 149.37L170.94 146.99L173 149.37C173.35 149.78 173.55 150.3 173.55 150.85V170.06Z" fill="white"/>
<path d="M291.04 169.88H180.42C180.42 168.07 181.89 166.6 183.7 166.6H287.77C289.58 166.6 291.05 168.07 291.05 169.88H291.04Z" fill="#DDA96B"/>
<g clip-path="url(#clip0_462_2749)">
<path d="M192.39 110.561C192.39 110.745 192.37 110.928 192.335 111.098H170.028C169.994 110.925 169.974 110.745 169.974 110.561C169.974 109.147 171.116 108 172.53 108H189.829C190.535 108 191.174 108.287 191.641 108.754C192.103 109.216 192.39 109.855 192.39 110.561Z" fill="#E2E2E2"/>
<path d="M192.386 110.422C192.399 110.654 192.376 110.884 192.335 111.098H170.028C169.994 110.925 169.974 110.745 169.974 110.561C169.974 109.147 171.116 108 172.53 108H177.013C176.942 108.239 176.899 108.496 176.899 108.76V108.765C176.899 109.168 177.236 109.489 177.634 109.484L192.058 109.3C192.247 109.632 192.365 110.015 192.386 110.422Z" fill="#D1D1D1"/>
<path d="M192.386 110.422C192.399 110.654 192.376 110.884 192.335 111.098H170.028C169.994 110.925 169.974 110.745 169.974 110.561C169.974 109.147 171.116 108 172.53 108H173.896C174.099 108.014 174.288 108.016 174.447 108.009C173.942 108.476 173.632 109.141 173.632 109.88V109.885C173.632 110.233 173.921 110.506 174.267 110.506L192.381 110.418L192.386 110.422Z" fill="#BFBFBF"/>
<path d="M226 127.646V142.657C226 144.349 225.747 145.974 225.276 147.511C224.536 149.928 223.257 152.111 221.577 153.914C218.558 157.17 214.244 159.205 209.455 159.205H104.038C96.5867 159.205 90.2831 154.281 88.2093 147.511C87.738 145.976 87.4854 144.349 87.4854 142.657V127.646C87.4854 126.683 87.5696 125.736 87.7289 124.816C88.0704 122.822 88.7716 120.949 89.7641 119.266C92.637 114.381 97.9503 111.101 104.035 111.101H209.452C217.627 111.101 224.413 117.029 225.759 124.816C225.913 125.738 225.998 126.683 225.998 127.646H226Z" fill="#E2E2E2"/>
<path d="M226 140.276V142.655C226 144.346 225.747 145.972 225.276 147.508H88.2071C87.7358 145.974 87.4832 144.346 87.4832 142.655V140.276H225.998H226Z" fill="#628AE1"/>
<path d="M226 127.646V132.049H176.163C169.254 129.979 162.498 127.553 155.887 124.816H225.759C225.913 125.738 225.998 126.683 225.998 127.646H226Z" fill="#629CE1"/>
<path d="M176.163 132.049H116.274C110.942 129.779 105.695 127.364 100.53 124.816H155.887C162.498 127.553 169.254 129.979 176.163 132.049Z" fill="#6291E1"/>
<path d="M155.887 124.816H87.729C89.0698 117.029 95.856 111.101 104.035 111.101H128.07C129.266 111.781 130.459 112.455 131.66 113.12C139.514 117.454 147.584 121.383 155.884 124.819L155.887 124.816Z" fill="#D1D1D1"/>
<path d="M226 140.23V142.657C226 144.349 225.747 145.974 225.276 147.511C223.202 154.281 216.901 159.205 209.452 159.205H104.035C96.5845 159.205 90.281 154.281 88.2071 147.511C87.7358 145.976 87.4832 144.349 87.4832 142.657V132.049H176.161C191.946 136.784 208.53 139.677 225.998 140.23H226Z" fill="#D1D1D1"/>
<path d="M116.271 132.049H87.4854V127.646C87.4854 126.683 87.5696 125.736 87.7289 124.816H100.53C105.693 127.364 110.94 129.779 116.274 132.049H116.271Z" fill="#6284E1"/>
<path d="M221.575 153.914C218.556 157.17 214.242 159.205 209.452 159.205H104.035C96.5845 159.205 90.281 154.281 88.2071 147.511C87.7358 145.976 87.4832 144.349 87.4832 142.657V132.049H116.269C148.151 145.635 183.032 154.015 221.572 153.914H221.575Z" fill="#BFBFBF"/>
<path d="M138.453 110.561C138.453 110.745 138.433 110.928 138.399 111.098H116.092C116.057 110.925 116.037 110.745 116.037 110.561C116.037 109.147 117.18 108 118.593 108H135.892C136.598 108 137.238 108.287 137.705 108.754C138.167 109.216 138.453 109.855 138.453 110.561Z" fill="#E2E2E2"/>
<path d="M138.449 110.422C138.463 110.654 138.44 110.884 138.399 111.098H116.092C116.057 110.925 116.037 110.745 116.037 110.561C116.037 109.147 117.18 108 118.593 108H123.076C123.005 108.239 122.962 108.496 122.962 108.76V108.765C122.962 109.168 123.299 109.489 123.697 109.484L138.121 109.3C138.31 109.632 138.428 110.015 138.449 110.422Z" fill="#D1D1D1"/>
<path d="M138.449 110.422C138.463 110.654 138.44 110.884 138.399 111.098H116.092C116.057 110.925 116.037 110.745 116.037 110.561C116.037 109.147 117.18 108 118.593 108H119.959C120.162 108.014 120.351 108.016 120.51 108.009C120.005 108.476 119.695 109.141 119.695 109.88V109.885C119.695 110.233 119.984 110.506 120.33 110.506L138.444 110.418L138.449 110.422Z" fill="#BFBFBF"/>
<path d="M35.7638 130.225C32.1146 130.225 29.1552 133.185 29.1552 136.834V158.554C29.1552 162.203 32.1146 165.162 35.7638 165.162H80.3577V130.225H35.7638Z" fill="#628AE1"/>
<path d="M80.3578 130.228V165.162H35.7638C32.1147 165.162 29.153 162.203 29.153 158.551V136.834C29.153 133.26 31.9872 130.355 35.5316 130.232C35.6068 130.228 35.6864 130.228 35.7638 130.228H80.3578Z" fill="#629CE1"/>
<path d="M80.3578 144.877V165.16H35.7638C32.1147 165.16 29.153 162.201 29.153 158.549V136.832C29.153 133.257 31.9872 130.353 35.5316 130.23C43.5631 136.256 57.8593 143.782 79.948 144.854C80.0869 144.863 80.2212 144.867 80.3555 144.874L80.3578 144.877Z" fill="#6291E1"/>
<path d="M80.3578 157.718V165.16H35.7638C32.1147 165.16 29.153 162.201 29.153 158.549V142.259C37.1753 148.289 51.4852 155.845 73.6194 156.922C76.2396 157.047 78.4729 157.32 80.3555 157.716L80.3578 157.718Z" fill="#6284E1"/>
<path d="M40.8016 130.225L52.6553 114.836C53.7798 113.375 55.5213 112.519 57.3653 112.519H74.4116C77.6942 112.519 80.3577 115.18 80.3577 118.465V130.228H40.8016V130.225Z" fill="#E2E2E2"/>
<path d="M70.471 117.377V130.228H40.8016L52.505 115.03H68.1308C68.8843 115.03 69.549 115.383 69.977 115.934C70.2889 116.332 70.4733 116.833 70.4733 117.377H70.471Z" fill="#5BBDE8"/>
<path d="M70.471 117.377V130.228H68.8888V118.827C68.8888 117.532 67.8371 116.48 66.5418 116.48H51.3827L52.5004 115.03H68.1262C69.4215 115.03 70.4687 116.082 70.4687 117.377H70.471Z" fill="#42A7D4"/>
<g opacity="0.15">
<path d="M70.4755 130.225H40.8016V165.16H70.4755V130.225Z" fill="white"/>
</g>
<path d="M71.5455 164.584C71.5455 167.195 70.6007 169.576 69.0254 171.416C67.8735 172.773 66.3801 173.829 64.6773 174.459C63.5368 174.883 62.3052 175.115 61.0167 175.115C59.5871 175.115 58.2258 174.833 56.9874 174.314C55.3164 173.626 53.8618 172.515 52.7577 171.118C51.3303 169.321 50.4812 167.054 50.4812 164.584C50.4812 164.306 50.4926 164.033 50.5153 163.76C50.6565 161.916 51.2734 160.202 52.2477 158.747C53.6956 156.575 55.9334 154.966 58.5536 154.344C59.3413 154.149 60.1653 154.051 61.0167 154.051C62.0025 154.051 62.9563 154.187 63.8578 154.44C66.4439 155.162 68.6247 156.844 69.9974 159.08C70.9103 160.568 71.4658 162.296 71.5409 164.154C71.5455 164.299 71.55 164.441 71.55 164.584H71.5455Z" fill="#453166"/>
<g opacity="0.3">
<path d="M68.363 172.126C67.3226 173.144 66.0706 173.943 64.6751 174.459C63.5346 174.881 62.303 175.115 61.0145 175.115C59.5826 175.115 58.2235 174.835 56.9829 174.316C55.3142 173.626 53.855 172.518 52.7532 171.12C51.3258 169.324 50.4767 167.056 50.4767 164.584C50.4767 164.306 50.4903 164.033 50.5108 163.76C50.652 161.914 51.2689 160.204 52.2432 158.749C52.9831 157.641 53.9278 156.678 55.0274 155.917C54.4992 156.43 54.0234 157.003 53.6091 157.62C52.6325 159.075 52.0156 160.789 51.8767 162.633C51.854 162.906 51.8426 163.182 51.8426 163.457C51.8426 165.927 52.694 168.197 54.119 169.993C55.2209 171.388 56.6755 172.499 58.3487 173.189C59.5872 173.706 60.9462 173.988 62.3758 173.988C63.6666 173.988 64.8982 173.756 66.0387 173.333C66.8696 173.027 67.6459 172.618 68.3607 172.124L68.363 172.126Z" fill="black"/>
</g>
<path d="M68.4404 164.277C68.3903 162.968 67.9965 161.748 67.3545 160.696C66.3847 159.118 64.8436 157.93 63.0178 157.42C62.385 157.24 61.7111 157.147 61.0145 157.147C60.4135 157.147 59.833 157.215 59.2753 157.354C57.4268 157.791 55.8446 158.929 54.8248 160.462C54.135 161.488 53.7002 162.697 53.6 163.999C53.5864 164.19 53.5773 164.386 53.5773 164.582C53.5773 166.326 54.176 167.926 55.1845 169.192C55.963 170.18 56.9897 170.965 58.1689 171.45C59.0454 171.814 60.0015 172.015 61.0122 172.015C61.9228 172.015 62.7925 171.851 63.5938 171.553C64.7958 171.109 65.852 170.362 66.6647 169.406C67.7757 168.108 68.445 166.426 68.445 164.584C68.445 164.48 68.4427 164.382 68.4381 164.279L68.4404 164.277ZM66.6966 161.099L62.3781 162.945L62.8129 158.165C64.4475 158.618 65.8293 159.685 66.6966 161.099ZM59.4574 158.101L59.8786 162.777L55.4667 160.887C56.3842 159.515 57.8001 158.495 59.4574 158.101ZM54.349 164.582C54.349 164.407 54.3581 164.231 54.3718 164.058L58.9475 165.103L55.7923 168.716C54.8885 167.58 54.349 166.144 54.349 164.582ZM61.0168 171.245C60.113 171.245 59.2503 171.065 58.4649 170.738L60.8711 166.706L63.3297 170.829C62.6081 171.097 61.8318 171.245 61.0145 171.245H61.0168ZM66.0842 168.905L62.9951 165.372L67.6755 164.306C67.6778 164.398 67.6823 164.489 67.6823 164.58C67.6823 166.232 67.0836 167.739 66.0865 168.903L66.0842 168.905Z" fill="#C9C9C9"/>
<g opacity="0.3">
<path d="M68.4495 164.582C68.4495 166.424 67.7825 168.106 66.6693 169.404C66.4462 169.665 66.2072 169.907 65.9522 170.134C65.9932 170.093 66.0319 170.05 66.0661 170.009C67.177 168.709 67.8463 167.029 67.8463 165.187C67.8463 165.083 67.844 164.983 67.8394 164.882C67.7848 163.573 67.3955 162.351 66.7536 161.302C65.7838 159.724 64.2426 158.536 62.4169 158.026C61.784 157.846 61.1102 157.753 60.4136 157.753C59.8149 157.753 59.2321 157.821 58.6743 157.96C57.4587 158.247 56.3592 158.836 55.46 159.644C56.4525 158.527 57.7751 157.712 59.2799 157.354C59.8331 157.215 60.4159 157.147 61.0146 157.147C61.7134 157.147 62.385 157.245 63.0201 157.42C64.8459 157.93 66.3825 159.118 67.3546 160.696C67.9965 161.748 68.3904 162.966 68.445 164.277C68.4473 164.382 68.4518 164.482 68.4518 164.582H68.4495Z" fill="black"/>
</g>
<path d="M71.5614 133.346H65.2624C64.8249 133.346 64.4702 133.701 64.4702 134.138V135.482C64.4702 135.919 64.8249 136.274 65.2624 136.274H71.5614C71.999 136.274 72.3537 135.919 72.3537 135.482V134.138C72.3537 133.701 71.999 133.346 71.5614 133.346Z" fill="#453166"/>
<path d="M226 161.133V163.236C226 163.257 226 163.275 225.995 163.296C225.966 164.334 225.117 165.162 224.074 165.162H80.3578V159.205H224.074C225.092 159.205 225.92 159.995 225.995 160.992C226 161.037 226 161.087 226 161.135V161.133Z" fill="#453166"/>
<path d="M226 161.133V163.236C226 163.257 226 163.275 225.995 163.296H100.118C97.8593 163.296 96.0336 161.463 96.0336 159.205H224.074C225.092 159.205 225.92 159.995 225.995 160.992C226 161.037 226 161.087 226 161.135V161.133Z" fill="#503975"/>
<path d="M225.995 160.99H115.966C114.983 160.99 114.184 160.191 114.184 159.203H224.074C225.092 159.203 225.92 159.993 225.995 160.99Z" fill="#5B4187"/>
<path d="M115.015 164.063C115.015 166.674 114.07 169.055 112.495 170.895C111.343 172.251 109.849 173.308 108.147 173.938C107.006 174.362 105.775 174.594 104.486 174.594C103.056 174.594 101.695 174.312 100.457 173.792C98.7858 173.105 97.3311 171.994 96.227 170.596C94.802 168.8 93.9506 166.533 93.9506 164.063C93.9506 163.785 93.9619 163.512 93.9847 163.239C94.1259 161.395 94.7428 159.681 95.7171 158.226C97.165 156.054 99.4027 154.445 102.023 153.823C102.811 153.627 103.635 153.53 104.486 153.53C105.472 153.53 106.426 153.666 107.327 153.919C109.913 154.64 112.094 156.323 113.467 158.558C114.38 160.047 114.935 161.775 115.008 163.633C115.013 163.778 115.017 163.919 115.017 164.063H115.015Z" fill="#453166"/>
<g opacity="0.3">
<path d="M111.832 171.605C110.792 172.622 109.54 173.421 108.144 173.938C107.004 174.359 105.772 174.594 104.484 174.594C103.052 174.594 101.693 174.314 100.452 173.795C98.7836 173.105 97.3243 171.996 96.2225 170.599C94.7952 168.802 93.946 166.535 93.946 164.063C93.946 163.785 93.9597 163.512 93.9802 163.239C94.1213 161.392 94.7383 159.683 95.7126 158.228C96.4524 157.12 97.3972 156.157 98.4967 155.396C97.9686 155.908 97.4928 156.482 97.0785 157.099C96.1019 158.554 95.4849 160.268 95.3461 162.112C95.3233 162.385 95.3119 162.66 95.3119 162.936C95.3119 165.406 96.1633 167.676 97.5884 169.472C98.6902 170.867 100.145 171.978 101.818 172.668C103.057 173.185 104.416 173.467 105.845 173.467C107.136 173.467 108.368 173.235 109.508 172.811C110.339 172.506 111.115 172.096 111.83 171.602L111.832 171.605Z" fill="black"/>
</g>
<path d="M111.91 163.755C111.86 162.444 111.466 161.226 110.824 160.175C109.854 158.597 108.313 157.409 106.487 156.899C105.854 156.719 105.18 156.625 104.484 156.625C103.883 156.625 103.302 156.694 102.745 156.833C100.896 157.27 99.314 158.408 98.2941 159.94C97.6044 160.967 97.1696 162.176 97.0694 163.478C97.0557 163.669 97.0466 163.865 97.0466 164.06C97.0466 165.804 97.6453 167.405 98.6538 168.67C99.4324 169.658 100.459 170.444 101.638 170.929C102.515 171.293 103.471 171.493 104.482 171.493C105.392 171.493 106.262 171.329 107.063 171.031C108.265 170.587 109.321 169.84 110.134 168.884C111.245 167.587 111.914 165.904 111.914 164.063C111.914 163.958 111.912 163.86 111.907 163.758L111.91 163.755ZM110.166 160.577L105.847 162.424L106.282 157.643C107.917 158.096 109.299 159.164 110.166 160.577ZM102.927 157.579L103.348 162.255L98.9361 160.366C99.8535 158.993 101.27 157.973 102.927 157.579ZM97.8184 164.06C97.8184 163.885 97.8275 163.71 97.8411 163.537L102.417 164.582L99.2616 168.195C98.3579 167.059 97.8184 165.622 97.8184 164.06ZM104.486 170.724C103.582 170.724 102.72 170.544 101.934 170.216L104.34 166.184L106.799 170.307C106.077 170.576 105.301 170.724 104.484 170.724H104.486ZM109.554 168.383L106.464 164.85L111.145 163.785C111.147 163.876 111.152 163.967 111.152 164.058C111.152 165.711 110.553 167.218 109.556 168.381L109.554 168.383Z" fill="#C9C9C9"/>
<g opacity="0.3">
<path d="M111.919 164.063C111.919 165.905 111.252 167.587 110.139 168.884C109.915 169.146 109.676 169.388 109.421 169.615C109.462 169.574 109.501 169.531 109.535 169.49C110.646 168.19 111.316 166.51 111.316 164.668C111.316 164.564 111.313 164.464 111.309 164.363C111.254 163.054 110.865 161.832 110.223 160.783C109.253 159.205 107.712 158.017 105.886 157.507C105.253 157.327 104.579 157.233 103.883 157.233C103.284 157.233 102.701 157.302 102.144 157.441C100.928 157.727 99.8284 158.317 98.9292 159.125C99.9217 158.007 101.244 157.192 102.749 156.835C103.302 156.696 103.885 156.628 104.484 156.628C105.183 156.628 105.854 156.726 106.489 156.901C108.315 157.411 109.852 158.599 110.824 160.177C111.466 161.229 111.86 162.447 111.914 163.758C111.917 163.863 111.921 163.963 111.921 164.063H111.919Z" fill="black"/>
</g>
<path d="M141.119 164.584C141.119 167.195 140.174 169.576 138.599 171.416C137.447 172.773 135.954 173.829 134.251 174.459C133.111 174.883 131.879 175.115 130.59 175.115C129.161 175.115 127.8 174.833 126.561 174.314C124.89 173.626 123.436 172.515 122.331 171.118C120.904 169.321 120.055 167.054 120.055 164.584C120.055 164.306 120.066 164.033 120.089 163.76C120.23 161.916 120.847 160.202 121.821 158.747C123.269 156.575 125.507 154.966 128.127 154.344C128.915 154.149 129.739 154.051 130.59 154.051C131.576 154.051 132.53 154.187 133.432 154.44C136.018 155.162 138.198 156.844 139.571 159.08C140.484 160.568 141.04 162.296 141.112 164.154C141.117 164.299 141.121 164.441 141.121 164.584H141.119Z" fill="#453166"/>
<g opacity="0.3">
<path d="M137.937 172.126C136.896 173.144 135.644 173.943 134.249 174.459C133.108 174.881 131.877 175.115 130.588 175.115C129.156 175.115 127.797 174.835 126.557 174.316C124.888 173.626 123.429 172.518 122.327 171.12C120.9 169.324 120.05 167.056 120.05 164.584C120.05 164.306 120.064 164.033 120.085 163.76C120.226 161.914 120.843 160.204 121.817 158.749C122.557 157.641 123.502 156.678 124.601 155.917C124.073 156.43 123.597 157.003 123.183 157.62C122.206 159.075 121.589 160.789 121.45 162.633C121.428 162.906 121.416 163.182 121.416 163.457C121.416 165.927 122.268 168.197 123.693 169.993C124.795 171.388 126.249 172.499 127.922 173.189C129.161 173.706 130.52 173.988 131.95 173.988C133.24 173.988 134.472 173.756 135.612 173.333C136.443 173.027 137.22 172.618 137.934 172.124L137.937 172.126Z" fill="black"/>
</g>
<path d="M138.014 164.277C137.964 162.968 137.57 161.748 136.928 160.696C135.958 159.118 134.417 157.93 132.592 157.42C131.959 157.24 131.285 157.147 130.588 157.147C129.987 157.147 129.407 157.215 128.849 157.354C127.001 157.791 125.418 158.929 124.399 160.462C123.709 161.488 123.274 162.697 123.174 163.999C123.16 164.19 123.151 164.386 123.151 164.582C123.151 166.326 123.75 167.926 124.758 169.192C125.537 170.18 126.563 170.965 127.743 171.45C128.619 171.814 129.575 172.015 130.586 172.015C131.497 172.015 132.366 171.851 133.168 171.553C134.369 171.109 135.426 170.362 136.238 169.406C137.349 168.108 138.019 166.426 138.019 164.584C138.019 164.48 138.016 164.382 138.012 164.279L138.014 164.277ZM136.27 161.099L131.952 162.945L132.387 158.165C134.021 158.618 135.403 159.685 136.27 161.099ZM129.031 158.101L129.452 162.777L125.04 160.887C125.958 159.515 127.374 158.495 129.031 158.101ZM123.923 164.582C123.923 164.407 123.932 164.231 123.945 164.058L128.521 165.103L125.366 168.716C124.462 167.58 123.923 166.144 123.923 164.582ZM130.591 171.245C129.687 171.245 128.824 171.065 128.039 170.738L130.445 166.706L132.903 170.829C132.182 171.097 131.406 171.245 130.588 171.245H130.591ZM135.658 168.905L132.569 165.372L137.249 164.306C137.252 164.398 137.256 164.489 137.256 164.58C137.256 166.232 136.657 167.739 135.66 168.903L135.658 168.905Z" fill="#C9C9C9"/>
<g opacity="0.3">
<path d="M138.021 164.582C138.021 166.424 137.354 168.106 136.241 169.404C136.018 169.665 135.779 169.907 135.524 170.134C135.565 170.093 135.603 170.05 135.637 170.009C136.748 168.709 137.418 167.029 137.418 165.187C137.418 165.083 137.415 164.983 137.411 164.882C137.356 163.573 136.967 162.351 136.325 161.302C135.355 159.724 133.814 158.536 131.988 158.026C131.355 157.846 130.682 157.753 129.985 157.753C129.386 157.753 128.804 157.821 128.246 157.96C127.03 158.247 125.931 158.836 125.031 159.644C126.024 158.527 127.347 157.712 128.851 157.354C129.404 157.215 129.987 157.147 130.586 157.147C131.285 157.147 131.956 157.245 132.592 157.42C134.417 157.93 135.954 159.118 136.926 160.696C137.568 161.748 137.962 162.966 138.016 164.277C138.019 164.382 138.023 164.482 138.023 164.582H138.021Z" fill="black"/>
</g>
<path d="M190.774 164.063C190.774 166.674 189.829 169.055 188.254 170.895C187.102 172.251 185.608 173.308 183.906 173.938C182.765 174.362 181.533 174.594 180.245 174.594C178.815 174.594 177.454 174.312 176.216 173.792C174.545 173.105 173.09 171.994 171.986 170.596C170.561 168.8 169.709 166.533 169.709 164.063C169.709 163.785 169.721 163.512 169.744 163.239C169.885 161.395 170.502 159.681 171.476 158.226C172.924 156.054 175.162 154.445 177.782 153.823C178.57 153.627 179.394 153.53 180.245 153.53C181.231 153.53 182.185 153.666 183.086 153.919C185.672 154.64 187.853 156.323 189.226 158.558C190.139 160.047 190.694 161.775 190.767 163.633C190.771 163.778 190.776 163.919 190.776 164.063H190.774Z" fill="#453166"/>
<g opacity="0.3">
<path d="M187.591 171.605C186.551 172.622 185.299 173.421 183.903 173.938C182.763 174.359 181.531 174.594 180.243 174.594C178.811 174.594 177.452 174.314 176.211 173.795C174.542 173.105 173.083 171.996 171.981 170.599C170.554 168.802 169.705 166.535 169.705 164.063C169.705 163.785 169.719 163.512 169.739 163.239C169.88 161.392 170.497 159.683 171.472 158.228C172.211 157.12 173.156 156.157 174.256 155.396C173.727 155.908 173.252 156.482 172.837 157.099C171.861 158.554 171.244 160.268 171.105 162.112C171.082 162.385 171.071 162.66 171.071 162.936C171.071 165.406 171.922 167.676 173.347 169.472C174.449 170.867 175.904 171.978 177.577 172.668C178.815 173.185 180.174 173.467 181.604 173.467C182.895 173.467 184.126 173.235 185.267 172.811C186.098 172.506 186.874 172.096 187.589 171.602L187.591 171.605Z" fill="black"/>
</g>
<path d="M187.669 163.755C187.619 162.444 187.225 161.226 186.583 160.175C185.613 158.597 184.072 157.409 182.246 156.899C181.613 156.719 180.939 156.625 180.243 156.625C179.642 156.625 179.061 156.694 178.504 156.833C176.655 157.27 175.073 158.408 174.053 159.94C173.363 160.967 172.928 162.176 172.828 163.478C172.815 163.669 172.806 163.865 172.806 164.06C172.806 165.804 173.404 167.405 174.413 168.67C175.191 169.658 176.218 170.444 177.397 170.929C178.274 171.293 179.23 171.493 180.241 171.493C181.151 171.493 182.021 171.329 182.822 171.031C184.024 170.587 185.08 169.84 185.893 168.884C187.004 167.587 187.673 165.904 187.673 164.063C187.673 163.958 187.671 163.86 187.666 163.758L187.669 163.755ZM185.925 160.577L181.606 162.424L182.041 157.643C183.676 158.096 185.058 159.164 185.925 160.577ZM178.686 157.579L179.107 162.255L174.695 160.366C175.612 158.993 177.028 157.973 178.686 157.579ZM173.577 164.06C173.577 163.885 173.586 163.71 173.6 163.537L178.176 164.582L175.021 168.195C174.117 167.059 173.577 165.622 173.577 164.06ZM180.245 170.724C179.341 170.724 178.479 170.544 177.693 170.216L180.099 166.184L182.558 170.307C181.836 170.576 181.06 170.724 180.243 170.724H180.245ZM185.313 168.383L182.223 164.85L186.904 163.785C186.906 163.876 186.911 163.967 186.911 164.058C186.911 165.711 186.312 167.218 185.315 168.381L185.313 168.383Z" fill="#C9C9C9"/>
<g opacity="0.3">
<path d="M187.678 164.063C187.678 165.905 187.011 167.587 185.898 168.884C185.675 169.146 185.435 169.388 185.181 169.615C185.221 169.574 185.26 169.531 185.294 169.49C186.405 168.19 187.075 166.51 187.075 164.668C187.075 164.564 187.072 164.464 187.068 164.363C187.013 163.054 186.624 161.832 185.982 160.783C185.012 159.205 183.471 158.017 181.645 157.507C181.012 157.327 180.338 157.233 179.642 157.233C179.043 157.233 178.46 157.302 177.903 157.441C176.687 157.727 175.587 158.317 174.688 159.125C175.681 158.007 177.003 157.192 178.508 156.835C179.061 156.696 179.644 156.628 180.243 156.628C180.942 156.628 181.613 156.726 182.248 156.901C184.074 157.411 185.611 158.599 186.583 160.177C187.225 161.229 187.619 162.447 187.673 163.758C187.676 163.863 187.68 163.963 187.68 164.063H187.678Z" fill="black"/>
</g>
<path d="M100.53 124.816H87.729C88.0705 122.822 88.7716 120.949 89.7642 119.266C93.3132 121.179 96.9009 123.029 100.53 124.816Z" fill="#BFBFBF"/>
<g opacity="0.4">
<path d="M65.2921 115.03L57.3062 130.228H46.2653L54.2443 115.03H65.2921Z" fill="white"/>
</g>
<g opacity="0.4">
<path d="M69.9747 115.936L62.4646 130.227H58.9747L66.9561 115.032H68.1284C68.882 115.032 69.5467 115.385 69.9747 115.936Z" fill="white"/>
</g>
<path d="M216.878 164.584C216.878 167.195 215.933 169.576 214.358 171.416C213.206 172.773 211.713 173.829 210.01 174.459C208.87 174.883 207.638 175.115 206.349 175.115C204.92 175.115 203.559 174.833 202.32 174.314C200.649 173.626 199.195 172.515 198.09 171.118C196.663 169.321 195.814 167.054 195.814 164.584C195.814 164.306 195.825 164.033 195.848 163.76C195.989 161.916 196.606 160.202 197.581 158.747C199.028 156.575 201.266 154.966 203.886 154.344C204.674 154.149 205.498 154.051 206.349 154.051C207.335 154.051 208.289 154.187 209.191 154.44C211.777 155.162 213.957 156.844 215.33 159.08C216.243 160.568 216.799 162.296 216.871 164.154C216.876 164.299 216.88 164.441 216.88 164.584H216.878Z" fill="#453166"/>
<g opacity="0.3">
<path d="M213.696 172.126C212.655 173.144 211.403 173.943 210.008 174.459C208.867 174.881 207.636 175.115 206.347 175.115C204.915 175.115 203.556 174.835 202.316 174.316C200.647 173.626 199.188 172.518 198.086 171.12C196.658 169.324 195.809 167.056 195.809 164.584C195.809 164.306 195.823 164.033 195.843 163.76C195.985 161.914 196.602 160.204 197.576 158.749C198.316 157.641 199.26 156.678 200.36 155.917C199.832 156.43 199.356 157.003 198.942 157.62C197.965 159.075 197.348 160.789 197.209 162.633C197.187 162.906 197.175 163.182 197.175 163.457C197.175 165.927 198.027 168.197 199.452 169.993C200.554 171.388 202.008 172.499 203.681 173.189C204.92 173.706 206.279 173.988 207.708 173.988C208.999 173.988 210.231 173.756 211.371 173.333C212.202 173.027 212.979 172.618 213.693 172.124L213.696 172.126Z" fill="black"/>
</g>
<path d="M213.771 164.277C213.721 162.968 213.327 161.748 212.685 160.696C211.715 159.118 210.174 157.93 208.348 157.42C207.715 157.24 207.041 157.147 206.345 157.147C205.744 157.147 205.163 157.215 204.606 157.354C202.757 157.791 201.175 158.929 200.155 160.462C199.465 161.488 199.031 162.697 198.93 163.999C198.917 164.19 198.908 164.386 198.908 164.582C198.908 166.326 199.506 167.926 200.515 169.192C201.293 170.18 202.32 170.965 203.499 171.45C204.376 171.814 205.332 172.015 206.343 172.015C207.253 172.015 208.123 171.851 208.924 171.553C210.126 171.109 211.182 170.362 211.995 169.406C213.106 168.108 213.775 166.426 213.775 164.584C213.775 164.48 213.773 164.382 213.768 164.279L213.771 164.277ZM212.027 161.099L207.708 162.945L208.143 158.165C209.778 158.618 211.16 159.685 212.027 161.099ZM204.788 158.101L205.209 162.777L200.797 160.887C201.715 159.515 203.13 158.495 204.788 158.101ZM199.679 164.582C199.679 164.407 199.688 164.231 199.702 164.058L204.278 165.103L201.123 168.716C200.219 167.58 199.679 166.144 199.679 164.582ZM206.347 171.245C205.443 171.245 204.581 171.065 203.795 170.738L206.201 166.706L208.66 170.829C207.938 171.097 207.162 171.245 206.345 171.245H206.347ZM211.415 168.905L208.325 165.372L213.006 164.306C213.008 164.398 213.013 164.489 213.013 164.58C213.013 166.232 212.414 167.739 211.417 168.903L211.415 168.905Z" fill="#C9C9C9"/>
<g opacity="0.3">
<path d="M213.78 164.582C213.78 166.424 213.113 168.106 212 169.404C211.777 169.665 211.538 169.907 211.283 170.134C211.324 170.093 211.362 170.05 211.396 170.009C212.507 168.709 213.177 167.029 213.177 165.187C213.177 165.083 213.174 164.983 213.17 164.882C213.115 163.573 212.726 162.351 212.084 161.302C211.114 159.724 209.573 158.536 207.747 158.026C207.114 157.846 206.441 157.753 205.744 157.753C205.145 157.753 204.562 157.821 204.005 157.96C202.789 158.247 201.689 158.836 200.79 159.644C201.783 158.527 203.105 157.712 204.61 157.354C205.163 157.215 205.746 157.147 206.345 157.147C207.044 157.147 207.715 157.245 208.35 157.42C210.176 157.93 211.713 159.118 212.685 160.696C213.327 161.748 213.721 162.966 213.775 164.277C213.778 164.382 213.782 164.482 213.782 164.582H213.78Z" fill="black"/>
</g>
<path d="M29.1484 147.895V152.785H26.7194C26.321 152.785 26 152.462 26 152.066V148.612C26 148.214 26.321 147.893 26.7194 147.893H29.1484V147.895Z" fill="#D93C5C"/>
<path d="M29.1484 147.895V152.164H27.4911C27.095 152.164 26.7717 151.843 26.7717 151.449V147.993C26.7717 147.961 26.774 147.929 26.7786 147.895H29.1484Z" fill="#E63E66"/>
<path d="M29.1483 147.895V151.283H28.1512C27.7551 151.283 27.4364 150.962 27.4364 150.563V147.895H29.1506H29.1483Z" fill="#F14873"/>
<path d="M34.8282 154.759V159.398C34.8282 159.99 34.3456 160.471 33.756 160.471H27.416C26.6351 160.468 26 159.835 26 159.055V155.1C26 154.388 26.5327 153.794 27.2202 153.698C27.2839 153.689 27.3477 153.684 27.4137 153.684H33.756C34.3456 153.684 34.8282 154.167 34.8282 154.757V154.759Z" fill="#BFBFBF"/>
<path d="M34.8259 154.759V159.278H28.8479C28.0648 159.278 27.4342 158.647 27.4342 157.864V153.912C27.4342 153.839 27.441 153.768 27.4501 153.7C27.5139 153.691 27.5776 153.687 27.6436 153.687H33.7537C34.3433 153.687 34.8259 154.169 34.8259 154.759Z" fill="#D1D1D1"/>
<path d="M34.8282 154.756V157.921H30.4141C29.6333 157.921 28.9982 157.29 28.9982 156.509V153.687H33.7537C34.3433 153.687 34.826 154.169 34.826 154.759L34.8282 154.756Z" fill="#E2E2E2"/>
</g>
<defs>
<clipPath id="clip0_462_2749">
<rect width="200" height="67.1151" fill="white" transform="translate(26 108)"/>
</clipPath>
</defs>
</svg>
