<svg width="110" height="103" viewBox="0 0 110 103" fill="none" xmlns="http://www.w3.org/2000/svg">
<g clip-path="url(#clip0_889_9746)">
<path d="M84.0001 10H34.0001V93H84.0001V10Z" fill="white"/>
<path d="M84.1863 83.0938H34.3787V92.8756H84.1863V83.0938Z" fill="white"/>
<path d="M34.3811 92.8756V82.1439C43.7691 79.6973 35.3485 66.2479 35.3485 66.2479C35.3485 66.2479 36.3696 61.8673 37.2344 54.034C38.0112 46.9992 36.3965 44.6526 34.0562 44.2546C33.9536 44.2375 33.851 44.2302 33.7484 44.2204C33.4064 44.1862 33.062 44.1813 32.7175 44.2106C29.6444 44.4524 26.4931 47.1432 24.5388 52.5933C24.5217 52.6397 24.507 52.6861 24.4899 52.7325C24.0282 54.0389 23.6349 55.5064 23.3296 57.1351C20.872 70.1938 17.3152 69.4075 13.177 70.4087V96.3405C13.177 96.3405 22.9436 102.701 41.849 100.912C56.7236 99.5027 59.9555 92.8781 59.9555 92.8781H34.3836L34.3811 92.8756Z" fill="white"/>
<path d="M13.1721 68.3494V98.7644C13.1721 99.6898 12.4197 100.442 11.4938 100.442H1.8396C0.83558 100.442 0.0563047 99.5653 0.173562 98.569L3.75725 68.154C3.85741 67.3092 4.57317 66.6719 5.42329 66.6719H11.4938C12.4197 66.6719 13.1721 67.4239 13.1721 68.3494Z" fill="#757ECD"/>
<path d="M34.381 82.1445C34.381 82.1445 33.1352 82.7848 31.6206 82.6284L34.381 82.1445Z" fill="white"/>
<path d="M66.6465 10.291L64.4773 13.4824H54.0877L51.9185 10.291H66.6465Z" fill="#00C5C5"/>
<path d="M71.4248 34.2422V51.6107L77.3488 48.1116H104.704V34.2422H71.4248Z" fill="white"/>
<path d="M92.2014 41.177C92.2014 42.0096 92.8781 42.6836 93.7111 42.6836C94.5441 42.6836 95.2184 42.0096 95.2184 41.177C95.2184 40.3443 94.5441 39.668 93.7111 39.668C92.8781 39.668 92.2014 40.3443 92.2014 41.177Z" fill="#FF8E2D"/>
<path d="M86.556 41.177C86.556 42.0096 87.2327 42.6836 88.0657 42.6836C88.8987 42.6836 89.573 42.0096 89.573 41.177C89.573 40.3443 88.8987 39.668 88.0657 39.668C87.2327 39.668 86.556 40.3443 86.556 41.177Z" fill="#8E8EFF"/>
<path d="M80.9081 41.177C80.9081 42.0096 81.5848 42.6836 82.4178 42.6836C83.2508 42.6836 83.925 42.0096 83.925 41.177C83.925 40.3443 83.2508 39.668 82.4178 39.668C81.5848 39.668 80.9081 40.3443 80.9081 41.177Z" fill="#FF5B5B"/>
<path d="M91.2975 14.7773V31.5085L95.5212 28.6467H109.839V14.7773H91.2975Z" fill="white"/>
<path d="M37.0683 17.0957V34.4618L31.1443 30.9627H3.78906V17.0957H37.0683Z" fill="white"/>
<path d="M16.2917 24.0305C16.2917 24.8632 15.615 25.5371 14.782 25.5371C13.949 25.5371 13.2748 24.8632 13.2748 24.0305C13.2748 23.1979 13.949 22.5215 14.782 22.5215C15.615 22.5215 16.2917 23.1979 16.2917 24.0305Z" fill="#FF8E2D"/>
<path d="M21.9372 24.0305C21.9372 24.8632 21.2606 25.5371 20.4275 25.5371C19.5945 25.5371 18.9203 24.8632 18.9203 24.0305C18.9203 23.1979 19.5945 22.5215 20.4275 22.5215C21.2606 22.5215 21.9372 23.1979 21.9372 24.0305Z" fill="#8E8EFF"/>
<path d="M27.5826 24.0305C27.5826 24.8632 26.9059 25.5371 26.0729 25.5371C25.2399 25.5371 24.5657 24.8632 24.5657 24.0305C24.5657 23.1979 25.2399 22.5215 26.0729 22.5215C26.9059 22.5215 27.5826 23.1979 27.5826 24.0305Z" fill="#FF5B5B"/>
<path d="M63.6661 87.9841C63.6661 88.7606 63.0359 89.3881 62.2615 89.3881H56.3058C55.5289 89.3881 54.9011 88.7582 54.9011 87.9841C54.9011 87.2076 55.5314 86.5801 56.3058 86.5801H62.2615C63.0383 86.5801 63.6661 87.2101 63.6661 87.9841Z" fill="#00C5C5"/>
<path d="M62.6646 37.2192C62.6646 40.2592 61.5335 43.0404 59.672 45.1575C57.4686 47.6652 54.2367 49.2475 50.6334 49.2475C47.0302 49.2475 43.7983 47.6652 41.5948 45.1575C39.7333 43.0404 38.6023 40.2617 38.6023 37.2192C38.6023 30.5751 43.9888 25.1934 50.6359 25.1934C57.2829 25.1934 62.6695 30.5751 62.6695 37.2192H62.6646Z" fill="white"/>
<path d="M59.6696 45.1584C57.4662 47.6661 54.2343 49.2484 50.631 49.2484C47.0278 49.2484 43.7959 47.6661 41.5924 45.1584C43.7959 42.6506 47.0278 41.0684 50.631 41.0684C54.2343 41.0684 57.4662 42.6506 59.6696 45.1584Z" fill="#FF8E2D"/>
<path d="M53.8922 32.9285C52.4093 31.3462 50.179 31.0336 48.9038 32.2252C48.4201 32.6794 48.1441 33.285 48.0708 33.9491C48.0488 33.9491 48.0268 33.9418 48.0024 33.9418C47.3697 33.9418 46.8567 34.4546 46.8567 35.087C46.8567 35.7194 47.3697 36.2322 48.0024 36.2322C48.0415 36.2322 48.0781 36.2249 48.1148 36.22L48.1978 41.2745L50.99 43.6797L52.3751 41.2086C52.3751 41.2086 52.38 38.6667 52.3751 38.6667C53.086 38.6569 53.7554 38.425 54.2684 37.9464C55.5435 36.7523 55.3725 34.5059 53.8922 32.9285Z" fill="white"/>
<path d="M52.6365 34.582C52.6365 34.582 54.1657 35.8127 53.02 35.9323L52.6365 34.582Z" fill="white"/>
<path d="M50.5723 38.418C51.1732 38.6501 51.7742 38.7528 52.3751 38.6697L50.5723 38.418Z" fill="white"/>
<path d="M76.4446 74.1713C81.144 69.474 81.144 61.8581 76.4446 57.1607C71.7451 52.4634 64.1259 52.4634 59.4265 57.1607C54.7271 61.8581 54.7271 69.474 59.4265 74.1713C64.1259 78.8686 71.7452 78.8686 76.4446 74.1713Z" fill="white"/>
<path d="M76.9749 73.6037C74.7715 76.1114 71.5396 77.6937 67.9363 77.6937C64.3331 77.6937 61.1012 76.1114 58.8977 73.6037C61.1012 71.096 64.3331 69.5137 67.9363 69.5137C71.5396 69.5137 74.7715 71.096 76.9749 73.6037Z" fill="#FF5B5B"/>
<path d="M64.1036 66.4005C64.6166 66.8816 65.2835 67.1135 65.9968 67.1209C65.9919 67.1209 65.9968 69.6628 65.9968 69.6628C65.9821 70.6248 69.9469 70.6908 69.9616 69.7287L70.0446 64.6742C70.0813 64.6791 70.3304 64.6864 70.3695 64.6864C71.0022 64.6864 71.5152 64.1736 71.5152 63.5412C71.5152 62.9088 71.0022 62.396 70.3695 62.396C70.3475 62.396 70.3255 62.4009 70.3011 62.4033C70.2254 61.7391 69.9518 61.1336 69.4681 60.6794C68.1929 59.4854 65.9626 59.8004 64.4798 61.3826C62.9994 62.9625 62.8308 65.2065 64.1036 66.4005Z" fill="white"/>
<path d="M65.7378 63.0352C65.7378 63.0352 64.2086 64.2658 65.3543 64.3855L65.7378 63.0352Z" fill="white"/>
<path d="M67.7995 66.873C67.1986 67.1052 66.5977 67.2078 65.9967 67.1248L67.7995 66.873Z" fill="white"/>
<path d="M105.117 21.7497C105.117 24.2599 103.079 26.2964 100.568 26.2964C98.0569 26.2964 96.0195 24.2599 96.0195 21.7497C96.0195 19.2396 98.0569 17.2031 100.568 17.2031C103.079 17.2031 105.117 19.2396 105.117 21.7497Z" fill="white"/>
<path d="M101.714 24.4764C101.394 24.7184 100.998 24.8626 100.568 24.8626C100.138 24.8626 99.7401 24.7184 99.42 24.4764C99.7401 24.2321 100.136 24.0879 100.568 24.0879C101.001 24.0879 101.396 24.2321 101.714 24.4764Z" fill="#FF5B5B"/>
<path d="M99.8866 20.005C99.8866 20.005 99.8866 20.005 99.8866 20.0075L99.4078 21.6777C99.3932 21.729 99.3394 21.7607 99.2857 21.7436L97.6148 21.265H97.6123C97.1408 21.1283 96.8672 20.635 97.0016 20.1638C97.1384 19.6901 97.6319 19.4166 98.1058 19.5509C98.1229 19.5558 98.14 19.5606 98.1571 19.568C98.162 19.5509 98.1668 19.5313 98.1717 19.5142C98.3085 19.0405 98.802 18.7671 99.2759 18.9014C99.7498 19.0356 100.023 19.5289 99.8891 20.0026L99.8866 20.005Z" fill="#FF5B5B"/>
<path d="M101.25 20.005C101.25 20.005 101.25 20.005 101.25 20.0075L101.729 21.6777C101.743 21.729 101.797 21.7607 101.851 21.7436L103.522 21.265H103.524C103.996 21.1283 104.269 20.635 104.135 20.1638C103.998 19.6901 103.505 19.4166 103.031 19.5509C103.014 19.5558 102.996 19.5606 102.979 19.568C102.974 19.5509 102.97 19.5313 102.965 19.5142C102.828 19.0405 102.334 18.7671 101.86 18.9014C101.387 19.0356 101.113 19.5289 101.247 20.0026L101.25 20.005Z" fill="#FF5B5B"/>
<path d="M8.39135 94.5066C8.39135 95.4589 7.6194 96.2305 6.66912 96.2305C5.71885 96.2305 4.94446 95.4589 4.94446 94.5066C4.94446 93.5543 5.7164 92.7852 6.66912 92.7852C7.62184 92.7852 8.39135 93.5568 8.39135 94.5066Z" fill="white"/>
<path d="M104.704 34.0833H84.3475V10.2901C84.3475 10.2022 84.2766 10.1289 84.1863 10.1289H34.3786C34.2906 10.1289 34.2174 10.1997 34.2174 10.2901V16.9321H3.78896C3.70102 16.9321 3.62773 17.0029 3.62773 17.0932V30.9626C3.62773 31.0506 3.69858 31.1238 3.78896 31.1238H31.1003L34.2174 32.9649V44.1239C33.8021 44.0385 33.2475 44.0043 32.7003 44.0482C29.251 44.3193 26.2194 47.413 24.3824 52.5359C24.3628 52.5847 24.3482 52.6336 24.3335 52.6775C23.8596 54.0181 23.4663 55.5076 23.1658 57.1045C20.7962 69.6944 17.4739 69.2549 13.3308 70.2072V68.3514C13.3308 67.3381 12.5051 66.5127 11.4913 66.5127H5.4208C4.48763 66.5127 3.70346 67.2111 3.59353 68.1365L0.0122872 98.5516C-0.117185 99.643 0.735377 100.605 1.83955 100.605H11.4938C12.5076 100.605 13.3333 99.7798 13.3333 98.7664V96.6225C14.7477 97.4405 22.2473 101.384 35.3337 101.384C37.3735 101.384 39.5501 101.289 41.8611 101.069C49.5806 100.339 54.1194 98.1804 56.5696 96.498C58.9245 94.8815 59.8431 93.4116 60.0507 93.038H84.1887C84.2766 93.038 84.3499 92.9672 84.3499 92.8768V48.2725H104.706C104.794 48.2725 104.868 48.2017 104.868 48.1114V34.242C104.868 34.1541 104.797 34.0808 104.706 34.0808L104.704 34.0833ZM66.3435 10.4537L64.3917 13.3228H54.1732L52.2238 10.4537H66.3435ZM31.1442 30.8015H3.95019V17.2544H36.907V34.1785L31.2248 30.8235C31.2004 30.8088 31.1711 30.8015 31.1442 30.8015ZM13.0108 98.7664C13.0108 99.604 12.3292 100.283 11.4938 100.283H1.83955C0.933249 100.283 0.224817 99.4916 0.332303 98.5882L3.91599 68.1732C4.00638 67.4089 4.65374 66.8326 5.42324 66.8326H11.4938C12.3317 66.8326 13.0108 67.5139 13.0108 68.349V98.7664ZM41.8293 100.749C24.0477 102.432 14.2664 96.8154 13.3333 96.2489V70.5344C17.4886 69.5625 21.0356 70.1632 23.4834 57.1631C23.7814 55.5833 24.1698 54.1084 24.6389 52.7825C24.6389 52.7825 24.6389 52.7801 24.6389 52.7776C25.2691 52.9803 25.9385 53.0951 26.6371 53.0951C31.1662 53.0951 34.298 48.5924 32.7712 44.3681C33.2842 44.329 33.8607 44.3852 34.0268 44.4145C36.7408 44.876 37.7375 48.0186 37.0731 54.0181C36.2181 61.7512 35.1994 66.1709 35.1896 66.2148C35.1798 66.2564 35.1896 66.3003 35.2092 66.3369C35.258 66.4151 40.0827 74.2142 38.2285 78.8756C37.6105 80.431 36.2987 81.481 34.3346 81.9913C34.3273 81.9913 34.3224 81.9962 34.3151 82.0011C34.3102 82.0011 34.3053 82.0011 34.3029 82.0035C34.2906 82.0084 33.0814 82.6188 31.6328 82.4699C31.5473 82.4626 31.4667 82.526 31.4569 82.614C31.4471 82.7019 31.5131 82.78 31.601 82.7898C32.4829 82.8801 33.4234 82.7214 34.2149 82.3942V92.8768C34.2149 92.9647 34.2858 93.038 34.3761 93.038H59.6696C58.9221 94.2149 54.8669 99.5161 41.8269 100.752L41.8293 100.749ZM84.025 92.7157C79.4862 92.7157 39.5233 92.7157 34.5398 92.7157V83.2537H84.025V92.7157ZM84.025 82.9338H34.5398V82.2672C36.543 81.7178 37.8841 80.6141 38.5315 78.9903C40.3807 74.3363 35.9982 66.9962 35.5194 66.2197C35.6489 65.6435 36.5943 61.2971 37.3955 54.0523C38.0453 48.1846 37.1097 44.9566 34.5398 44.2045V33.1578L36.9876 34.6034C37.0951 34.6668 37.2294 34.5887 37.2294 34.4642V17.0957C37.2294 17.0078 37.1586 16.9345 37.0682 16.9345H34.5398V10.4512H51.8353L53.9557 13.5694C53.9851 13.6133 54.0364 13.6402 54.0877 13.6402C65.0879 13.6133 64.5187 13.7037 64.6091 13.5694L66.7295 10.4512H84.025V34.0808H71.4223C71.3343 34.0808 71.261 34.1516 71.261 34.242V51.6105C71.261 51.735 71.3978 51.8107 71.5029 51.7497L77.3878 48.2725H84.0226V82.9338H84.025ZM104.54 47.9527C76.115 47.96 77.3365 47.9307 77.2632 47.9746L71.5811 51.3297V34.4056H104.538V47.9527H104.54Z" fill="#00002D"/>
<path d="M93.711 42.8438C94.6319 42.8438 95.3794 42.0966 95.3794 41.176C95.3794 40.2555 94.6319 39.5059 93.711 39.5059C92.79 39.5059 92.04 40.2555 92.04 41.176C92.04 42.0966 92.79 42.8438 93.711 42.8438ZM93.711 39.8282C94.4536 39.8282 95.0594 40.4337 95.0594 41.176C95.0594 41.9184 94.456 42.5239 93.711 42.5239C92.9659 42.5239 92.3625 41.9208 92.3625 41.176C92.3625 40.4313 92.9683 39.8282 93.711 39.8282Z" fill="#00002D"/>
<path d="M88.0656 42.8438C88.9865 42.8438 89.7341 42.0966 89.7341 41.176C89.7341 40.2555 88.9865 39.5059 88.0656 39.5059C87.1446 39.5059 86.3947 40.2555 86.3947 41.176C86.3947 42.0966 87.1446 42.8438 88.0656 42.8438ZM88.0656 39.8282C88.8082 39.8282 89.414 40.4337 89.414 41.176C89.414 41.9184 88.8107 42.5239 88.0656 42.5239C87.3205 42.5239 86.7171 41.9208 86.7171 41.176C86.7171 40.4313 87.3229 39.8282 88.0656 39.8282Z" fill="#00002D"/>
<path d="M82.4176 42.8438C83.3386 42.8438 84.0861 42.0966 84.0861 41.176C84.0861 40.2555 83.3386 39.5059 82.4176 39.5059C81.4967 39.5059 80.7467 40.2555 80.7467 41.176C80.7467 42.0966 81.4967 42.8438 82.4176 42.8438ZM82.4176 39.8282C83.1603 39.8282 83.7661 40.4337 83.7661 41.176C83.7661 41.9184 83.1627 42.5239 82.4176 42.5239C81.6726 42.5239 81.0692 41.9208 81.0692 41.176C81.0692 40.4313 81.675 39.8282 82.4176 39.8282Z" fill="#00002D"/>
<path d="M109.839 14.6177H91.2975C91.2095 14.6177 91.1362 14.6885 91.1362 14.7788V31.5076C91.1362 31.5979 91.2095 31.6687 91.2975 31.6687C91.3903 31.6687 91.1362 31.8006 95.57 28.8069H109.839C109.927 28.8069 110 28.7361 110 28.6458V14.7764C110 14.6885 109.929 14.6152 109.839 14.6152V14.6177ZM109.678 28.4871C94.5782 28.4968 95.5065 28.4627 95.4308 28.5139L91.4587 31.2048V14.9376H109.678V28.4846V28.4871Z" fill="#00002D"/>
<path d="M14.7819 22.3594C13.8609 22.3594 13.1134 23.109 13.1134 24.0296C13.1134 24.9501 13.8609 25.6973 14.7819 25.6973C15.7028 25.6973 16.4528 24.9501 16.4528 24.0296C16.4528 23.109 15.7028 22.3594 14.7819 22.3594ZM14.7819 25.375C14.0393 25.375 13.4334 24.7719 13.4334 24.0271C13.4334 23.2824 14.0368 22.6792 14.7819 22.6792C15.527 22.6792 16.1303 23.2848 16.1303 24.0271C16.1303 24.7694 15.5245 25.375 14.7819 25.375Z" fill="#00002D"/>
<path d="M20.4274 22.3594C19.5064 22.3594 18.7589 23.109 18.7589 24.0296C18.7589 24.9501 19.5064 25.6973 20.4274 25.6973C21.3484 25.6973 22.0983 24.9501 22.0983 24.0296C22.0983 23.109 21.3484 22.3594 20.4274 22.3594ZM20.4274 25.375C19.6848 25.375 19.0789 24.7719 19.0789 24.0271C19.0789 23.2824 19.6823 22.6792 20.4274 22.6792C21.1725 22.6792 21.7759 23.2848 21.7759 24.0271C21.7759 24.7694 21.17 25.375 20.4274 25.375Z" fill="#00002D"/>
<path d="M26.0752 22.3594C25.1543 22.3594 24.4067 23.109 24.4067 24.0296C24.4067 24.9501 25.1543 25.6973 26.0752 25.6973C26.9962 25.6973 27.7461 24.9501 27.7461 24.0296C27.7461 23.109 26.9962 22.3594 26.0752 22.3594ZM26.0752 25.375C25.3326 25.375 24.7268 24.7719 24.7268 24.0271C24.7268 23.2824 25.3301 22.6792 26.0752 22.6792C26.8203 22.6792 27.4237 23.2848 27.4237 24.0271C27.4237 24.7694 26.8178 25.375 26.0752 25.375Z" fill="#00002D"/>
<path d="M56.3057 89.5503H62.2615C63.1238 89.5503 63.8273 88.8471 63.8273 87.9851C63.8273 87.1232 63.1238 86.4199 62.2615 86.4199H56.3057C55.4434 86.4199 54.7399 87.1232 54.7399 87.9851C54.7399 88.8471 55.4434 89.5503 56.3057 89.5503ZM56.3057 86.7398H62.2615C62.9479 86.7398 63.5073 87.299 63.5073 87.9851C63.5073 88.6713 62.9479 89.2304 62.2615 89.2304H56.3057C55.6193 89.2304 55.0599 88.6713 55.0599 87.9851C55.0599 87.299 55.6193 86.7398 56.3057 86.7398Z" fill="#00002D"/>
<path d="M50.631 49.4077C57.3366 49.4077 62.8258 43.9723 62.8258 37.2183C62.8258 30.4642 57.3562 25.0312 50.631 25.0312C43.9057 25.0312 38.4362 30.4984 38.4362 37.2183C38.4362 43.9381 43.9253 49.4077 50.631 49.4077ZM48.2785 36.2196C48.2785 36.1268 48.193 36.0486 48.1026 36.0633C48.0806 36.0657 48.0195 36.0731 48.0049 36.0731C46.9349 36.0731 46.6344 34.5762 47.6433 34.1782C47.8095 34.1123 47.9878 34.0976 48.0611 34.1098C48.0782 34.1098 48.0928 34.1074 48.1099 34.1025C49.197 34.7765 50.6188 34.3565 51.1708 33.2113C52.0454 33.5458 52.9712 33.4359 53.7188 32.9817C53.7383 33.0013 53.7578 33.0184 53.7749 33.0379C54.1047 33.3895 54.371 33.7778 54.5664 34.188C54.7838 34.6397 54.9158 35.1159 54.9524 35.592C55.0184 36.4906 54.735 37.2866 54.1585 37.8287C53.2961 38.6345 51.6741 38.6687 50.6285 38.2658C50.5455 38.234 50.4526 38.2756 50.4209 38.3586C50.3891 38.4416 50.4306 38.5344 50.5137 38.5661C51.0731 38.781 51.6325 38.8933 52.2164 38.8445C52.2164 39.262 52.2164 40.3682 52.2164 41.1666L50.9461 43.4277L48.3591 41.1984C48.3396 40.0288 48.2956 37.2891 48.2785 36.2147V36.2196ZM48.1954 41.4841L50.8875 43.8038C50.9632 43.8673 51.0805 43.8502 51.1318 43.7598L52.4704 41.3742C55.1454 41.7942 57.62 43.1176 59.4546 45.1541C57.1314 47.7302 53.8727 49.0854 50.631 49.0854C47.3893 49.0854 44.1232 47.7204 41.8073 45.1541C43.5051 43.269 45.7501 41.9968 48.193 41.4841H48.1954ZM50.6334 25.356C57.1803 25.356 62.5058 30.6791 62.5058 37.2207C62.5058 40.0459 61.4969 42.7709 59.6671 44.9148C57.7886 42.8442 55.2675 41.4963 52.5413 41.0641C52.5413 39.7187 52.5462 39.1106 52.5364 38.8274C54.8034 38.7004 55.9467 36.4149 54.8938 34.1245C54.8938 34.1245 54.8938 34.1196 54.8938 34.1172C55.7732 33.8461 56.4108 33.0306 56.4108 32.0636C56.4108 31.1748 55.8685 30.4081 55.0941 30.0809C54.8913 28.672 53.6797 27.5878 52.2139 27.5878C50.7482 27.5878 49.5048 28.7037 49.3289 30.1419C48.7719 30.1175 48.2589 30.3055 47.8583 30.6449C45.6939 29.7512 43.3048 31.3433 43.3048 33.6923C43.3048 35.0133 44.0841 36.1487 45.2054 36.6737C45.2054 36.7177 45.2005 36.7616 45.2005 36.808C45.2005 38.3097 46.5147 39.4671 48.0098 39.2791L48.0415 41.1911C45.5791 41.7283 43.3219 43.0175 41.6021 44.9148C39.7724 42.7709 38.7635 40.0459 38.7635 37.2207C38.7635 30.6791 44.089 25.356 50.6359 25.356H50.6334Z" fill="#00002D"/>
<path d="M53.2815 35.6607C53.2668 35.7144 53.1618 35.7559 53.003 35.773C52.915 35.7828 52.8515 35.8609 52.8588 35.9488C52.8686 36.0343 52.9419 36.1002 53.0347 36.0929C53.345 36.0611 53.5306 35.9464 53.5868 35.7535C53.7212 35.2969 52.9688 34.6473 52.7343 34.4593C52.6659 34.4032 52.5633 34.4154 52.5095 34.4837C52.4533 34.5521 52.4655 34.6547 52.5339 34.7084C52.9346 35.0307 53.3303 35.4922 53.279 35.6631L53.2815 35.6607Z" fill="#00002D"/>
<path d="M53.5845 34.5818C53.5845 34.7284 53.7042 34.8506 53.8532 34.8506C54.0022 34.8506 54.1219 34.7284 54.1219 34.5818C54.1219 34.4352 54.0022 34.3105 53.8532 34.3105C53.7042 34.3105 53.5845 34.4327 53.5845 34.5818Z" fill="#00002D"/>
<path d="M51.6082 35.1873C51.6082 35.3339 51.7279 35.4561 51.8769 35.4561C52.0259 35.4561 52.1456 35.3339 52.1456 35.1873C52.1456 35.0406 52.0259 34.916 51.8769 34.916C51.7279 34.916 51.6082 35.0382 51.6082 35.1873Z" fill="#00002D"/>
<path d="M47.8852 34.9004L47.5749 34.8271C47.4894 34.8051 47.4015 34.8613 47.3819 34.9468C47.3624 35.0323 47.4161 35.1203 47.5016 35.1399C47.8217 35.2132 47.8168 35.2181 47.851 35.2181C48.0415 35.2181 48.0733 34.9444 47.8876 34.9004H47.8852Z" fill="#00002D"/>
<path d="M51.166 34.7703L51.8329 34.4281C51.9111 34.3866 51.9429 34.2913 51.9038 34.2106C51.8622 34.1324 51.767 34.1007 51.6888 34.1398L51.0219 34.4819C50.9437 34.5234 50.912 34.6188 50.9511 34.6994C50.9926 34.7776 51.0879 34.8094 51.166 34.7703Z" fill="#00002D"/>
<path d="M53.2595 34.1082L53.9264 33.766C54.0046 33.7245 54.0364 33.6292 53.9973 33.5485C53.9557 33.4703 53.8605 33.4386 53.7823 33.4777L53.1154 33.8198C53.0372 33.8613 53.0055 33.9566 53.0446 34.0373C53.0861 34.1155 53.1814 34.1473 53.2595 34.1082Z" fill="#00002D"/>
<path d="M67.9363 53.4805C61.2135 53.4805 55.7439 58.9477 55.7439 65.6675C55.7439 72.3873 61.172 77.8545 67.9363 77.8545C74.7006 77.8545 80.1286 72.3482 80.1286 65.6675C80.1286 58.9867 74.659 53.4805 67.9363 53.4805ZM67.9363 53.8028C74.4832 53.8028 79.8086 59.1259 79.8086 65.6699C79.8086 68.6025 78.7362 71.286 76.9676 73.3591C75.1549 71.3617 72.7438 70.0358 70.1251 69.5573L70.1813 66.0972C70.4084 66.1534 70.6454 66.1827 70.8897 66.1827C72.5191 66.1827 73.8407 64.8641 73.8407 63.233C73.8407 62.2172 73.3277 61.3211 72.5484 60.7888C74.0459 58.1834 72.1722 54.8845 69.1333 54.8845C67.2865 54.8845 65.7377 56.1591 65.3077 57.8733C63.9275 57.5314 62.6328 58.5838 62.6328 59.961C62.6328 60.8181 63.136 61.5555 63.8616 61.9022C63.3486 62.6592 63.0872 63.5089 63.0872 64.3074C63.0872 65.1571 63.3828 65.9532 63.9886 66.5221C64.4796 66.9812 65.1123 67.24 65.8354 67.2791C65.8281 67.5648 65.8281 68.1801 65.8305 69.5402C63.1776 70.0041 60.7322 71.3373 58.9001 73.3591C57.1314 71.286 56.059 68.6001 56.059 65.6699C56.059 59.1259 61.3845 53.8028 67.9314 53.8028H67.9363ZM67.9363 77.537C64.5358 77.537 61.3478 76.0793 59.1151 73.6033C60.9008 71.623 63.285 70.3167 65.8745 69.86C66.2507 70.7928 69.7831 70.8441 70.0958 69.8796C72.6461 70.3533 74.9937 71.6474 76.755 73.6033C74.4978 76.1086 71.2976 77.537 67.9338 77.537H67.9363ZM65.6424 60.6618C66.3044 61.9144 67.6187 62.7691 69.1333 62.7691C69.5705 62.7691 69.9932 62.6958 70.3865 62.5615C70.9214 62.5713 71.3538 63.0059 71.3538 63.5456C71.3538 64.0852 70.9117 64.5296 70.3694 64.5296C70.3327 64.5296 70.0933 64.5223 70.0616 64.5198C70.0176 64.515 69.9712 64.5296 69.937 64.5613C69.9052 64.5906 69.8857 64.6346 69.8832 64.6785L69.8612 66.002L69.8002 69.7331C69.7855 70.4925 66.1456 70.3875 66.1554 69.672C66.1554 68.8711 66.153 67.7332 66.1554 67.3084C66.749 67.3572 67.306 67.2424 67.8581 67.03C67.9411 66.9983 67.9827 66.9055 67.9509 66.8224C67.9192 66.7394 67.8263 66.6979 67.7433 66.7297C67.1277 66.9665 66.5658 67.0471 66.0186 66.9714C66.0113 66.9714 66.0064 66.9714 65.9991 66.9714C65.3297 66.9616 64.6921 66.7419 64.2158 66.2901C62.689 64.8592 63.4316 61.9462 65.6448 60.6667L65.6424 60.6618Z" fill="#00002D"/>
<path d="M64.7825 64.2051C64.8387 64.398 65.0244 64.5128 65.3346 64.5445C65.4275 64.5543 65.5032 64.4859 65.5105 64.4005C65.5203 64.3126 65.4568 64.232 65.3664 64.2247C65.2076 64.2076 65.105 64.1661 65.0879 64.1123C65.0366 63.9414 65.4323 63.4824 65.833 63.1576C65.9014 63.1014 65.9136 63.0013 65.8574 62.933C65.8012 62.8646 65.7011 62.8524 65.6327 62.9085C65.3982 63.0966 64.6457 63.7461 64.7801 64.2027L64.7825 64.2051Z" fill="#00002D"/>
<path d="M64.5212 63.3037C64.6702 63.3037 64.7899 63.1816 64.7899 63.0349C64.7899 62.8883 64.6702 62.7637 64.5212 62.7637C64.3721 62.7637 64.2524 62.8859 64.2524 63.0349C64.2524 63.184 64.3721 63.3037 64.5212 63.3037Z" fill="#00002D"/>
<path d="M66.4975 63.9112C66.6465 63.9112 66.7662 63.789 66.7662 63.6424C66.7662 63.4957 66.6465 63.3711 66.4975 63.3711C66.3485 63.3711 66.2288 63.4933 66.2288 63.6424C66.2288 63.7914 66.3485 63.9112 66.4975 63.9112Z" fill="#00002D"/>
<path d="M70.5233 63.6704C70.5233 63.6704 70.5477 63.6704 70.5599 63.6655L70.8702 63.5922C70.9557 63.5727 71.0094 63.4847 70.9899 63.3992C70.9703 63.3136 70.8824 63.2599 70.7969 63.2794L70.4866 63.3527C70.4011 63.3723 70.3474 63.4602 70.3669 63.5458C70.384 63.6191 70.45 63.6704 70.5233 63.6704Z" fill="#00002D"/>
<path d="M100.568 26.4546C103.165 26.4546 105.278 24.3425 105.278 21.7468C105.278 19.1512 103.165 17.0391 100.568 17.0391C97.9714 17.0391 95.8583 19.1512 95.8583 21.7468C95.8583 24.3425 97.9714 26.4546 100.568 26.4546ZM100.568 17.3614C102.987 17.3614 104.956 19.3295 104.956 21.7468C104.956 24.1642 102.987 26.1323 100.568 26.1323C98.1497 26.1323 96.1807 24.1642 96.1807 21.7468C96.1807 19.3295 98.1497 17.3614 100.568 17.3614Z" fill="#00002D"/>
<path d="M100.568 25.0209C101.682 25.0209 102.62 24.1198 102.62 22.9698C102.62 22.8818 102.549 22.8086 102.459 22.8086H98.6725C98.5845 22.8086 98.5112 22.8794 98.5112 22.9698C98.5112 24.1101 99.4371 25.0209 100.566 25.0209H100.568ZM102.293 23.1285C102.212 24.0124 101.465 24.6985 100.568 24.6985C100.185 24.6985 99.8231 24.5765 99.5177 24.3445C99.1268 24.0466 98.885 23.6095 98.841 23.1285H102.29H102.293Z" fill="#00002D"/>
<path d="M6.66666 92.623C5.626 92.623 4.78076 93.4679 4.78076 94.5057C4.78076 95.5434 5.626 96.3907 6.66666 96.3907C7.70732 96.3907 8.55011 95.5459 8.55011 94.5057C8.55011 93.4655 7.70488 92.623 6.66666 92.623ZM6.66666 96.0684C5.80432 96.0684 5.10322 95.3676 5.10322 94.5057C5.10322 93.6437 5.80432 92.9454 6.66666 92.9454C7.52899 92.9454 8.23009 93.6462 8.23009 94.5057C8.23009 95.3652 7.52899 96.0684 6.66666 96.0684Z" fill="#00002D"/>
<path d="M42.8895 61.9141C42.8016 61.9141 42.7283 61.9849 42.7283 62.0754C42.7283 62.1658 42.7991 62.2366 42.8895 62.2366H48.7231C48.811 62.2366 48.8843 62.1658 48.8843 62.0754C48.8843 61.9849 48.8135 61.9141 48.7231 61.9141H42.8895Z" fill="#00002D"/>
<path d="M52.3752 65.3438H39.235C39.147 65.3438 39.0737 65.4146 39.0737 65.505C39.0737 65.5955 39.1446 65.6663 39.235 65.6663H52.3752C52.4631 65.6663 52.5364 65.5955 52.5364 65.505C52.5364 65.4146 52.4655 65.3438 52.3752 65.3438Z" fill="#00002D"/>
<path d="M52.3752 68.7715H39.235C39.147 68.7715 39.0737 68.8424 39.0737 68.9328C39.0737 69.0232 39.1446 69.0941 39.235 69.0941H52.3752C52.4631 69.0941 52.5364 69.0232 52.5364 68.9328C52.5364 68.8424 52.4655 68.7715 52.3752 68.7715Z" fill="#00002D"/>
<path d="M52.3752 72.1973H42.8211C42.7332 72.1973 42.6599 72.2681 42.6599 72.3586C42.6599 72.449 42.7308 72.5198 42.8211 72.5198H52.3752C52.4631 72.5198 52.5364 72.449 52.5364 72.3586C52.5364 72.2681 52.4656 72.1973 52.3752 72.1973Z" fill="#00002D"/>
<path d="M25.445 44.5486C25.5036 44.4802 25.4938 44.3801 25.4279 44.3215L17.8819 37.8434C17.8135 37.7848 17.7133 37.7945 17.6547 37.8605C17.596 37.9288 17.6058 38.029 17.6718 38.0876L25.2178 44.5656C25.2838 44.6242 25.3864 44.6169 25.445 44.5486Z" fill="#00002D"/>
<path d="M16.1914 36.3961C16.1255 36.3375 16.0229 36.3473 15.9642 36.4133C15.9056 36.4817 15.9154 36.5819 15.9813 36.6405L16.3502 36.9582C16.4162 37.0169 16.5188 37.0095 16.5774 36.9411C16.636 36.8727 16.6263 36.7725 16.5603 36.7138L16.1914 36.3961Z" fill="#00002D"/>
<path d="M27.8293 42.5852C27.9148 42.5608 27.9636 42.4729 27.9392 42.3875L26.5321 37.4209C26.5077 37.3354 26.4197 37.2866 26.3342 37.311C26.2487 37.3354 26.1999 37.4233 26.2243 37.5088L27.6314 42.4754C27.6558 42.5608 27.7438 42.6097 27.8293 42.5852Z" fill="#00002D"/>
<path d="M26.0508 36.3078C26.1363 36.2834 26.1852 36.1954 26.1607 36.1099L26.0288 35.6456C26.0044 35.56 25.9164 35.5112 25.8309 35.5356C25.7454 35.56 25.6966 35.648 25.721 35.7335L25.8529 36.1978C25.8774 36.2834 25.9653 36.3323 26.0508 36.3078Z" fill="#00002D"/>
<path d="M18.1555 46.6956C18.07 46.6907 17.9894 46.7567 17.9845 46.8446C17.9796 46.9326 18.0456 47.0108 18.1335 47.0157L23.4639 47.3554C23.5543 47.3603 23.63 47.2918 23.6349 47.2063C23.6398 47.1183 23.5738 47.0401 23.4859 47.0352L18.1555 46.6956Z" fill="#00002D"/>
<path d="M16.2744 46.736C16.2695 46.824 16.3355 46.9022 16.4234 46.9071C16.4332 46.9071 16.785 46.9291 16.7948 46.9291C16.8778 46.9291 16.9487 46.8631 16.956 46.7776C16.9609 46.6896 16.8949 46.6114 16.807 46.6065L16.4479 46.5845C16.3599 46.5772 16.2818 46.6456 16.2769 46.7336L16.2744 46.736Z" fill="#00002D"/>
<path d="M100.939 99.7664C100.922 99.7664 100.908 99.7664 100.891 99.764C97.5952 99.2634 95.6898 95.6227 96.0415 92.6657C96.3713 89.8869 98.3354 87.1619 101.296 85.3745C102.464 84.6688 103.47 84.2928 104.445 84.1975C104.472 84.073 104.501 83.9485 104.535 83.8239C105.175 81.3968 106.876 79.2334 109.084 78.0393C109.24 77.9539 109.436 78.0125 109.519 78.1687C109.604 78.325 109.546 78.5204 109.389 78.6034C107.335 79.7168 105.752 81.7289 105.156 83.9875C105.139 84.0535 105.122 84.117 105.107 84.1804C106.267 84.2342 107.323 84.7421 107.931 85.5649C108.449 86.2633 108.666 87.3328 108.446 88.1117C108.305 88.6123 108.002 88.9713 107.569 89.1471C106.321 89.655 105.07 88.312 104.618 87.2449C104.323 86.549 104.228 85.7505 104.333 84.8593C103.507 84.9716 102.637 85.3159 101.626 85.9263C98.8337 87.6136 96.9845 90.1604 96.6767 92.7438C96.3591 95.4078 98.052 98.6872 100.983 99.1316C101.159 99.1584 101.279 99.322 101.252 99.4978C101.228 99.6566 101.091 99.7713 100.935 99.7713L100.939 99.7664ZM104.987 84.8178C104.875 85.6431 104.951 86.3732 105.212 86.9934C105.569 87.8358 106.529 88.876 107.328 88.5513C107.572 88.4512 107.74 88.246 107.826 87.9384C107.992 87.345 107.814 86.4904 107.413 85.9483C106.903 85.2597 105.991 84.8422 104.985 84.8202L104.987 84.8178Z" fill="#8E8EFF"/>
<path d="M19.3214 12.5245C19.3043 12.5245 19.2872 12.5245 19.2701 12.5196C19.0942 12.4903 18.977 12.3267 19.0038 12.1509C19.3922 9.76527 20.4989 7.82404 22.1185 6.68128C23.3521 5.812 24.9009 5.50433 26.2714 5.76072C27.3438 4.78645 28.7289 4.16135 30.18 4.02705C32.1269 3.8488 34.113 4.55936 35.5005 5.92921C35.6276 6.05374 35.6276 6.25641 35.503 6.38338C35.3784 6.51035 35.1756 6.51035 35.0486 6.38582C33.793 5.14783 31.995 4.50564 30.2386 4.6668C29.066 4.77424 27.9399 5.23818 27.0213 5.96339C27.483 6.12943 27.9105 6.36873 28.2818 6.67884C29.3982 7.6116 29.9088 9.13773 29.5228 10.3904C29.3054 11.0936 28.7631 11.7211 28.0693 12.0679C27.4366 12.3853 26.7551 12.439 26.1517 12.2242C25.1843 11.8774 24.4783 10.8787 24.3928 9.73597C24.3049 8.55658 24.835 7.5237 25.2942 6.86441C25.4237 6.6764 25.5654 6.49814 25.7144 6.32478C24.6249 6.22955 23.4499 6.525 22.4849 7.20382C21.029 8.22938 19.9883 10.0681 19.6341 12.251C19.6072 12.4097 19.4729 12.5196 19.3165 12.5196L19.3214 12.5245ZM26.4717 6.46152C26.2347 6.70081 26.0198 6.95964 25.8243 7.23557C25.4237 7.80939 24.962 8.70064 25.0353 9.69201C25.1012 10.5711 25.6484 11.3646 26.3691 11.621C26.8064 11.7773 27.3096 11.7334 27.7835 11.4965C28.3234 11.2255 28.746 10.742 28.9121 10.2023C29.2248 9.189 28.7973 7.94369 27.8739 7.17208C27.4708 6.83511 26.992 6.59826 26.4717 6.45908V6.46152Z" fill="#FF5B5B"/>
<path d="M52.4874 36.9921C52.6736 37.2713 53.8834 37.5506 54.1626 36.7129" stroke="black" stroke-width="0.6" stroke-linecap="round"/>
<path d="M64.2133 65.1718C64.2133 65.451 64.7716 66.2887 66.4468 64.8926" stroke="black" stroke-width="0.6" stroke-linecap="round"/>
<path d="M66.4468 62.9398C66.819 62.8467 67.5635 62.8281 67.5635 63.4983" stroke="black" stroke-width="0.6" stroke-linecap="round"/>
<path d="M65.3301 62.3811C65.3301 62.1017 64.7717 61.8227 64.4925 62.1021" stroke="black" stroke-width="0.6" stroke-linecap="round"/>
</g>
<defs>
<clipPath id="clip0_889_9746">
<rect width="110.001" height="103" fill="white" transform="translate(-0.000732422)"/>
</clipPath>
</defs>
</svg>
