<svg width="93" height="177" viewBox="0 0 93 177" fill="none" xmlns="http://www.w3.org/2000/svg">
<path d="M84.7179 47.6894C89.0363 45.1457 91.4155 41.1795 90.032 38.8308C88.6485 36.4821 84.0262 36.6402 79.7078 39.1839C75.3894 41.7276 73.0102 45.6937 74.3937 48.0425C75.7772 50.3912 80.3995 50.2331 84.7179 47.6894Z" fill="#EFAF9E"/>
<path d="M80.6317 52.6648L84.2282 49.8366C87.1302 47.5555 87.6315 43.3534 85.3504 40.4514C83.0692 37.5495 78.8649 37.0481 75.9652 39.3293L72.3687 42.1574C69.4667 44.4386 68.9653 48.6429 71.2465 51.5426C73.5277 54.4446 77.7319 54.946 80.6317 52.6648Z" fill="#F69D85"/>
<path d="M63.795 155.657C63.795 158.856 62.9095 161.841 61.3663 164.389C58.4057 169.283 53.0359 172.554 46.8978 172.554H24.2812V128.079H63.795V155.657Z" fill="#F69D85"/>
<path d="M18.139 140.153H74.3938C77.4674 140.153 79.959 137.661 79.959 134.588L79.959 6.07523C79.959 3.00168 77.4674 0.510086 74.3938 0.510086H18.139C15.0655 0.510086 12.5739 3.00168 12.5739 6.07523L12.5739 134.588C12.5739 137.661 15.0655 140.153 18.139 140.153Z" fill="url(#paint0_linear_1553_28115)"/>
<path d="M18.1385 140.661H74.3933C77.7423 140.661 80.4663 137.937 80.4663 134.588V6.07303C80.4663 2.72397 77.7423 0 74.3933 0H18.1385C14.7894 0 12.0654 2.72397 12.0654 6.07303V134.588C12.0654 137.937 14.7894 140.661 18.1385 140.661ZM74.3954 1.01579C77.1845 1.01579 79.4527 3.28395 79.4527 6.07303V134.588C79.4527 137.377 77.1845 139.645 74.3954 139.645H18.1406C15.3516 139.645 13.0834 137.377 13.0834 134.588V6.07303C13.0834 3.28395 15.3516 1.01579 18.1406 1.01579H74.3954Z" fill="#3B2631"/>
<path d="M38.9057 8.79701H53.6303C54.0036 8.79701 54.3075 8.49314 54.3075 8.11982C54.3075 7.7465 54.0036 7.44263 53.6303 7.44263H38.9057C38.5324 7.44263 38.2285 7.7465 38.2285 8.11982C38.2285 8.49314 38.5324 8.79701 38.9057 8.79701Z" fill="#3B2631"/>
<path d="M37.109 59.1068H63.7734V38.8887H37.109V59.1068Z" fill="#382F2B"/>
<path d="M74.1396 107.574C76.8874 106.743 78.4415 103.843 77.6102 101.095L68.1208 70.3738C67.2895 67.626 64.3898 66.0719 61.6419 66.9032C58.8941 67.7345 57.34 70.6343 58.1713 73.3821L67.6607 104.103C68.492 106.851 71.3918 108.405 74.1396 107.574Z" fill="white"/>
<path d="M22.2568 107.014C19.5936 106.109 18.4193 103.185 19.6326 100.483L32.3995 71.1508C33.6128 68.4486 36.7535 66.99 39.4167 67.8929C42.0799 68.798 43.2541 71.7217 42.0408 74.4239L29.274 103.756C28.0607 106.458 24.92 107.917 22.2568 107.014Z" fill="white"/>
<path d="M32.9909 117.2C37.6336 99.5366 34.3952 93.4115 31.5215 85.8104L32.3658 73.3713C32.3658 70.2458 34.2259 67.4155 37.091 66.1762L39.7563 64.6763L40.8264 64.0773L50.4178 58.6858L59.5729 63.8472L61.025 64.6655L63.7034 66.174C66.5684 67.4177 68.4198 70.248 68.4198 73.3692L69.2208 85.1072C66.4859 96.3069 60.4737 99.9229 66.7594 118.952C67.0481 119.824 67.3194 138.766 67.582 139.645H32.0098C32.2855 138.178 32.6111 118.65 32.9952 117.2H32.9909Z" fill="#EBD7DC"/>
<path d="M39.7268 65.2428C39.7268 69.5079 44.504 72.9676 50.3948 72.9676C56.2855 72.9676 61.0584 69.5079 61.0584 65.2428C61.0584 65.0475 61.0497 64.8565 61.0236 64.6655L59.5716 63.8472L50.4165 58.6858L40.8251 64.0773L39.755 64.6763C39.7333 64.863 39.7246 65.0497 39.7246 65.2407L39.7268 65.2428Z" fill="#F69D85"/>
<path d="M31.524 84.0719H31.639L32.3662 73.3735C32.3662 70.2458 34.2241 67.4155 37.0935 66.1783L40.8267 64.0795L42.0921 63.3675V139.647H30.7188L31.524 84.074V84.0719Z" fill="white"/>
<path d="M58.7725 63.3979L59.5734 63.8472L63.7038 66.1739C66.5689 67.4154 68.4225 70.2458 68.4225 73.3691L69.1496 84.0718H69.2234L71.2354 139.645H58.7746V63.3957L58.7725 63.3979Z" fill="white"/>
<path d="M62.7178 102.571L70.6574 110.858L70.4577 107.14L62.7178 102.571Z" fill="#B1B1B1"/>
<path d="M55.3348 63.3436L50.5206 66.7534L45.6739 63.3436C45.242 62.9182 44.9902 62.2714 44.9902 61.5877V49.8952H56.0185V61.5877C56.0185 62.2714 55.7667 62.9182 55.3348 63.3436Z" fill="#F69D85"/>
<path d="M56.9102 106.701L57.175 100.733L71.65 96.8582C74.7234 96.5435 77.4213 98.8898 77.5385 101.976C77.6492 104.928 75.3463 107.409 72.3966 107.522L56.9123 106.701H56.9102Z" fill="#F69D85"/>
<path d="M56.0156 55.0045C56.0156 55.0045 52.0892 60.9278 50.4852 60.9278C48.8812 60.9278 44.9873 54.9373 44.9873 54.9373L56.0156 55.0045Z" fill="#382F2B"/>
<path d="M63.7727 38.8887C63.7727 46.2532 57.8017 52.2199 50.4415 52.2199C43.0814 52.2199 37.1104 46.2532 37.1104 38.8887C37.1104 38.3591 37.1407 37.836 37.2015 37.3238C37.2319 37.0568 37.271 36.7898 37.3187 36.5272C37.475 35.6395 37.7246 34.7778 38.0524 33.9617C38.1565 33.6904 38.2716 33.4277 38.3975 33.1695C40.5354 28.6679 45.1238 25.5554 50.4393 25.5554C51.6375 25.5554 52.7943 25.7117 53.8969 26.009C54.1552 26.0741 54.4092 26.1523 54.6566 26.2413C55.26 26.4388 55.846 26.6819 56.406 26.9662C56.673 27.0921 56.9313 27.2375 57.1831 27.3851C61.1268 29.701 63.7705 33.9856 63.7705 38.8844L63.7727 38.8887Z" fill="#382F2B"/>
<path d="M53.0902 56.9255C51.5405 58.0172 49.5653 58.0172 48.0156 56.9255C48.0156 56.9255 41.541 53.9714 41.541 49.4394V36.4794C41.541 30.9251 45.576 27.2983 50.5529 27.2983C55.5298 27.2983 59.5648 30.9251 59.5648 36.4794V49.8779C59.5648 53.6545 53.0902 56.9255 53.0902 56.9255Z" fill="#F69D85"/>
<path d="M46.7324 49.8671C46.7324 51.8118 48.3104 53.3898 50.2551 53.3898C52.1999 53.3898 53.7778 51.8118 53.7778 49.8671H46.7324Z" fill="#F17553"/>
<path d="M60.6112 39.683C58.3973 39.683 56.6045 37.888 56.6045 35.6763V30.3955C58.8184 30.3955 60.6112 32.1905 60.6112 34.4022V39.683Z" fill="#382F2B"/>
<path d="M39.9395 40.0325C42.1534 40.0325 43.9462 38.2375 43.9462 36.0258V30.745C41.7323 30.745 39.9395 32.54 39.9395 34.7517V40.0325Z" fill="#382F2B"/>
<path d="M40.7438 42.0815C39.8408 42.0815 39.1094 42.813 39.1094 43.7159V46.8848C39.1094 47.7877 39.8408 48.5192 40.7438 48.5192H41.5403V42.2877C41.3037 42.1553 41.0324 42.0793 40.7438 42.0793V42.0815Z" fill="#F69D85"/>
<path d="M60.361 42.0815C61.2639 42.0815 61.9954 42.813 61.9954 43.7159V46.8848C61.9954 47.7877 61.2639 48.5192 60.361 48.5192H59.5645V42.2877C59.801 42.1553 60.0723 42.0793 60.361 42.0793V42.0815Z" fill="#F69D85"/>
<path d="M51.0278 48.1762H50.3506C49.8601 48.1762 49.4629 47.779 49.4629 47.2885V45.7214H50.2573V46.9499C50.2573 47.1887 50.4505 47.384 50.6914 47.384H51.03V48.1784L51.0278 48.1762Z" fill="#382F2B"/>
<path d="M47.4192 43.7658C47.4192 44.3497 46.946 44.825 46.36 44.825C45.7739 44.825 45.3008 44.3519 45.3008 43.7658C45.3008 43.1798 45.7739 42.7066 46.36 42.7066C46.946 42.7066 47.4192 43.1798 47.4192 43.7658Z" fill="#382F2B"/>
<path d="M55.6282 43.7658C55.6282 44.3497 55.155 44.825 54.569 44.825C53.9829 44.825 53.5098 44.3519 53.5098 43.7658C53.5098 43.1798 53.9829 42.7066 54.569 42.7066C55.155 42.7066 55.6282 43.1798 55.6282 43.7658Z" fill="#382F2B"/>
<path d="M44.4143 43.7658C44.4143 42.9366 45.0871 42.2638 45.9163 42.2638C46.7454 42.2638 47.4182 42.9366 47.4182 43.7658H44.4121H44.4143Z" fill="#382F2B"/>
<path d="M56.6036 43.7658C56.6036 42.9366 55.9307 42.2638 55.1016 42.2638C54.2725 42.2638 53.5996 42.9366 53.5996 43.7658H56.6057H56.6036Z" fill="#382F2B"/>
<path d="M58.2752 30.7493L40.3252 38.5306C40.3252 32.3273 44.8376 27.2983 50.4028 27.2983H55.1779C56.8882 27.2983 58.2752 28.8436 58.2752 30.7515V30.7493Z" fill="#382F2B"/>
<path d="M57.6229 40.2518L52.5831 41.1178C52.5765 40.2388 53.2299 39.5203 54.0438 39.516L56.147 39.5008C56.9609 39.4943 57.6251 40.2539 57.6251 40.2539L57.6229 40.2518Z" fill="#382F2B"/>
<path d="M42.9455 40.2518L47.9854 41.1178C47.9919 40.2388 47.3386 39.5203 46.5247 39.516L44.4215 39.5008C43.6075 39.4943 42.9434 40.2539 42.9434 40.2539L42.9455 40.2518Z" fill="#382F2B"/>
<path d="M47.8486 102.48L47.8291 99.8492L56.6001 99.6777C58.0065 99.6495 59.1634 100.776 59.1743 102.182L59.196 104.928C59.2046 106.011 58.3408 106.899 57.2577 106.921L52.5087 107.014C49.9649 107.064 47.8703 105.026 47.8508 102.48H47.8486Z" fill="#F69D85"/>
<path d="M48.4026 86.6265L48.0727 83.9395L39.3278 85.0573C37.9495 85.2331 36.9728 86.4898 37.1421 87.868L37.7195 92.5737L44.4458 91.7141C46.9397 91.3951 48.7087 89.1204 48.4026 86.6243V86.6265Z" fill="#F69D85"/>
<path d="M40.1092 87.4122L43.3367 90.8004L28 106.152C25.5625 108.049 22.5737 107.504 20.8374 104.948C19.1791 102.504 19.7999 99.7233 22.2438 98.0628L40.1092 87.4101V87.4122Z" fill="#F69D85"/>
<path d="M49.5485 172.128H18.6953V177H49.5485V172.128Z" fill="#F69D85"/>
<path d="M46.2682 162.509V172.229H17.6198C7.88952 172.229 0.00195312 164.341 0.00195312 154.611V127.757H11.5164C30.7101 127.757 46.2682 143.315 46.2682 162.509Z" fill="#F69D85"/>
<path d="M11.9377 102.801V141.644H0V92.9838H1.7212C7.36231 92.9838 11.9377 97.3791 11.9377 102.801Z" fill="#F69D85"/>
<path d="M5.73443 99.0395V99.8947C5.73443 101.831 5.10934 103.504 4.1999 104.294C3.84611 104.613 3.4424 104.785 3.01915 104.785H0V88.7145C1.58446 88.7145 3.01915 89.8692 4.05882 91.7423C5.09414 93.6068 5.73443 96.1875 5.73443 99.0417V99.0395Z" fill="#EFAF9E"/>
<path d="M85.4952 109.462L89.1655 106.575C92.1261 104.247 92.6383 99.9598 90.3094 96.9993C87.9805 94.0387 83.6937 93.5265 80.7332 95.8554L77.0629 98.7422C74.1023 101.071 73.5901 105.358 75.919 108.318C78.248 111.279 82.5347 111.791 85.4952 109.462Z" fill="#F69D85"/>
<path d="M83.5724 83.4141L87.2992 80.4818C90.3075 78.116 90.8262 73.7598 88.4625 70.7537C86.0967 67.7454 81.7405 67.2266 78.7344 69.5903L75.0077 72.5226C71.9994 74.8884 71.4806 79.2446 73.8443 82.2507C76.2101 85.259 80.5663 85.7778 83.5724 83.4141Z" fill="#F69D85"/>
<path d="M84.0861 130.993L85.3434 130.004C87.6347 128.202 88.031 124.883 86.2286 122.592L85.4059 121.546C83.6035 119.255 80.2848 118.858 77.9935 120.661L76.7362 121.65C74.4449 123.452 74.0486 126.771 75.851 129.062L76.6737 130.108C78.4761 132.399 81.7948 132.796 84.0861 130.993Z" fill="#F69D85"/>
<path d="M81.8343 123.896C80.4604 122.401 78.6328 121.741 77.3262 122.153C77.4477 121.856 77.6257 121.591 77.8645 121.372C79.1103 120.228 81.4979 120.799 83.1952 122.646C84.8925 124.495 85.2593 126.919 84.0135 128.066C83.7769 128.283 83.4969 128.439 83.1908 128.534C83.7096 127.267 83.2082 125.391 81.8343 123.896Z" fill="#EFAF9E"/>
<path d="M84.5402 100.989C82.9623 99.2717 80.8678 98.5164 79.3701 98.9874C79.5112 98.6444 79.7152 98.3406 79.9865 98.091C81.4147 96.7778 84.1539 97.4333 86.103 99.5539C88.0521 101.674 88.4732 104.457 87.0428 105.77C86.7715 106.02 86.4503 106.198 86.0986 106.308C86.6955 104.854 86.1203 102.703 84.5424 100.986L84.5402 100.989Z" fill="#EFAF9E"/>
<path d="M82.8483 74.8212C81.2465 73.0761 79.1172 72.3099 77.5957 72.7896C77.739 72.4423 77.9452 72.1341 78.223 71.8802C79.675 70.5453 82.4554 71.2117 84.4349 73.3648C86.4144 75.5201 86.842 78.3461 85.3899 79.6809C85.1143 79.9349 84.7887 80.115 84.4306 80.2279C85.0362 78.7519 84.4523 76.5663 82.8505 74.8212H82.8483Z" fill="#EFAF9E"/>
<defs>
<linearGradient id="paint0_linear_1553_28115" x1="46.2686" y1="128.398" x2="46.2686" y2="8.5192" gradientUnits="userSpaceOnUse">
<stop stop-color="#F1F5FF"/>
<stop offset="1" stop-color="#B0C7F2"/>
</linearGradient>
</defs>
</svg>
