<svg width="40" height="40" viewBox="0 0 40 40" fill="none" xmlns="http://www.w3.org/2000/svg">
<path d="M40 32.0013C40 36.4191 36.4191 40 31.998 40H7.99869C3.58086 40 0 36.4191 0 32.0013V8.00197C0 3.58086 3.58086 0 7.99869 0H31.998C36.4191 0 40 3.58086 40 8.00197V32.0046V32.0013Z" fill="#3BAC37"/>
<path d="M37.1279 21.367C37.1279 24.3669 34.7056 26.7957 31.7188 26.7957H8.28404C5.29725 26.7957 2.875 24.3636 2.875 21.367V8.4877C2.875 5.48778 5.29725 3.05896 8.28404 3.05896H31.7188C34.7056 3.05896 37.1279 5.49106 37.1279 8.4877V21.367Z" fill="white"/>
<path d="M24.2156 25.8667L20.7332 25.6501V25.5582L20.0046 25.6041L19.2661 25.5582V25.6501L15.7837 25.8667L19.1085 31.279C19.1085 31.279 19.1381 31.3315 19.1972 31.407C19.358 31.6827 19.6534 31.8698 19.998 31.8698C20.3426 31.8698 20.6315 31.686 20.7956 31.4103C20.8645 31.3282 20.8875 31.2757 20.8875 31.2757L24.2123 25.8634L24.2156 25.8667Z" fill="white"/>
<path d="M10.4801 12.495C10.4801 12.495 9.54471 12.495 8.6979 13.3221V9.99725H6.60059V18.7344H8.72088V18.0517C8.72088 18.0517 9.21977 18.9543 10.4834 18.9543C10.4834 18.9543 13.4374 18.846 13.4374 15.6951C13.4374 15.6951 13.3291 12.5016 10.4834 12.5016L10.4801 12.495ZM10.0173 17.1065C9.27229 17.1065 8.67164 16.5025 8.67164 15.7575C8.67164 15.0124 9.27557 14.4085 10.0173 14.4085C10.7591 14.4085 11.3663 15.0124 11.3663 15.7575C11.3663 16.5025 10.7624 17.1065 10.0173 17.1065Z" fill="#E9722D"/>
<path d="M14.1104 9.80029V11.8221C14.1104 11.8221 15.0687 11.7795 15.0687 13.5617V18.7344H17.0906V13.0858C17.0906 13.0858 17.1759 9.80358 14.1136 9.80358L14.1104 9.80029Z" fill="#E9722D"/>
<path d="M22.0303 12.5245C22.0303 12.5245 18.5643 12.5245 18.5643 15.7607C18.5643 15.7607 18.4528 18.9543 22.0303 18.9543C22.0303 18.9543 25.5751 18.9477 25.5751 15.7607C25.5751 15.7607 25.69 12.5245 22.0303 12.5245ZM22.0303 17.1097C21.2853 17.1097 20.6814 16.5058 20.6814 15.7607C20.6814 15.0157 21.2853 14.4117 22.0303 14.4117C22.7754 14.4117 23.376 15.0157 23.376 15.7607C23.376 16.5058 22.7721 17.1097 22.0303 17.1097Z" fill="#E9722D"/>
<path d="M31.3616 12.7346V13.3222C31.3616 13.3222 30.7577 12.5246 29.6024 12.5246C29.6024 12.5246 26.6353 12.3999 26.6353 15.7378C26.6353 15.7378 26.6024 18.8494 29.5203 18.8494C29.5203 18.8494 30.7117 18.8986 31.3616 18.0518V18.5408C31.3616 18.5408 31.5093 20.0736 30.0258 20.0736H29.5203V21.9313H30.3343C30.3343 21.9313 33.3966 21.9642 33.3966 18.6557V12.7379H31.3583L31.3616 12.7346ZM30.1078 17.1065C29.3628 17.1065 28.7588 16.5026 28.7588 15.7575C28.7588 15.0125 29.3628 14.4086 30.1078 14.4086C30.8529 14.4086 31.4535 15.0125 31.4535 15.7575C31.4535 16.5026 30.8496 17.1065 30.1078 17.1065Z" fill="#E9722D"/>
</svg>
