<svg width="40" height="40" viewBox="0 0 40 40" fill="none" xmlns="http://www.w3.org/2000/svg">
<path d="M20.0065 0C11.6567 0 9.21471 0.00861611 8.74003 0.0480041C7.02651 0.190478 5.96025 0.460347 4.79862 1.03886C3.9034 1.48351 3.19738 1.99894 2.50059 2.72146C1.2316 4.03911 0.462511 5.66017 0.184102 7.5871C0.048743 8.52257 0.00936576 8.71335 0.00136726 13.4916C-0.00170908 15.0844 0.00136726 17.1805 0.00136726 19.9922C0.00136726 28.3375 0.0105963 30.7777 0.0505888 31.2516C0.189024 32.9194 0.450514 33.9687 1.00426 35.1165C2.06252 37.3136 4.08368 38.963 6.46477 39.5784C7.28923 39.7908 8.19983 39.9077 9.36884 39.9631C9.86413 39.9846 14.9124 40 19.9638 40C25.0151 40 30.0665 39.9938 30.5495 39.9692C31.9031 39.9055 32.6891 39.8 33.5581 39.5753C34.7388 39.2725 35.8391 38.7155 36.7822 37.9432C37.7254 37.171 38.4886 36.2021 39.0187 35.1042C39.5616 33.9841 39.837 32.8948 39.9616 31.314C39.9886 30.9694 40 25.4745 40 19.9869C40 14.4985 39.9877 9.01369 39.9606 8.66904C39.8345 7.06275 39.5592 5.98266 38.9986 4.84102C38.5387 3.90648 38.0281 3.20858 37.2867 2.49498C35.9638 1.23087 34.3457 0.461578 32.4171 0.1834C31.4828 0.0483118 31.2967 0.0083084 26.5161 0H20.0065Z" fill="url(#paint0_radial_2107_37501)"/>
<path d="M20.0065 0C11.6567 0 9.21471 0.00861611 8.74003 0.0480041C7.02651 0.190478 5.96025 0.460347 4.79862 1.03886C3.9034 1.48351 3.19738 1.99894 2.50059 2.72146C1.2316 4.03911 0.462511 5.66017 0.184102 7.5871C0.048743 8.52257 0.00936576 8.71335 0.00136726 13.4916C-0.00170908 15.0844 0.00136726 17.1805 0.00136726 19.9922C0.00136726 28.3375 0.0105963 30.7777 0.0505888 31.2516C0.189024 32.9194 0.450514 33.9687 1.00426 35.1165C2.06252 37.3136 4.08368 38.963 6.46477 39.5784C7.28923 39.7908 8.19983 39.9077 9.36884 39.9631C9.86413 39.9846 14.9124 40 19.9638 40C25.0151 40 30.0665 39.9938 30.5495 39.9692C31.9031 39.9055 32.6891 39.8 33.5581 39.5753C34.7388 39.2725 35.8391 38.7155 36.7822 37.9432C37.7254 37.171 38.4886 36.2021 39.0187 35.1042C39.5616 33.9841 39.837 32.8948 39.9616 31.314C39.9886 30.9694 40 25.4745 40 19.9869C40 14.4985 39.9877 9.01369 39.9606 8.66904C39.8345 7.06275 39.5592 5.98266 38.9986 4.84102C38.5387 3.90648 38.0281 3.20858 37.2867 2.49498C35.9638 1.23087 34.3457 0.461578 32.4171 0.1834C31.4828 0.0483118 31.2967 0.0083084 26.5161 0H20.0065Z" fill="url(#paint1_radial_2107_37501)"/>
<path d="M20.0011 4.99976C15.9273 4.99976 15.416 5.01757 13.816 5.09038C12.2191 5.16351 11.1291 5.41632 10.1754 5.78726C9.18879 6.17039 8.35191 6.6829 7.51815 7.51697C6.68377 8.35073 6.17126 9.18761 5.78688 10.1739C5.415 11.1279 5.16188 12.2183 5.09 13.8145C5.01875 15.4146 5 15.9261 5 19.9999C5 24.0737 5.01813 24.5834 5.09063 26.1834C5.16406 27.7803 5.41688 28.8703 5.78751 29.8241C6.17095 30.8107 6.68346 31.6475 7.51753 32.4813C8.35097 33.3157 9.18786 33.8294 10.1738 34.2126C11.1282 34.5835 12.2185 34.8363 13.8151 34.9094C15.4151 34.9823 15.9261 35.0001 19.9995 35.0001C24.0736 35.0001 24.5833 34.9823 26.1833 34.9094C27.7802 34.8363 28.8715 34.5835 29.8259 34.2126C30.8121 33.8294 31.6478 33.3157 32.4812 32.4813C33.3156 31.6475 33.8281 30.8107 34.2125 29.8244C34.5812 28.8703 34.8344 27.78 34.9094 26.1837C34.9812 24.5837 35 24.0737 35 19.9999C35 15.9261 34.9812 15.4149 34.9094 13.8148C34.8344 12.218 34.5812 11.1279 34.2125 10.1742C33.8281 9.18761 33.3156 8.35073 32.4812 7.51697C31.6468 6.68259 30.8125 6.17008 29.8249 5.78726C28.8687 5.41632 27.7781 5.16351 26.1812 5.09038C24.5811 5.01757 24.0718 4.99976 19.9967 4.99976H20.0011ZM18.6555 7.70291C19.0548 7.70228 19.5005 7.70291 20.0011 7.70291C24.0061 7.70291 24.4808 7.71728 26.0624 7.78916C27.5249 7.85604 28.3187 8.10041 28.8474 8.30573C29.5474 8.57761 30.0465 8.90261 30.5712 9.42762C31.0962 9.95262 31.4212 10.4526 31.6937 11.1526C31.899 11.6808 32.1437 12.4745 32.2103 13.937C32.2822 15.5183 32.2978 15.9933 32.2978 19.9965C32.2978 23.9996 32.2822 24.4746 32.2103 26.0559C32.1434 27.5184 31.899 28.3122 31.6937 28.8403C31.4218 29.5403 31.0962 30.0388 30.5712 30.5635C30.0462 31.0885 29.5478 31.4135 28.8474 31.6854C28.3193 31.8916 27.5249 32.1354 26.0624 32.2022C24.4811 32.2741 24.0061 32.2897 20.0011 32.2897C15.9957 32.2897 15.521 32.2741 13.9398 32.2022C12.4773 32.1347 11.6835 31.8904 11.1544 31.685C10.4544 31.4132 9.95443 31.0882 9.42942 30.5632C8.90442 30.0381 8.57941 29.5394 8.30691 28.8391C8.10159 28.3109 7.8569 27.5172 7.79034 26.0547C7.71847 24.4734 7.70409 23.9984 7.70409 19.9927C7.70409 15.9871 7.71847 15.5146 7.79034 13.9333C7.85722 12.4708 8.10159 11.677 8.30691 11.1483C8.57879 10.4483 8.90442 9.94825 9.42942 9.42324C9.95443 8.89823 10.4544 8.57323 11.1544 8.30073C11.6832 8.09448 12.4773 7.85072 13.9398 7.78354C15.3235 7.72103 15.8598 7.70228 18.6555 7.69916V7.70291ZM28.0081 10.1936C27.652 10.1936 27.304 10.2991 27.0079 10.497C26.7119 10.6948 26.4812 10.9759 26.345 11.3049C26.2088 11.6338 26.1732 11.9958 26.2427 12.345C26.3122 12.6942 26.4837 13.0149 26.7355 13.2666C26.9873 13.5183 27.3081 13.6897 27.6573 13.7591C28.0065 13.8285 28.3684 13.7927 28.6973 13.6564C29.0262 13.5201 29.3073 13.2893 29.505 12.9932C29.7027 12.6971 29.8082 12.349 29.8081 11.993C29.8081 10.9992 29.0018 10.1929 28.0081 10.1929V10.1936ZM20.0011 12.2967C15.747 12.2967 12.2979 15.7458 12.2979 19.9999C12.2979 24.254 15.747 27.7016 20.0011 27.7016C24.2552 27.7016 27.7034 24.254 27.7034 19.9999C27.7034 15.7458 24.2549 12.2967 20.0008 12.2967H20.0011ZM20.0011 14.9999C22.7624 14.9999 25.0011 17.2383 25.0011 19.9999C25.0011 22.7612 22.7624 25 20.0011 25C17.2395 25 15.001 22.7612 15.001 19.9999C15.001 17.2383 17.2395 14.9999 20.0011 14.9999Z" fill="white"/>
<defs>
<radialGradient id="paint0_radial_2107_37501" cx="0" cy="0" r="1" gradientUnits="userSpaceOnUse" gradientTransform="translate(10.6251 43.0808) rotate(-90) scale(39.643 36.8711)">
<stop stop-color="#FFDD55"/>
<stop offset="0.1" stop-color="#FFDD55"/>
<stop offset="0.5" stop-color="#FF543E"/>
<stop offset="1" stop-color="#C837AB"/>
</radialGradient>
<radialGradient id="paint1_radial_2107_37501" cx="0" cy="0" r="1" gradientUnits="userSpaceOnUse" gradientTransform="translate(-6.70021 2.88153) rotate(78.6806) scale(17.7206 73.0449)">
<stop stop-color="#3771C8"/>
<stop offset="0.128" stop-color="#3771C8"/>
<stop offset="1" stop-color="#6600FF" stop-opacity="0"/>
</radialGradient>
</defs>
</svg>
