<svg width="24" height="24" viewBox="0 0 24 24" fill="none" xmlns="http://www.w3.org/2000/svg">
<circle cx="12" cy="12" r="12" fill="#FEE500"/>
<path d="M12.0347 5.79102C8.30125 5.79102 5.29041 8.19967 5.29041 11.1238C5.29041 13.0218 6.54292 14.6838 8.42169 15.6328L7.7858 18.0078C7.77381 18.0434 7.77196 18.0816 7.78047 18.1182C7.78898 18.1548 7.8075 18.1883 7.83397 18.2149C7.87256 18.249 7.92222 18.2678 7.97367 18.2679C8.01634 18.2645 8.05681 18.2476 8.08929 18.2198L10.8255 16.3747C11.2295 16.4305 11.6366 16.4594 12.0443 16.4614C15.773 16.4614 18.7886 14.0528 18.7886 11.1238C18.7886 8.19485 15.7633 5.79102 12.0347 5.79102Z" fill="#392020"/>
<path d="M7.65068 10.2801H6.91362C6.82227 10.2827 6.73205 10.2593 6.65349 10.2126C6.61861 10.1908 6.58862 10.1619 6.56541 10.1279C6.5422 10.0939 6.52626 10.0555 6.5186 10.0151C6.51626 9.98945 6.51626 9.96369 6.5186 9.93805C6.51631 9.89008 6.52562 9.84223 6.54575 9.79862C6.56588 9.75502 6.59622 9.71692 6.63422 9.68754C6.7182 9.62672 6.81957 9.59459 6.92326 9.59598H9.14406C9.23614 9.59274 9.32698 9.61799 9.4042 9.66825C9.4399 9.68914 9.47052 9.71772 9.49384 9.75187C9.51717 9.78603 9.53262 9.82493 9.53908 9.86578C9.54143 9.88981 9.54143 9.91402 9.53908 9.93805C9.54135 9.98672 9.53206 10.0352 9.51197 10.0796C9.49187 10.124 9.46154 10.1629 9.42347 10.1933C9.34153 10.2541 9.24114 10.2847 9.13924 10.2801H8.42627V12.814C8.42917 12.868 8.42081 12.922 8.40174 12.9725C8.38267 13.0231 8.35329 13.0692 8.31547 13.1079C8.27921 13.1448 8.23562 13.1737 8.1875 13.1928C8.13938 13.2119 8.08779 13.2207 8.03607 13.2186C7.94559 13.2212 7.85704 13.1923 7.78556 13.1368C7.71752 13.0825 7.67133 13.0055 7.6555 12.92C7.65074 12.8848 7.65074 12.8492 7.6555 12.814L7.65068 10.2801Z" fill="#FEE500"/>
<path d="M9.75174 9.78416C9.77293 9.70489 9.82269 9.63624 9.89144 9.59145C9.96471 9.54993 10.0482 9.5299 10.1323 9.53365H10.3154C10.4046 9.53045 10.493 9.55213 10.5707 9.59628C10.653 9.65161 10.7114 9.73587 10.7345 9.83232L11.698 12.5541C11.7229 12.6252 11.7438 12.6976 11.7606 12.771C11.7622 12.8014 11.7622 12.832 11.7606 12.8625C11.7622 12.9094 11.7536 12.9561 11.7353 12.9994C11.717 13.0427 11.6894 13.0814 11.6546 13.113C11.6208 13.1476 11.5803 13.1748 11.5356 13.1931C11.4908 13.2113 11.4428 13.2201 11.3945 13.2189C11.3202 13.2263 11.2455 13.2085 11.1826 13.1683C11.1197 13.1281 11.0721 13.0679 11.0476 12.9974L10.8453 12.4048H9.57832L9.37599 12.9974C9.35206 13.0693 9.30393 13.1307 9.2398 13.1711C9.17568 13.2115 9.09952 13.2284 9.02432 13.2189C8.94286 13.2211 8.86307 13.1956 8.7979 13.1467C8.73442 13.0962 8.69158 13.0243 8.67747 12.9444C8.67491 12.9171 8.67491 12.8897 8.67747 12.8625C8.6692 12.8146 8.6692 12.7658 8.67747 12.718C8.67747 12.665 8.71119 12.6071 8.73046 12.5541L9.75174 9.78416ZM10.2335 10.4153L9.77583 11.8605H10.6863L10.2335 10.4153Z" fill="#FEE500"/>
<path d="M11.8709 9.9383C11.866 9.8302 11.9041 9.72455 11.9769 9.64445C12.0139 9.60714 12.0583 9.57798 12.1072 9.55889C12.1562 9.53981 12.2086 9.53117 12.2611 9.5336C12.3514 9.53255 12.4394 9.56136 12.5116 9.61552C12.5785 9.67203 12.623 9.75063 12.6369 9.8371C12.6416 9.87066 12.6416 9.90475 12.6369 9.9383V12.4722H13.9616C14.0535 12.471 14.1437 12.4961 14.2218 12.5445C14.2568 12.5661 14.287 12.5949 14.3102 12.6289C14.3335 12.6629 14.3493 12.7014 14.3567 12.742C14.3567 12.742 14.3567 12.7902 14.3567 12.8143C14.3589 12.8622 14.3496 12.91 14.3295 12.9536C14.3094 12.9972 14.279 13.0354 14.241 13.0648C14.1571 13.1256 14.0557 13.1577 13.952 13.1563H12.3237C12.22 13.1629 12.1169 13.1359 12.0299 13.0792C11.952 13.021 11.9001 12.9345 11.8854 12.8384C11.8818 12.7854 11.8818 12.7323 11.8854 12.6794L11.8709 9.9383Z" fill="#FEE500"/>
<path d="M14.4435 9.93796C14.4406 9.83017 14.4784 9.72525 14.5495 9.64411C14.6217 9.5785 14.7143 9.53976 14.8117 9.5345C14.9091 9.52923 15.0053 9.55774 15.0842 9.61518C15.1526 9.67119 15.1987 9.74975 15.2143 9.83676C15.2166 9.87044 15.2166 9.90428 15.2143 9.93796V11.1182L16.4331 9.7115C16.48 9.66351 16.5299 9.61851 16.5824 9.57666C16.6319 9.5472 16.6886 9.53213 16.7462 9.53326C16.8304 9.5328 16.9127 9.55802 16.9822 9.60553C17.015 9.62759 17.043 9.65605 17.0645 9.68916C17.086 9.72226 17.1006 9.75935 17.1075 9.79824C17.1094 9.80778 17.1094 9.81764 17.1075 9.82717C17.1051 9.83829 17.1051 9.84975 17.1075 9.86087C17.1073 9.91156 17.094 9.96137 17.0689 10.0054C17.0434 10.052 17.0127 10.0956 16.9774 10.1354L16.1777 11.0122L17.1412 12.5056V12.5538C17.1912 12.6228 17.2302 12.6992 17.2568 12.7802V12.8043C17.2624 12.8601 17.2543 12.9164 17.2334 12.9685C17.2124 13.0205 17.1791 13.0666 17.1364 13.1029C17.056 13.1637 16.9577 13.1959 16.857 13.1945C16.7901 13.1973 16.7236 13.1823 16.6643 13.1511C16.6001 13.1081 16.5473 13.0503 16.5101 12.9825L15.6141 11.5373L15.1854 11.9853V12.7898C15.1882 12.8976 15.1504 13.0025 15.0794 13.0837C15.0413 13.1209 14.996 13.1499 14.9463 13.169C14.8966 13.188 14.8435 13.1967 14.7903 13.1945C14.7014 13.1964 14.6146 13.1674 14.5446 13.1126C14.4766 13.0583 14.4304 12.9814 14.4146 12.8958C14.4098 12.8607 14.4098 12.825 14.4146 12.7898L14.4435 9.93796Z" fill="#FEE500"/>
</svg>
