<svg width="40" height="40" viewBox="0 0 40 40" fill="none" xmlns="http://www.w3.org/2000/svg">
<circle cx="20" cy="20" r="20" fill="#FEE500"/>
<path d="M20.0001 8.60223C13.689 8.60223 8.56982 13.337 8.56982 19.1752C8.56982 23.4868 10.3758 25.5471 12.851 27.4222L12.8621 27.4278V32.4888C12.8621 32.7295 13.1359 32.865 13.3267 32.7212L17.6604 29.502L17.7544 29.5435C18.4818 29.6762 19.2313 29.7481 20.0001 29.7481C26.3112 29.7481 31.4304 25.0134 31.4304 19.1752C31.4304 13.337 26.314 8.60223 20.0001 8.60223Z" fill="#FDDB00"/>
<path d="M20 8C13.3736 8 8 12.9698 8 19.0984C8 23.6257 9.89721 25.7884 12.4941 27.7575L12.5052 27.7631V33.0758C12.5052 33.3275 12.7928 33.4713 12.9919 33.3192L17.5414 29.9396L17.6409 29.9811C18.4042 30.1221 19.1924 30.1968 20 30.1968C26.6264 30.1968 32 25.227 32 19.0956C32 12.9643 26.6292 8 20 8ZM15.9788 21.911C17.1542 21.911 18.1609 21.2058 18.4651 20.1189H20.2047C19.7788 22.2125 18.1498 23.5842 15.9788 23.5842C13.4566 23.5842 11.457 21.7036 11.457 19.0846C11.457 16.4655 13.4566 14.5849 15.9788 14.5849C18.1719 14.5849 19.8119 15.9843 20.2157 18.1138H18.4817C18.2189 16.9551 17.1763 16.2332 15.9788 16.2332C14.2835 16.2332 13.1551 17.4418 13.1551 19.0818C13.1551 20.7218 14.4383 21.9083 15.9788 21.9083M27.4423 23.41H25.8465V19.8119C25.8465 18.985 25.3653 18.5398 24.6241 18.5398C23.7972 18.5398 23.2634 19.0459 23.2634 20.0719V23.41H21.6677V14.6126H23.2634V17.923C23.6451 17.3422 24.2646 17.0574 25.1053 17.0574C25.7857 17.0574 26.3416 17.2786 26.773 17.7377C27.2183 18.1941 27.4423 18.8135 27.4423 19.6156V23.41Z" fill="#020303"/>
</svg>
